<svg xmlns="http://www.w3.org/2000/svg" width="151.159" height="156.5" viewBox="0 0 151.159 156.5">
  <g id="Group_14459" data-name="Group 14459" transform="translate(0 0)">
    <g id="Group_14591" data-name="Group 14591" transform="translate(0 0)">
      <path id="Path_1664" data-name="Path 1664" d="M149.662,229.9l-134.746-.26a2.583,2.583,0,0,1-2.435-2.844l6.1-104.295a2.547,2.547,0,0,1,2.435-2.5l134.936-.252a2.975,2.975,0,0,1,2.635,3.1l-6.1,104.295a3.161,3.161,0,0,1-2.825,2.764" transform="translate(-8.167 -78.39)" fill="#fff"/>
      <path id="Path_1665" data-name="Path 1665" d="M149.3,229.723h0l-134.746-.26a2.508,2.508,0,0,1-1.857-.837,3.023,3.023,0,0,1-.768-2.215l6.1-104.295a2.745,2.745,0,0,1,2.625-2.688l134.936-.253a2.7,2.7,0,0,1,1.934.937,3.31,3.31,0,0,1,.892,2.368l-6.1,104.295a3.331,3.331,0,0,1-3.016,2.948m6.287-110.156-134.936.252a2.359,2.359,0,0,0-2.245,2.32l-6.1,104.295a2.624,2.624,0,0,0,.665,1.923,2.134,2.134,0,0,0,1.579.714l134.747.26a2.955,2.955,0,0,0,2.634-2.58l6.1-104.295a2.908,2.908,0,0,0-.789-2.076,2.319,2.319,0,0,0-1.656-.814" transform="translate(-7.805 -78.018)" fill="#232426"/>
      <path id="Path_1666" data-name="Path 1666" d="M138.13,230.43,2.993,231.435c-1.409,0-2.525-2.316-2.435-3.865l6.1-105.409c.082-1.416,3.437-2.6,4.724-2.6l133.051-.381c1.408,0,2.321,1.773,2.231,3.322l-6.1,105.409c-.082,1.416-.6,2.518-1.891,2.518" transform="translate(-0.362 -78.323)" fill="#fff"/>
      <path id="Path_1667" data-name="Path 1667" d="M162.2,438.536H140.613a.2.2,0,0,1,0-.392H162.2a.2.2,0,0,1,0,.392" transform="translate(-91.927 -286.831)" fill="#232426"/>
      <path id="Path_1668" data-name="Path 1668" d="M281.739,438.536H231.8a.2.2,0,0,1,0-.392h49.941a.2.2,0,0,1,0,.392" transform="translate(-152.622 -286.831)" fill="#232426"/>
      <path id="Path_1669" data-name="Path 1669" d="M400.9,142.327h-.011a.194.194,0,0,1-.179-.207L401.87,122.1a2.624,2.624,0,0,0-.665-1.923,2.134,2.134,0,0,0-1.579-.714h-8.75a.2.2,0,0,1,0-.392h8.75a2.508,2.508,0,0,1,1.857.837,3.024,3.024,0,0,1,.768,2.215l-1.165,20.018a.193.193,0,0,1-.19.184" transform="translate(-253.768 -77.951)" fill="#232426"/>
      <path id="Path_1670" data-name="Path 1670" d="M37.126,229.656H2.63a2.508,2.508,0,0,1-1.857-.837A3.022,3.022,0,0,1,0,226.6L6.1,121.762a2.745,2.745,0,0,1,2.625-2.688h93.09a.2.2,0,0,1,0,.392H8.727a2.359,2.359,0,0,0-2.244,2.32L.386,226.628a2.624,2.624,0,0,0,.665,1.923,2.134,2.134,0,0,0,1.579.714h34.5a.2.2,0,0,1,0,.392" transform="translate(0 -77.952)" fill="#232426"/>
      <path id="Path_1671" data-name="Path 1671" d="M141.869,233.475H12.255A2.392,2.392,0,0,1,10,230.841l5.647-97.1A2.359,2.359,0,0,1,17.9,131.42H147.515a2.392,2.392,0,0,1,2.255,2.634l-5.646,97.1a2.359,2.359,0,0,1-2.255,2.319" transform="translate(-6.544 -86.034)" fill="#fff"/>
      <path id="Path_1672" data-name="Path 1672" d="M141.507,233.3H11.893a2.335,2.335,0,0,1-1.73-.78,2.814,2.814,0,0,1-.716-2.062l5.646-97.1a2.557,2.557,0,0,1,2.446-2.5H147.154a2.336,2.336,0,0,1,1.73.78,2.813,2.813,0,0,1,.715,2.062l-5.646,97.1a2.556,2.556,0,0,1-2.446,2.5M17.54,131.244a2.171,2.171,0,0,0-2.065,2.135l-5.646,97.1a2.415,2.415,0,0,0,.612,1.771,1.962,1.962,0,0,0,1.452.657H141.507a2.171,2.171,0,0,0,2.064-2.135l5.646-97.1a2.412,2.412,0,0,0-.612-1.77,1.961,1.961,0,0,0-1.452-.657Z" transform="translate(-6.182 -85.662)" fill="#232426"/>
      <path id="Path_1673" data-name="Path 1673" d="M122.183,150.934h27.665l.266-4.558H122.451l.877-14.957H116.08l-.877,14.957H60.646L61.5,131.42H56.936l-.7,12.328a8.118,8.118,0,0,1-1.76,4.612l-13.6,16.972,1.955-33.912H35.583l-2.1,36.455H14.716l-.411,7.153H31.73a1.28,1.28,0,0,1,1.259,1.369l-.944,16.366a7.4,7.4,0,0,0,1.007,4.178l2.44,4.139h-10.4a2.643,2.643,0,0,0-2.61,2.523l-.712,12.511H11.914l-.3,4.558h9.9l-.729,12.8h4.562l.729-12.8h20.95l7.535,12.8h7.248l-7.535-12.8h47.917l-10.258,12.8h7.248l9.254-11.55a3.315,3.315,0,0,1,2.586-1.253h34.76l.281-4.558H113.086l4.378-5.464a6.535,6.535,0,0,0,1.417-3.7Zm-7.248,0-1.456,24.842H58.973l1.414-24.842Zm-74.491,46.25a8.325,8.325,0,0,1-1.134-4.705l.873-15.135a7.223,7.223,0,0,1,1.573-4.109l13.776-17.15-2.386,41.93a3.21,3.21,0,0,1-3.169,3.065H42.74Zm-14.112,18.93.519-9.123a1.418,1.418,0,0,1,1.4-1.354h9.923l6.166,10.477Zm23.826-2.43-4.736-8.048h7.426a4.75,4.75,0,0,0,4.691-4.557h-.007l1.181-20.747h54.5l-1.525,26a8.376,8.376,0,0,1-1.816,4.746l-4.032,5.032H54.357a4.88,4.88,0,0,1-4.2-2.43" transform="translate(-7.603 -86.034)" fill="#fff"/>
      <path id="Path_1674" data-name="Path 1674" d="M98.815,233.3H91.567a.191.191,0,0,1-.173-.112.2.2,0,0,1,.025-.208l10-12.483H54.247L61.607,233a.2.2,0,0,1,0,.2.19.19,0,0,1-.166.1H54.2a.191.191,0,0,1-.163-.095L46.553,220.5H25.891l-.718,12.619a.193.193,0,0,1-.191.184H20.42a.19.19,0,0,1-.139-.061.2.2,0,0,1-.051-.146l.717-12.6H11.252a.189.189,0,0,1-.14-.062.2.2,0,0,1-.051-.147l.3-4.557a.193.193,0,0,1,.19-.183h9.675l.7-12.327a2.838,2.838,0,0,1,2.8-2.708H34.791l-2.264-3.842a7.565,7.565,0,0,1-1.034-4.291l.944-16.366a1.1,1.1,0,0,0-.29-.817,1.048,1.048,0,0,0-.779-.345H13.943a.188.188,0,0,1-.139-.061.2.2,0,0,1-.052-.146l.411-7.153a.193.193,0,0,1,.191-.184H32.938l2.091-36.271a.193.193,0,0,1,.191-.184h7.248a.189.189,0,0,1,.139.062.2.2,0,0,1,.051.145L40.738,164.37l13.226-16.507a7.867,7.867,0,0,0,1.717-4.5l.7-12.328a.194.194,0,0,1,.191-.184h4.562a.19.19,0,0,1,.139.061.2.2,0,0,1,.051.146l-.84,14.75H114.66l.866-14.772a.193.193,0,0,1,.19-.184h7.248a.188.188,0,0,1,.139.062.2.2,0,0,1,.052.146l-.865,14.749h27.461a.188.188,0,0,1,.139.062.2.2,0,0,1,.052.146l-.266,4.558a.193.193,0,0,1-.191.184H122L118.71,206.59a6.693,6.693,0,0,1-1.46,3.813l-4.122,5.144H145.7a.19.19,0,0,1,.14.062.2.2,0,0,1,.051.146l-.281,4.557a.193.193,0,0,1-.191.183h-34.76a3.116,3.116,0,0,0-2.439,1.181l-9.254,11.55a.189.189,0,0,1-.147.072m-6.844-.392h6.753l9.2-11.478a3.491,3.491,0,0,1,2.733-1.324h34.581l.257-4.166H112.724a.191.191,0,0,1-.173-.112.2.2,0,0,1,.025-.208l4.378-5.464a6.3,6.3,0,0,0,1.374-3.588l3.3-56.015a.193.193,0,0,1,.191-.184h27.484l.244-4.166H122.088a.189.189,0,0,1-.139-.061.2.2,0,0,1-.051-.146l.865-14.749H115.9l-.866,14.773a.193.193,0,0,1-.191.184H60.284a.188.188,0,0,1-.139-.061.2.2,0,0,1-.052-.146l.84-14.75h-4.18l-.691,12.144a8.265,8.265,0,0,1-1.8,4.725l-13.6,16.972a.188.188,0,0,1-.217.058.2.2,0,0,1-.121-.194l1.944-33.705H35.4l-2.091,36.271a.193.193,0,0,1-.191.184H14.534l-.388,6.761H31.368a1.422,1.422,0,0,1,1.057.468,1.5,1.5,0,0,1,.393,1.109L31.874,192.4a7.167,7.167,0,0,0,.98,4.066l2.439,4.139a.2.2,0,0,1,0,.2.19.19,0,0,1-.166.1h-10.4a2.452,2.452,0,0,0-2.419,2.339L21.6,215.754a.193.193,0,0,1-.191.184H11.731l-.275,4.166h9.692a.189.189,0,0,1,.139.061.2.2,0,0,1,.052.146l-.717,12.6H24.8l.718-12.619a.193.193,0,0,1,.191-.184h20.95a.19.19,0,0,1,.163.095l7.48,12.708h6.8L53.745,220.4a.2.2,0,0,1,0-.2.19.19,0,0,1,.166-.1h47.917a.191.191,0,0,1,.173.112.2.2,0,0,1-.025.208Zm13.505-16.969H53.994a5.1,5.1,0,0,1-4.362-2.525L44.9,205.366a.2.2,0,0,1,0-.2.19.19,0,0,1,.166-.1h7.426a4.555,4.555,0,0,0,4.5-4.325.186.186,0,0,1,0-.048l1.181-20.747a.193.193,0,0,1,.191-.184h54.5a.189.189,0,0,1,.139.061.2.2,0,0,1,.051.146l-1.525,26a8.522,8.522,0,0,1-1.859,4.859l-4.032,5.032a.189.189,0,0,1-.147.071M49.96,213.212a4.714,4.714,0,0,0,4.034,2.335h51.391l3.975-4.961a8.129,8.129,0,0,0,1.773-4.634l1.513-25.8H58.532l-1.168,20.514a.167.167,0,0,1,0,.047,4.943,4.943,0,0,1-4.882,4.743H45.4Zm-5.982,2.727H25.97a.19.19,0,0,1-.139-.061.2.2,0,0,1-.052-.146l.519-9.123a1.612,1.612,0,0,1,1.591-1.538h9.923a.19.19,0,0,1,.163.095l6.167,10.477a.2.2,0,0,1,0,.2.191.191,0,0,1-.166.1m-17.806-.392H43.64L37.7,205.461H27.889a1.226,1.226,0,0,0-1.209,1.169ZM49.614,200.9H42.378a.19.19,0,0,1-.163-.095l-2.3-3.9a8.489,8.489,0,0,1-1.161-4.817l.873-15.135a7.376,7.376,0,0,1,1.616-4.222l13.776-17.15a.187.187,0,0,1,.217-.058.2.2,0,0,1,.121.194l-2.386,41.93a3.406,3.406,0,0,1-3.36,3.249m-7.128-.392h7.128a3.019,3.019,0,0,0,2.979-2.88l2.352-41.33-13.4,16.687a6.985,6.985,0,0,0-1.53,4l-.873,15.135a8.094,8.094,0,0,0,1.107,4.592ZM113.117,175.6H58.611a.19.19,0,0,1-.139-.061.2.2,0,0,1-.051-.146l1.414-24.842a.193.193,0,0,1,.191-.184h54.548a.188.188,0,0,1,.139.061.2.2,0,0,1,.052.146l-1.456,24.842a.193.193,0,0,1-.191.184m-54.3-.392h54.123l1.434-24.45H60.205Z" transform="translate(-7.241 -85.662)" fill="#232426"/>
      <path id="Path_1680" data-name="Path 1680" d="M325.879,53.122a9.073,9.073,0,0,1,8.935-2.491c3.506.958,5.274,3.991,6.521,6.13,2.2,3.782,1.14,5.151,2.872,7.348,3.068,3.89,10.511,1.315,14.134,4.3,8.707,7.18,3.961,19.046-3.757,24.648-5.147,3.736-12.148,1.575-14.053.987-5.781-1.784-15.36-5.279-16.288-13.626-.623-5.612,5.105-10.112,2.028-14.79-.784-1.191-1.433-1.515-2.015-3a9.274,9.274,0,0,1,1.623-9.5" transform="translate(-211.856 -32.943)" fill="#232426"/>
      <path id="Path_1681" data-name="Path 1681" d="M355.065,42.714c-1.317-1.069-.484-4.22.359-5.92.316-.637,1.73-3.488,3.589-3.378,1.909.114,3.738,3.319,3.057,5.859-.852,3.175-5.462,4.691-7.005,3.439" transform="translate(-231.993 -21.874)" fill="#232426"/>
      <path id="Path_1682" data-name="Path 1682" d="M336.676,152.6l-1.2-4.99a66.3,66.3,0,0,1-1.827-16.81l.194-9.881a7.081,7.081,0,0,0-4.864-7.065,27.839,27.839,0,0,0-17.266.078c-.2.064-.4.14-.591.221v0c-5.277,1.253-9.983,14.289-9.983,14.289l3.842,2.2-4.021,23.151c-.292,2.468,3.006,4.867,5.33,5.748a31.8,31.8,0,0,0,11.293,1.79c5.57,0,12.3-.032,14.557-1.021l.2-.093a7.638,7.638,0,0,0,4.333-7.617" transform="translate(-197.011 -73.662)" fill="#fff"/>
      <path id="Path_1683" data-name="Path 1683" d="M317.088,161.1a32.294,32.294,0,0,1-11.385-1.807c-2.467-.935-5.8-3.421-5.5-6.022l3.992-22.985-3.683-2.11a.261.261,0,0,1-.115-.315c.194-.537,4.811-13.17,10.16-14.452.211-.088.4-.159.579-.216a28.171,28.171,0,0,1,17.426-.077,7.359,7.359,0,0,1,5.044,7.324l-.194,9.874a66.063,66.063,0,0,0,1.82,16.744l1.2,4.989a.284.284,0,0,1,.006.038,7.907,7.907,0,0,1-4.482,7.875l-.21.1c-2.2.963-8.19,1.043-14.662,1.043m-16.122-33.265,3.65,2.091a.26.26,0,0,1,.127.27l-4.021,23.151c-.27,2.283,2.923,4.61,5.166,5.46a31.772,31.772,0,0,0,11.2,1.773c4.847,0,12.171,0,14.453-1q.1-.042.2-.09a7.386,7.386,0,0,0,4.185-7.339l-1.2-4.971a66.593,66.593,0,0,1-1.834-16.876l.194-9.881a6.84,6.84,0,0,0-4.685-6.812,27.646,27.646,0,0,0-17.106.079c-.176.056-.356.124-.569.213a.283.283,0,0,1-.074.019c-4.712,1.167-9.065,12.259-9.689,13.911" transform="translate(-196.518 -73.176)" fill="#232426"/>
      <path id="Path_1684" data-name="Path 1684" d="M390.849,137.691a6.318,6.318,0,0,0,2.146-6.722c-.646-2.22-1.461-4.894-2.172-6.829a12.781,12.781,0,0,0-9.424-8.566c-.309-.074-3.8-.537-3.8-.537l2.1,20.248,8.969,3.674Z" transform="translate(-247.197 -75.31)" fill="#fff"/>
      <path id="Path_1685" data-name="Path 1685" d="M388.177,138.728a.258.258,0,0,1-.1-.019l-8.969-3.674a.261.261,0,0,1-.16-.214l-.487-4.692a.26.26,0,1,1,.518-.054l.47,4.538,8.707,3.566,2.051-1.195a6.036,6.036,0,0,0,2.044-6.434c-.837-2.875-1.586-5.231-2.166-6.812a12.538,12.538,0,0,0-9.24-8.4c-.217-.052-2.374-.347-3.771-.532a.26.26,0,0,1,.069-.516c.358.048,3.511.466,3.824.542a13.031,13.031,0,0,1,9.607,8.729c.593,1.615,1.325,3.918,2.177,6.846a6.553,6.553,0,0,1-2.234,7l-.031.021-2.178,1.268a.262.262,0,0,1-.131.035" transform="translate(-246.704 -74.817)" fill="#232426"/>
      <path id="Path_1686" data-name="Path 1686" d="M342.407,211.861a.259.259,0,0,1-.23-.139c-4.024-7.639-16.269-7.951-21.57-6.9a23.411,23.411,0,0,0-6.882,2.93.26.26,0,0,1-.283-.437,23.506,23.506,0,0,1,7.064-3,31.159,31.159,0,0,1,11.266.142c5.243,1.06,9,3.491,10.865,7.031a.26.26,0,0,1-.23.382" transform="translate(-205.117 -133.459)" fill="#232426"/>
      <path id="Path_1687" data-name="Path 1687" d="M301.829,153.63l-23.112-.035a1.274,1.274,0,0,1-1.235-.97l-3.921-16.307a1.274,1.274,0,0,1,1.239-1.579l23.112.036a1.274,1.274,0,0,1,1.235.969l3.922,16.307a1.275,1.275,0,0,1-1.239,1.579" transform="translate(-179.062 -88.207)" fill="#fff"/>
      <path id="Path_1688" data-name="Path 1688" d="M301.337,153.4h0l-23.112-.035a1.532,1.532,0,0,1-1.488-1.168l-3.922-16.308a1.535,1.535,0,0,1,1.491-1.9h0l23.112.035a1.533,1.533,0,0,1,1.488,1.168l3.922,16.308a1.535,1.535,0,0,1-1.49,1.9M274.3,134.506a1.014,1.014,0,0,0-.985,1.257l3.922,16.308a1.012,1.012,0,0,0,.983.77l23.112.036h0a1.014,1.014,0,0,0,.985-1.257L298.4,135.312a1.012,1.012,0,0,0-.983-.77l-23.112-.035Z" transform="translate(-178.568 -87.714)" fill="#232426"/>
      <path id="Path_1689" data-name="Path 1689" d="M311.592,159.992a1.919,1.919,0,0,1-1.073-.335,2.189,2.189,0,0,1-.671-2.866,1.891,1.891,0,0,1,1.217-.921,2.032,2.032,0,0,1,2.388,1.588,2.15,2.15,0,0,1-.218,1.563,1.9,1.9,0,0,1-1.217.921,1.868,1.868,0,0,1-.427.05m-.1-3.65a1.31,1.31,0,0,0-.3.035,1.377,1.377,0,0,0-.884.672,1.669,1.669,0,0,0,.509,2.175,1.36,1.36,0,0,0,1.975-.462,1.63,1.63,0,0,0,.163-1.186,1.548,1.548,0,0,0-1.459-1.235" transform="translate(-202.66 -102.009)" fill="#232426"/>
      <path id="Path_1690" data-name="Path 1690" d="M275.386,156.829,275.68,158a.808.808,0,0,0,1.131.534l3.909-1.854a.957.957,0,0,1,1.321.559c.367,1.114.058,3.092-4.92,5.11-3.041,1.233-3.15-2.106-2.654-4.143a2.508,2.508,0,0,1,.919-1.378" transform="translate(-179.534 -102.51)" fill="#fff"/>
      <path id="Path_1691" data-name="Path 1691" d="M275.444,162.384a1.69,1.69,0,0,1-1.143-.4c-1-.864-.942-2.872-.587-4.328a2.758,2.758,0,0,1,1.026-1.532.26.26,0,0,1,.4.152l.294,1.172a.548.548,0,0,0,.767.362l3.909-1.854a1.221,1.221,0,0,1,1.006-.019,1.208,1.208,0,0,1,.673.732c.448,1.359-.068,3.405-5.069,5.433a3.437,3.437,0,0,1-1.274.286m-.705-5.564a2.212,2.212,0,0,0-.519.955c-.334,1.372-.344,3.15.422,3.811a1.774,1.774,0,0,0,1.881.029c3.611-1.464,5.306-3.164,4.771-4.787a.68.68,0,0,0-.384-.417.7.7,0,0,0-.578.011l-3.909,1.854a1.069,1.069,0,0,1-1.495-.706Z" transform="translate(-179.033 -102.017)" fill="#232426"/>
      <path id="Path_1692" data-name="Path 1692" d="M357.475,138.334s10.38,5.848,12.52,7.683,4.462,3.228,1.435,7.227c-2.573,3.4-7.1.361-15.091-11.1a2.666,2.666,0,0,0-1.625-1.013c-.8-.179-1.964-.813-2.5-2.914,0,0-3.786.537-4.12-1.308l5.687-.905a2.337,2.337,0,0,1,2.081.67Z" transform="translate(-227.88 -89.014)" fill="#fff"/>
      <path id="Path_1693" data-name="Path 1693" d="M368.573,154.322h-.062c-2.87-.056-6.962-4.034-12.878-12.519a2.4,2.4,0,0,0-1.469-.908,3.625,3.625,0,0,1-2.635-2.884c-.868.088-3.858.258-4.184-1.546a.261.261,0,0,1,.215-.3l5.687-.905a2.592,2.592,0,0,1,2.309.746l1.586,1.629c.754.425,10.433,5.9,12.529,7.693.165.141.331.28.5.418,1.928,1.611,3.921,3.277.979,7.165a3.166,3.166,0,0,1-2.573,1.415m-16.85-16.856a.26.26,0,0,1,.252.2c.494,1.937,1.525,2.551,2.3,2.725a2.908,2.908,0,0,1,1.782,1.118c5.733,8.222,9.809,12.244,12.461,12.3a2.632,2.632,0,0,0,2.209-1.208c2.643-3.493,1.081-4.8-.9-6.451-.166-.139-.334-.279-.5-.422-2.1-1.8-12.375-7.595-12.479-7.654a.25.25,0,0,1-.059-.045l-1.612-1.656a2.078,2.078,0,0,0-1.849-.6l-5.393.859c.6,1.246,3.712.845,3.745.84l.037,0" transform="translate(-227.388 -88.52)" fill="#232426"/>
      <path id="Path_1694" data-name="Path 1694" d="M335.4,79.127a1.448,1.448,0,0,1-1.675-.279,8.438,8.438,0,0,1-1.228-1.571l-.634.013a.373.373,0,0,1-.381-.357l-.109-2.477a4.592,4.592,0,0,1-.729-2.012,3.829,3.829,0,0,1,1.574-2.98c1.125-.549,3.155-.845,4.215.749.455.685,1.195,1.176,1.643,1.1.421-.075.594-.435.8-.809a1.287,1.287,0,0,1,2.275-.25c.937,1.114.288,2.138-.294,2.994-.234.345.019,1.3.114,1.708l1.371,5.843a4.656,4.656,0,0,0,2.867,3.284l1.468.562s-1.62,4.919-8.114,4.78c-4.956-.106-4.576-4.172-4.576-4.172l.651-.287a3.892,3.892,0,0,0,2.225-4.421l-.437-1.928Z" transform="translate(-216.45 -45.187)" fill="#fff"/>
      <path id="Path_1695" data-name="Path 1695" d="M338.334,89.184l-.272,0a5.044,5.044,0,0,1-3.829-1.469,4.242,4.242,0,0,1-1-2.987.26.26,0,0,1,.154-.214l.651-.287a3.639,3.639,0,0,0,2.076-4.126l-.363-1.6-.731.366a1.707,1.707,0,0,1-1.977-.328,8.74,8.74,0,0,1-1.186-1.491l-.486.01a.64.64,0,0,1-.646-.605l-.106-2.411a4.843,4.843,0,0,1-.732-2.069,4.06,4.06,0,0,1,1.72-3.235c1.449-.708,3.491-.748,4.546.839.418.629,1.073,1.034,1.381.984.259-.046.383-.25.58-.607l.04-.072a1.821,1.821,0,0,1,1.325-.966,1.576,1.576,0,0,1,1.377.675c1.09,1.3.267,2.507-.278,3.307-.153.225.059,1.114.129,1.407l.023.1,1.371,5.843a4.391,4.391,0,0,0,2.706,3.1l1.468.562a.26.26,0,0,1,.154.324c-.017.05-1.71,4.961-8.1,4.961m-4.588-4.263a3.748,3.748,0,0,0,.88,2.449,4.557,4.557,0,0,0,3.447,1.291c5.418.124,7.351-3.423,7.768-4.371l-1.221-.468a4.911,4.911,0,0,1-3.027-3.467L340.2,74.419a2.658,2.658,0,0,1-.053-1.821c.65-.955,1.085-1.758.31-2.68a1.109,1.109,0,0,0-.928-.492,1.32,1.32,0,0,0-.92.7l-.039.07a1.4,1.4,0,0,1-.945.868c-.637.115-1.459-.538-1.9-1.209-1.015-1.526-2.985-1.1-3.884-.659a3.6,3.6,0,0,0-1.429,2.724,4.385,4.385,0,0,0,.692,1.9.261.261,0,0,1,.038.125l.109,2.477a.115.115,0,0,0,.115.108l.634-.013a.276.276,0,0,1,.228.125,8.211,8.211,0,0,0,1.19,1.523,1.189,1.189,0,0,0,1.374.23l1.028-.516a.26.26,0,0,1,.371.175l.437,1.928a4.16,4.16,0,0,1-2.374,4.717Zm1.157-6.293h0Z" transform="translate(-215.957 -44.689)" fill="#050605"/>
      <path id="Path_1696" data-name="Path 1696" d="M335.148,393.158l3.442,10.269s-3.749-.32-4.108-.25-4.743-9.365-4.743-9.365Z" transform="translate(-215.864 -257.381)" fill="#fff"/>
      <path id="Path_1697" data-name="Path 1697" d="M338.1,403.193h-.022c-1.781-.152-3.8-.293-4.036-.253-.261.048-.419.083-2.789-4.8-1.129-2.325-2.228-4.689-2.239-4.713a.26.26,0,0,1,.2-.368l5.409-.654a.261.261,0,0,1,.278.176l3.442,10.269a.26.26,0,0,1-.247.343m-3.905-.778c.71,0,2.546.144,3.533.226l-3.248-9.693-4.842.585c1.535,3.292,3.926,8.251,4.436,8.883l.123,0m-.252.013h0Zm0,0h0Z" transform="translate(-215.37 -256.887)" fill="#232426"/>
      <path id="Path_1698" data-name="Path 1698" d="M335.378,412.479s-5.176-2.122-6.133.541c-1.217,3.387-3.121,8.555-3.121,8.555a1.45,1.45,0,0,0,1.25,1.935c1.892.152,4.713.275,6.027-.186,2.075-.728,5.518-7.3,5.518-7.3l-1.061-5.588a2.336,2.336,0,0,0-2.48,2.037" transform="translate(-213.441 -268.69)" fill="#fff"/>
      <path id="Path_1699" data-name="Path 1699" d="M329.931,423.419c-1.032,0-2.122-.062-3.072-.139A1.711,1.711,0,0,1,325.386,421c.02-.054,1.917-5.208,3.121-8.555a2.081,2.081,0,0,1,1.158-1.235c1.608-.715,4.209.128,5.051.437a2.566,2.566,0,0,1,2.685-1.951.26.26,0,0,1,.219.209l1.061,5.588a.261.261,0,0,1-.025.169c-.143.272-3.515,6.667-5.662,7.421a10.306,10.306,0,0,1-3.063.338m1.27-11.972a3.29,3.29,0,0,0-1.325.237,1.558,1.558,0,0,0-.879.934c-1.2,3.35-3.1,8.506-3.122,8.557a1.19,1.19,0,0,0,1.026,1.586,17.84,17.84,0,0,0,5.921-.172c1.6-.562,4.348-5.232,5.331-7.091l-1.006-5.3a2.123,2.123,0,0,0-2.01,1.853.261.261,0,0,1-.351.175,11.353,11.353,0,0,0-3.586-.783" transform="translate(-212.947 -268.2)" fill="#050605"/>
      <path id="Path_1700" data-name="Path 1700" d="M326.268,441.574l-.143.388a1.45,1.45,0,0,0,1.25,1.935c1.892.152,4.713.275,6.027-.186a6.409,6.409,0,0,0,2.293-2.137Z" transform="translate(-213.442 -289.077)" fill="#fff"/>
      <path id="Path_1701" data-name="Path 1701" d="M329.931,443.8c-1.032,0-2.122-.062-3.072-.139a1.711,1.711,0,0,1-1.474-2.283l.144-.39a.26.26,0,0,1,.245-.17H335.2a.26.26,0,0,1,.207.418,6.341,6.341,0,0,1-2.413,2.225,10.306,10.306,0,0,1-3.063.338m-3.976-2.461-.08.218a1.19,1.19,0,0,0,1.026,1.586,17.841,17.841,0,0,0,5.921-.172,4.924,4.924,0,0,0,1.842-1.632Z" transform="translate(-212.947 -288.584)" fill="#232426"/>
      <path id="Path_1702" data-name="Path 1702" d="M329.931,423.419c-1.032,0-2.122-.062-3.072-.139A1.711,1.711,0,0,1,325.386,421c.02-.054,1.917-5.208,3.121-8.555a2.081,2.081,0,0,1,1.158-1.235c1.608-.715,4.209.128,5.051.437a2.566,2.566,0,0,1,2.685-1.951.26.26,0,0,1,.219.209l1.061,5.588a.261.261,0,0,1-.025.169c-.143.272-3.515,6.667-5.662,7.421a10.306,10.306,0,0,1-3.063.338m1.27-11.972a3.29,3.29,0,0,0-1.325.237,1.558,1.558,0,0,0-.879.934c-1.2,3.35-3.1,8.506-3.122,8.557a1.19,1.19,0,0,0,1.026,1.586,17.84,17.84,0,0,0,5.921-.172c1.6-.562,4.348-5.232,5.331-7.091l-1.006-5.3a2.123,2.123,0,0,0-2.01,1.853.261.261,0,0,1-.351.175,11.353,11.353,0,0,0-3.586-.783" transform="translate(-212.947 -268.2)" fill="#232426"/>
      <path id="Path_1703" data-name="Path 1703" d="M362.525,399.956l-1.169,10.33-4.7-1.29.362-9.307Z" transform="translate(-233.482 -261.656)" fill="#fff"/>
      <path id="Path_1704" data-name="Path 1704" d="M360.863,410.053a.274.274,0,0,1-.069-.009l-4.7-1.291a.26.26,0,0,1-.191-.261l.362-9.307a.261.261,0,0,1,.084-.182.271.271,0,0,1,.189-.068l5.511.268a.26.26,0,0,1,.246.289l-1.169,10.33a.26.26,0,0,1-.259.231m-4.436-1.747,4.212,1.155,1.1-9.752-4.972-.241Z" transform="translate(-232.989 -261.163)" fill="#232426"/>
      <path id="Path_1705" data-name="Path 1705" d="M354.318,431.811h-7.443a1.649,1.649,0,0,1-1.633-1.891,21.987,21.987,0,0,1,3.485-8.3,1.449,1.449,0,0,1,1.223-.673h2.264a.762.762,0,0,1,.758.683l.171,1.633.685-.7a.514.514,0,0,1,.858.2,26.108,26.108,0,0,1,1.284,7.378,1.652,1.652,0,0,1-1.651,1.681" transform="translate(-226.001 -275.571)" fill="#fff"/>
      <path id="Path_1706" data-name="Path 1706" d="M353.825,431.578h-7.444a1.91,1.91,0,0,1-1.891-2.189,22.244,22.244,0,0,1,3.523-8.4,1.7,1.7,0,0,1,1.443-.794h2.264a1.021,1.021,0,0,1,1.017.916l.113,1.081.3-.306a.775.775,0,0,1,1.292.3,26.3,26.3,0,0,1,1.3,7.454,1.912,1.912,0,0,1-1.912,1.946m-4.369-10.867a1.2,1.2,0,0,0-1,.552,21.741,21.741,0,0,0-3.447,8.2,1.389,1.389,0,0,0,1.376,1.592h7.444a1.392,1.392,0,0,0,1.391-1.416,25.752,25.752,0,0,0-1.271-7.3.254.254,0,0,0-.424-.1l-.685.7a.26.26,0,0,1-.445-.154l-.171-1.634a.5.5,0,0,0-.5-.45Z" transform="translate(-225.507 -275.078)" fill="#050605"/>
      <path id="Path_1707" data-name="Path 1707" d="M346.875,447.932h7.443a1.652,1.652,0,0,0,1.651-1.681c0-.23-.013-.457-.024-.682H345.323c-.031.165-.059.325-.081.472a1.65,1.65,0,0,0,1.633,1.891" transform="translate(-226.001 -291.692)" fill="#fff"/>
      <path id="Path_1708" data-name="Path 1708" d="M353.825,447.7h-7.444a1.911,1.911,0,0,1-1.891-2.189c.023-.151.051-.314.083-.483a.26.26,0,0,1,.256-.212h10.623a.26.26,0,0,1,.26.247c.011.228.02.458.025.691a1.912,1.912,0,0,1-1.912,1.946m-8.778-2.363c-.015.086-.029.17-.041.251a1.389,1.389,0,0,0,1.376,1.592h7.444a1.392,1.392,0,0,0,1.391-1.416c0-.143-.007-.285-.013-.427Z" transform="translate(-225.507 -291.198)" fill="#232426"/>
      <path id="Path_1709" data-name="Path 1709" d="M353.825,431.578h-7.444a1.91,1.91,0,0,1-1.891-2.189,22.244,22.244,0,0,1,3.523-8.4,1.7,1.7,0,0,1,1.443-.794h2.264a1.021,1.021,0,0,1,1.017.916l.113,1.081.3-.306a.775.775,0,0,1,1.292.3,26.3,26.3,0,0,1,1.3,7.454,1.912,1.912,0,0,1-1.912,1.946m-4.369-10.867a1.2,1.2,0,0,0-1,.552,21.741,21.741,0,0,0-3.447,8.2,1.389,1.389,0,0,0,1.376,1.592h7.444a1.392,1.392,0,0,0,1.391-1.416,25.752,25.752,0,0,0-1.271-7.3.254.254,0,0,0-.424-.1l-.685.7a.26.26,0,0,1-.445-.154l-.171-1.634a.5.5,0,0,0-.5-.45Z" transform="translate(-225.507 -275.078)" fill="#232426"/>
      <path id="Path_1710" data-name="Path 1710" d="M309.743,216.857a1.726,1.726,0,0,1,1.081-.995,26.522,26.522,0,0,1,21.98,3.161,1.736,1.736,0,0,1,.795,1.338A199.528,199.528,0,0,1,327.059,282l-5.53-.394L320.4,229.072s-8.191,19.26-1.531,49.911l-5.752,1.062a58.546,58.546,0,0,1-9.924-27.98c-1.333-14.961,5.056-31.573,6.548-35.208" transform="translate(-198.368 -140.594)" fill="#9ca777"/>
      <path id="Path_1711" data-name="Path 1711" d="M345.311,252.858H345.3a.261.261,0,0,1-.252-.268l.148-4.991a2.67,2.67,0,0,0-1.136-2.27l-2.154-1.514a.26.26,0,0,1,.3-.426l2.154,1.514a3.191,3.191,0,0,1,1.357,2.711l-.148,4.991a.261.261,0,0,1-.26.253" transform="translate(-223.758 -159.304)" fill="#fff"/>
      <path id="Path_1712" data-name="Path 1712" d="M254.321,6.774a3.418,3.418,0,1,1,2.7-4.006,3.422,3.422,0,0,1-2.7,4.006M253.106.512a2.96,2.96,0,1,0,3.47,2.343,2.964,2.964,0,0,0-3.47-2.343" transform="translate(-163.827 0)" fill="#232426"/>
      <path id="Path_1713" data-name="Path 1713" d="M57.809,65.132a3.418,3.418,0,1,1,2.7-4.006,3.422,3.422,0,0,1-2.7,4.006M56.594,58.87a2.96,2.96,0,1,0,3.47,2.343,2.964,2.964,0,0,0-3.47-2.343" transform="translate(-41.181 -40.09)" fill="#232426"/>
      <path id="Path_1714" data-name="Path 1714" d="M245.288,48.317a.229.229,0,0,1-.233-.353l.993-1.471a.229.229,0,1,1,.379.256l-.993,1.471a.229.229,0,0,1-.146.1" transform="translate(-160.4 -30.371)" fill="#232426"/>
      <path id="Path_1715" data-name="Path 1715" d="M238.591,58.239a.229.229,0,0,1-.233-.353l.993-1.471a.229.229,0,0,1,.379.256l-.993,1.471a.228.228,0,0,1-.146.1" transform="translate(-156.015 -36.866)" fill="#232426"/>
      <path id="Path_1716" data-name="Path 1716" d="M237.758,50.143a.229.229,0,0,1-.172-.035l-1.471-.993a.229.229,0,0,1,.256-.379l1.471.993a.229.229,0,0,1-.084.414" transform="translate(-154.507 -31.879)" fill="#232426"/>
      <path id="Path_1717" data-name="Path 1717" d="M247.679,56.841a.229.229,0,0,1-.172-.035l-1.471-.993a.229.229,0,0,1,.256-.379l1.471.993a.229.229,0,0,1-.084.414" transform="translate(-161.002 -36.264)" fill="#232426"/>
      <path id="Path_1718" data-name="Path 1718" d="M276.147,86.422a1.764,1.764,0,0,1-.651,0,1.8,1.8,0,0,1-1.169-.763,1.841,1.841,0,0,1,.444-2.535,1.752,1.752,0,0,1,1.332-.295,1.8,1.8,0,0,1,1.17.763,1.841,1.841,0,0,1-.444,2.535,1.763,1.763,0,0,1-.681.291m-.609-3.136a1.314,1.314,0,0,0-.5.216,1.382,1.382,0,0,0-.329,1.9,1.341,1.341,0,0,0,.873.571,1.3,1.3,0,0,0,.987-.218,1.382,1.382,0,0,0,.329-1.9,1.34,1.34,0,0,0-.873-.571,1.309,1.309,0,0,0-.482,0m-.636.029h0Z" transform="translate(-179.378 -54.208)" fill="#232426"/>
      <g id="Group_14593" data-name="Group 14593" transform="translate(-7.476 3.388)">
        <path id="Path_1675" data-name="Path 1675" d="M105.845,34.385A23.2,23.2,0,0,0,82.9,57.833c0,3.237,1.434,7.764,3.585,12.735,5.421,12.528,15.4,27.869,18.448,32.453a1.085,1.085,0,0,0,1.818,0c4.259-6.4,22.033-33.791,22.033-45.19a23.2,23.2,0,0,0-22.942-23.448" transform="translate(-48.333 -23.57)" fill="#fff"/>
        <path id="Path_1676" data-name="Path 1676" d="M105.484,103.338a1.284,1.284,0,0,1-1.069-.579c-2.957-4.444-13.027-19.918-18.464-32.484-2.389-5.522-3.6-9.833-3.6-12.814,0-13.037,10.377-23.643,23.133-23.643s23.133,10.606,23.133,23.643c0,11.264-16.89,37.521-22.066,45.3a1.281,1.281,0,0,1-1.065.577m0-69.129c-12.545,0-22.751,10.431-22.751,23.252,0,2.926,1.2,7.184,3.568,12.655,5.424,12.536,15.478,27.985,18.431,32.422a.9.9,0,0,0,1.5,0c3.674-5.521,22-33.64,22-45.08,0-12.821-10.206-23.252-22.751-23.252" transform="translate(-47.971 -23.199)" fill="#232426"/>
        <path id="Path_1677" data-name="Path 1677" d="M134.649,70.259a16.4,16.4,0,1,1-16.4-16.805,16.6,16.6,0,0,1,16.4,16.805" transform="translate(-60.741 -36.054)" fill="#fff"/>
        <path id="Path_1678" data-name="Path 1678" d="M145.053,248.189a4.782,4.782,0,1,1-4.78-4.9,4.841,4.841,0,0,1,4.78,4.9" transform="translate(-82.76 -160.329)" fill="#232426"/>
        <path id="Path_1679" data-name="Path 1679" d="M97.534,69.95a17.371,17.371,0,0,0,20.752,13.483c9.308-2.185,15.11-11.765,12.958-21.4a17.372,17.372,0,0,0-20.752-13.483c-9.309,2.185-15.11,11.765-12.958,21.4m2.222-.522" transform="translate(-56.878 -31.787)" fill="none" stroke="#232426" stroke-width="1" opacity="0.764"/>
        <g id="Group_14462" data-name="Group 14462" transform="translate(47.26 23.389)">
          <path id="Path_1721" data-name="Path 1721" d="M132.186,106.693a2.073,2.073,0,0,1,2.107,1.955,2.1,2.1,0,0,1-4.2.234,2.037,2.037,0,0,1,2.1-2.189m-.007.954a1.056,1.056,0,0,0-1.133,1.087,1.126,1.126,0,0,0,1.178,1.163,1.2,1.2,0,0,0,1.114-1.1,1.107,1.107,0,0,0-1.159-1.145" transform="translate(-127.555 -96.254)" fill="#ff9d00"/>
          <g id="Group_14460" data-name="Group 14460" transform="translate(0 0)">
            <g id="Group_14461" data-name="Group 14461">
              <path id="Path_1719" data-name="Path 1719" d="M126.12,108.123h6.4c0-.052.008-.1.008-.142,0-1.073-.021-2.147.009-3.219a1.228,1.228,0,0,1,.993-1.21,2.525,2.525,0,0,1,.628-.046c2.369,0,4.738-.007,7.108.006a3.413,3.413,0,0,1,2.166.656,3.072,3.072,0,0,1,1.339,2.36c.046,1.824.046,3.649.052,5.474a.454.454,0,0,1-.547.469.444.444,0,0,1-.4-.483c0-.945,0-1.89,0-2.857H126.12v.237c0,.859,0,1.717,0,2.576a.483.483,0,0,1-.541.524.425.425,0,0,1-.4-.375c-.013-.4-.006-.8-.008-1.194,0-.064,0-.127,0-.191,0-3,.006-5.993-.005-8.99,0-.431.276-.559.621-.506a.487.487,0,0,1,.338.523q0,1.645,0,3.291,0,1.455,0,2.91v.191m17.75-.005c0-.423.024-.829-.008-1.231a2.831,2.831,0,0,0-.189-.9,2.356,2.356,0,0,0-2.285-1.5c-.548-.008-1.1,0-1.645,0-1.883,0-3.766,0-5.65,0-.571,0-.6.087-.6.608.009.85,0,1.7,0,2.55v.474Z" transform="translate(-124.728 -93.105)" fill="#ff9d00"/>
              <path id="Path_1720" data-name="Path 1720" d="M144.16,86.928a2.879,2.879,0,0,1-.327-.142q-1.583-.93-3.162-1.868-1.536-.912-3.07-1.829c-1.03-.614-2.057-1.231-3.09-1.839a.283.283,0,0,0-.236.018c-1.083.637-2.161,1.283-3.242,1.924-.929.552-1.861,1.1-2.79,1.651q-1.663.987-3.324,1.976a.482.482,0,1,1-.529-.8c.83-.5,1.664-.995,2.5-1.492,1.029-.615,2.055-1.234,3.086-1.845.964-.573,1.932-1.139,2.9-1.708.392-.231.789-.452,1.172-.7a.588.588,0,0,1,.675-.018q.944.564,1.89,1.125,1.453.861,2.907,1.72,1.542.916,3.083,1.838c.609.364,1.216.732,1.826,1.094a.424.424,0,0,1,.208.524.455.455,0,0,1-.471.372" transform="translate(-124.146 -80.157)" fill="#ff9d00"/>
              <path id="Path_1722" data-name="Path 1722" d="M155.091,112.542H144.721v-.474c0-.85.007-1.7,0-2.55-.006-.521.024-.61.6-.608,1.883.006,3.766,0,5.65,0,.548,0,1.1-.006,1.645,0a2.356,2.356,0,0,1,2.285,1.5,2.832,2.832,0,0,1,.189.9c.032.4.008.807.008,1.231" transform="translate(-135.949 -97.529)" fill="#fbfbfb"/>
              <path id="Path_1723" data-name="Path 1723" d="M133.469,108.932a1.107,1.107,0,0,1,1.159,1.145,1.2,1.2,0,0,1-1.114,1.1,1.126,1.126,0,0,1-1.178-1.163,1.056,1.056,0,0,1,1.133-1.087" transform="translate(-128.845 -97.539)" fill="#fbfbfb"/>
            </g>
          </g>
        </g>
      </g>
    </g>
  </g>
</svg>
