<svg xmlns="http://www.w3.org/2000/svg" width="156.575" height="120.169" viewBox="0 0 156.575 120.169">
  <g id="Group_14447" data-name="Group 14447" transform="translate(788.082 15.04)">
    <g id="Group_14587" data-name="Group 14587" transform="translate(-788.082 -15.04)">
      <path id="Path_1038" data-name="Path 1038" d="M8.189,43.578C29.526,63.364,62.082,70.793,85.713,68.712c9.222-.812,4.125,22.535,19.174,3.38.261-.331-4.162-31.21-3.246-32.6Z" transform="translate(-2.585 -12.465)" fill="#fff"/>
      <path id="Path_1039" data-name="Path 1039" d="M57.916,46.561a.194.194,0,0,1-.17-.287l.5-.907a.194.194,0,0,1,.339.188l-.5.907a.194.194,0,0,1-.17.1" transform="translate(-18.219 -14.287)" fill="#050605"/>
      <path id="Path_1040" data-name="Path 1040" d="M4.007,47.848a.2.2,0,0,1-.106-.031.194.194,0,0,1-.056-.268l.37-.567a.194.194,0,0,1,.324.213l-.37.565a.193.193,0,0,1-.162.088" transform="translate(-1.203 -14.801)" fill="#050605"/>
      <path id="Path_1041" data-name="Path 1041" d="M99.746,112.277l-93.44.534a2.083,2.083,0,0,1-1.919-2L0,37.426a1.546,1.546,0,0,1,1.478-1.762l93.312-.177a2.41,2.41,0,0,1,2.078,2.179l4.383,73.384c.06.99-.619,1.228-1.509,1.228" transform="translate(0 -11.2)" fill="#232426"/>
      <path id="Path_1042" data-name="Path 1042" d="M104.872,112.769H11.4a2.07,2.07,0,0,1-1.918-1.976L5.052,37.949a1.532,1.532,0,0,1,1.478-1.74H100a2.069,2.069,0,0,1,1.918,1.976l4.429,72.844a1.532,1.532,0,0,1-1.478,1.74" transform="translate(-1.593 -11.429)" fill="#fff"/>
      <path id="Path_1043" data-name="Path 1043" d="M145.129,73.314a.193.193,0,0,1-.193-.182l-2.3-35.024a1.87,1.87,0,0,0-1.725-1.794H134.86a.194.194,0,0,1,0-.388h6.053a2.268,2.268,0,0,1,2.113,2.159l2.3,35.025a.193.193,0,0,1-.182.2h-.012" transform="translate(-42.504 -11.339)" fill="#232426"/>
      <path id="Path_1044" data-name="Path 1044" d="M11.311,112.874A2.267,2.267,0,0,1,9.2,110.715L4.77,37.871a1.9,1.9,0,0,1,.485-1.437,1.608,1.608,0,0,1,1.186-.508h52.63a.194.194,0,1,1,0,.387H6.441a1.227,1.227,0,0,0-.9.386,1.516,1.516,0,0,0-.381,1.148l4.429,72.844a1.87,1.87,0,0,0,1.725,1.794H99.9a.194.194,0,1,1,0,.387Z" transform="translate(-1.504 -11.339)" fill="#232426"/>
      <path id="Path_1045" data-name="Path 1045" d="M103.892,111.246H14.239a1.916,1.916,0,0,1-1.776-1.831L8.361,41.95A1.419,1.419,0,0,1,9.73,40.339H99.38a1.916,1.916,0,0,1,1.777,1.83l4.1,67.466a1.421,1.421,0,0,1-1.369,1.612" transform="translate(-2.638 -12.732)" fill="#fff"/>
      <path id="Path_1046" data-name="Path 1046" d="M103.8,111.351H14.151a2.114,2.114,0,0,1-1.971-2.012l-4.1-67.466a1.771,1.771,0,0,1,.453-1.342,1.5,1.5,0,0,1,1.109-.475H99.291a2.114,2.114,0,0,1,1.971,2.012l4.1,67.466a1.771,1.771,0,0,1-.454,1.342,1.5,1.5,0,0,1-1.109.475M9.64,40.443a1.121,1.121,0,0,0-.827.353,1.388,1.388,0,0,0-.348,1.053l4.1,67.466a1.717,1.717,0,0,0,1.584,1.649H103.8a1.122,1.122,0,0,0,.827-.353,1.388,1.388,0,0,0,.348-1.053l-4.1-67.466a1.717,1.717,0,0,0-1.584-1.649Z" transform="translate(-2.548 -12.643)" fill="#232426"/>
      <path id="Path_1047" data-name="Path 1047" d="M83.4,53.9h19.135l-.192-3.166H83.209l-.627-10.392H77.569L78.2,50.731H40.46l-.644-10.392H36.66l.531,8.565a5.115,5.115,0,0,1-.838,3.2L28.348,63.9,26.9,40.339H21.891l1.552,25.328H10.464l.306,4.97H22.822a1.025,1.025,0,0,1,.984.951l.7,11.372a5.666,5.666,0,0,0,1.042,2.9l2.028,2.876H20.379a1.589,1.589,0,0,0-1.6,1.753l.539,8.693H12.5l.168,3.166h6.845l.552,8.9h3.156l-.552-8.9H37.164l6.267,8.9h5.013l-6.267-8.9H75.32l-6.04,8.9h5.014l5.448-8.024a2,2,0,0,1,1.685-.871H105.47l-.181-3.166H82.483l2.577-3.8a4.113,4.113,0,0,0,.675-2.571Zm-5.013,0,1.041,17.26h-37.7L40.657,53.9ZM30.676,86.031A6.388,6.388,0,0,1,29.5,82.762l-.645-10.515a4.556,4.556,0,0,1,.749-2.855l8.115-11.916L39.53,86.61a1.93,1.93,0,0,1-1.94,2.129h-5Zm-8.2,13.153-.394-6.339a.852.852,0,0,1,.857-.94H29.8l5.129,7.28ZM38.757,97.5,34.817,91.9h5.137a2.857,2.857,0,0,0,2.869-3.166h0l-.894-14.416H79.619l1.09,18.067a5.282,5.282,0,0,1-.865,3.3l-2.374,3.5H41.861a3.877,3.877,0,0,1-3.1-1.688" transform="translate(-3.303 -12.732)" fill="#fff"/>
      <path id="Path_1048" data-name="Path 1048" d="M74.2,111.35H69.191a.194.194,0,0,1-.16-.3l5.834-8.592h-32.4l6.053,8.59a.193.193,0,0,1-.159.305H43.342a.2.2,0,0,1-.159-.082l-6.209-8.813H22.79l.539,8.689a.193.193,0,0,1-.194.205H19.98a.193.193,0,0,1-.193-.182l-.541-8.713H12.583a.194.194,0,0,1-.194-.184L12.222,99.1a.193.193,0,0,1,.194-.2h6.61L18.5,90.414a1.86,1.86,0,0,1,.485-1.408,1.768,1.768,0,0,1,1.306-.55h6.82L25.3,85.885a5.833,5.833,0,0,1-1.076-3l-.7-11.371a.826.826,0,0,0-.79-.769H10.681a.194.194,0,0,1-.194-.182l-.305-4.97a.193.193,0,0,1,.193-.205H23.148l-1.54-25.123a.2.2,0,0,1,.052-.145.2.2,0,0,1,.142-.061h5.013a.194.194,0,0,1,.194.182l1.409,23L36.1,51.91a4.894,4.894,0,0,0,.8-3.084l-.531-8.566a.194.194,0,0,1,.194-.206h3.156a.194.194,0,0,1,.193.182l.634,10.21H77.9l-.615-10.186a.194.194,0,0,1,.194-.206h5.014a.194.194,0,0,1,.193.182l.616,10.21h18.952a.194.194,0,0,1,.194.182l.192,3.167a.193.193,0,0,1-.194.205H83.517L85.84,92.715a4.283,4.283,0,0,1-.708,2.692L82.76,98.9H105.2a.193.193,0,0,1,.194.183l.181,3.167a.194.194,0,0,1-.194.205H81.338a1.807,1.807,0,0,0-1.525.785l-5.448,8.025a.193.193,0,0,1-.16.085m-4.648-.387H74.1l5.39-7.94a2.191,2.191,0,0,1,1.846-.955h23.838l-.159-2.779H82.394a.194.194,0,0,1-.16-.3l2.577-3.8a3.9,3.9,0,0,0,.641-2.451l-2.335-38.92a.193.193,0,0,1,.193-.205h18.93l-.168-2.779H83.12a.193.193,0,0,1-.193-.183l-.616-10.209H77.686L78.3,50.629a.2.2,0,0,1-.194.206H40.371a.194.194,0,0,1-.193-.182l-.633-10.21H36.777L37.3,48.8a5.275,5.275,0,0,1-.871,3.325L28.419,63.92a.194.194,0,0,1-.354-.1l-1.432-23.38H22.008l1.539,25.123a.191.191,0,0,1-.052.144.194.194,0,0,1-.141.061H10.581l.281,4.582h11.87a1.225,1.225,0,0,1,1.177,1.133l.7,11.371a5.451,5.451,0,0,0,1.006,2.8l2.029,2.876a.194.194,0,0,1-.159.305H20.29a1.384,1.384,0,0,0-1.023.428,1.477,1.477,0,0,0-.381,1.119l.539,8.693a.2.2,0,0,1-.194.206H12.62l.148,2.779h6.661a.194.194,0,0,1,.194.182l.54,8.713H22.93l-.539-8.689a.194.194,0,0,1,.194-.206H37.075a.194.194,0,0,1,.158.082l6.21,8.813h4.539l-6.052-8.59a.194.194,0,0,1,.158-.305H75.231a.194.194,0,0,1,.16.3ZM77.38,99.289H41.772a4.1,4.1,0,0,1-3.263-1.77l-3.939-5.591a.194.194,0,0,1,.158-.306h5.137a2.638,2.638,0,0,0,1.955-.823,2.8,2.8,0,0,0,.723-2.1.157.157,0,0,1-.007-.04l-.894-14.415a.193.193,0,0,1,.194-.205H79.529a.194.194,0,0,1,.194.182l1.09,18.067a5.437,5.437,0,0,1-.9,3.418l-2.373,3.5a.2.2,0,0,1-.161.086M38.826,97.3A3.7,3.7,0,0,0,41.772,98.9H77.278l2.317-3.412a5.052,5.052,0,0,0,.832-3.177L79.347,74.428H42.041L42.92,88.6a.194.194,0,0,1,.008.04,3.194,3.194,0,0,1-.825,2.427,3.022,3.022,0,0,1-2.238.946H35.1Zm-3.982,1.994H22.388a.194.194,0,0,1-.194-.182L21.8,92.768a1.085,1.085,0,0,1,.284-.822,1.036,1.036,0,0,1,.766-.324h6.864a.2.2,0,0,1,.159.082L35,98.983a.194.194,0,0,1-.158.306M22.57,98.9h11.9l-4.856-6.892H22.851a.653.653,0,0,0-.483.2.7.7,0,0,0-.18.533ZM37.5,88.843h-5a.194.194,0,0,1-.158-.082l-1.909-2.707a6.557,6.557,0,0,1-1.208-3.368l-.644-10.516a4.72,4.72,0,0,1,.782-2.976l8.115-11.916a.193.193,0,0,1,.353.1l1.807,29.132a2.216,2.216,0,0,1-.578,1.679,2.1,2.1,0,0,1-1.556.656m-4.9-.387h4.9a1.725,1.725,0,0,0,1.273-.534,1.836,1.836,0,0,0,.474-1.39L37.475,57.964l-7.8,11.448a4.334,4.334,0,0,0-.716,2.733l.645,10.516a6.157,6.157,0,0,0,1.137,3.169ZM79.338,71.261h-37.7a.193.193,0,0,1-.194-.181l-1.07-17.26a.193.193,0,0,1,.194-.206H78.3a.194.194,0,0,1,.194.182l1.041,17.26a.193.193,0,0,1-.194.205M41.82,70.874H79.132L78.115,54H40.774Z" transform="translate(-3.214 -12.642)" fill="#232426"/>
      <path id="Path_1049" data-name="Path 1049" d="M163.894,31.012a.194.194,0,0,1-.179-.268L168.5,19.3a.194.194,0,1,1,.358.149l-4.785,11.448a.193.193,0,0,1-.179.119" transform="translate(-51.668 -6.053)" fill="#232426"/>
      <path id="Path_1050" data-name="Path 1050" d="M161.667,29.564h0a.194.194,0,0,1-.193-.2l.068-14.589a.194.194,0,0,1,.194-.193h0a.194.194,0,0,1,.193.2l-.068,14.589a.194.194,0,0,1-.194.193" transform="translate(-50.965 -4.604)" fill="#232426"/>
      <path id="Path_1051" data-name="Path 1051" d="M157.3,31.044a.194.194,0,0,1-.179-.12l-4.669-11.378a.194.194,0,0,1,.359-.147l4.669,11.378a.194.194,0,0,1-.105.253.2.2,0,0,1-.074.014" transform="translate(-48.112 -6.085)" fill="#232426"/>
      <path id="Path_1052" data-name="Path 1052" d="M165.668,11.152c0,3.827-3.2,7.645-7.143,7.645s-7.143-3.818-7.143-7.645a7.147,7.147,0,0,1,14.287,0" transform="translate(-47.78 -1.333)" fill="#ff9d00"/>
      <path id="Path_1053" data-name="Path 1053" d="M158.435,18.9a7,7,0,0,1-5.2-2.451,8.184,8.184,0,0,1-2.142-5.388,7.34,7.34,0,0,1,14.674,0,8.184,8.184,0,0,1-2.142,5.388,7,7,0,0,1-5.2,2.451m0-14.574a6.853,6.853,0,0,0-6.949,6.736c0,3.518,2.972,7.451,6.949,7.451s6.95-3.934,6.95-7.451a6.853,6.853,0,0,0-6.95-6.736" transform="translate(-47.691 -1.243)" fill="#232426"/>
      <rect id="Rectangle_292" data-name="Rectangle 292" width="3.042" height="2.517" transform="translate(109.184 24.765)" fill="#fff"/>
      <path id="Path_1054" data-name="Path 1054" d="M162.491,38.809h-3.042a.194.194,0,0,1-.194-.194V36.1a.194.194,0,0,1,.194-.194h3.042a.194.194,0,0,1,.194.194v2.516a.194.194,0,0,1-.194.194m-2.848-.388H162.3V36.292h-2.655Z" transform="translate(-50.265 -11.333)" fill="#232426"/>
      <path id="Path_1055" data-name="Path 1055" d="M152.343,14.193a.19.19,0,0,1-.12-.042.193.193,0,0,1-.031-.272c.023-.029,2.36-2.868,6.575-.336.63-.5,3.789-2.742,6.539.207a.194.194,0,0,1-.283.264c-2.795-3-5.975-.209-6.109-.09a.2.2,0,0,1-.232.021c-3.989-2.471-6.1.067-6.187.176a.193.193,0,0,1-.151.073" transform="translate(-48.022 -3.868)" fill="#232426"/>
      <path id="Path_1056" data-name="Path 1056" d="M48.05,57.42c0,3.709-5.92,12.621-7.338,14.7a.366.366,0,0,1-.606,0,78.514,78.514,0,0,1-6.144-10.559,11.552,11.552,0,0,1-1.194-4.143,7.641,7.641,0,0,1,15.281,0" transform="translate(-10.343 -15.715)" fill="#232426"/>
      <path id="Path_1057" data-name="Path 1057" d="M45.816,59.329a3.494,3.494,0,1,1-3.494-3.488,3.491,3.491,0,0,1,3.494,3.488" transform="translate(-12.255 -17.625)" fill="#fff"/>
      <path id="Path_1058" data-name="Path 1058" d="M40.322,72.386a.562.562,0,0,1-.464-.245A79.08,79.08,0,0,1,33.7,61.552a11.552,11.552,0,0,1-1.21-4.222,7.834,7.834,0,0,1,15.669,0c0,3.7-5.643,12.273-7.372,14.811a.558.558,0,0,1-.462.244m0-22.491a7.449,7.449,0,0,0-7.447,7.435,11.229,11.229,0,0,0,1.177,4.064,78.632,78.632,0,0,0,6.127,10.528.178.178,0,0,0,.285,0c1.22-1.79,7.3-10.909,7.3-14.593A7.449,7.449,0,0,0,40.321,49.9" transform="translate(-10.254 -15.626)" fill="#050605"/>
      <path id="Path_1059" data-name="Path 1059" d="M94.288,106.388c0,3.686-5.883,12.541-7.292,14.61a.364.364,0,0,1-.6,0,78.1,78.1,0,0,1-6.105-10.491,11.485,11.485,0,0,1-1.187-4.118,7.593,7.593,0,0,1,15.186,0" transform="translate(-24.967 -31.186)" fill="#232426"/>
      <path id="Path_1060" data-name="Path 1060" d="M92.068,108.286A3.472,3.472,0,1,1,88.6,104.82a3.47,3.47,0,0,1,3.472,3.466" transform="translate(-26.867 -33.084)" fill="#fff"/>
      <path id="Path_1061" data-name="Path 1061" d="M86.606,121.262a.558.558,0,0,1-.461-.244,78.6,78.6,0,0,1-6.122-10.523,11.493,11.493,0,0,1-1.2-4.2,7.787,7.787,0,0,1,15.574,0c0,3.68-5.607,12.2-7.326,14.72a.557.557,0,0,1-.461.244m0-22.35a7.4,7.4,0,0,0-7.4,7.386,11.155,11.155,0,0,0,1.17,4.039A78.179,78.179,0,0,0,86.465,120.8a.176.176,0,0,0,.282,0C87.958,119.021,94,109.96,94,106.3a7.4,7.4,0,0,0-7.4-7.386" transform="translate(-24.877 -31.097)" fill="#050605"/>
      <path id="Path_1062" data-name="Path 1062" d="M133.959,57.127c0,2.974-4.748,10.123-5.886,11.793a.294.294,0,0,1-.486,0,63.07,63.07,0,0,1-4.927-8.47,9.265,9.265,0,0,1-.958-3.323,6.129,6.129,0,0,1,12.258,0" transform="translate(-38.412 -16.099)" fill="#232426"/>
      <path id="Path_1063" data-name="Path 1063" d="M132.167,58.659a2.8,2.8,0,1,1-2.8-2.8,2.8,2.8,0,0,1,2.8,2.8" transform="translate(-39.946 -17.631)" fill="#fff"/>
      <path id="Path_1064" data-name="Path 1064" d="M127.772,69.118a.422.422,0,0,1-.349-.185,63.365,63.365,0,0,1-4.939-8.49,9.246,9.246,0,0,1-.968-3.375,6.257,6.257,0,0,1,12.513,0c0,2.961-4.522,9.83-5.908,11.865a.421.421,0,0,1-.348.185m0-18.041a6,6,0,0,0-6,5.991,9.018,9.018,0,0,0,.946,3.271,63.1,63.1,0,0,0,4.917,8.449.165.165,0,0,0,.274,0c.979-1.438,5.864-8.759,5.864-11.721a6,6,0,0,0-6-5.991" transform="translate(-38.353 -16.04)" fill="#050605"/>
      <path id="Path_1065" data-name="Path 1065" d="M196.311,24.107a.2.2,0,0,1-.138-.057.194.194,0,0,1,0-.274l1.063-1.061a.194.194,0,0,1,.274.274l-1.063,1.061a.194.194,0,0,1-.137.057" transform="translate(-61.9 -7.152)" fill="#232426"/>
      <path id="Path_1066" data-name="Path 1066" d="M192.694,27.718a.2.2,0,0,1-.138-.057.194.194,0,0,1,0-.274l1.063-1.061a.194.194,0,0,1,.274.274l-1.063,1.061a.194.194,0,0,1-.137.057" transform="translate(-60.758 -8.291)" fill="#232426"/>
      <path id="Path_1067" data-name="Path 1067" d="M193.756,24.107a.194.194,0,0,1-.137-.057l-1.063-1.061a.194.194,0,0,1,.274-.274l1.063,1.061a.194.194,0,0,1,0,.274.2.2,0,0,1-.138.057" transform="translate(-60.758 -7.152)" fill="#232426"/>
      <path id="Path_1068" data-name="Path 1068" d="M197.373,27.718a.194.194,0,0,1-.137-.057L196.174,26.6a.194.194,0,0,1,.274-.274l1.063,1.061a.194.194,0,0,1,0,.274.2.2,0,0,1-.138.057" transform="translate(-61.9 -8.291)" fill="#232426"/>
      <path id="Path_1069" data-name="Path 1069" d="M205.695,40.972a1.7,1.7,0,0,1,2.263.9,1.762,1.762,0,0,1-.879,2.306,1.706,1.706,0,0,1-2.264-.9,1.763,1.763,0,0,1,.88-2.306" transform="translate(-64.599 -12.885)" fill="none"/>
      <path id="Path_1070" data-name="Path 1070" d="M206.3,44.428a1.881,1.881,0,0,1-.683-.129,1.908,1.908,0,0,1-1.067-1.033,1.959,1.959,0,0,1,.978-2.56,1.87,1.87,0,0,1,1.454-.037,1.91,1.91,0,0,1,1.067,1.033,1.958,1.958,0,0,1-.978,2.56,1.878,1.878,0,0,1-.771.166m-.613-3.368a1.569,1.569,0,0,0-.781,2.052,1.526,1.526,0,0,0,.851.826,1.483,1.483,0,0,0,1.155-.029,1.568,1.568,0,0,0,.781-2.052,1.528,1.528,0,0,0-.851-.826,1.486,1.486,0,0,0-1.155.029" transform="translate(-64.51 -12.795)" fill="#232426"/>
      <path id="Path_1071" data-name="Path 1071" d="M129.348,2.978a2.7,2.7,0,1,1-2.7-2.7,2.7,2.7,0,0,1,2.7,2.7" transform="translate(-39.121 -0.089)" fill="#fff"/>
      <path id="Path_1072" data-name="Path 1072" d="M126.558,5.78a2.89,2.89,0,1,1,2.894-2.89,2.9,2.9,0,0,1-2.894,2.89m0-5.392a2.5,2.5,0,1,0,2.506,2.5,2.507,2.507,0,0,0-2.506-2.5" transform="translate(-39.032)" fill="#232426"/>
      <path id="Path_1073" data-name="Path 1073" d="M201.557,164.681s3.83,1.3,6.065.72c0,0,2.781,2.351,2.744,3.594l-9.727-.183Z" transform="translate(-63.327 -51.978)" fill="#fff"/>
      <path id="Path_1074" data-name="Path 1074" d="M210.276,169.1h0l-9.728-.183a.194.194,0,0,1-.185-.236l.918-4.131a.195.195,0,0,1,.252-.142c.038.013,3.8,1.271,5.954.717a.194.194,0,0,1,.173.04c.292.246,2.851,2.449,2.813,3.748a.194.194,0,0,1-.194.188m-9.487-.567,9.275.175c-.192-.951-1.835-2.54-2.582-3.184-1.995.459-5.049-.424-5.871-.682Z" transform="translate(-63.237 -51.888)" fill="#232426"/>
      <path id="Path_1075" data-name="Path 1075" d="M208.074,163.8s2.4-2.788,3.462-2.837c.9-.04,8.028,6.348,10.3,8.479a.694.694,0,0,1-.307,1.182c-1.335.331-4.391.322-11.249-1.981a.993.993,0,0,1-.672-.8l-.295-2.045,1.44-.176Z" transform="translate(-65.674 -50.804)" fill="#fff"/>
      <path id="Path_1076" data-name="Path 1076" d="M219.915,170.884c-1.819,0-4.828-.48-9.789-2.146a1.182,1.182,0,0,1-.8-.953l-.295-2.044a.193.193,0,0,1,.168-.22l.929-.114-2.252-1.536a.194.194,0,0,1-.038-.287c.251-.292,2.487-2.853,3.6-2.9h.011c1.239,0,10.336,8.445,10.427,8.531a.889.889,0,0,1-.394,1.512,6.6,6.6,0,0,1-1.568.161m-10.474-5,.266,1.849a.8.8,0,0,0,.542.64c6.707,2.252,9.761,2.318,11.141,1.976a.493.493,0,0,0,.365-.358.5.5,0,0,0-.144-.495c-3.173-2.978-9.44-8.434-10.155-8.426-.751.034-2.432,1.762-3.182,2.606l2.5,1.7a.194.194,0,0,1-.086.352Z" transform="translate(-65.584 -50.715)" fill="#232426"/>
      <path id="Path_1077" data-name="Path 1077" d="M218.255,173.49a.18.18,0,0,1-.06-.01.193.193,0,0,1-.125-.244l.61-1.885a.194.194,0,0,1,.369.119l-.611,1.885a.193.193,0,0,1-.184.134" transform="translate(-68.826 -54.041)" fill="#232426"/>
      <path id="Path_1078" data-name="Path 1078" d="M216.5,172.751a.18.18,0,0,1-.06-.01.193.193,0,0,1-.125-.244l.61-1.885a.194.194,0,0,1,.369.119l-.611,1.885a.193.193,0,0,1-.184.134" transform="translate(-68.272 -53.807)" fill="#232426"/>
      <path id="Path_1079" data-name="Path 1079" d="M221.715,170.186a.193.193,0,0,1-.124-.044l-9.112-7.573a.193.193,0,1,1,.247-.3l9.113,7.573a.194.194,0,0,1-.124.343" transform="translate(-67.042 -51.203)" fill="#232426"/>
      <path id="Path_1080" data-name="Path 1080" d="M148.7,170.449c-.008-.886-.024-2.289-.051-4.09l-2.716.376-2.247-2.007s-6.448,2.293-9.572,5.192a.936.936,0,0,0,.5,1.618,58.345,58.345,0,0,0,12.994.12,1.212,1.212,0,0,0,1.087-1.209" transform="translate(-42.235 -51.993)" fill="#fff"/>
      <path id="Path_1081" data-name="Path 1081" d="M141.588,172.068a52.81,52.81,0,0,1-7.085-.429,1.129,1.129,0,0,1-.608-1.951c3.117-2.892,9.373-5.138,9.638-5.232a.194.194,0,0,1,.194.038l2.18,1.946,2.627-.363a.193.193,0,0,1,.22.189c.027,1.8.042,3.2.051,4.091a1.4,1.4,0,0,1-1.259,1.4,54.648,54.648,0,0,1-5.959.307m1.968-7.208c-.854.315-6.558,2.477-9.4,5.112a.741.741,0,0,0,.4,1.283,57.691,57.691,0,0,0,12.944.12,1.016,1.016,0,0,0,.914-1.015c-.008-.849-.022-2.174-.047-3.869l-2.5.346a.2.2,0,0,1-.156-.047Z" transform="translate(-42.145 -51.903)" fill="#232426"/>
      <path id="Path_1082" data-name="Path 1082" d="M141.6,173.33a50.593,50.593,0,0,1-5.913-.316.194.194,0,1,1,.046-.385,61.767,61.767,0,0,0,10.947.123.194.194,0,0,1,.034.386c-.036,0-2.226.192-5.114.192" transform="translate(-42.772 -54.486)" fill="#232426"/>
      <path id="Path_1083" data-name="Path 1083" d="M142.213,169.984a.194.194,0,0,1-.19-.153l-.513-2.384a.194.194,0,0,1,.379-.082l.513,2.384a.194.194,0,0,1-.148.231.208.208,0,0,1-.041,0" transform="translate(-44.663 -52.777)" fill="#232426"/>
      <path id="Path_1084" data-name="Path 1084" d="M143.967,169.245a.194.194,0,0,1-.19-.153l-.513-2.384a.194.194,0,1,1,.379-.082l.513,2.384a.194.194,0,0,1-.149.231.209.209,0,0,1-.041,0" transform="translate(-45.217 -52.543)" fill="#232426"/>
      <path id="Path_1085" data-name="Path 1085" d="M174.4,127.774c-.131-.107-12.356-8.7-15.693-7.777-5.7,1.577-4.594,18.254-4.475,22.665.115,4.294,20.854-8.6,21.492-9.728s1.019-3.229-1.324-5.161" transform="translate(-48.629 -37.852)" fill="#9ca777"/>
      <path id="Path_1086" data-name="Path 1086" d="M152.339,144.163l-.056.049c-3.576,3.14-5.048,6.263-4.793,10.283.25,3.93,5.934,6.736,24.332,4.69,3.869-.543,11.627-.978,14.984-1.081a1.262,1.262,0,0,0,1.234-1.271l-.047-3.112a1.251,1.251,0,0,0-.629-1.063,27.978,27.978,0,0,0-15.9-3.856c-.286.011-.239-.283.041-.344,4.736-1.024,12.048-1.5,14.094-3.188,3.959-3.265,3.225-9.06,2.367-12.6-2.5-10.319-18.123.454-18.231.48h0c-.031.018-2.114,1.207-4.863,2.84Z" transform="translate(-46.543 -40.464)" fill="#9ca777"/>
      <path id="Path_1087" data-name="Path 1087" d="M167.011,160.22a.194.194,0,0,1-.1-.361c.141-.083,3.553-2.06,11.9-2.252a.191.191,0,0,1,.2.189.194.194,0,0,1-.19.2c-8.226.189-11.675,2.178-11.709,2.2a.192.192,0,0,1-.1.027" transform="translate(-52.652 -49.745)" fill="#fff"/>
      <path id="Path_1088" data-name="Path 1088" d="M155.993,146.2a.193.193,0,0,1-.116-.348c.1-.075,10.062-7.525,17.029-9.216a.194.194,0,1,1,.091.376c-6.89,1.672-16.788,9.074-16.888,9.149a.2.2,0,0,1-.116.039" transform="translate(-49.174 -43.124)" fill="#fff"/>
      <path id="Path_1089" data-name="Path 1089" d="M208.161,102.25c1.473,1.265,6.753,7.9,5.89,19.082a.782.782,0,0,0,.121.485c.469.726,1.9,3.12,1.443,4.625-.531,1.741-2.351,5.53-2.881.142a.13.13,0,0,0-.245-.043c-.221.45-.575,1.069-.809.984-.548-.2-.356-3.036-.208-4.711s.377-2.337-1.323-6.387c-1.046-2.495-4.512-6.622-5.824-7.908,0,0,3.676-6.405,3.837-6.267" transform="translate(-64.49 -32.272)" fill="#fff"/>
      <path id="Path_1090" data-name="Path 1090" d="M213.677,129.471a.537.537,0,0,1-.057,0c-.582-.058-.947-.929-1.146-2.737-.378.722-.666.988-.95.886-.369-.133-.7-.821-.335-4.911.011-.123.022-.241.033-.355.134-1.392.215-2.232-1.341-5.94-1-2.391-4.345-6.436-5.781-7.844a.2.2,0,0,1-.032-.235c3.618-6.305,3.851-6.345,3.963-6.364a.216.216,0,0,1,.168.046c1.811,1.556,6.792,8.429,5.957,19.244a.579.579,0,0,0,.091.364c.6.925,1.937,3.243,1.465,4.787-.01.031-.947,3.061-2.033,3.062m-1.163-3.286a.3.3,0,0,1,.06.005.318.318,0,0,1,.263.284c.233,2.367.687,2.594.821,2.607h.023c.478,0,1.252-1.453,1.659-2.787.436-1.428-.977-3.778-1.42-4.463a.972.972,0,0,1-.152-.6c.8-10.405-3.826-17.08-5.693-18.8-.487.641-2.382,3.858-3.6,5.973,1.276,1.289,4.7,5.329,5.76,7.865,1.594,3.8,1.51,4.675,1.37,6.127-.011.113-.022.23-.033.352-.344,3.889-.018,4.429.066,4.5.051-.03.24-.179.584-.878a.321.321,0,0,1,.289-.18" transform="translate(-64.401 -32.183)" fill="#232426"/>
      <path id="Path_1091" data-name="Path 1091" d="M152.455,91.484s-5.147,1.66-7.264,1.451c-2.979-.295-6.272-9.222-6.5-9.836s-1.02-3.9-1.792-5.006a16.226,16.226,0,0,1-1.538-2.822.669.669,0,0,0-.793-.477.788.788,0,0,0-.437,1.082c.292.71.567,1.428.81,2.036.077.191.19.365.025.248-.386-.274-.873-.527-1.191-.35-.6.331-.919,2.55.046,4.108s2.026,1.192,2.347,1.948,2.991,10.569,4.088,12.266c1.577,2.44,12.6,2.7,14.253,2.657s-2.05-7.305-2.05-7.305" transform="translate(-42.043 -23.599)" fill="#fff"/>
      <path id="Path_1092" data-name="Path 1092" d="M154.339,98.894c-1.1,0-12.625-.093-14.339-2.746-.8-1.231-2.326-6.394-3.34-9.81-.377-1.272-.675-2.277-.764-2.485-.106-.25-.32-.344-.643-.487a3.335,3.335,0,0,1-1.69-1.435,4.752,4.752,0,0,1-.515-3.481,1.448,1.448,0,0,1,.541-.9,1.037,1.037,0,0,1,.986.107l-.185-.471c-.168-.425-.345-.877-.53-1.326a1,1,0,0,1,0-.827.989.989,0,0,1,.561-.514.864.864,0,0,1,1.03.586,16.016,16.016,0,0,0,1.519,2.787,18.355,18.355,0,0,1,1.545,4.153c.12.417.214.746.27.9l.012.03c.586,1.57,3.647,9.416,6.328,9.68,2.05.2,7.134-1.426,7.185-1.442a.193.193,0,0,1,.232.1c.318.622,3.082,6.111,2.373,7.306a.56.56,0,0,1-.489.281h-.083M133.926,77.857a.3.3,0,0,0-.151.034,1.086,1.086,0,0,0-.353.658,4.4,4.4,0,0,0,.47,3.178,2.95,2.95,0,0,0,1.517,1.284,1.382,1.382,0,0,1,.844.69c.1.229.383,1.192.779,2.527.946,3.188,2.529,8.527,3.294,9.711,1.413,2.188,11.5,2.645,14.085,2.568a.177.177,0,0,0,.167-.091c.442-.746-1.153-4.494-2.31-6.786-.9.282-5.237,1.6-7.185,1.409-2.837-.281-5.81-7.673-6.653-9.931l-.011-.03c-.062-.164-.158-.5-.281-.924a18.219,18.219,0,0,0-1.49-4.038,16.4,16.4,0,0,1-1.557-2.856c-.123-.287-.346-.436-.556-.369a.615.615,0,0,0-.328.308.624.624,0,0,0,.01.516c.186.451.365.9.532,1.332.1.246.19.482.279.7.016.042.036.083.052.12.06.13.127.278,0,.385a.254.254,0,0,1-.317-.027,1.676,1.676,0,0,0-.835-.373" transform="translate(-41.953 -23.51)" fill="#232426"/>
      <path id="Path_1093" data-name="Path 1093" d="M190.161,106.4c-.245-.178-.892-.708-1.074-.811a.43.43,0,0,0-.643.362c-.027,2.1,0,8.162,1.086,10.2.456.858.89,1.522,1.224,2.313.578,1.374.64,1.718.492,2.081s-1.358.7-1.852.892c-4.519,1.71-13.474,3.528-14.656-1.378a26.528,26.528,0,0,0-3.227-8.388c-.546-.955-1.664-.66-3.261-2.143-.925-.86-.935-1.681-1.3-2.961-.261-.9-.476-1.061-4.632-1.924-.094-.019-4.209-8.857-4.209-8.857s11.109-4.457,16.5-5.131c11.526-1.442,16.72,3.6,20.227,8.7a51.17,51.17,0,0,1-4.669,7.046" transform="translate(-49.902 -28.535)" fill="#fff"/>
      <path id="Path_1094" data-name="Path 1094" d="M180.444,123.342a8.623,8.623,0,0,1-3.984-.8,3.77,3.77,0,0,1-2-2.528,26.393,26.393,0,0,0-3.206-8.336,1.957,1.957,0,0,0-1.1-.772,6.5,6.5,0,0,1-2.126-1.326,3.989,3.989,0,0,1-1.161-2.293c-.059-.238-.12-.485-.2-.756-.226-.782-.38-.936-4.485-1.789-.133-.028-.153-.032-2.276-4.543-1.04-2.213-2.069-4.422-2.069-4.422a.191.191,0,0,1,0-.153.194.194,0,0,1,.108-.109c.112-.044,11.194-4.474,16.546-5.143,11.664-1.458,16.863,3.62,20.41,8.781.088.127.17.248-1.994,3.543a41.591,41.591,0,0,1-2.616,3.7c-.152.148-.265.12-.333.07-.092-.067-.241-.183-.4-.309-.247-.193-.553-.433-.655-.491a.236.236,0,0,0-.237,0,.225.225,0,0,0-.116.194c-.025,1.857-.019,8.072,1.063,10.107.153.287.3.552.448.808a14.4,14.4,0,0,1,.784,1.522c.586,1.391.673,1.787.493,2.229-.142.351-.787.6-1.615.878-.133.046-.254.086-.347.122a27.758,27.758,0,0,1-8.931,1.813m-18.1-18.961c4,.833,4.4,1.01,4.7,2.044.08.277.142.528.2.77a3.633,3.633,0,0,0,1.048,2.1,6.164,6.164,0,0,0,2.013,1.252,2.3,2.3,0,0,1,1.284.936,26.718,26.718,0,0,1,3.247,8.438,3.4,3.4,0,0,0,1.8,2.276c2.826,1.495,8.511.512,12.6-1.033.1-.036.221-.079.359-.126.387-.132,1.294-.442,1.382-.657.118-.292.064-.613-.491-1.933a14.054,14.054,0,0,0-.764-1.482c-.146-.258-.3-.526-.452-.816-1.126-2.116-1.133-8.414-1.109-10.294a.612.612,0,0,1,.31-.526.624.624,0,0,1,.621,0c.118.067.366.259.7.524.1.079.2.155.276.216a66.8,66.8,0,0,0,4.463-6.762c-3.481-5.041-8.588-9.975-20-8.548-4.918.615-14.767,4.453-16.259,5.042,1.521,3.267,3.738,7.987,4.065,8.58m27.841,1.773h0" transform="translate(-49.813 -28.444)" fill="#232426"/>
      <path id="Path_1095" data-name="Path 1095" d="M196.465,116.935a.194.194,0,0,1-.165-.092,19.369,19.369,0,0,1-2.991-8.226,23.655,23.655,0,0,0-3.991-10.374.194.194,0,1,1,.309-.233,24.081,24.081,0,0,1,4.066,10.564,19.008,19.008,0,0,0,2.936,8.066.194.194,0,0,1-.063.267.2.2,0,0,1-.1.029" transform="translate(-59.742 -30.91)" fill="#050605"/>
      <path id="Path_1096" data-name="Path 1096" d="M180.613,62.873a2.447,2.447,0,0,0-1.4.985,2.338,2.338,0,0,0,.045,2.7,2.352,2.352,0,0,0,.376,3.895,2.319,2.319,0,0,0-.122,1.673,2.447,2.447,0,0,0,2.156,1.7,2.347,2.347,0,0,0,.617,1.567,2.464,2.464,0,0,0,1.253.736,2.582,2.582,0,0,0,.219.193,2.518,2.518,0,0,0,2.771.192,2.456,2.456,0,0,0,1.43.94,2.5,2.5,0,0,0,2.594-.965,2.511,2.511,0,0,0,1.7.264,2.423,2.423,0,0,0,1.932-1.94,2.5,2.5,0,0,0,1.659-.461,2.356,2.356,0,0,0,.908-2.552,2.431,2.431,0,0,0,1.3-1.1,2.337,2.337,0,0,0-.287-2.685,2.354,2.354,0,0,0,.7-1.532,2.385,2.385,0,0,0-1.428-2.316,2.321,2.321,0,0,0-.029-1.677,2.461,2.461,0,0,0-2.3-1.512,2.352,2.352,0,0,0-.755-1.508,2.514,2.514,0,0,0-2.743-.426,2.436,2.436,0,0,0-1.34-1.057,2.5,2.5,0,0,0-2.671.741,2.505,2.505,0,0,0-1.674-.408,2.44,2.44,0,0,0-2.1,1.769,2.51,2.51,0,0,0-1.694.318,2.367,2.367,0,0,0-1.133,2.466" transform="translate(-56.307 -18.263)" fill="#232426"/>
      <path id="Path_1097" data-name="Path 1097" d="M179.8,75.644a.453.453,0,0,0-.66.229c-.051.145-.1.289-.139.389a4.807,4.807,0,0,1-1.122,2.007.22.22,0,0,0-.005.3l.577.669a.208.208,0,0,1,.049.165c-.051.37-.232,1.726-.223,1.985a1.012,1.012,0,0,0,.322.672,5.554,5.554,0,0,0,1.675.227s.36.083.8,2.077c.311,1.4-1.842,2.86-1.842,2.86s4.838,1.9,8.91.248a.355.355,0,0,0,.047-.613,10.153,10.153,0,0,1-3.47-4.175.463.463,0,0,0-.257-.267c-.493-.2-1.839-.576-1.6-2.783a.318.318,0,0,1,.061-.154c.283-.383,1.592-2.284-.649-2.018a1.748,1.748,0,0,1-2.057-1.358.64.64,0,0,0-.292-.38Z" transform="translate(-56.123 -23.855)" fill="#fff"/>
      <path id="Path_1098" data-name="Path 1098" d="M184.276,88.253a15.678,15.678,0,0,1-5.207-.941.194.194,0,0,1-.038-.341c.021-.014,2.041-1.4,1.762-2.658a5.331,5.331,0,0,0-.652-1.925,4.721,4.721,0,0,1-1.749-.263,1.2,1.2,0,0,1-.4-.823c-.009-.252.137-1.372.224-2.018l-.581-.682a.414.414,0,0,1,.012-.558,4.416,4.416,0,0,0,1.034-1.8c.018-.056.033-.1.047-.139.036-.1.087-.242.138-.387a.633.633,0,0,1,.386-.385.649.649,0,0,1,.557.055l.129.077a.826.826,0,0,1,.379.5,1.551,1.551,0,0,0,1.846,1.215c.742-.088,1.2.039,1.4.387.341.589-.289,1.552-.576,1.938a.121.121,0,0,0-.023.06c-.21,1.92.819,2.323,1.372,2.54l.107.043a.658.658,0,0,1,.364.378,10.043,10.043,0,0,0,3.4,4.086.571.571,0,0,1,.229.53.512.512,0,0,1-.318.419,10.244,10.244,0,0,1-3.846.694m-4.728-1.183c1.159.383,5.087,1.484,8.429.13a.127.127,0,0,0,.079-.107.185.185,0,0,0-.073-.17,10.435,10.435,0,0,1-3.538-4.264.269.269,0,0,0-.149-.155l-.1-.04c-.556-.218-1.858-.729-1.616-2.943a.509.509,0,0,1,.1-.248c.4-.538.725-1.215.552-1.512-.111-.192-.474-.262-1.022-.2a1.934,1.934,0,0,1-2.267-1.5.437.437,0,0,0-.2-.263l-.129-.078a.262.262,0,0,0-.226-.022.246.246,0,0,0-.151.149c-.052.146-.1.292-.14.391-.012.032-.025.074-.04.124a4.776,4.776,0,0,1-1.123,1.949.028.028,0,0,0,0,.038l.576.669a.4.4,0,0,1,.094.318c-.142,1.045-.227,1.793-.221,1.952a.827.827,0,0,0,.243.521,4.994,4.994,0,0,0,1.564.19.17.17,0,0,1,.041.005c.179.041.54.385.947,2.224.263,1.189-1.018,2.362-1.623,2.84" transform="translate(-56.033 -23.765)" fill="#232426"/>
      <path id="Path_1099" data-name="Path 1099" d="M184.145,81.448a.924.924,0,0,1-.147-.012.835.835,0,0,1-.643-.422.194.194,0,0,1,.366-.125.636.636,0,0,0,.426.17h.01a.643.643,0,0,0,.521-.346.194.194,0,0,1,.325.211,1,1,0,0,1-.859.524m-.415-.534h0Z" transform="translate(-57.87 -25.447)" fill="#232426"/>
      <path id="Path_1100" data-name="Path 1100" d="M183.4,82.471a.37.37,0,0,1,.441-.276.364.364,0,0,1,.282.434.37.37,0,0,1-.442.276.364.364,0,0,1-.281-.434" transform="translate(-57.884 -25.94)" fill="#232426"/>
    </g>
  </g>
</svg>
