<svg xmlns="http://www.w3.org/2000/svg" width="154.895" height="157.659" viewBox="0 0 154.895 157.659">
  <g id="Group_14457" data-name="Group 14457" transform="translate(0 0)">
    <g id="Group_14592" data-name="Group 14592" transform="translate(0 0)">
      <path id="Path_1553" data-name="Path 1553" d="M67.092,25.316H61.967s-1.8,12.944-6.68,18.39c-4.624,5.16-13.282,3.745-13.282,3.745s0,.011-.008.027a20.152,20.152,0,0,0-9.77-.025,27.571,27.571,0,0,0-7.03,2.952s-6.3,3.981-6.149,11.576c.116,5.894,4.539,12.911,4.5,13.413-.389,5.626-.824,5.433-.237,7.438,1.425,4.865,21.607,2.859,21.965.629.326-2.024-.612-5.406-.141-9.955.742-7.172,2.216-9.725,3.894-14.148,9.267-.753,15.255-5.988,17.119-14.4,1.923-8.675.938-19.644.938-19.644" transform="translate(-5.636 -7.492)" fill="#fff"/>
      <path id="Path_1554" data-name="Path 1554" d="M33.131,85.938c-4.824,0-9.387-.811-10.068-3.132a6.485,6.485,0,0,1-.156-3.332c.1-.91.247-2.156.387-4.17a12.33,12.33,0,0,0-.61-1.3c-1.236-2.461-3.806-7.584-3.894-12.1-.15-7.611,6.17-11.694,6.234-11.735A28.025,28.025,0,0,1,32.1,47.2a20.254,20.254,0,0,1,9.771,0,.194.194,0,0,1,.083-.006c.086.014,8.614,1.338,13.116-3.686,4.789-5.344,6.617-18.165,6.635-18.294a.184.184,0,0,1,.182-.158h5.124a.184.184,0,0,1,.182.167c.01.11.965,11.1-.941,19.7s-8,13.747-17.168,14.53c-.28.733-.553,1.414-.817,2.076a37.625,37.625,0,0,0-3.025,11.919A33.536,33.536,0,0,0,45.316,80a15.229,15.229,0,0,1,.069,3.415c-.22,1.368-5.694,2.2-9.32,2.432-.968.061-1.957.094-2.935.094m3.932-38.964a19.774,19.774,0,0,0-4.865.579,27.628,27.628,0,0,0-6.979,2.93c-.062.039-6.209,4.017-6.064,11.418.087,4.431,2.633,9.5,3.856,11.942a5.206,5.206,0,0,1,.648,1.487c-.14,2.022-.283,3.273-.388,4.186a6.151,6.151,0,0,0,.144,3.187c.758,2.586,7.277,3.111,12.628,2.775,5.221-.327,8.859-1.363,8.98-2.124a15.261,15.261,0,0,0-.072-3.326,33.844,33.844,0,0,1-.07-6.618,37.941,37.941,0,0,1,3.049-12.017c.277-.691.564-1.406.856-2.177a.182.182,0,0,1,.156-.118C58,58.363,64.024,53.3,65.9,44.844c1.767-7.968,1.06-18.01.948-19.422h-4.8c-.227,1.5-2.131,13.23-6.7,18.33-4.376,4.883-12.388,3.95-13.353,3.817a.184.184,0,0,1-.122.009,18.487,18.487,0,0,0-4.81-.6" transform="translate(-5.559 -7.415)" fill="#232426"/>
      <path id="Path_1555" data-name="Path 1555" d="M138.527,156.351H49.074a4.576,4.576,0,0,1-4.45-5.345l19.238-121.3a4.538,4.538,0,0,1,4.45-3.87h89.453a4.577,4.577,0,0,1,4.45,5.345l-19.239,121.3a4.538,4.538,0,0,1-4.45,3.87" transform="translate(-13.188 -7.645)" fill="#fff"/>
      <path id="Path_1556" data-name="Path 1556" d="M138.45,156.457H49a4.65,4.65,0,0,1-3.536-1.642,4.851,4.851,0,0,1-1.1-3.915L63.6,29.6a4.7,4.7,0,0,1,4.631-4.025h89.453a4.647,4.647,0,0,1,3.535,1.642,4.845,4.845,0,0,1,1.1,3.914l-19.238,121.3a4.7,4.7,0,0,1-4.631,4.025M68.235,25.941a4.339,4.339,0,0,0-4.27,3.715l-19.238,121.3a4.48,4.48,0,0,0,1.012,3.619A4.282,4.282,0,0,0,49,156.091H138.45a4.339,4.339,0,0,0,4.269-3.716l19.238-121.3a4.483,4.483,0,0,0-1.012-3.62,4.284,4.284,0,0,0-3.257-1.513Z" transform="translate(-13.111 -7.568)" fill="#232426"/>
      <path id="Path_1557" data-name="Path 1557" d="M134.49,156H45.037a4.571,4.571,0,0,1-4.45-5.335L59.825,29.572a4.535,4.535,0,0,1,4.45-3.863h89.453a4.571,4.571,0,0,1,4.45,5.335L138.94,152.135A4.535,4.535,0,0,1,134.49,156" transform="translate(-11.993 -7.608)" fill="#fff"/>
      <path id="Path_1558" data-name="Path 1558" d="M134.441,156.4H44.961a4.65,4.65,0,0,1-3.54-1.646,4.855,4.855,0,0,1-1.093-3.914L59.573,29.476a4.7,4.7,0,0,1,4.632-4.027h89.48a4.649,4.649,0,0,1,3.54,1.646,4.85,4.85,0,0,1,1.092,3.913L139.073,152.377a4.7,4.7,0,0,1-4.632,4.027M64.205,25.816a4.341,4.341,0,0,0-4.271,3.718L40.691,150.9a4.486,4.486,0,0,0,1.01,3.618,4.284,4.284,0,0,0,3.261,1.517h89.48a4.34,4.34,0,0,0,4.27-3.718L157.955,30.951a4.486,4.486,0,0,0-1.009-3.618,4.285,4.285,0,0,0-3.261-1.517Z" transform="translate(-11.951 -7.531)" fill="#232426"/>
      <path id="Path_1559" data-name="Path 1559" d="M139.494,36.531h-25.93a6.785,6.785,0,0,1-6.6-7.961l.605-3.649a.761.761,0,0,1,.745-.642h39.941a.766.766,0,0,1,.745.9l-.614,3.7a9.067,9.067,0,0,1-8.89,7.655" transform="translate(-31.624 -7.185)" fill="#fff"/>
      <path id="Path_1560" data-name="Path 1560" d="M139.418,36.638h-25.93a6.822,6.822,0,0,1-5.207-2.428,7.078,7.078,0,0,1-1.576-5.747l.606-3.65a.941.941,0,0,1,.927-.794h39.939a.933.933,0,0,1,.712.331.959.959,0,0,1,.214.78l-.614,3.7a9.225,9.225,0,0,1-9.07,7.809M108.236,24.386a.577.577,0,0,0-.565.489l-.606,3.649a6.713,6.713,0,0,0,1.5,5.45,6.453,6.453,0,0,0,4.927,2.3h25.93a8.858,8.858,0,0,0,8.709-7.5l.614-3.7a.6.6,0,0,0-.132-.483.565.565,0,0,0-.432-.2Z" transform="translate(-31.548 -7.108)" fill="#232426"/>
      <path id="Path_1561" data-name="Path 1561" d="M128.057,28.039H139.13a.832.832,0,0,0,.846-.7l1.517-9.866a6.426,6.426,0,0,0-6.244-7.484,6.359,6.359,0,0,0-6.244,5.443l-1.793,11.629a.84.84,0,0,0,.845.98m4.53-11.972.012-.074a2.585,2.585,0,1,1,5.095.875l-.012.075a2.585,2.585,0,1,1-5.095-.876" transform="translate(-37.642 -2.956)" fill="#fff"/>
      <path id="Path_1562" data-name="Path 1562" d="M139.053,28.145H127.98a1.045,1.045,0,0,1-.8-.362,1.026,1.026,0,0,1-.228-.83l1.794-11.628a6.516,6.516,0,0,1,6.424-5.6,6.444,6.444,0,0,1,4.891,2.268,6.742,6.742,0,0,1,1.534,5.428l-1.517,9.865a1.013,1.013,0,0,1-1.027.858m-3.882-18.052a6.152,6.152,0,0,0-6.062,5.288L127.315,27.01a.651.651,0,0,0,.145.535.679.679,0,0,0,.52.234h11.073a.653.653,0,0,0,.665-.548l1.517-9.865a6.379,6.379,0,0,0-1.45-5.133,6.079,6.079,0,0,0-4.613-2.14m-.115,9.159a2.739,2.739,0,0,1-2.089-.974,2.857,2.857,0,0,1-.639-2.319h0l.012-.074a2.776,2.776,0,0,1,2.728-2.358,2.74,2.74,0,0,1,2.09.974,2.859,2.859,0,0,1,.639,2.319l-.012.074a2.776,2.776,0,0,1-2.728,2.358m-2.366-3.233a2.494,2.494,0,0,0,.556,2.023,2.376,2.376,0,0,0,1.81.844,2.411,2.411,0,0,0,2.367-2.051l.011-.073a2.492,2.492,0,0,0-.556-2.024,2.375,2.375,0,0,0-1.81-.845,2.412,2.412,0,0,0-2.366,2.052Z" transform="translate(-37.565 -2.878)" fill="#232426"/>
      <path id="Path_1563" data-name="Path 1563" d="M100.581,66.809a2.539,2.539,0,1,1,2.495-2.538,2.519,2.519,0,0,1-2.495,2.538m0-4.71a2.173,2.173,0,1,0,2.128,2.172,2.153,2.153,0,0,0-2.128-2.172" transform="translate(-29.026 -18.268)" fill="#ff9d00"/>
      <path id="Path_1564" data-name="Path 1564" d="M97.776,80.6a2.539,2.539,0,1,1,2.495-2.538A2.519,2.519,0,0,1,97.776,80.6m0-4.71A2.173,2.173,0,1,0,99.9,78.058a2.153,2.153,0,0,0-2.128-2.172" transform="translate(-28.196 -22.348)" fill="#ff9d00"/>
      <path id="Path_1565" data-name="Path 1565" d="M95.3,95.055A2.539,2.539,0,1,1,97.8,92.517,2.519,2.519,0,0,1,95.3,95.055m0-4.71a2.173,2.173,0,1,0,2.128,2.172A2.153,2.153,0,0,0,95.3,90.345" transform="translate(-27.463 -26.627)" fill="#ff9d00"/>
      <path id="Path_1566" data-name="Path 1566" d="M135.866,65.445H111.122a.183.183,0,1,1,0-.366h24.744a.183.183,0,1,1,0,.366" transform="translate(-32.829 -19.258)" fill="#232426"/>
      <path id="Path_1567" data-name="Path 1567" d="M142.984,79.119h-2.576a.183.183,0,1,1,0-.366h2.576a.183.183,0,1,1,0,.366" transform="translate(-41.496 -23.305)" fill="#fff"/>
      <path id="Path_1568" data-name="Path 1568" d="M126.387,79.119H108.922a.183.183,0,1,1,0-.366h17.465a.183.183,0,1,1,0,.366" transform="translate(-32.178 -23.305)" fill="#232426"/>
      <path id="Path_1569" data-name="Path 1569" d="M130.806,93.242H106.062a.183.183,0,0,1,0-.366h24.744a.183.183,0,1,1,0,.366" transform="translate(-31.332 -27.484)" fill="#232426"/>
      <path id="Path_1570" data-name="Path 1570" d="M73.142,96.588a19.26,19.26,0,0,0,5.634-.894c1.933-.839,1.9.617,1.356,1.129a12.205,12.205,0,0,1-5.51,2.078Z" transform="translate(-21.644 -28.242)" fill="#fff"/>
      <path id="Path_1571" data-name="Path 1571" d="M74.545,99.007a.184.184,0,0,1-.155-.085L72.911,96.61a.183.183,0,0,1,.151-.282,19.184,19.184,0,0,0,5.564-.879c1.189-.516,1.642-.175,1.805.075a1.152,1.152,0,0,1-.251,1.355,12.363,12.363,0,0,1-5.623,2.127h-.013m-1.151-2.322,1.246,1.947a12.276,12.276,0,0,0,5.29-2.021.788.788,0,0,0,.2-.887c-.171-.261-.665-.239-1.353.061a17.855,17.855,0,0,1-5.378.9" transform="translate(-21.567 -28.166)" fill="#232426"/>
      <path id="Path_1572" data-name="Path 1572" d="M65.476,93.578l1.836-3.625,1.7.99a.682.682,0,0,1,.233.222l.107.165a.686.686,0,0,0,.615.313.675.675,0,0,1,.382.091l12.66,7.345a1.359,1.359,0,0,1,.286.22l2.615,2.629-3.489-.608a2.237,2.237,0,0,1-.551-.172L68.627,95.033a.686.686,0,0,1-.281-.237l-.018-.025a.686.686,0,0,0-.6-.3l-.119.006a.669.669,0,0,1-.32-.061Z" transform="translate(-19.376 -26.619)" fill="#fff"/>
      <path id="Path_1573" data-name="Path 1573" d="M85.834,102.033a.161.161,0,0,1-.032,0l-3.489-.608a2.42,2.42,0,0,1-.6-.187L68.474,95.122a.875.875,0,0,1-.356-.3L68.1,94.8a.5.5,0,0,0-.439-.22l-.12.006a.851.851,0,0,1-.406-.078l-1.814-.838a.182.182,0,0,1-.087-.249l1.835-3.625a.186.186,0,0,1,.112-.093.183.183,0,0,1,.144.018l1.7.989a.878.878,0,0,1,.294.281l.107.165a.5.5,0,0,0,.451.23.858.858,0,0,1,.485.115l12.66,7.344a1.568,1.568,0,0,1,.323.25l2.616,2.629a.183.183,0,0,1-.13.312M67.687,94.21a.874.874,0,0,1,.716.38l.018.026a.512.512,0,0,0,.206.175L81.87,100.9a2.05,2.05,0,0,0,.506.158l2.922.509-2.209-2.22a1.185,1.185,0,0,0-.247-.192l-12.66-7.344a.5.5,0,0,0-.279-.067.864.864,0,0,1-.78-.4l-.107-.165a.524.524,0,0,0-.171-.163l-1.535-.892-1.662,3.282,1.642.758a.494.494,0,0,0,.232.045l.12-.006h.045" transform="translate(-19.299 -26.542)" fill="#232426"/>
      <path id="Path_1574" data-name="Path 1574" d="M89.792,104.286a.183.183,0,0,1-.168-.257l.483-1.1a.183.183,0,0,1,.335.148l-.483,1.1a.183.183,0,0,1-.168.109" transform="translate(-26.517 -30.428)" fill="#232426"/>
      <path id="Path_1575" data-name="Path 1575" d="M62.851,87.62l2.755,1.486a.294.294,0,0,1,.121.394L64.11,92.6a.293.293,0,0,1-.4.123l-2.749-1.483a1.141,1.141,0,0,1-.487-1.522l.865-1.657a1.1,1.1,0,0,1,1.511-.444" transform="translate(-17.859 -25.888)" fill="#232426"/>
      <path id="Path_1576" data-name="Path 1576" d="M63.774,92.867a.472.472,0,0,1-.225-.057L60.8,91.327a1.326,1.326,0,0,1-.562-1.767L61.1,87.9a1.258,1.258,0,0,1,.751-.624,1.308,1.308,0,0,1,1.01.1l2.756,1.486a.48.48,0,0,1,.2.641l-1.617,3.1a.474.474,0,0,1-.283.234.453.453,0,0,1-.139.021m-1.541-5.278a.914.914,0,0,0-.274.042.891.891,0,0,0-.534.443l-.863,1.657A.958.958,0,0,0,60.972,91l2.75,1.483a.109.109,0,0,0,.149-.046l1.617-3.1a.111.111,0,0,0-.045-.149L62.688,87.7a.964.964,0,0,0-.455-.116" transform="translate(-17.783 -25.811)" fill="#050605"/>
      <path id="Path_1577" data-name="Path 1577" d="M69.541,95a.186.186,0,0,1-.087-.022.183.183,0,0,1-.075-.248l.912-1.705a.183.183,0,0,1,.323.173L69.7,94.9a.184.184,0,0,1-.162.1" transform="translate(-20.525 -27.499)" fill="#232426"/>
      <path id="Path_1578" data-name="Path 1578" d="M76.391,96.673a.186.186,0,0,1-.089-.023l-3.775-2.119a.183.183,0,0,1,.18-.32L76.48,96.33a.183.183,0,0,1-.089.343" transform="translate(-21.435 -27.872)" fill="#232426"/>
      <path id="Path_1579" data-name="Path 1579" d="M87.969,103.41a.184.184,0,0,1-.089-.023l-1.474-.82a.183.183,0,1,1,.178-.32l1.474.82a.183.183,0,0,1-.089.343" transform="translate(-25.542 -30.25)" fill="#232426"/>
      <path id="Path_1580" data-name="Path 1580" d="M63.971,92.764a.182.182,0,0,1-.088-.023l-2.105-1.155a.183.183,0,1,1,.176-.321l2.105,1.155a.183.183,0,0,1-.088.344" transform="translate(-18.253 -27.001)" fill="#fff"/>
      <path id="Path_1581" data-name="Path 1581" d="M63.651,98.478s3.274.465,5.483-1.241c1.878-1.451,5.682,2.7,6.009,3.23.463.746-.556,1.919-1.733,1.255,0,0-.311,1.851-2.852,2.162s-3.623-1.353-4.3-1.6a12.5,12.5,0,0,0-2.633-.262Z" transform="translate(-18.827 -28.684)" fill="#fff"/>
      <path id="Path_1582" data-name="Path 1582" d="M69.859,104.028a4.813,4.813,0,0,1-3.162-1.257,2.669,2.669,0,0,0-.583-.394,12.485,12.485,0,0,0-2.572-.251.182.182,0,0,1-.182-.184l.031-3.542a.182.182,0,0,1,.208-.18c.032,0,3.225.432,5.345-1.205a1.8,1.8,0,0,1,1.478-.3c2.029.367,4.539,3.163,4.8,3.582a1.074,1.074,0,0,1-.2,1.312,1.4,1.4,0,0,1-1.568.3,3.273,3.273,0,0,1-2.945,2.083,5.344,5.344,0,0,1-.645.04m-6.131-2.266a10.969,10.969,0,0,1,2.511.27,2.816,2.816,0,0,1,.684.451,4.4,4.4,0,0,0,3.536,1.141c2.364-.289,2.68-1.941,2.693-2.011a.183.183,0,0,1,.27-.129,1.049,1.049,0,0,0,1.329-.133.718.718,0,0,0,.158-.865c-.218-.353-2.653-3.072-4.553-3.415a1.427,1.427,0,0,0-1.188.233,8.128,8.128,0,0,1-5.413,1.3Z" transform="translate(-18.75 -28.607)" fill="#232426"/>
      <path id="Path_1583" data-name="Path 1583" d="M28.922,61.733S24.437,63.62,22.069,71.3C20.762,75.541,21,81.587,27.446,89.623c1.289,1.607,3.1,3.206,5.144,3.437l19.589.19-.087-6.271S36.9,85.006,34.618,84.147c-2.023-.76-4.952-10.662-5.256-15.52Z" transform="translate(-6.343 -18.268)" fill="#fff"/>
      <path id="Path_1584" data-name="Path 1584" d="M53.793,97.8h0L34.2,97.607h-.018c-2.232-.252-4.1-2.045-5.266-3.5-.694-.866-1.364-1.743-1.99-2.608a.183.183,0,0,1,.3-.215c.623.86,1.289,1.732,1.98,2.593,1.126,1.4,2.909,3.127,5.012,3.369l19.391.188L53.525,91.5c-1.707-.223-15.18-2-17.358-2.822C34.348,88,32.2,81.126,31.317,76.7a.183.183,0,0,1,.36-.072c1.014,5.1,3.161,11.165,4.619,11.714,2.237.841,17.281,2.8,17.433,2.822a.183.183,0,0,1,.16.179l.087,6.271a.184.184,0,0,1-.183.186" transform="translate(-7.958 -22.632)" fill="#232426"/>
      <path id="Path_1585" data-name="Path 1585" d="M85.627,25.149a3.856,3.856,0,0,1-.061,3.264,1.8,1.8,0,0,1-2.823.137,5.982,5.982,0,0,1-.917-2.235,3.389,3.389,0,0,0-.624-1.184.857.857,0,0,0-.674-.33l-2.33-.011a1.58,1.58,0,0,1,.7-1.272c.594-.318,2.129-.056,2.25-.236,1.342-2.019,3.567-.523,4.484,1.867" transform="translate(-23.141 -6.61)" fill="#fff"/>
      <path id="Path_1586" data-name="Path 1586" d="M84.044,29.273A2.042,2.042,0,0,1,82.53,28.6a5.488,5.488,0,0,1-.9-2.12l-.055-.187a3.219,3.219,0,0,0-.593-1.123.67.67,0,0,0-.53-.26L78.12,24.9a.186.186,0,0,1-.13-.056.182.182,0,0,1-.051-.131,1.749,1.749,0,0,1,.793-1.429,3.788,3.788,0,0,1,1.591-.189,3.979,3.979,0,0,0,.613-.018,1.925,1.925,0,0,1,1.857-.984c1.131.125,2.307,1.3,2.929,2.918.137.355.773,2.19-.082,3.433a1.913,1.913,0,0,1-1.457.829c-.046,0-.092,0-.138,0M78.325,24.53l2.126.011a1.036,1.036,0,0,1,.818.4,3.581,3.581,0,0,1,.655,1.245l.055.187A5.316,5.316,0,0,0,82.8,28.35a1.671,1.671,0,0,0,1.356.553,1.549,1.549,0,0,0,1.18-.671c.75-1.091.166-2.769.041-3.094-.565-1.472-1.645-2.576-2.627-2.685a1.6,1.6,0,0,0-1.533.854c-.1.153-.335.157-.9.15A3.7,3.7,0,0,0,78.9,23.6a1.271,1.271,0,0,0-.579.927" transform="translate(-23.064 -6.533)" fill="#232426"/>
      <path id="Path_1587" data-name="Path 1587" d="M34,191.2l-1.428,6.853,3.738,1.058,2.067-6.673Z" transform="translate(-9.638 -56.58)" fill="#fff"/>
      <path id="Path_1588" data-name="Path 1588" d="M36.23,199.216a.2.2,0,0,1-.05-.006l-3.738-1.059a.184.184,0,0,1-.13-.213l1.428-6.853a.184.184,0,0,1,.23-.139l4.377,1.239a.183.183,0,0,1,.125.23L36.4,199.087a.183.183,0,0,1-.175.129m-3.524-1.371,3.4.963,1.959-6.323-4.008-1.135Z" transform="translate(-9.561 -56.503)" fill="#232426"/>
      <path id="Path_1589" data-name="Path 1589" d="M30.8,205.759c.042.66.848,1.188,1.5,1.287,2.267.343,7.595.2,9.042.3,1.878.13,5.406-.01,5.542-1.208.166-1.462-1.408-3.594-5.177-4.762-1.949-.6-4.01-3.6-4.923-3.65s-2.526,2.31-2.526,2.31l-2.6-.884a19.978,19.978,0,0,0-.862,6.608" transform="translate(-9.106 -58.511)" fill="#fff"/>
      <path id="Path_1590" data-name="Path 1590" d="M42.449,207.483c-.689,0-1.179-.032-1.2-.033-.494-.035-1.466-.039-2.592-.046a57.3,57.3,0,0,1-6.465-.254,1.909,1.909,0,0,1-1.656-1.456,20.354,20.354,0,0,1,.87-6.677.184.184,0,0,1,.233-.116l2.466.839c.368-.519,1.712-2.327,2.609-2.275.475.027,1.109.635,1.912,1.4a9.376,9.376,0,0,0,3.054,2.253c3.895,1.207,5.48,3.415,5.3,4.957-.139,1.221-2.9,1.4-4.541,1.4M31.7,199.308a19.848,19.848,0,0,0-.8,6.363c.035.544.737,1.025,1.345,1.117a57.291,57.291,0,0,0,6.413.25c1.132.006,2.109.011,2.615.046,2.093.144,5.239-.088,5.348-1.046.164-1.441-1.517-3.472-5.049-4.566a9.593,9.593,0,0,1-3.2-2.338c-.689-.66-1.341-1.284-1.68-1.3-.591-.035-1.763,1.35-2.365,2.23a.184.184,0,0,1-.211.07Z" transform="translate(-9.029 -58.434)" fill="#232426"/>
      <path id="Path_1591" data-name="Path 1591" d="M44.2,208.833c-.5,0-1.041-.028-1.617-.058-.855-.044-1.739-.091-2.609-.051a39.7,39.7,0,0,1-4.733-.07c-1.982-.151-2.061-.275-2.09-.322a.188.188,0,0,1-.006-.187.183.183,0,0,1,.248-.074h0a32.951,32.951,0,0,0,6.562.285c.888-.041,1.781.006,2.645.051a8.742,8.742,0,0,0,3.258-.172.183.183,0,0,1,.144.337,4.748,4.748,0,0,1-1.8.259" transform="translate(-9.802 -61.566)" fill="#050605"/>
      <path id="Path_1592" data-name="Path 1592" d="M41.909,205.082a.183.183,0,0,1-.131-.311l1.368-1.4a.183.183,0,1,1,.262.256l-1.368,1.4a.182.182,0,0,1-.131.055" transform="translate(-12.348 -60.166)" fill="#232426"/>
      <path id="Path_1593" data-name="Path 1593" d="M5.723,190.735l-.19,4.781,3.337.805.594-5.552Z" transform="translate(-1.637 -56.443)" fill="#fff"/>
      <path id="Path_1594" data-name="Path 1594" d="M8.793,196.428a.185.185,0,0,1-.044-.006l-3.336-.805a.184.184,0,0,1-.14-.186l.19-4.78a.183.183,0,0,1,.183-.176h0l3.741.034a.186.186,0,0,1,.135.061.183.183,0,0,1,.045.142l-.594,5.552a.184.184,0,0,1-.182.164M5.645,195.3l2.987.722.551-5.144-3.361-.03Z" transform="translate(-1.56 -56.366)" fill="#232426"/>
      <path id="Path_1595" data-name="Path 1595" d="M7.818,206.451a26.46,26.46,0,0,1-6.1,0C.556,206.327.1,204.715.307,203.886c.567-2.31,1.552-6.035,3.228-8.066l.615,1.24.581-1.209a.509.509,0,0,1,.382-.258l1.253.012a.51.51,0,0,1,.563.4l.2.955L8.2,195.728l.834,9.112a1.434,1.434,0,0,1-1.215,1.61" transform="translate(-0.077 -57.88)" fill="#fff"/>
      <path id="Path_1596" data-name="Path 1596" d="M4.888,206.731a31.394,31.394,0,0,1-3.27-.177,1.574,1.574,0,0,1-1.13-.71,2.792,2.792,0,0,1-.436-2.078c.679-2.771,1.665-6.2,3.265-8.138a.183.183,0,0,1,.3.035l.449.9.418-.872a.7.7,0,0,1,.523-.36h.025l1.242.012a.7.7,0,0,1,.751.547l.125.594.828-.955a.183.183,0,0,1,.32.1l.836,9.111a1.621,1.621,0,0,1-1.373,1.809,21.135,21.135,0,0,1-2.879.175m2.853-.357h0ZM3.422,196.084c-1.643,2.176-2.6,6.071-3.015,7.768a2.432,2.432,0,0,0,.38,1.781,1.2,1.2,0,0,0,.868.556,26.792,26.792,0,0,0,6.059,0,1.255,1.255,0,0,0,1.06-1.4l-.8-8.691-.789.909a.183.183,0,0,1-.318-.082l-.2-.955a.328.328,0,0,0-.36-.258H6.287l-1.24-.012a.329.329,0,0,0-.233.164l-.576,1.2a.181.181,0,0,1-.164.1.2.2,0,0,1-.165-.1Z" transform="translate(0 -57.804)" fill="#232426"/>
      <path id="Path_1597" data-name="Path 1597" d="M4.52,209.032a12.21,12.21,0,0,1-2.7-.287.183.183,0,1,1,.081-.357,14.863,14.863,0,0,0,6.468-.215.183.183,0,1,1,.1.352,15.71,15.71,0,0,1-3.947.506" transform="translate(-0.495 -61.601)" fill="#232426"/>
      <path id="Path_1598" data-name="Path 1598" d="M4.551,204.175a.183.183,0,0,1-.006-.366l3.007-.1a.186.186,0,0,1,.189.177.183.183,0,0,1-.177.189l-3.007.1H4.551" transform="translate(-1.293 -60.282)" fill="#232426"/>
      <path id="Path_1599" data-name="Path 1599" d="M40.644,108.706c1.265,7.408,3.566,25.613-1.4,39.231-4.275,11.719-7.327,17.555-8.5,19.675a1.61,1.61,0,0,1-1.616.818l-3.047-.392a1.617,1.617,0,0,1-1.388-1.859c1.112-6.972,5.528-40.913,4.352-44.05L10.118,166.617a1.275,1.275,0,0,1-1.184.77l-3.2-.036a1.279,1.279,0,0,1-1.261-1.315c.944-36.009,11.486-41.8,14.574-59.019.008-.04,1.012,1.17,1.049,1.192,3.093,1.792,4.641,1.652,9.385,1.912,5.132.28,9.9-1.657,11.023-1.6.086,0,.121.1.136.19" transform="translate(-1.324 -31.668)" fill="#9ca777"/>
      <path id="Path_1600" data-name="Path 1600" d="M44.891,54.464l.874-4.486a.712.712,0,0,1,.617-.564l1.759-.2a.841.841,0,0,0,.735-.7l.4-2.5A.012.012,0,0,1,49.281,46l.836-.453a.349.349,0,0,0,.144-.465l-.88-1.722c-.172-.336-.407-2.228-.782-2.21,0,0-6.33-2.2-8.191.423a2.484,2.484,0,0,0-.214,2.4l.426,1a4.786,4.786,0,0,1,.2,3.292,4.87,4.87,0,0,1-.506,1.106l-2.378,3.709A12.812,12.812,0,0,0,43.5,54.444Z" transform="translate(-11.227 -11.921)" fill="#fff"/>
      <path id="Path_1601" data-name="Path 1601" d="M44.814,54.569h0l-1.393-.02a13.08,13.08,0,0,1-5.64-1.381.183.183,0,0,1-.072-.263L40.085,49.2a4.661,4.661,0,0,0,.486-1.062,4.6,4.6,0,0,0-.2-3.167l-.426-1a2.676,2.676,0,0,1,.233-2.578c1.876-2.647,7.857-.676,8.374-.5.347.029.51.639.732,1.623a4.917,4.917,0,0,0,.18.686l.881,1.723a.536.536,0,0,1-.22.71l-.762.413-.384,2.418a1.026,1.026,0,0,1-.895.858l-1.759.2a.529.529,0,0,0-.458.42l-.874,4.484a.182.182,0,0,1-.18.148M38.126,52.93a12.721,12.721,0,0,0,5.3,1.253l1.24.018.845-4.336a.9.9,0,0,1,.776-.711l1.759-.2a.66.66,0,0,0,.575-.551l.4-2.5a.209.209,0,0,1,.1-.142l.835-.453a.166.166,0,0,0,.068-.22l-.88-1.723a4.264,4.264,0,0,1-.212-.772,4.679,4.679,0,0,0-.422-1.338.16.16,0,0,1-.045-.009c-.063-.022-6.221-2.129-7.981.356a2.306,2.306,0,0,0-.2,2.222l.426,1a4.964,4.964,0,0,1,.209,3.419,5.021,5.021,0,0,1-.525,1.148Zm10.4-11.677Z" transform="translate(-11.15 -11.842)" fill="#232426"/>
      <path id="Path_1602" data-name="Path 1602" d="M43.533,42.035c-.325-.808-.833-1.11-.738-1.569a.976.976,0,0,1,.434-.549c.677-.491,1.567-.192,3.356.146,2.22.419,2.473.484,2.892.319a3.21,3.21,0,0,0,1.717-2.809,3.052,3.052,0,0,0-1.323-2.735,3.236,3.236,0,0,0-3.365.11,1.537,1.537,0,0,0-.709-.967c-1-.513-2.5.636-3.022,1.039a6.52,6.52,0,0,0-1.965,2.514,2.28,2.28,0,0,0-1.746-.237,2.637,2.637,0,0,0-1.522,1.991c-.3,1.621,1.032,3.037,2.039,4.106a6.149,6.149,0,0,0,1.172,1.031.62.62,0,0,0,.644.026l.011-.006a.533.533,0,0,0,.2-.747l-.051-.082a2.459,2.459,0,0,1-.363-1.02.854.854,0,0,1,.177-.749,1.019,1.019,0,0,1,.884-.062,1.344,1.344,0,0,1,.753.663c.155.283.674-.054.529-.412" transform="translate(-11.097 -10.017)" fill="#232426"/>
      <path id="Path_1603" data-name="Path 1603" d="M20.927,35.354a1.445,1.445,0,0,1-.19-.013,1.473,1.473,0,0,1-1.281-1.612,1.4,1.4,0,0,1,.532-.954,1.433,1.433,0,0,1,1.077-.294,1.473,1.473,0,0,1,1.281,1.612,1.4,1.4,0,0,1-.532.954,1.429,1.429,0,0,1-.887.307M19.82,33.771a1.106,1.106,0,0,0,.963,1.207,1.071,1.071,0,0,0,.8-.219,1.038,1.038,0,0,0,.394-.707,1.105,1.105,0,0,0-.963-1.207,1.068,1.068,0,0,0-.8.219,1.039,1.039,0,0,0-.394.707" transform="translate(-5.755 -9.609)" fill="#232426"/>
      <path id="Path_1604" data-name="Path 1604" d="M13.108,39.936a.185.185,0,0,1-.093-.025l-1.222-.723a.183.183,0,0,1,.187-.315L13.2,39.6a.183.183,0,0,1-.094.341" transform="translate(-3.463 -11.496)" fill="#232426"/>
      <path id="Path_1605" data-name="Path 1605" d="M17.148,42.328a.185.185,0,0,1-.093-.025l-1.222-.723a.183.183,0,0,1,.187-.315l1.222.723a.183.183,0,0,1-.094.341" transform="translate(-4.659 -12.204)" fill="#232426"/>
      <path id="Path_1606" data-name="Path 1606" d="M13.065,43.3a.183.183,0,0,1-.158-.277L13.63,41.8a.183.183,0,0,1,.315.187l-.722,1.222a.183.183,0,0,1-.158.09" transform="translate(-3.812 -12.343)" fill="#232426"/>
      <path id="Path_1607" data-name="Path 1607" d="M15.456,39.256a.183.183,0,0,1-.158-.277l.723-1.222a.183.183,0,0,1,.315.187l-.722,1.222a.183.183,0,0,1-.158.09" transform="translate(-4.52 -11.147)" fill="#232426"/>
      <path id="Path_1608" data-name="Path 1608" d="M166.235,197.87H102.2a6.072,6.072,0,0,1-5.945-7.3l9.715-47.248a8.544,8.544,0,0,1,8.368-6.825h54.927Z" transform="translate(-28.446 -40.394)" fill="#fff"/>
      <path id="Path_1609" data-name="Path 1609" d="M166.158,197.976H102.122A6.255,6.255,0,0,1,96,190.459l9.715-47.247a8.76,8.76,0,0,1,8.548-6.971h54.927a.182.182,0,0,1,.132.057.184.184,0,0,1,.051.135L166.341,197.8a.183.183,0,0,1-.183.174m-51.9-61.369a8.391,8.391,0,0,0-8.188,6.678l-9.715,47.248a5.889,5.889,0,0,0,5.766,7.077h63.862l3.011-61Z" transform="translate(-28.37 -40.317)" fill="#232426"/>
      <path id="Path_1610" data-name="Path 1610" d="M199.571,197.87H187.144a6.072,6.072,0,0,1-5.945-7.3l10.7-52.04a2.544,2.544,0,0,1,2.492-2.032h3.2a2.545,2.545,0,0,1,2.535,2.338L204.5,192.52a4.946,4.946,0,0,1-4.929,5.35" transform="translate(-53.583 -40.394)" fill="#fff"/>
      <path id="Path_1611" data-name="Path 1611" d="M199.494,197.976H187.067a6.255,6.255,0,0,1-6.125-7.517l10.7-52.04a2.737,2.737,0,0,1,2.671-2.178h3.2a2.742,2.742,0,0,1,2.718,2.507l4.377,53.681a5.13,5.13,0,0,1-5.111,5.547m-5.18-61.369A2.37,2.37,0,0,0,192,138.493l-10.7,52.04a5.889,5.889,0,0,0,5.766,7.077h12.427a4.711,4.711,0,0,0,3.5-1.534,4.781,4.781,0,0,0,1.245-3.618l-4.377-53.681a2.375,2.375,0,0,0-2.353-2.17Z" transform="translate(-53.507 -40.317)" fill="#232426"/>
      <path id="Path_1612" data-name="Path 1612" d="M196.31,211.832h-8.467a4.409,4.409,0,0,1-4.317-5.3l3.513-17.083a.183.183,0,0,1,.359.074l-3.513,17.083a4.042,4.042,0,0,0,3.958,4.857h8.467a.183.183,0,1,1,0,.366" transform="translate(-54.283 -56.02)" fill="#232426"/>
      <path id="Path_1613" data-name="Path 1613" d="M207.269,214.6a.183.183,0,0,1,0-.366,2.916,2.916,0,0,0,2.906-3.154l-1-12.233a.183.183,0,1,1,.365-.03l1,12.233a3.284,3.284,0,0,1-3.271,3.55" transform="translate(-61.282 -58.783)" fill="#232426"/>
      <path id="Path_1614" data-name="Path 1614" d="M206.209,149.585a.183.183,0,0,1-.182-.168l-.208-2.549a.183.183,0,0,1,.365-.03l.208,2.549a.182.182,0,0,1-.168.2h-.015" transform="translate(-60.906 -43.403)" fill="#050605"/>
      <path id="Path_1615" data-name="Path 1615" d="M194.774,154.06a.229.229,0,0,1-.037,0,.184.184,0,0,1-.142-.217l2.935-14.271a.884.884,0,0,1,.862-.7h3.2a.885.885,0,0,1,.878.809l.137,1.67a.183.183,0,0,1-.365.03l-.136-1.67a.518.518,0,0,0-.513-.473h-3.2a.517.517,0,0,0-.5.411l-2.934,14.271a.184.184,0,0,1-.18.146" transform="translate(-57.584 -41.093)" fill="#232426"/>
      <path id="Path_1616" data-name="Path 1616" d="M162.16,162.95H112.022a.183.183,0,1,1,0-.366H162.16a3.013,3.013,0,0,0,2.942-2.328l4.419-18.666a.183.183,0,0,1,.356.085l-4.419,18.666a3.377,3.377,0,0,1-3.3,2.609" transform="translate(-33.096 -41.858)" fill="#232426"/>
      <path id="Path_1617" data-name="Path 1617" d="M149.5,171.727l-1.4,5.668a2.125,2.125,0,0,1-2.068,1.636H136.1a1.635,1.635,0,0,1-1.574-2.073l1.455-5.231Z" transform="translate(-39.792 -50.818)" fill="#fff"/>
      <path id="Path_1618" data-name="Path 1618" d="M145.955,179.137h-9.93a1.818,1.818,0,0,1-1.751-2.306l1.455-5.231a.183.183,0,0,1,.176-.134h13.523a.184.184,0,0,1,.144.07.181.181,0,0,1,.033.156l-1.4,5.668a2.3,2.3,0,0,1-2.246,1.776m-9.911-7.3-1.417,5.1a1.453,1.453,0,0,0,1.4,1.842h9.93a1.936,1.936,0,0,0,1.89-1.5l1.349-5.443Z" transform="translate(-39.715 -50.741)" fill="#232426"/>
      <path id="Path_1619" data-name="Path 1619" d="M154.347,217.027H101.083a.183.183,0,1,1,0-.366h53.264a.183.183,0,1,1,0,.366" transform="translate(-29.859 -64.115)" fill="#232426"/>
      <path id="Path_1620" data-name="Path 1620" d="M137.358,133.455H133.2a2.035,2.035,0,0,0-2.034,2.035h8.226a2.035,2.035,0,0,0-2.034-2.035" transform="translate(-38.815 -39.492)" fill="#fff"/>
      <path id="Path_1621" data-name="Path 1621" d="M139.315,135.6h-8.226a.183.183,0,0,1-.183-.183,2.22,2.22,0,0,1,2.217-2.218h4.158a2.22,2.22,0,0,1,2.217,2.218.183.183,0,0,1-.183.183m-8.034-.366h7.841a1.853,1.853,0,0,0-1.842-1.669h-4.158a1.854,1.854,0,0,0-1.842,1.669" transform="translate(-38.738 -39.415)" fill="#232426"/>
      <path id="Path_1622" data-name="Path 1622" d="M184.685,133.455h-4.158a2.035,2.035,0,0,0-2.034,2.035h8.226a2.035,2.035,0,0,0-2.034-2.035" transform="translate(-52.82 -39.492)" fill="#050605"/>
      <path id="Path_1623" data-name="Path 1623" d="M186.642,135.6h-8.226a.183.183,0,0,1-.183-.183,2.22,2.22,0,0,1,2.217-2.218h4.158a2.22,2.22,0,0,1,2.217,2.218.183.183,0,0,1-.183.183m-8.034-.366h7.841a1.854,1.854,0,0,0-1.842-1.669H180.45a1.854,1.854,0,0,0-1.842,1.669" transform="translate(-52.743 -39.415)" fill="#050605"/>
      <path id="Path_1624" data-name="Path 1624" d="M170.971,129.477l.67-3.982a4.208,4.208,0,0,0-4.25-5.112H142.46a6.3,6.3,0,0,0-5.971,5.112l-.67,3.982h1.908l.522-3.1A4.9,4.9,0,0,1,142.9,122.4h23.382a3.276,3.276,0,0,1,3.308,3.979l-.522,3.1Z" transform="translate(-40.192 -35.624)" fill="#fff"/>
      <path id="Path_1625" data-name="Path 1625" d="M170.894,129.583h-1.908a.183.183,0,0,1-.181-.213l.522-3.1a3.245,3.245,0,0,0-.668-2.685,3.147,3.147,0,0,0-2.459-1.08H142.818a4.718,4.718,0,0,0-4.466,3.826l-.522,3.1a.182.182,0,0,1-.18.153h-1.908a.183.183,0,0,1-.181-.213l.67-3.982a6.5,6.5,0,0,1,6.151-5.265h24.932a4.457,4.457,0,0,1,3.48,1.536,4.583,4.583,0,0,1,.951,3.789l-.67,3.982a.182.182,0,0,1-.18.153m-1.692-.366h1.537l.644-3.829a4.22,4.22,0,0,0-.87-3.492,4.094,4.094,0,0,0-3.2-1.407H142.382a6.115,6.115,0,0,0-5.79,4.96l-.634,3.768H137.5l.5-2.946a5.1,5.1,0,0,1,4.827-4.132H166.2a3.509,3.509,0,0,1,2.739,1.21,3.606,3.606,0,0,1,.75,2.982Z" transform="translate(-40.115 -35.547)" fill="#232426"/>
      <path id="Path_1626" data-name="Path 1626" d="M168.768,118.042h-21.9a1.97,1.97,0,0,0-1.867,1.6l-.322,1.914a1.316,1.316,0,0,0,1.329,1.6h21.9a1.97,1.97,0,0,0,1.867-1.6l.322-1.914a1.316,1.316,0,0,0-1.329-1.6" transform="translate(-42.807 -34.931)" fill="#fff"/>
      <path id="Path_1627" data-name="Path 1627" d="M167.831,123.26h-21.9a1.516,1.516,0,0,1-1.184-.525,1.554,1.554,0,0,1-.326-1.287l.322-1.914a2.161,2.161,0,0,1,2.047-1.751h21.9a1.52,1.52,0,0,1,1.184.525,1.557,1.557,0,0,1,.325,1.288l-.322,1.914a2.161,2.161,0,0,1-2.047,1.752m-21.041-5.112a1.782,1.782,0,0,0-1.686,1.446l-.322,1.914a1.2,1.2,0,0,0,.244.99,1.157,1.157,0,0,0,.9.4h21.9a1.783,1.783,0,0,0,1.686-1.446l.322-1.914a1.2,1.2,0,0,0-.244-.99,1.157,1.157,0,0,0-.9-.395Z" transform="translate(-42.73 -34.854)" fill="#050605"/>
      <path id="Path_1628" data-name="Path 1628" d="M155.274,123.26H145.93a1.516,1.516,0,0,1-1.184-.525,1.554,1.554,0,0,1-.326-1.287l.322-1.914a2.161,2.161,0,0,1,2.047-1.752h7.3a.183.183,0,0,1,0,.366h-7.3a1.782,1.782,0,0,0-1.686,1.446l-.322,1.914a1.2,1.2,0,0,0,.244.99,1.157,1.157,0,0,0,.9.4h9.344a.183.183,0,0,1,0,.366" transform="translate(-42.73 -34.854)" fill="#232426"/>
      <path id="Path_1629" data-name="Path 1629" d="M189.453,194.77a.183.183,0,0,1-.091-.342l8.492-4.841V141.632a.183.183,0,1,1,.366,0v48.062a.183.183,0,0,1-.092.159l-8.584,4.893a.185.185,0,0,1-.091.024" transform="translate(-56.009 -41.858)" fill="#232426"/>
      <path id="Path_1630" data-name="Path 1630" d="M189.055,133.6s3.821,1.424,5.319.225-2.323-3.223-3.222-3.073-2.1,2.848-2.1,2.848" transform="translate(-55.946 -38.689)" fill="#232426"/>
      <path id="Path_1631" data-name="Path 1631" d="M161.783,177.129l3.6,6.3,1.948-2.7-3.146-6.146Z" transform="translate(-47.875 -51.663)" fill="#fff"/>
      <path id="Path_1632" data-name="Path 1632" d="M165.3,183.531h-.01a.184.184,0,0,1-.149-.092l-3.6-6.3a.183.183,0,0,1,.025-.216l2.4-2.549a.183.183,0,0,1,.3.042l3.146,6.146a.183.183,0,0,1-.014.191l-1.948,2.7a.183.183,0,0,1-.149.076m-3.37-6.452,3.388,5.931,1.716-2.377-2.978-5.815Z" transform="translate(-47.798 -51.585)" fill="#232426"/>
      <path id="Path_1633" data-name="Path 1633" d="M165.071,183.9c.948,1.956,3.349,6.7,5.661,8.973a1.03,1.03,0,0,0,1.719-.468c.724-2.739,1.206-8.445-1.491-12.942a13.637,13.637,0,0,0-3.68.3l.533,2.249-.294-.21a1.184,1.184,0,0,0-1.459.064l-.691.593a1.205,1.205,0,0,0-.3,1.441" transform="translate(-48.813 -53.101)" fill="#232426"/>
      <path id="Path_1634" data-name="Path 1634" d="M173.309,192.428a.174.174,0,0,1-.065-.012.183.183,0,0,1-.106-.236c2.047-5.414-.717-11.79-.746-11.854a.183.183,0,0,1,.335-.148c.029.065,2.853,6.579.753,12.131a.182.182,0,0,1-.17.118" transform="translate(-51.01 -53.287)" fill="#fff"/>
      <path id="Path_1635" data-name="Path 1635" d="M167.027,189.267a.183.183,0,0,1-.1-.337l1.8-1.167a.183.183,0,1,1,.2.308l-1.8,1.167a.182.182,0,0,1-.1.03" transform="translate(-49.373 -55.555)" fill="#fff"/>
      <path id="Path_1636" data-name="Path 1636" d="M168.3,191.494a.183.183,0,0,1-.112-.328l1.648-1.266a.183.183,0,1,1,.223.291l-1.648,1.265a.183.183,0,0,1-.111.038" transform="translate(-49.751 -56.185)" fill="#fff"/>
      <path id="Path_1637" data-name="Path 1637" d="M144.223,178.413c0,.15-3.3,7.345-3.3,7.345l3.746.3,2.547-6.146Z" transform="translate(-41.704 -52.797)" fill="#fff"/>
      <path id="Path_1638" data-name="Path 1638" d="M144.6,186.165h-.015l-3.746-.3a.183.183,0,0,1-.152-.259c1.273-2.778,3.189-7,3.282-7.3a.183.183,0,0,1,.263-.132l3,1.5a.183.183,0,0,1,.087.234l-2.547,6.146a.182.182,0,0,1-.169.113m-3.47-.645,3.352.268,2.431-5.865-2.666-1.334c-.2.5-.876,2.037-3.117,6.931" transform="translate(-41.627 -52.72)" fill="#232426"/>
      <path id="Path_1639" data-name="Path 1639" d="M142.6,186.232a1.89,1.89,0,0,0-2.7-.9,43.325,43.325,0,0,0-4.9,9.433,1.473,1.473,0,0,0,2.014,1.774,19.286,19.286,0,0,0,9.333-8.509,7.564,7.564,0,0,0-1.947-2.848Z" transform="translate(-39.928 -54.77)" fill="#232426"/>
      <path id="Path_1640" data-name="Path 1640" d="M136.409,196.648a2.056,2.056,0,0,1-.267-.015.183.183,0,0,1,.053-.363c.042.006,4.022.465,9.415-6.972a.183.183,0,1,1,.3.215c-4.809,6.632-8.493,7.134-9.5,7.134" transform="translate(-40.241 -55.996)" fill="#fff"/>
      <path id="Path_1641" data-name="Path 1641" d="M140.094,193.407a.177.177,0,0,1-.092-.025l-1.8-1.049a.183.183,0,1,1,.185-.316l1.8,1.049a.183.183,0,0,1-.092.341" transform="translate(-40.871 -56.815)" fill="#fff"/>
      <path id="Path_1642" data-name="Path 1642" d="M141.308,191.491a.182.182,0,0,1-.087-.022l-1.948-1.05a.183.183,0,0,1,.174-.322l1.948,1.05a.183.183,0,0,1-.087.344" transform="translate(-41.186 -56.248)" fill="#fff"/>
      <path id="Path_1643" data-name="Path 1643" d="M164.963,126.89s-9.766,1.745-16.8,9.128a7.107,7.107,0,0,0-1.642,7c1.563,5.046,4.967,14.262,10.654,21.193l4.345-3.747s-1.048-8.695-3.9-14.091,13.785-17.089,13.785-17.089Z" transform="translate(-43.264 -37.55)" fill="#fee8b0"/>
      <path id="Path_1644" data-name="Path 1644" d="M157.094,164.321h-.016a.18.18,0,0,1-.125-.066c-5.735-6.989-9.158-16.316-10.689-21.255a7.3,7.3,0,0,1,1.684-7.186c7-7.341,16.806-9.164,16.9-9.181a.19.19,0,0,1,.1.008l6.442,2.4a.183.183,0,0,1,.042.321c-.165.116-16.468,11.66-13.728,16.853,2.83,5.364,3.9,14.067,3.915,14.155a.179.179,0,0,1-.062.161l-4.344,3.747a.184.184,0,0,1-.12.044M164.87,127c-.751.147-9.994,2.076-16.656,9.064a6.927,6.927,0,0,0-1.6,6.825c1.511,4.879,4.877,14.061,10.5,20.986l4.129-3.561c-.126-.966-1.226-8.93-3.865-13.931-2.715-5.148,11.3-15.5,13.559-17.123Z" transform="translate(-43.187 -37.473)" fill="#232426"/>
      <path id="Path_1645" data-name="Path 1645" d="M143.907,164.074l5.095,1.5s9.29-19.637,11.986-22.485,7.941-7.495,13.485-9.144,5.544-5.846,5.544-5.846l-9.44-2.7s-13.185,5.7-17.531,12.143-9.14,26.532-9.14,26.532" transform="translate(-42.585 -37.108)" fill="#fee8b0"/>
      <path id="Path_1646" data-name="Path 1646" d="M148.925,165.679a.19.19,0,0,1-.052-.008l-5.094-1.5a.183.183,0,0,1-.127-.218c.048-.2,4.852-20.193,9.166-26.592,4.325-6.416,17.477-12.151,17.61-12.208a.181.181,0,0,1,.123-.008l9.44,2.7a.183.183,0,0,1,.132.176c0,.044-.065,4.353-5.675,6.022-6.19,1.841-11.825,7.427-13.4,9.095-2.646,2.794-11.861,22.241-11.954,22.438a.183.183,0,0,1-.165.1m-4.876-1.809,4.777,1.405c.909-1.916,9.356-19.65,11.952-22.391,1.595-1.685,7.288-7.327,13.565-9.194,4.793-1.425,5.343-4.814,5.405-5.535l-9.235-2.64c-.968.427-13.275,5.942-17.392,12.05-4.067,6.033-8.6,24.344-9.073,26.3" transform="translate(-42.508 -37.031)" fill="#232426"/>
      <path id="Path_1647" data-name="Path 1647" d="M195.09,104.588c-2.547-5.1-6.742-5.846-6.742-5.846l-7.192-.6a5.8,5.8,0,0,0-5.528,3.311l-6.608,15.427s1.348,3.6,7.342,4.2,10.113.225,12.062,2.623c1.284,1.581,1.243-8.964.5-17.3Z" transform="translate(-50.017 -29.039)" fill="#fff"/>
      <path id="Path_1648" data-name="Path 1648" d="M188.587,123.966a.5.5,0,0,1-.384-.227c-1.46-1.8-4.279-1.99-8.18-2.257-1.129-.077-2.409-.165-3.758-.3-6.037-.6-7.439-4.164-7.5-4.315a.183.183,0,0,1,0-.137l6.608-15.428a5.994,5.994,0,0,1,5.709-3.421l7.195.6c.06.01,4.332.827,6.892,5.947a.184.184,0,0,1-.113.258l-6.018,1.764c.516,5.933.942,16.974-.325,17.488a.353.353,0,0,1-.134.027M169.141,116.8c.22.479,1.8,3.479,7.161,4.015,1.343.134,2.62.222,3.746.3,3.994.272,6.879.47,8.44,2.391.067.083.1.092.1.092s.569-.289.591-5.841c.013-3.361-.179-7.631-.515-11.424a.183.183,0,0,1,.131-.192l5.951-1.745c-2.486-4.782-6.471-5.545-6.511-5.552l-7.175-.6a5.613,5.613,0,0,0-5.345,3.2Z" transform="translate(-49.94 -28.962)" fill="#232426"/>
      <path id="Path_1649" data-name="Path 1649" d="M178.729,120.715l3.3-1.5,2.547,1.049s13.806-1.384,7.695-11.165c-.026-.042,4.661-1.367,4.661-1.367s5.569,13.282-12.057,13.582a2.937,2.937,0,0,1-2.1-.3c-1.2-.6-3.3.6-4.046-.3" transform="translate(-52.89 -31.881)" fill="#fff"/>
      <path id="Path_1650" data-name="Path 1650" d="M184.2,121.5a3.513,3.513,0,0,1-1.579-.395,3.483,3.483,0,0,0-1.931-.042c-.879.131-1.708.254-2.173-.3a.182.182,0,0,1-.037-.158.185.185,0,0,1,.1-.126l3.3-1.5a.187.187,0,0,1,.146,0l2.5,1.031c.593-.069,6.845-.88,8.59-4.438.86-1.754.5-3.922-1.077-6.442a.183.183,0,0,1-.016-.163c.044-.114.054-.141,4.782-1.476a.182.182,0,0,1,.218.106c.022.051,2.151,5.247-.453,9.234-1.925,2.949-5.876,4.5-11.744,4.6a2.359,2.359,0,0,1-.629.076m-2.386-.918a2.148,2.148,0,0,1,.97.2,2.8,2.8,0,0,0,1.959.29.179.179,0,0,1,.054-.009c5.753-.1,9.612-1.591,11.469-4.435,2.255-3.454.8-7.875.48-8.742-1.524.431-3.632,1.036-4.277,1.24,1.545,2.555,1.874,4.777.976,6.607-1.914,3.9-8.641,4.617-8.926,4.646a.185.185,0,0,1-.088-.013l-2.474-1.02L179,120.683a3.005,3.005,0,0,0,1.635.014,8.144,8.144,0,0,1,1.179-.119" transform="translate(-52.813 -31.804)" fill="#232426"/>
      <path id="Path_1651" data-name="Path 1651" d="M156.921,121.318h13l-9.634-14.824a1.656,1.656,0,0,0-1.39-.744H148.346a.827.827,0,0,0-.72,1.268Z" transform="translate(-43.647 -31.294)" fill="#ff9d00"/>
      <path id="Path_1652" data-name="Path 1652" d="M157.114,112.638a2.747,2.747,0,0,0,2.028,1.177c.7,0,.922-.527.5-1.177a2.747,2.747,0,0,0-2.028-1.177c-.7,0-.922.527-.5,1.177" transform="translate(-46.431 -32.984)" fill="#fff"/>
      <path id="Path_1653" data-name="Path 1653" d="M159.066,113.921a2.91,2.91,0,0,1-2.182-1.26,1.052,1.052,0,0,1-.158-1.062.862.862,0,0,1,.81-.4,2.91,2.91,0,0,1,2.182,1.26,1.052,1.052,0,0,1,.158,1.062.863.863,0,0,1-.81.4m-1.529-2.353a.522.522,0,0,0-.489.206.717.717,0,0,0,.143.687,2.585,2.585,0,0,0,1.875,1.093.52.52,0,0,0,.488-.206.714.714,0,0,0-.142-.687,2.587,2.587,0,0,0-1.875-1.093" transform="translate(-46.354 -32.907)" fill="#ff9d00"/>
      <path id="Path_1654" data-name="Path 1654" d="M162.03,128.936h19.491a1.21,1.21,0,0,0,1.21-1.21H160.82a1.21,1.21,0,0,0,1.21,1.21" transform="translate(-47.59 -37.797)" fill="#ff9d00"/>
      <path id="Path_1655" data-name="Path 1655" d="M190.815,49.076c5.5-1.738,12.617,6.159,11.184,12.655-.4,1.792.042,4.5-1.921,5.49-3.482,1.755-5.671-.37-6.566,1.042-.776,1.224,1.979,2.987,1.648,5.546-.492,3.8-7.316,5.638-8.091,5.847-.579.156-8.722,2.236-12.586-2.1-.931-1.044-2.152-3.064-1.5-4.347.622-1.224,2.533-.961,3-2.249.4-1.115-.879-1.74-.749-3,.249-2.426,5.26-2.552,5.843-5.1.466-2.035-2.445-3.231-1.947-5.246.4-1.626,2.5-1.669,5.843-3.748,4.008-2.489,3.76-4.139,5.844-4.8" transform="translate(-51.135 -14.451)" fill="#232426"/>
      <path id="Path_1656" data-name="Path 1656" d="M186.213,94.942c-.134-.067-1.936-2.195-2.991-3.448a2.788,2.788,0,0,0,.039-.986,1.343,1.343,0,0,0,.327-1.259c-.255-.827-1.039-.163-1.039-.163s-.363-.636-1.73.46a2.223,2.223,0,0,1-2.81-.237,3.423,3.423,0,0,0,.722,1.819,3.471,3.471,0,0,1,.484,1.957l.765-.11a3.028,3.028,0,0,0,1.314.984,2.258,2.258,0,0,0,.932-.477l.839,1.912-.855.449s-.194,1.2,2.054,1.5a5.386,5.386,0,0,0,4.046-1.5s-1.2-.449-2.1-.9" transform="translate(-52.677 -26.288)" fill="#fff"/>
      <path id="Path_1657" data-name="Path 1657" d="M184.7,97.48a4.053,4.053,0,0,1-.54-.036,2.822,2.822,0,0,1-1.968-.9,1.144,1.144,0,0,1-.243-.81.183.183,0,0,1,.1-.133l.7-.37-.677-1.543a2.356,2.356,0,0,1-.825.372.183.183,0,0,1-.1-.011,3.122,3.122,0,0,1-1.317-.958l-.666.1a.184.184,0,0,1-.209-.177,3.316,3.316,0,0,0-.449-1.855,3.586,3.586,0,0,1-.758-1.925.184.184,0,0,1,.308-.135,2.024,2.024,0,0,0,2.571.23,2.181,2.181,0,0,1,1.592-.67.677.677,0,0,1,.27.113.952.952,0,0,1,.741-.172.7.7,0,0,1,.456.52,1.492,1.492,0,0,1-.315,1.379V90.5a2.839,2.839,0,0,1-.028.864c2.4,2.855,2.817,3.28,2.887,3.339.879.439,2.057.881,2.068.886a.183.183,0,0,1,.065.3A5.723,5.723,0,0,1,184.7,97.48m-2.39-1.6a.856.856,0,0,0,.184.461,2.551,2.551,0,0,0,1.714.744,5.043,5.043,0,0,0,3.676-1.255c-.413-.162-1.2-.482-1.834-.8A33.971,33.971,0,0,1,183,91.534a.183.183,0,0,1-.038-.159,2.372,2.372,0,0,0,.039-.851l0-.084a.184.184,0,0,1,.054-.139,1.149,1.149,0,0,0,.282-1.075c-.049-.158-.118-.251-.208-.277-.17-.05-.435.113-.538.2a.183.183,0,0,1-.277-.049.279.279,0,0,0-.178-.086c-.168-.025-.557.02-1.279.6a2.219,2.219,0,0,1-2.677.027,3.781,3.781,0,0,0,.623,1.3,3.366,3.366,0,0,1,.512,1.854l.564-.081a.183.183,0,0,1,.166.063,2.823,2.823,0,0,0,1.189.91,2.18,2.18,0,0,0,.8-.426.183.183,0,0,1,.284.068l.839,1.912a.183.183,0,0,1-.082.236Z" transform="translate(-52.6 -26.211)" fill="#232426"/>
      <path id="Path_1658" data-name="Path 1658" d="M184,95.338l.247-.223Z" transform="translate(-54.45 -28.147)" fill="#fff"/>
      <path id="Path_1659" data-name="Path 1659" d="M183.924,95.444a.183.183,0,0,1-.123-.319l.247-.223a.183.183,0,0,1,.245.272l-.247.222a.182.182,0,0,1-.122.047" transform="translate(-54.373 -28.07)" fill="#232426"/>
      <path id="Path_1660" data-name="Path 1660" d="M177.7,3.384l-1.956-.567L175.155.985a.547.547,0,0,0-.943-.139L173,2.414l-2.057-.022a.5.5,0,0,0-.445.8l1.208,1.536-.686,1.818a.509.509,0,0,0,.668.631l1.956-.619L175.28,7.7a.543.543,0,0,0,.858-.406V5.375l1.695-1.11a.483.483,0,0,0-.137-.882" transform="translate(-50.425 -0.188)" fill="#232426"/>
      <path id="Path_1661" data-name="Path 1661" d="M190.461,2.621,188.5,2.141,187.876.329a.539.539,0,0,0-.941-.1l-1.166,1.63-2.046.073a.514.514,0,0,0-.424.82l1.239,1.487L183.9,6.1a.5.5,0,0,0,.679.6l1.931-.711,1.651,1.075A.549.549,0,0,0,189,6.619l-.046-1.927,1.66-1.193a.484.484,0,0,0-.158-.879" transform="translate(-54.21 0)" fill="#232426"/>
      <path id="Path_1662" data-name="Path 1662" d="M203.71,3.069l-1.9-.553L201.3.66a.523.523,0,0,0-.922-.13L199.13,2.141l-2.021,0a.531.531,0,0,0-.466.815l1.134,1.548-.739,1.859a.487.487,0,0,0,.634.633l1.945-.654,1.564,1.146a.552.552,0,0,0,.858-.425l.069-1.952,1.705-1.151a.492.492,0,0,0-.1-.895" transform="translate(-58.164 -0.092)" fill="#232426"/>
      <path id="Path_1663" data-name="Path 1663" d="M216.465,3.557l-1.925-.472-.587-1.833a.523.523,0,0,0-.927-.09L211.85,2.823l-2.019.089a.531.531,0,0,0-.432.834l1.2,1.5-.66,1.888a.487.487,0,0,0,.66.606L212.514,7l1.611,1.078a.552.552,0,0,0,.839-.46l-.013-1.954,1.656-1.222a.492.492,0,0,0-.142-.89" transform="translate(-61.936 -0.273)" fill="#232426"/>
    </g>
  </g>
</svg>
