<svg id="tour_guide" data-name="tour guide" xmlns="http://www.w3.org/2000/svg" xmlns:xlink="http://www.w3.org/1999/xlink" width="155.315" height="132.873" viewBox="0 0 155.315 132.873">
  <defs>
    <clipPath id="clip-path">
      <rect id="Rectangle_470" data-name="Rectangle 470" width="155.315" height="132.874" fill="none"/>
    </clipPath>
  </defs>
  <g id="Group_15568" data-name="Group 15568" clip-path="url(#clip-path)">
    <path id="Path_2483" data-name="Path 2483" d="M148.308,132.662H11.315a6.8,6.8,0,0,1-6.795-6.8V19.19A6.8,6.8,0,0,1,11.315,12.4H148.308A6.794,6.794,0,0,1,155.1,19.19V125.867a6.8,6.8,0,0,1-6.795,6.8" fill="#fff"/>
    <path id="Path_2484" data-name="Path 2484" d="M148.171,132.874H11.453a7.152,7.152,0,0,1-7.144-7.144V19.328a7.153,7.153,0,0,1,7.144-7.145H148.171a7.153,7.153,0,0,1,7.145,7.145v106.4a7.153,7.153,0,0,1-7.145,7.144M11.453,12.608a6.727,6.727,0,0,0-6.719,6.72v106.4a6.727,6.727,0,0,0,6.719,6.72H148.171a6.728,6.728,0,0,0,6.72-6.72V19.328a6.728,6.728,0,0,0-6.72-6.72Z" fill="#232426"/>
    <path id="Path_2485" data-name="Path 2485" d="M141.488,126.435H17.287a6.409,6.409,0,0,1-6.4-6.4V25.025a6.409,6.409,0,0,1,6.4-6.4h124.2a6.409,6.409,0,0,1,6.4,6.4v95.008a6.409,6.409,0,0,1-6.4,6.4M17.287,19.048a5.983,5.983,0,0,0-5.977,5.977v95.008a5.983,5.983,0,0,0,5.977,5.977h124.2a5.983,5.983,0,0,0,5.977-5.977V25.025a5.983,5.983,0,0,0-5.977-5.977Z" fill="#232426"/>
    <path id="Path_2486" data-name="Path 2486" d="M62.478,101.679H7.728A7.536,7.536,0,0,1,.193,94.144V12.3A7.536,7.536,0,0,1,7.728,4.767h54.75A7.535,7.535,0,0,1,70.013,12.3V94.144a7.535,7.535,0,0,1-7.535,7.535" fill="#fff"/>
    <rect id="Rectangle_469" data-name="Rectangle 469" width="69.82" height="96.912" rx="7.535" transform="translate(0.193 4.767)" fill="none" stroke="#232426" stroke-miterlimit="10" stroke-width="0.386"/>
    <path id="Path_2487" data-name="Path 2487" d="M54.3,30.775A1.726,1.726,0,0,1,52.57,32.5H47.76a1.726,1.726,0,0,1,0-3.452h4.81A1.726,1.726,0,0,1,54.3,30.775" fill="#ff9d00"/>
    <path id="Path_2488" data-name="Path 2488" d="M54.3,23.585a1.727,1.727,0,0,1-1.726,1.727H43.6a1.727,1.727,0,0,1,0-3.453H52.57A1.726,1.726,0,0,1,54.3,23.585" fill="#ff9d00"/>
    <path id="Path_2489" data-name="Path 2489" d="M54.3,16.4a1.726,1.726,0,0,1-1.726,1.726H38.233a1.726,1.726,0,1,1,0-3.452H52.57A1.726,1.726,0,0,1,54.3,16.4" fill="#ff9d00"/>
    <path id="Path_2490" data-name="Path 2490" d="M129.211,126.108c2.22-6.022,3.87-10.883,4.259-13.188,2.085-12.346-3.382-28.588-3.382-28.588l-13.179-1.043L115.4,85.857l-18.215-.3c-.291.551-3.618,19.51-2.667,40.662Z" fill="#fff"/>
    <path id="Path_2491" data-name="Path 2491" d="M94.514,126.434a.213.213,0,0,1-.213-.2c-.931-20.706,2.312-40.05,2.692-40.771a.208.208,0,0,1,.191-.113l18.092.295,1.45-2.461a.213.213,0,0,1,.2-.1L130.1,84.12a.214.214,0,0,1,.185.144c.055.163,5.46,16.434,3.391,28.691-.35,2.068-1.706,6.271-4.27,13.226a.213.213,0,0,1-.2.139Zm34.7-.326h0ZM97.334,85.774a189.065,189.065,0,0,0-2.617,40.235l34.345-.113c2.522-6.848,3.856-10.984,4.2-13.012,1.952-11.564-2.82-26.772-3.331-28.352l-12.9-1.021-1.446,2.454a.221.221,0,0,1-.187.1Z"/>
    <path id="Path_2492" data-name="Path 2492" d="M107.107,125.381a.246.246,0,0,1-.059-.008.212.212,0,0,1-.145-.263l4.236-14.663a.212.212,0,0,1,.408.118l-4.236,14.663a.212.212,0,0,1-.2.153"/>
    <path id="Path_2493" data-name="Path 2493" d="M62.107,24.335l-3.132-3.012s-1.472,1.159.782,3.883c-.615.021-1.256.062-2.284.134a3.058,3.058,0,0,1-2.278-.715c-.732-.649-1.643-1.438-1.981-1.651a4.421,4.421,0,0,0-2.189-.967,1.985,1.985,0,0,0-.559.095.879.879,0,0,0-.428,1.373l2.212,2.9a8.822,8.822,0,0,0,4.589,3.148l2.9.824a4.324,4.324,0,0,1,3.071,3.685l2.987,23.891a4.223,4.223,0,0,0,5.239,3.566l24.6-5.69-.951-14.906L77.9,49.265a3.929,3.929,0,0,1-5.351-2.252c-1.66-4.672-4.431-12.293-6.461-16.964a17.755,17.755,0,0,0-3.982-5.714" fill="#fff"/>
    <path id="Path_2494" data-name="Path 2494" d="M69.983,61.832a4.434,4.434,0,0,1-4.4-3.884L62.594,34.056a4.1,4.1,0,0,0-2.918-3.507l-2.9-.824a8.963,8.963,0,0,1-4.7-3.223l-2.212-2.9a1.1,1.1,0,0,1-.172-1,1.062,1.062,0,0,1,.706-.7,2.216,2.216,0,0,1,.618-.106,3.893,3.893,0,0,1,2.048.833c.089.058.175.115.258.167a23.884,23.884,0,0,1,2.009,1.672,2.858,2.858,0,0,0,2.122.662c.808-.056,1.375-.094,1.873-.117A4.016,4.016,0,0,1,58.3,22.277a1.678,1.678,0,0,1,.541-1.12.213.213,0,0,1,.279.013l3.132,3.012a17.852,17.852,0,0,1,4.029,5.782c2.071,4.765,4.94,12.682,6.467,16.978a3.716,3.716,0,0,0,5.061,2.13L94.58,40.7a.217.217,0,0,1,.2.006.214.214,0,0,1,.106.171l.951,14.906a.212.212,0,0,1-.164.22l-24.6,5.69a4.4,4.4,0,0,1-1.1.138M51.046,22.219h-.019a1.767,1.767,0,0,0-.5.086.644.644,0,0,0-.428.427.666.666,0,0,0,.106.614l2.211,2.9A8.554,8.554,0,0,0,56.9,29.317l2.9.824a4.52,4.52,0,0,1,3.223,3.864L66,57.9a4.009,4.009,0,0,0,4.975,3.386L95.4,55.631l-.92-14.407L78,49.455a4.143,4.143,0,0,1-5.646-2.371c-1.524-4.291-4.39-12.2-6.455-16.95a17.455,17.455,0,0,0-3.934-5.646l-2.977-2.862a1.41,1.41,0,0,0-.26.711,4.066,4.066,0,0,0,1.2,2.733.213.213,0,0,1-.156.348c-.6.021-1.24.061-2.276.134a3.276,3.276,0,0,1-2.434-.769,21.974,21.974,0,0,0-1.954-1.63c-.084-.053-.172-.111-.264-.17a3.632,3.632,0,0,0-1.79-.764"/>
    <path id="Path_2495" data-name="Path 2495" d="M131.934,49.308c-1.023-5.6-3.132-9.39-10.317-12.439-3.935-1.669-8.735-2.025-15.987-1.327-5.307.511-18.856,5.234-24.25,10.285-.346.324,6.834,13.51,6.834,13.51l4.353-.567-.948,27.542a3.83,3.83,0,0,0,2.357,3.674c3.453,1.432,11.4,2.7,28.755-1.61,0,0,7.739-3.1,10.4,8.9a6.388,6.388,0,0,0,5.472-6.694c-.045-4.458-4.413-28.9-6.674-41.274" fill="#9ca777"/>
    <path id="Path_2496" data-name="Path 2496" d="M126.435,60.825h-1.879a.212.212,0,0,1-.2-.138l-2.907-7.815a.212.212,0,0,1,.4-.148L124.7,60.4h1.731a.213.213,0,0,1,0,.425" fill="#fff"/>
    <path id="Path_2497" data-name="Path 2497" d="M128.393,60.308s12.824-.053,12.828-.191c.015-.459-4.77-19.4-22.553-24.175Z" fill="#9ca777"/>
    <path id="Path_2498" data-name="Path 2498" d="M127.327,60.241s8.12,20.217,8.778,21.615c0,0,3.338,7.281,2.558,10.641a10.042,10.042,0,0,0,2.484,8.97.817.817,0,0,0,1.36-.787c0-.012-.007-.025-.011-.038a23.308,23.308,0,0,0-.979-2.59,6.467,6.467,0,0,1,3.3,2.034c1.573,1.729,4.993,4.928,5.933,4.2,1.611-1.248,1.836-7.621-4.5-12.761a5.923,5.923,0,0,1-2.493-3.909s-1.892-11.949-3.5-19.508a73.193,73.193,0,0,1-1.338-8.058Z" fill="#fff"/>
    <path id="Path_2499" data-name="Path 2499" d="M150.421,104.6c-1.761,0-5.715-4.32-5.759-4.368a6.675,6.675,0,0,0-2.773-1.854,21.2,21.2,0,0,1,.812,2.209l.011.041a1.029,1.029,0,0,1-1.714.994,10.306,10.306,0,0,1-2.542-9.17c.755-3.251-2.511-10.432-2.544-10.5-.652-1.385-8.45-20.8-8.781-21.625a.207.207,0,0,1,.019-.2.213.213,0,0,1,.174-.1l11.593-.191h0a.214.214,0,0,1,.211.188,72.577,72.577,0,0,0,1.289,7.823l.046.215c1.59,7.478,3.484,19.4,3.5,19.519a5.7,5.7,0,0,0,2.417,3.777c5.2,4.216,5.554,8.782,5.539,10.081a3.925,3.925,0,0,1-1.042,3.013.727.727,0,0,1-.462.143m-8.9-6.757.036,0a6.632,6.632,0,0,1,3.423,2.1c2.158,2.372,5.007,4.672,5.646,4.175a3.6,3.6,0,0,0,.878-2.682c.014-1.251-.333-5.65-5.382-9.746a6.136,6.136,0,0,1-2.568-4.029c-.021-.131-1.912-12.042-3.5-19.509l-.046-.215a71.929,71.929,0,0,1-1.273-7.671l-11.093.182c.993,2.471,8.053,20.032,8.659,21.318.138.3,3.36,7.387,2.571,10.78a9.858,9.858,0,0,0,2.427,8.77.589.589,0,0,0,.724.086.58.58,0,0,0,.281-.668l-.009-.035a23.327,23.327,0,0,0-.968-2.559.212.212,0,0,1,.025-.218.215.215,0,0,1,.169-.082"/>
    <path id="Path_2500" data-name="Path 2500" d="M113.523,7.581c2.685,1.932,1.32,3.834,4.907,8.445,2.635,3.387,4.731,4.109,4.821,6.439.08,2.1-1.537,3.722-2.6,4.794-4.847,4.865-11.986,4.871-16.37,4.875-3.546,0-8.409.006-9.223-2.159-.8-2.139,3.267-3.928,3.342-8.262.06-3.486-2.541-4.283-2.184-7.394.462-4.025,5.241-6.387,6.008-6.766,3.076-1.52,8-2.352,11.3.028" fill="#232426"/>
    <path id="Path_2501" data-name="Path 2501" d="M110.563,7.414S108.409.949,113.974.073s3.569,6.426.2,8.68-3.614-1.339-3.614-1.339" fill="#232426"/>
    <path id="Path_2502" data-name="Path 2502" d="M114,35.2l-4.318-11.214s-.235-.637.007-.879a4.049,4.049,0,0,0,1.369-3.4c-.142-.745-.669-1.83-1.391-1.861-.508-.023-1.089.477-1.458,1.342a.63.63,0,0,1-1.1.1l-.009-.014a5.177,5.177,0,0,1-.651-1.27.62.62,0,0,0-.581-.444c-5.529-.1-2.7-6.745-6.269-5.794a.79.79,0,0,0-.389.278,18.835,18.835,0,0,0-1.229,1.8c-.814,1.538-.786,5.163-2.374,6.753a.644.644,0,0,0-.161.7c.254.61.815.691,1.279.94a.591.591,0,0,1,.306.51c.024.878.315,2.909.425,4.47a1.859,1.859,0,0,0,1.861,1.726,11.067,11.067,0,0,0,2.445-.285.633.633,0,0,1,.489.086c.653.43,1.325,5.288,1.646,7.938a2.478,2.478,0,0,0,2.1,2.158,26.38,26.38,0,0,0,3.29.379c4.375.128,5.332-2.425,4.721-4.014" fill="#fff"/>
    <path id="Path_2503" data-name="Path 2503" d="M109.6,39.428c-.105,0-.213,0-.323-.005a24.37,24.37,0,0,1-3.079-.344l-.235-.038a2.7,2.7,0,0,1-2.275-2.343c-.658-5.419-1.233-7.575-1.552-7.785a.418.418,0,0,0-.325-.056,11.363,11.363,0,0,1-2.492.289h0a2.078,2.078,0,0,1-2.071-1.923c-.053-.743-.149-1.613-.233-2.38-.1-.876-.18-1.633-.192-2.1a.384.384,0,0,0-.194-.33c-.1-.055-.214-.1-.331-.152a1.679,1.679,0,0,1-1.045-.892.855.855,0,0,1,.207-.927c.933-.934,1.293-2.658,1.611-4.179a10.559,10.559,0,0,1,.726-2.525,7.521,7.521,0,0,1,.734-1.112c.158-.21.322-.426.506-.7a1,1,0,0,1,.511-.366,1.84,1.84,0,0,1,1.44.088c.64.371.868,1.233,1.109,2.147.433,1.64.924,3.5,3.779,3.553a.834.834,0,0,1,.781.6,4.8,4.8,0,0,0,.624,1.211.419.419,0,0,0,.74-.055c.392-.922,1.049-1.5,1.662-1.472.883.038,1.444,1.267,1.591,2.033a4.251,4.251,0,0,1-1.428,3.592c-.086.086-.047.415.042.657L114.2,35.12a2.809,2.809,0,0,1-.347,2.635c-.547.773-1.728,1.673-4.256,1.673m-7.689-11.007a.836.836,0,0,1,.459.137c.2.135.824.544,1.74,8.089a2.27,2.27,0,0,0,1.915,1.974l.241.039a24.277,24.277,0,0,0,3.024.339c1.994.057,3.5-.471,4.219-1.49a2.385,2.385,0,0,0,.3-2.236l-4.319-11.214c-.048-.13-.267-.783.055-1.106a3.848,3.848,0,0,0,1.311-3.214c-.132-.691-.62-1.663-1.192-1.688-.437-.022-.936.469-1.253,1.214a.84.84,0,0,1-.7.508.825.825,0,0,1-.777-.372l-.012-.018a5.167,5.167,0,0,1-.675-1.322.407.407,0,0,0-.381-.291c-3.176-.059-3.733-2.171-4.182-3.869-.227-.861-.424-1.605-.911-1.888a1.449,1.449,0,0,0-1.117-.044.585.585,0,0,0-.268.19c-.191.288-.358.509-.52.724a7.136,7.136,0,0,0-.7,1.054,10.335,10.335,0,0,0-.685,2.414c-.33,1.579-.7,3.369-1.726,4.392a.431.431,0,0,0-.115.464,1.28,1.28,0,0,0,.819.664c.12.052.244.1.364.169a.808.808,0,0,1,.419.693c.011.448.1,1.233.189,2.063.085.772.181,1.646.234,2.4a1.653,1.653,0,0,0,1.648,1.529h0a11,11,0,0,0,2.4-.279.862.862,0,0,1,.194-.022"/>
    <path id="Path_2504" data-name="Path 2504" d="M101.759,28.862a.212.212,0,0,1-.043-.42,8.172,8.172,0,0,0,4.259-2.534.212.212,0,1,1,.329.268,8.472,8.472,0,0,1-4.5,2.682.215.215,0,0,1-.043,0"/>
    <path id="Path_2505" data-name="Path 2505" d="M38.825,86.418s.244-.731.892-.568,1.012.272,1.012.272v-1a2.665,2.665,0,0,1,1.424.242c.406.325,1,1.056,1.351,1.056s1.312.325,1.483,0,.416-1.137.9-.974.894,0,1.625.487a4.721,4.721,0,0,0,1.286.631,2.057,2.057,0,0,0-.394.749,3.365,3.365,0,0,0,.569,1.462,6.811,6.811,0,0,1,1.136,1.949,4.657,4.657,0,0,1,0,1.135l-1.217-.08a2.8,2.8,0,0,1-.081.731c-.082.163-.813,1.381-.894,1.543s.163.731.244.893S46.62,96,46.62,96s-3.736-4.3-3.979-4.547-2.6-3.33-2.842-3.411a8.584,8.584,0,0,1-1.219-1.218Z" fill="#ff9d00"/>
    <path id="Path_2506" data-name="Path 2506" d="M38.825,86.418s.244-.731.892-.568,1.012.272,1.012.272v-1a2.665,2.665,0,0,1,1.424.242c.406.325,1,1.056,1.351,1.056s1.312.325,1.483,0,.416-1.137.9-.974.894,0,1.625.487a4.721,4.721,0,0,0,1.286.631,2.057,2.057,0,0,0-.394.749,3.365,3.365,0,0,0,.569,1.462,6.811,6.811,0,0,1,1.136,1.949,4.657,4.657,0,0,1,0,1.135l-1.217-.08a2.8,2.8,0,0,1-.081.731c-.082.163-.813,1.381-.894,1.543s.163.731.244.893S46.62,96,46.62,96s-3.736-4.3-3.979-4.547-2.6-3.33-2.842-3.411a8.584,8.584,0,0,1-1.219-1.218Z" fill="none" stroke="#fff" stroke-miterlimit="10" stroke-width="0.28"/>
    <path id="Path_2507" data-name="Path 2507" d="M38.581,86.731s-2.274-2.343-2.517-3.155-1.056-3.41-1.3-3.9,1.137-.488,1.381-.406.731.568,1.38.406a5.408,5.408,0,0,0,1.381-.65s-.244,1.543.081,1.624,1.056.325,1.462.081,1.137-.812,1.867-.649,1.381.243,1.381.243v-1.16a2.121,2.121,0,0,1,1.3.186,32.316,32.316,0,0,0,2.924,1.461c.243.082.771.285.771.285l-.853.852s.731,1.137.894,1.3.893,1.136.974,1.218a.983.983,0,0,1,.162.73,2.531,2.531,0,0,1-.406.813c-.162.162-.568.487-.568.487l-.19.033L46.769,85.6s-.931-.326-1.109-.158a3.822,3.822,0,0,0-.59.8c-.074.176-.22.383-.878.279s-1.72-.559-1.879-1.021-1.621-.382-1.621-.382l.037,1a8.34,8.34,0,0,0-1.186-.3,1.036,1.036,0,0,0-.555.3c-.082.133-.407.608-.407.608" fill="#ff9d00"/>
    <path id="Path_2508" data-name="Path 2508" d="M38.581,86.731s-2.274-2.343-2.517-3.155-1.056-3.41-1.3-3.9,1.137-.488,1.381-.406.731.568,1.38.406a5.408,5.408,0,0,0,1.381-.65s-.244,1.543.081,1.624,1.056.325,1.462.081,1.137-.812,1.867-.649,1.381.243,1.381.243v-1.16a2.121,2.121,0,0,1,1.3.186,32.316,32.316,0,0,0,2.924,1.461c.243.082.771.285.771.285l-.853.852s.731,1.137.894,1.3.893,1.136.974,1.218a.983.983,0,0,1,.162.73,2.531,2.531,0,0,1-.406.813c-.162.162-.568.487-.568.487l-.19.033L46.769,85.6s-.931-.326-1.109-.158a3.822,3.822,0,0,0-.59.8c-.074.176-.22.383-.878.279s-1.72-.559-1.879-1.021-1.621-.382-1.621-.382l.037,1a8.34,8.34,0,0,0-1.186-.3,1.036,1.036,0,0,0-.555.3C38.906,86.256,38.581,86.731,38.581,86.731Z" fill="none" stroke="#fff" stroke-miterlimit="10" stroke-width="0.28"/>
    <path id="Path_2509" data-name="Path 2509" d="M38.906,78.947a1.335,1.335,0,0,1-.244-1.868c.812-.974-1.461-1.137-1.949-1.055s-1.624.406-1.218-.65,2.031-1.787,2.031-1.787a.968.968,0,0,1,.893-.487,6.716,6.716,0,0,1,2.111.569,2.663,2.663,0,0,0,1.949.162,3.233,3.233,0,0,1,1.3,0c.488.163,1.624.812,1.868.731s.244-1.218,1.3-1.218,1.624,0,2.03.406.325,2.03.325,2.03-.081,1.056.163,1.218.487.406.649.406.244.975.244,1.3-.65,1.137-.65,1.137a5.253,5.253,0,0,0-.568.65c-.081.162-.325.568-.325.568a10.353,10.353,0,0,1-1.437-.485c-.512-.246-2.072-1.038-2.072-1.038L45,79.353a.82.82,0,0,0-.259-.124c-.147-.038-.353-.076-.353-.076l-.232-.015-.209,0-.146.012-.1.013v1.159l-.814-.129-.593-.12a2.35,2.35,0,0,0-.617.027,1.212,1.212,0,0,0-.5.2l-.39.224-.4.245-.118.039-.255.03-.267-.017-.24-.042-.253-.06-.23-.061s-.173-.031-.141-.141-.048-.109-.048-.109l-.005-.489.03-.437.056-.455Z" fill="#ff9d00"/>
    <path id="Path_2510" data-name="Path 2510" d="M38.906,78.947a1.335,1.335,0,0,1-.244-1.868c.812-.974-1.461-1.137-1.949-1.055s-1.624.406-1.218-.65,2.031-1.787,2.031-1.787a.968.968,0,0,1,.893-.487,6.716,6.716,0,0,1,2.111.569,2.663,2.663,0,0,0,1.949.162,3.233,3.233,0,0,1,1.3,0c.488.163,1.624.812,1.868.731s.244-1.218,1.3-1.218,1.624,0,2.03.406.325,2.03.325,2.03-.081,1.056.163,1.218.487.406.649.406.244.975.244,1.3-.65,1.137-.65,1.137a5.253,5.253,0,0,0-.568.65c-.081.162-.325.568-.325.568a10.353,10.353,0,0,1-1.437-.485c-.512-.246-2.072-1.038-2.072-1.038L45,79.353a.82.82,0,0,0-.259-.124c-.147-.038-.353-.076-.353-.076l-.232-.015-.209,0-.146.012-.1.013v1.159l-.814-.129-.593-.12a2.35,2.35,0,0,0-.617.027,1.212,1.212,0,0,0-.5.2l-.39.224-.4.245-.118.039-.255.03-.267-.017-.24-.042-.253-.06-.23-.061s-.173-.031-.141-.141-.048-.109-.048-.109l-.005-.489.03-.437.056-.455Z" fill="none" stroke="#fff" stroke-miterlimit="10" stroke-width="0.28"/>
    <path id="Path_2511" data-name="Path 2511" d="M32.815,66.442s.244,1.137.325,1.543.325,2.274.325,2.274.162,1.136.406,1.3.649.487.812.487.649,0,.731.244a13.2,13.2,0,0,1,.162,1.461l.081.812.1.353.381-.415.285-.239.3-.219.4-.249.332-.175.063-.03.206-.249.165-.126.164-.078.187-.04.215.012.323.044.27.044.259.058.338.1.383.131.322.121.384.146.276.085.226.05.22.034.248.02h.18l.2-.015.2-.034.207-.06.22-.034.232-.023.18-.009.262,0,.241.03.183.052.2.083.068.029s.577-.452.414-.777a2.483,2.483,0,0,0-.812-.812c-.081,0-.73-.244-.73-.406v-.325l.162-.568.325-.569a4.666,4.666,0,0,0-.081-.974c-.082-.163-.488-.893-.812-.975a2.827,2.827,0,0,1-.894-.649c-.081-.082-.325-.731-.487-.812a2.843,2.843,0,0,0-.731-.325H39.8a3.534,3.534,0,0,0-.406-.081,3.5,3.5,0,0,1-.569-.325s-.487-.325-.487-.406a1.779,1.779,0,0,0-.244-.406,5.172,5.172,0,0,0-.812.568c-.243.244-.081.244-.487.325s-.568-.081-.974-.081h-.975c-.487,0-.244.243-.893.081A4.3,4.3,0,0,0,32.9,66.28c-.081,0-.081.162-.081.162" fill="#ff9d00"/>
    <path id="Path_2512" data-name="Path 2512" d="M32.815,66.442s.244,1.137.325,1.543.325,2.274.325,2.274.162,1.136.406,1.3.649.487.812.487.649,0,.731.244a13.2,13.2,0,0,1,.162,1.461l.081.812.1.353.381-.415.285-.239.3-.219.4-.249.332-.175.063-.03.206-.249.165-.126.164-.078.187-.04.215.012.323.044.27.044.259.058.338.1.383.131.322.121.384.146.276.085.226.05.22.034.248.02h.18l.2-.015.2-.034.207-.06.22-.034.232-.023.18-.009.262,0,.241.03.183.052.2.083.068.029s.577-.452.414-.777a2.483,2.483,0,0,0-.812-.812c-.081,0-.73-.244-.73-.406v-.325l.162-.568.325-.569a4.666,4.666,0,0,0-.081-.974c-.082-.163-.488-.893-.812-.975a2.827,2.827,0,0,1-.894-.649c-.081-.082-.325-.731-.487-.812a2.843,2.843,0,0,0-.731-.325H39.8a3.534,3.534,0,0,0-.406-.081,3.5,3.5,0,0,1-.569-.325s-.487-.325-.487-.406a1.779,1.779,0,0,0-.244-.406,5.172,5.172,0,0,0-.812.568c-.243.244-.081.244-.487.325s-.568-.081-.974-.081h-.975c-.487,0-.244.243-.893.081A4.3,4.3,0,0,0,32.9,66.28C32.815,66.28,32.815,66.442,32.815,66.442Z" fill="none" stroke="#fff" stroke-miterlimit="10" stroke-width="0.28"/>
    <path id="Path_2513" data-name="Path 2513" d="M32.825,66.362a4.562,4.562,0,0,0-.984-.327h-.487a6.11,6.11,0,0,0,.081.975,4.2,4.2,0,0,1,.162.893,4.952,4.952,0,0,1,.081,1.137A4.671,4.671,0,0,0,31.6,70.5,11.32,11.32,0,0,0,32,72.369c.244.488.65,1.706.65,1.706l.731,2.111.893,2.436.325.569.14.333a.477.477,0,0,1,.305-.215c.2-.037.448-.07.448-.07l.293-.007.274.022.174.059.222.131.23.124.174.072.257.062.217.006.294-.059.343-.123.321-.148.28-.15.195-.114.125-.078.012-.089-.192-.2-.19-.279-.1-.223-.053-.205-.01-.293.046-.219.067-.164.094-.16.1-.136.119-.185.044-.188-.041-.161s-.1-.154-.156-.17a.49.49,0,0,1-.138-.083l-.244-.094-.217-.066-.328-.062-.189-.024-.2-.018-.223-.01-.235,0-.219.026-.2.039-.27.043-.267.017-.216-.024-.133-.055-.106-.114-.041-.138.016-.2.04-.147.048-.131.069-.143.055-.1.076-.116.053-.073-.042-.1-.062-.221-.023-.2-.022-.222-.024-.237-.023-.265-.02-.26-.037-.421-.04-.356-.039-.248-.057-.149-.1-.078-.139-.054-.171-.031-.183-.012-.121,0L34.543,72l-.158-.09-.226-.153-.178-.126-.15-.111-.108-.191-.1-.289-.08-.334-.076-.417-.094-.7-.109-.788-.117-.765-.145-.7-.145-.684Z" fill="#ff9d00"/>
    <path id="Path_2514" data-name="Path 2514" d="M32.825,66.362a4.562,4.562,0,0,0-.984-.327h-.487a6.11,6.11,0,0,0,.081.975,4.2,4.2,0,0,1,.162.893,4.952,4.952,0,0,1,.081,1.137A4.671,4.671,0,0,0,31.6,70.5,11.32,11.32,0,0,0,32,72.369c.244.488.65,1.706.65,1.706l.731,2.111.893,2.436.325.569.14.333a.477.477,0,0,1,.305-.215c.2-.037.448-.07.448-.07l.293-.007.274.022.174.059.222.131.23.124.174.072.257.062.217.006.294-.059.343-.123.321-.148.28-.15.195-.114.125-.078.012-.089-.192-.2-.19-.279-.1-.223-.053-.205-.01-.293.046-.219.067-.164.094-.16.1-.136.119-.185.044-.188-.041-.161s-.1-.154-.156-.17a.49.49,0,0,1-.138-.083l-.244-.094-.217-.066-.328-.062-.189-.024-.2-.018-.223-.01-.235,0-.219.026-.2.039-.27.043-.267.017-.216-.024-.133-.055-.106-.114-.041-.138.016-.2.04-.147.048-.131.069-.143.055-.1.076-.116.053-.073-.042-.1-.062-.221-.023-.2-.022-.222-.024-.237-.023-.265-.02-.26-.037-.421-.04-.356-.039-.248-.057-.149-.1-.078-.139-.054-.171-.031-.183-.012-.121,0L34.543,72l-.158-.09-.226-.153-.178-.126-.15-.111-.108-.191-.1-.289-.08-.334-.076-.417-.094-.7-.109-.788-.117-.765-.145-.7-.145-.684Z" fill="none" stroke="#fff" stroke-miterlimit="10" stroke-width="0.28"/>
    <path id="Path_2515" data-name="Path 2515" d="M38.094,65.548l.162-.568a2.453,2.453,0,0,1,.569-.406c.325-.163.974-.569.974-.569l.975-.65.893-.406.325-.324s-.975-.406-1.137-.488-1.056-.893-1.056-.893l-.649-.731-.731-.649-.163-.163s.406-.731.488-.812.568-.487.568-.487A1.812,1.812,0,0,1,40.124,58h1.543c.162,0,1.056-.162,1.056-.162a2.927,2.927,0,0,0,.568.73c.244.163.569.488.893.488s.812.162,1.056-.082a3.69,3.69,0,0,1,.487-.406l.569-.649s.487-.731.812-.731a6.118,6.118,0,0,0,1.218-.325l.406-.162s.162-.082.406.325a11.535,11.535,0,0,1,.568,1.218l.406.974a3.521,3.521,0,0,1,.325.893c0,.244.163.569,0,.731s-.325.081-.568.081a2.358,2.358,0,0,0-.65.163.45.45,0,0,0-.162.487,5.511,5.511,0,0,0,.73,1.137,1.375,1.375,0,0,1,.488,1.056,2.061,2.061,0,0,1-.65,1.055,1.5,1.5,0,0,0-.406,1.137,2.25,2.25,0,0,0,.244.893,2.008,2.008,0,0,1-.082,1.381c-.324.649-.812,1.543-.812,1.543s-.406.73-.162.974a1.505,1.505,0,0,0,.974.569,7.975,7.975,0,0,0,1.128.052c.415-.052.74-.458.984-.215s.325.569.731,1.056.487.406.487.649-.244.488-.487.731-.731.244-.731.731.162.975-.163,1.3a11.71,11.71,0,0,0-1.055,1.137c-.081.163-.243.634-.243.634l-.324-.209-.263-.2-.115-.267-.037-.321,0-.433.015-.417-.005-.421-.027-.4-.061-.418-.084-.3a.592.592,0,0,0-.23-.331c-.167-.093-.3-.182-.3-.182l-.29-.085-.331-.045-.386-.02-.389,0h-.336l-.229.038-.225.091a1.614,1.614,0,0,0-.3.263c-.06.1-.189.321-.189.321l-.155.359a.251.251,0,0,1-.216.15,3.186,3.186,0,0,1-.636-.227l-.46-.214-.331-.153-.03-.013.225-.217.171-.249.047-.183-.066-.195-.159-.212-.218-.228L43.9,72.5l-.17-.122-.241-.074-.278-.124L42.977,72s-.011-.28-.011-.362a3.125,3.125,0,0,1,.127-.443l.148-.322.179-.312.033-.087-.013-.458-.031-.346-.159-.365-.162-.252-.22-.28-.229-.19a2.067,2.067,0,0,1-.258-.1,2.92,2.92,0,0,0-.311-.212l-.259-.225-.178-.188-.195-.388-.167-.286-.1-.1-.345-.182-.325-.131-.277-.006h-.394l-.316-.065-.181-.037-.351-.2-.423-.291-.209-.19-.018-.06-.1-.185-.082-.119Z" fill="#ff9d00"/>
    <path id="Path_2516" data-name="Path 2516" d="M38.094,65.548l.162-.568a2.453,2.453,0,0,1,.569-.406c.325-.163.974-.569.974-.569l.975-.65.893-.406.325-.324s-.975-.406-1.137-.488-1.056-.893-1.056-.893l-.649-.731-.731-.649-.163-.163s.406-.731.488-.812.568-.487.568-.487A1.812,1.812,0,0,1,40.124,58h1.543c.162,0,1.056-.162,1.056-.162a2.927,2.927,0,0,0,.568.73c.244.163.569.488.893.488s.812.162,1.056-.082a3.69,3.69,0,0,1,.487-.406l.569-.649s.487-.731.812-.731a6.118,6.118,0,0,0,1.218-.325l.406-.162s.162-.082.406.325a11.535,11.535,0,0,1,.568,1.218l.406.974a3.521,3.521,0,0,1,.325.893c0,.244.163.569,0,.731s-.325.081-.568.081a2.358,2.358,0,0,0-.65.163.45.45,0,0,0-.162.487,5.511,5.511,0,0,0,.73,1.137,1.375,1.375,0,0,1,.488,1.056,2.061,2.061,0,0,1-.65,1.055,1.5,1.5,0,0,0-.406,1.137,2.25,2.25,0,0,0,.244.893,2.008,2.008,0,0,1-.082,1.381c-.324.649-.812,1.543-.812,1.543s-.406.73-.162.974a1.505,1.505,0,0,0,.974.569,7.975,7.975,0,0,0,1.128.052c.415-.052.74-.458.984-.215s.325.569.731,1.056.487.406.487.649-.244.488-.487.731-.731.244-.731.731.162.975-.163,1.3a11.71,11.71,0,0,0-1.055,1.137c-.081.163-.243.634-.243.634l-.324-.209-.263-.2-.115-.267-.037-.321,0-.433.015-.417-.005-.421-.027-.4-.061-.418-.084-.3a.592.592,0,0,0-.23-.331c-.167-.093-.3-.182-.3-.182l-.29-.085-.331-.045-.386-.02-.389,0h-.336l-.229.038-.225.091a1.614,1.614,0,0,0-.3.263c-.06.1-.189.321-.189.321l-.155.359a.251.251,0,0,1-.216.15,3.186,3.186,0,0,1-.636-.227l-.46-.214-.331-.153-.03-.013.225-.217.171-.249.047-.183-.066-.195-.159-.212-.218-.228L43.9,72.5l-.17-.122-.241-.074-.278-.124L42.977,72s-.011-.28-.011-.362a3.125,3.125,0,0,1,.127-.443l.148-.322.179-.312.033-.087-.013-.458-.031-.346-.159-.365-.162-.252-.22-.28-.229-.19a2.067,2.067,0,0,1-.258-.1,2.92,2.92,0,0,0-.311-.212l-.259-.225-.178-.188-.195-.388-.167-.286-.1-.1-.345-.182-.325-.131-.277-.006h-.394l-.316-.065-.181-.037-.351-.2-.423-.291-.209-.19-.018-.06-.1-.185-.082-.119Z" fill="none" stroke="#fff" stroke-miterlimit="10" stroke-width="0.28"/>
    <path id="Path_2517" data-name="Path 2517" d="M39.659,58.161s-.428-.49-.753-.49-1.624.081-1.787.081h-1.7L34.2,58a7.354,7.354,0,0,0-1.3.406,2.194,2.194,0,0,0-.65.568.972.972,0,0,0-.162.488,3.566,3.566,0,0,0-1.218-.163c-.406.081-1.543.244-1.543.244L29,59.7l.568,1.624.894,2.355.487,1.543.406.812h.487l.37.087.246.089.308.125h.051l.164-.056.31.029.4.072.293.069.341.046.147-.043.133-.063.441-.03h.722l.292.02.2.042.241.039.187,0,.213-.04.131-.057a.2.2,0,0,0,.112-.088,3.676,3.676,0,0,1,.3-.3l.258-.183.255-.162.128-.076.093-.327.069-.241.253-.211.4-.237.458-.262.392-.238.567-.376.412-.275.221-.109.463-.21.217-.1.132-.115.224-.223-.607-.256-.481-.208-.393-.29-.447-.389-.439-.434-.349-.392-.376-.364-.351-.313-.284-.293.235-.413.22-.355.2-.185.34-.287.3-.206Z" fill="#ff9d00"/>
    <path id="Path_2518" data-name="Path 2518" d="M39.659,58.161s-.428-.49-.753-.49-1.624.081-1.787.081h-1.7L34.2,58a7.354,7.354,0,0,0-1.3.406,2.194,2.194,0,0,0-.65.568.972.972,0,0,0-.162.488,3.566,3.566,0,0,0-1.218-.163c-.406.081-1.543.244-1.543.244L29,59.7l.568,1.624.894,2.355.487,1.543.406.812h.487l.37.087.246.089.308.125h.051l.164-.056.31.029.4.072.293.069.341.046.147-.043.133-.063.441-.03h.722l.292.02.2.042.241.039.187,0,.213-.04.131-.057a.2.2,0,0,0,.112-.088,3.676,3.676,0,0,1,.3-.3l.258-.183.255-.162.128-.076.093-.327.069-.241.253-.211.4-.237.458-.262.392-.238.567-.376.412-.275.221-.109.463-.21.217-.1.132-.115.224-.223-.607-.256-.481-.208-.393-.29-.447-.389-.439-.434-.349-.392-.376-.364-.351-.313-.284-.293.235-.413.22-.355.2-.185.34-.287.3-.206Z" fill="none" stroke="#fff" stroke-miterlimit="10" stroke-width="0.28"/>
    <path id="Path_2519" data-name="Path 2519" d="M29,59.7l-.519-2.03-.861-2.355-.894-1.868L25.67,51.257l-.406-1.381s.487.406.73.406a8.026,8.026,0,0,0,1.381-.162,3.138,3.138,0,0,0,.517-.244s1.188.244,1.351.081.568-.162.649-.324.244-.325.244-.488,1.617,0,1.617,0l1.883-.072a7.837,7.837,0,0,1,1.291.154.429.429,0,0,1,.162.568c-.162.325-.649,1.381-.73,1.624s-.325.975-.082,1.3.812,1.218,1.381,1.462a6.7,6.7,0,0,1,1.867.893c.244.325.407.975.731,1.056a10.847,10.847,0,0,0,1.543.406c.325,0,.731-.081.893.081s.325.487.569.487a1.93,1.93,0,0,1,.974.244l.488.487-.646.111L41.429,58h-1.12l-.31.016-.28.115-.06.034-.209-.206-.343-.234-.284-.05-.382.016-.634.032-.688.033h-1.7l-.64.128-.781.165-.585.159-.511.2-.4.29-.251.278-.124.267-.038.22-.278-.072-.349-.07-.412-.036-.4.055-.4.065-.388.06-.392.058-.185.04Z" fill="#ff9d00"/>
    <path id="Path_2520" data-name="Path 2520" d="M29,59.7l-.519-2.03-.861-2.355-.894-1.868L25.67,51.257l-.406-1.381s.487.406.73.406a8.026,8.026,0,0,0,1.381-.162,3.138,3.138,0,0,0,.517-.244s1.188.244,1.351.081.568-.162.649-.324.244-.325.244-.488,1.617,0,1.617,0l1.883-.072a7.837,7.837,0,0,1,1.291.154.429.429,0,0,1,.162.568c-.162.325-.649,1.381-.73,1.624s-.325.975-.082,1.3.812,1.218,1.381,1.462a6.7,6.7,0,0,1,1.867.893c.244.325.407.975.731,1.056a10.847,10.847,0,0,0,1.543.406c.325,0,.731-.081.893.081s.325.487.569.487a1.93,1.93,0,0,1,.974.244l.488.487-.646.111L41.429,58h-1.12l-.31.016-.28.115-.06.034-.209-.206-.343-.234-.284-.05-.382.016-.634.032-.688.033h-1.7l-.64.128-.781.165-.585.159-.511.2-.4.29-.251.278-.124.267-.038.22-.278-.072-.349-.07-.412-.036-.4.055-.4.065-.388.06-.392.058-.185.04Z" fill="none" stroke="#fff" stroke-miterlimit="10" stroke-width="0.28"/>
    <path id="Path_2521" data-name="Path 2521" d="M27.862,49.795s-.325-.812-.406-.974a2.056,2.056,0,0,1-.162-.975,5.335,5.335,0,0,1,1.055-.65l1.218-.568,1.056-.162h1.019l.93-.163.243-.731.325-1.055-.893-.325s-.731-.487-.406-.65.731-.568.974-.568a1.253,1.253,0,0,0,.894-.487,1.787,1.787,0,0,0,.406-.65c.162-.406,0-1.218.406-1.3s.406-.325,1.055-.082a3.419,3.419,0,0,0,1.462.325,5.983,5.983,0,0,0,1.218,0,2.88,2.88,0,0,0,.893-.325c.244-.162.488-.487.813-.324s.568.406.406.568-.244.162-.406.325-.163.325.081.487a1.342,1.342,0,0,1,.649.812c.082.406-.081.325.082.812a2.564,2.564,0,0,1,.162.65s-1.218,0-1.381.325-.406.812-.568,1.218-.244.649-.244.649l2.274.569c.65.162,1.137.081,1.381.568s0,.731.406.975a3.158,3.158,0,0,1,.568.406,4.421,4.421,0,0,1,0,1.105,2.626,2.626,0,0,1-.325,1.087c-.243.487-.081.406-.406.569a1,1,0,0,1-.568.162h-.3a3.137,3.137,0,0,1,.214,1.462,8.94,8.94,0,0,0-.163,1.38c0,.731,0,.516.163.948s.324.514.406.92.038.393-.143.562-.465.476-.465.476l-.656-.094-.2-.163-.244-.294-.108-.065-.168-.032-.179,0-.251.013-.257,0-.314-.061-.461-.13-.506-.157-.288-.1a2.63,2.63,0,0,1-.21-.235,1.889,1.889,0,0,1-.2-.371l-.213-.385-.141-.142-.179-.116-.188-.1-.29-.129-.375-.151-.361-.138-.4-.162-.271-.2-.375-.339L34.6,53.17l-.343-.476a1.385,1.385,0,0,1-.087-.463c.022-.162.109-.573.109-.573l.2-.537.3-.675.21-.448.145-.337-.014-.194-.115-.165-.146-.1-.294-.048-.363-.037-.406-.031-.325-.011L32.8,49.1l-.688.027-.361.013-.612-.049-.532-.023h-.322l-.151.072-.067.2-.177.29-.161.117-.264.087-.181.085-.082.059s-.016.005-.192.031a1.538,1.538,0,0,1-.434-.026l-.315-.043-.2-.035-.166-.032Z" fill="#ff9d00"/>
    <path id="Path_2522" data-name="Path 2522" d="M27.862,49.795s-.325-.812-.406-.974a2.056,2.056,0,0,1-.162-.975,5.335,5.335,0,0,1,1.055-.65l1.218-.568,1.056-.162h1.019l.93-.163.243-.731.325-1.055-.893-.325s-.731-.487-.406-.65.731-.568.974-.568a1.253,1.253,0,0,0,.894-.487,1.787,1.787,0,0,0,.406-.65c.162-.406,0-1.218.406-1.3s.406-.325,1.055-.082a3.419,3.419,0,0,0,1.462.325,5.983,5.983,0,0,0,1.218,0,2.88,2.88,0,0,0,.893-.325c.244-.162.488-.487.813-.324s.568.406.406.568-.244.162-.406.325-.163.325.081.487a1.342,1.342,0,0,1,.649.812c.082.406-.081.325.082.812a2.564,2.564,0,0,1,.162.65s-1.218,0-1.381.325-.406.812-.568,1.218-.244.649-.244.649l2.274.569c.65.162,1.137.081,1.381.568s0,.731.406.975a3.158,3.158,0,0,1,.568.406,4.421,4.421,0,0,1,0,1.105,2.626,2.626,0,0,1-.325,1.087c-.243.487-.081.406-.406.569a1,1,0,0,1-.568.162h-.3a3.137,3.137,0,0,1,.214,1.462,8.94,8.94,0,0,0-.163,1.38c0,.731,0,.516.163.948s.324.514.406.92.038.393-.143.562-.465.476-.465.476l-.656-.094-.2-.163-.244-.294-.108-.065-.168-.032-.179,0-.251.013-.257,0-.314-.061-.461-.13-.506-.157-.288-.1a2.63,2.63,0,0,1-.21-.235,1.889,1.889,0,0,1-.2-.371l-.213-.385-.141-.142-.179-.116-.188-.1-.29-.129-.375-.151-.361-.138-.4-.162-.271-.2-.375-.339L34.6,53.17l-.343-.476a1.385,1.385,0,0,1-.087-.463c.022-.162.109-.573.109-.573l.2-.537.3-.675.21-.448.145-.337-.014-.194-.115-.165-.146-.1-.294-.048-.363-.037-.406-.031-.325-.011L32.8,49.1l-.688.027-.361.013-.612-.049-.532-.023h-.322l-.151.072-.067.2-.177.29-.161.117-.264.087-.181.085-.082.059s-.016.005-.192.031a1.538,1.538,0,0,1-.434-.026l-.315-.043-.2-.035-.166-.032Z" fill="none" stroke="#fff" stroke-miterlimit="10" stroke-width="0.28"/>
    <path id="Path_2523" data-name="Path 2523" d="M22.99,41.674s.892-.162.892-.325.406-.487.325-.731-.244-.487.081-.568,1.868-.569,1.868-.569l1.786-.649s.569-.244.569-.406a4.978,4.978,0,0,1,.081-1.543c.163-.162.812-1.218.812-1.218l.893-.731.731-.65s-.162.894.081,1.056a13.017,13.017,0,0,0,1.3.568,2.984,2.984,0,0,1,1.3.163,17.953,17.953,0,0,1,1.543.974,5.165,5.165,0,0,1,1.381,1.137c0,.163.243.1,0,.535a3.227,3.227,0,0,1-.813.846l-.812.649-.063.167-.236.1-.207.061-.119.069-.1.185-.053.276-.034.381-.077.383L34,42.1l-.173.238-.2.233-.208.192-.277.145-.327.069-.2.061-.359.235-.228.161-.168.1s-.106.089-.1.131a.625.625,0,0,0,.066.151l.182.192.178.142.063.044.358.131.35.127.186.067-.069.223-.08.259-.136.442-.118.365-.1.3-.066.2-.3.052-.42.074-.218.036H30.622l-.306.047-.3.047-.392.06-.055.008-.462.216-.654.305-.737.39-.3.193-.119.115a.664.664,0,0,0-.015.253,3.188,3.188,0,0,0,.129.6c.048.125.232.551.232.551l.219.538.084.092-.178.071a1.839,1.839,0,0,1-.389.172,3.939,3.939,0,0,0-.42.079l-.4.046-.363.03h-.26l-.258-.111-.317-.215-.172-.154-.406-1.136-.407-1.787L23.8,44.922l-.568-2.03-.325-1.137Z" fill="#ff9d00"/>
    <path id="Path_2524" data-name="Path 2524" d="M22.99,41.674s.892-.162.892-.325.406-.487.325-.731-.244-.487.081-.568,1.868-.569,1.868-.569l1.786-.649s.569-.244.569-.406a4.978,4.978,0,0,1,.081-1.543c.163-.162.812-1.218.812-1.218l.893-.731.731-.65s-.162.894.081,1.056a13.017,13.017,0,0,0,1.3.568,2.984,2.984,0,0,1,1.3.163,17.953,17.953,0,0,1,1.543.974,5.165,5.165,0,0,1,1.381,1.137c0,.163.243.1,0,.535a3.227,3.227,0,0,1-.813.846l-.812.649-.063.167-.236.1-.207.061-.119.069-.1.185-.053.276-.034.381-.077.383L34,42.1l-.173.238-.2.233-.208.192-.277.145-.327.069-.2.061-.359.235-.228.161-.168.1s-.106.089-.1.131a.625.625,0,0,0,.066.151l.182.192.178.142.063.044.358.131.35.127.186.067-.069.223-.08.259-.136.442-.118.365-.1.3-.066.2-.3.052-.42.074-.218.036H30.622l-.306.047-.3.047-.392.06-.055.008-.462.216-.654.305-.737.39-.3.193-.119.115a.664.664,0,0,0-.015.253,3.188,3.188,0,0,0,.129.6c.048.125.232.551.232.551l.219.538.084.092-.178.071a1.839,1.839,0,0,1-.389.172,3.939,3.939,0,0,0-.42.079l-.4.046-.363.03h-.26l-.258-.111-.317-.215-.172-.154-.406-1.136-.407-1.787L23.8,44.922l-.568-2.03-.325-1.137Z" fill="none" stroke="#fff" stroke-miterlimit="10" stroke-width="0.28"/>
    <path id="Path_2525" data-name="Path 2525" d="M22.381,29.372s-.162-1.137.4-1.137,1.057.081,1.381-.162.569-.244.649-.65.163-.893.326-.893a2.521,2.521,0,0,0,1.379.081c.976-.162,1.382-.244,1.707-.325s.324-.731.4-.081-.487,1.381.082,1.624a3.838,3.838,0,0,0,1.3.244,6.975,6.975,0,0,0,.731.568c.568.406,1.217.812,1.623,1.137a2.091,2.091,0,0,0,1.3.568.955.955,0,0,0,.651-.162,1.772,1.772,0,0,0,0,.987c.161.475,0,.637.324.881s-.406.487-.812.812a3.149,3.149,0,0,1-1.543.487,8.4,8.4,0,0,1-1.136.081c-.082,0-.245.406-.245.406l.122.447-.591.527-.545.455-.525.461-.384.6s-.025-.951-.188-1.113-.812-.812-1.136-.731-.893.162-1.055-.081-1.544-1.543-1.544-1.543l-.487-.975-.112-.764L24.41,31a1.544,1.544,0,0,1-.893,0c-.325-.162-.486-.568-.649-.65a1.638,1.638,0,0,1-.509-.716,1.5,1.5,0,0,0,.022-.258" fill="#ff9d00"/>
    <path id="Path_2526" data-name="Path 2526" d="M22.381,29.372s-.162-1.137.4-1.137,1.057.081,1.381-.162.569-.244.649-.65.163-.893.326-.893a2.521,2.521,0,0,0,1.379.081c.976-.162,1.382-.244,1.707-.325s.324-.731.4-.081-.487,1.381.082,1.624a3.838,3.838,0,0,0,1.3.244,6.975,6.975,0,0,0,.731.568c.568.406,1.217.812,1.623,1.137a2.091,2.091,0,0,0,1.3.568.955.955,0,0,0,.651-.162,1.772,1.772,0,0,0,0,.987c.161.475,0,.637.324.881s-.406.487-.812.812a3.149,3.149,0,0,1-1.543.487,8.4,8.4,0,0,1-1.136.081c-.082,0-.245.406-.245.406l.122.447-.591.527-.545.455-.525.461-.384.6s-.025-.951-.188-1.113-.812-.812-1.136-.731-.893.162-1.055-.081-1.544-1.543-1.544-1.543l-.487-.975-.112-.764L24.41,31a1.544,1.544,0,0,1-.893,0c-.325-.162-.486-.568-.649-.65a1.638,1.638,0,0,1-.509-.716A1.5,1.5,0,0,0,22.381,29.372Z" fill="none" stroke="#fff" stroke-miterlimit="10" stroke-width="0.28"/>
    <path id="Path_2527" data-name="Path 2527" d="M18.645,30.915a2.615,2.615,0,0,0,1.137-.65,1.174,1.174,0,0,1,.812-.568,4.951,4.951,0,0,0,.812-.244c.244-.081.65-.162.65-.162l.324.081.1.518.392.457.325.371.253.237.21.089.465.009.29-.057.107.52.183.63.359.718.467.444.7.693.371.406.25.142.171.019.569-.064.287.011a2.493,2.493,0,0,0,.4.243,1.827,1.827,0,0,1,.514.461l.117.343.07.77-.243.362-.2.265-.044.406,0,.519.015.46-.009.124-.14.139-.483.249-.815.3-1.324.461-.87.268-.533.156-.149.052s-.078,0-.089.125a.333.333,0,0,0,.032.191l.065.175s.06.1.016.171-.177.323-.177.323l-.115.171-.039.122-.136.1-.469.145L23,41.672l-.064.056s-1.369-3.667-1.531-3.748-1.7-3.086-1.7-3.086l-1.056-2.03a5.768,5.768,0,0,0-.568-1.3c-.163-.082.162-.488.568-.65" fill="#ff9d00"/>
    <path id="Path_2528" data-name="Path 2528" d="M18.645,30.915a2.615,2.615,0,0,0,1.137-.65,1.174,1.174,0,0,1,.812-.568,4.951,4.951,0,0,0,.812-.244c.244-.081.65-.162.65-.162l.324.081.1.518.392.457.325.371.253.237.21.089.465.009.29-.057.107.52.183.63.359.718.467.444.7.693.371.406.25.142.171.019.569-.064.287.011a2.493,2.493,0,0,0,.4.243,1.827,1.827,0,0,1,.514.461l.117.343.07.77-.243.362-.2.265-.044.406,0,.519.015.46-.009.124-.14.139-.483.249-.815.3-1.324.461-.87.268-.533.156-.149.052s-.078,0-.089.125a.333.333,0,0,0,.032.191l.065.175s.06.1.016.171-.177.323-.177.323l-.115.171-.039.122-.136.1-.469.145L23,41.672l-.064.056s-1.369-3.667-1.531-3.748-1.7-3.086-1.7-3.086l-1.056-2.03a5.768,5.768,0,0,0-.568-1.3C17.914,31.483,18.239,31.077,18.645,30.915Z" fill="none" stroke="#fff" stroke-miterlimit="10" stroke-width="0.28"/>
    <path id="Path_2529" data-name="Path 2529" d="M10.768,24.175a10.649,10.649,0,0,0,.406-1.218c0-.162.325-1.624.65-1.787s1.624-.73,1.624-.73,1.218-.325,1.38-.406a11.013,11.013,0,0,0,.893-.731l1.137.812a1.782,1.782,0,0,1,.731.812c.163.487.325,1.055.569,1.218a5.673,5.673,0,0,0,1.38.487c.163,0,.406.244.812.569a3.049,3.049,0,0,0,.975.568,7,7,0,0,0,1.38.244,7.291,7.291,0,0,0,.244,1.218,1.2,1.2,0,0,0,.649.893,2.881,2.881,0,0,0,1.056.406l.4.051-.185.574-.144.507-.253.218L24.265,28l-.231.147-.156.054-.225.035-.25.008-.3-.007-.274.007a.63.63,0,0,0-.217.034.788.788,0,0,0-.171.221l-.048.164-.03.271,0,.255-.006.222-.073-.067-.23-.057-.2.043-.431.113-.414.144-.219.062-.2.044-.161.04-.193.08a1.745,1.745,0,0,1-.213.158,1.414,1.414,0,0,0-.245.29l-.21.206-.266.164-.365.163-.256.1-.237.117-.247.2-.167.249-.526-.546-.893-.812-.929-.812-1.02-.812A15.662,15.662,0,0,0,13.61,27.1a13.564,13.564,0,0,1-.974-1.3l-.65-.974-.244-.082-.487.325-.406.163-.162-.65Z" fill="#ff9d00"/>
    <path id="Path_2530" data-name="Path 2530" d="M10.768,24.175a10.649,10.649,0,0,0,.406-1.218c0-.162.325-1.624.65-1.787s1.624-.73,1.624-.73,1.218-.325,1.38-.406a11.013,11.013,0,0,0,.893-.731l1.137.812a1.782,1.782,0,0,1,.731.812c.163.487.325,1.055.569,1.218a5.673,5.673,0,0,0,1.38.487c.163,0,.406.244.812.569a3.049,3.049,0,0,0,.975.568,7,7,0,0,0,1.38.244,7.291,7.291,0,0,0,.244,1.218,1.2,1.2,0,0,0,.649.893,2.881,2.881,0,0,0,1.056.406l.4.051-.185.574-.144.507-.253.218L24.265,28l-.231.147-.156.054-.225.035-.25.008-.3-.007-.274.007a.63.63,0,0,0-.217.034.788.788,0,0,0-.171.221l-.048.164-.03.271,0,.255-.006.222-.073-.067-.23-.057-.2.043-.431.113-.414.144-.219.062-.2.044-.161.04-.193.08a1.745,1.745,0,0,1-.213.158,1.414,1.414,0,0,0-.245.29l-.21.206-.266.164-.365.163-.256.1-.237.117-.247.2-.167.249-.526-.546-.893-.812-.929-.812-1.02-.812A15.662,15.662,0,0,0,13.61,27.1a13.564,13.564,0,0,1-.974-1.3l-.65-.974-.244-.082-.487.325-.406.163-.162-.65Z" fill="none" stroke="#fff" stroke-miterlimit="10" stroke-width="0.28"/>
    <path id="Path_2531" data-name="Path 2531" d="M7.845,10.207l-1.7.731s-.65.487-.569.732.325,1.055.65,1.948a24.26,24.26,0,0,0,1.624,2.935s.893,2.262.974,2.343.975,2.517.975,2.517l.568,2.112.325.956.2-.635.167-.472.115-.418.135-.649.221-.685.207-.379.322-.184.717-.324.621-.273.469-.136.608-.174.355-.118.334-.251.377-.32.182-.161-.487-1.056-.325-.568-.244-.324.65-.406s.325-.245.325-.326V16.3l-.082-.163h-.487l-.406.081h-.487a1.344,1.344,0,0,1-.406-.487A2.6,2.6,0,0,1,13.529,15c-.081-.324-.162-.567-.162-.567a6.409,6.409,0,0,1-1.056-.407,8.919,8.919,0,0,1-.812-.893,1.7,1.7,0,0,0-1.137-.568H8.738a.819.819,0,0,1-.406-.163c-.243-.162-.568-.324-.649-.73a3.034,3.034,0,0,1,0-.9,5.253,5.253,0,0,1,.162-.568" fill="#ff9d00"/>
    <path id="Path_2532" data-name="Path 2532" d="M7.845,10.207l-1.7.731s-.65.487-.569.732.325,1.055.65,1.948a24.26,24.26,0,0,0,1.624,2.935s.893,2.262.974,2.343.975,2.517.975,2.517l.568,2.112.325.956.2-.635.167-.472.115-.418.135-.649.221-.685.207-.379.322-.184.717-.324.621-.273.469-.136.608-.174.355-.118.334-.251.377-.32.182-.161-.487-1.056-.325-.568-.244-.324.65-.406s.325-.245.325-.326V16.3l-.082-.163h-.487l-.406.081h-.487a1.344,1.344,0,0,1-.406-.487A2.6,2.6,0,0,1,13.529,15c-.081-.324-.162-.567-.162-.567a6.409,6.409,0,0,1-1.056-.407,8.919,8.919,0,0,1-.812-.893,1.7,1.7,0,0,0-1.137-.568H8.738a.819.819,0,0,1-.406-.163c-.243-.162-.568-.324-.649-.73a3.034,3.034,0,0,1,0-.9A5.253,5.253,0,0,1,7.845,10.207Z" fill="none" stroke="#fff" stroke-miterlimit="10" stroke-width="0.28"/>
  </g>
</svg>
