<svg xmlns="http://www.w3.org/2000/svg" width="143.41" height="123.676" viewBox="0 0 143.41 123.676">
  <g id="Group_14466" data-name="Group 14466" transform="translate(0 0)">
    <g id="Group_14590" data-name="Group 14590">
      <path id="Path_1779" data-name="Path 1779" d="M230.688,105.168l2.3,2.523a1.381,1.381,0,0,1,.12,1.446l-3.527,8.943a1.133,1.133,0,0,1-1.848.153l-2.3-2.523a1.337,1.337,0,0,1-.12-1.446l3.526-8.942c.251-.714,1.328-.715,1.848-.153" transform="translate(-159.75 -74.33)" fill="#ff9d00"/>
      <path id="Path_1780" data-name="Path 1780" d="M230.337,104.524l0,0,2.3,2.523a1.588,1.588,0,0,1,.163,1.647l-3.531,8.954a1.176,1.176,0,0,1-.9.67,1.471,1.471,0,0,1-1.284-.451v0l-2.3-2.524a1.524,1.524,0,0,1-.157-1.664l3.525-8.938a1.033,1.033,0,0,1,.794-.658,1.537,1.537,0,0,1,1.394.44m-.3.279h0a1.127,1.127,0,0,0-1.01-.316.635.635,0,0,0-.493.4L225,113.836a1.2,1.2,0,0,0,.08,1.231l2.3,2.524h0a1.069,1.069,0,0,0,.919.324.757.757,0,0,0,.59-.427l3.521-8.93c.194-.6.172-.959-.079-1.231Z" transform="translate(-159.25 -73.827)" fill="#232426"/>
      <path id="Path_1781" data-name="Path 1781" d="M333.877,8.011A7.418,7.418,0,1,1,326.459.593a7.418,7.418,0,0,1,7.418,7.418" transform="translate(-226.358 -0.421)" fill="#ff9d00"/>
      <path id="Path_1782" data-name="Path 1782" d="M326.038,15.18a7.591,7.591,0,1,1,7.591-7.591,7.6,7.6,0,0,1-7.591,7.591m0-14.836a7.246,7.246,0,1,0,7.246,7.246A7.254,7.254,0,0,0,326.038.344" transform="translate(-225.937 0.001)" fill="#ff9d00"/>
      <path id="Path_1783" data-name="Path 1783" d="M167.554,19.277a.172.172,0,0,1-.205-.222l.419-1.271a.173.173,0,0,1,.328.108l-.419,1.271a.173.173,0,0,1-.123.113" transform="translate(-118.727 -12.534)" fill="#232426"/>
      <path id="Path_1784" data-name="Path 1784" d="M164.19,29.468a.172.172,0,0,1-.205-.222l.419-1.271a.173.173,0,1,1,.328.108l-.419,1.271a.173.173,0,0,1-.123.113" transform="translate(-116.34 -19.764)" fill="#232426"/>
      <path id="Path_1785" data-name="Path 1785" d="M160.582,23.3a.172.172,0,0,1-.1,0l-1.271-.419a.173.173,0,0,1,.108-.328l1.271.419a.173.173,0,0,1-.013.331" transform="translate(-112.879 -15.994)" fill="#232426"/>
      <path id="Path_1786" data-name="Path 1786" d="M170.773,26.668a.172.172,0,0,1-.1,0l-1.271-.419a.173.173,0,0,1,.108-.328l1.271.419a.173.173,0,0,1-.013.331" transform="translate(-120.109 -18.382)" fill="#232426"/>
      <path id="Path_1787" data-name="Path 1787" d="M415.842,47.255a.172.172,0,0,1-.205-.222l.419-1.271a.173.173,0,0,1,.328.108l-.42,1.271a.173.173,0,0,1-.123.113" transform="translate(-294.886 -32.384)" fill="#232426"/>
      <path id="Path_1788" data-name="Path 1788" d="M412.477,57.445a.172.172,0,0,1-.205-.222l.419-1.271a.173.173,0,1,1,.328.108l-.419,1.271a.173.173,0,0,1-.123.113" transform="translate(-292.499 -39.614)" fill="#232426"/>
      <path id="Path_1789" data-name="Path 1789" d="M408.87,51.281a.172.172,0,0,1-.1,0l-1.271-.419a.173.173,0,0,1,.108-.328l1.271.419a.173.173,0,0,1-.013.331" transform="translate(-289.038 -35.845)" fill="#232426"/>
      <path id="Path_1790" data-name="Path 1790" d="M419.06,54.646a.172.172,0,0,1-.1,0l-1.271-.42a.173.173,0,1,1,.108-.328l1.271.419a.173.173,0,0,1-.013.331" transform="translate(-296.268 -38.232)" fill="#232426"/>
      <path id="Path_1791" data-name="Path 1791" d="M103.193,54.373a2.108,2.108,0,1,1,1.539-2.553,2.11,2.11,0,0,1-1.539,2.553m-.932-3.757A1.763,1.763,0,1,0,104.4,51.9a1.765,1.765,0,0,0-2.135-1.287" transform="translate(-71.36 -35.63)" fill="#232426"/>
      <path id="Path_1792" data-name="Path 1792" d="M95.1,82.194a.173.173,0,0,1-.191-.253l.424-.741a.173.173,0,0,1,.3.172l-.425.741a.172.172,0,0,1-.108.082" transform="translate(-67.323 -57.549)" fill="#232426"/>
      <path id="Path_1793" data-name="Path 1793" d="M100.217,73.266a.173.173,0,0,1-.191-.253l.424-.741a.173.173,0,1,1,.3.172l-.425.741a.172.172,0,0,1-.108.082" transform="translate(-70.952 -51.215)" fill="#232426"/>
      <path id="Path_1794" data-name="Path 1794" d="M102.229,80.54a.172.172,0,0,1-.13-.019l-.724-.429a.172.172,0,1,1,.176-.3l.724.429a.172.172,0,0,1-.046.316" transform="translate(-71.866 -56.597)" fill="#232426"/>
      <path id="Path_1795" data-name="Path 1795" d="M93.508,75.371a.172.172,0,0,1-.13-.019l-.724-.429a.172.172,0,1,1,.176-.3l.724.429a.172.172,0,0,1-.046.316" transform="translate(-65.678 -52.93)" fill="#232426"/>
      <path id="Path_1796" data-name="Path 1796" d="M143.238,117.125a3.963,3.963,0,0,0-1.393-2.948L121.9,97.248a2.8,2.8,0,0,0-3.967,0l-12.321,12.325a3.417,3.417,0,0,1-4.838,0l-3.935-3.933A3.422,3.422,0,0,0,92,105.586L52.2,143.009c-3.89-2.07-11.8-4.68-21.871-7.573A162.1,162.1,0,0,0,.486,143.009c-.7,5.693-.8,10.579.76,15.522,9.14,28.989,78.166,48.842,115.872,18.067a71.867,71.867,0,0,0,22.593-33.59H139.5a12.558,12.558,0,0,0,.753-1.894c1.217-3.718,3.074-19.511,2.988-23.991" transform="translate(0 -68.414)" fill="#fff"/>
      <path id="Path_1797" data-name="Path 1797" d="M1.251,142.765a.173.173,0,0,1-.056-.336,162.942,162.942,0,0,1,29.869-7.581.171.171,0,0,1,.073,0c11.072,3.181,18.2,5.644,21.8,7.529l39.715-37.339a3.6,3.6,0,0,1,5.078.06l3.935,3.933a3.253,3.253,0,0,0,4.594,0l12.321-12.325a2.981,2.981,0,0,1,4.211,0l19.936,16.919a4.138,4.138,0,0,1,1.454,3.077.172.172,0,0,1-.169.176.176.176,0,0,1-.176-.169,3.793,3.793,0,0,0-1.333-2.82L122.551,96.962a2.639,2.639,0,0,0-3.733-.009L106.5,109.278a3.6,3.6,0,0,1-5.082,0l-3.935-3.933a3.253,3.253,0,0,0-4.594-.056L53.078,142.718a.173.173,0,0,1-.2.026c-3.529-1.878-10.661-4.348-21.8-7.549a162.672,162.672,0,0,0-29.769,7.56.174.174,0,0,1-.056.009" transform="translate(-0.765 -67.997)" fill="#232426"/>
      <path id="Path_1798" data-name="Path 1798" d="M20.732,112.291c2.337-2.44,4.614-10.085.863-15.232-2.862-3.926-2.55-5.059-3.068-8.476s-1.761-8.935-5.384-10.217S7.158,83.971,5.605,90.8s-5.623,9.772-2.472,17.144c2.2,5.152,10.237,12.029,17.6,4.342" transform="translate(-1.396 -55.491)" fill="#fff"/>
      <path id="Path_1799" data-name="Path 1799" d="M13.2,115.48a8.461,8.461,0,0,1-1.519-.139c-4.136-.752-7.718-4.466-9.12-7.745-2.192-5.128-.912-8.194.569-11.744a32.291,32.291,0,0,0,1.894-5.507c1.63-7.17,3.445-11.219,5.549-12.379a2.61,2.61,0,0,1,2.214-.183c2.754.974,4.6,4.457,5.5,10.354.084.552.147,1.055.2,1.5.3,2.35.459,3.644,2.834,6.9a11.993,11.993,0,0,1,1.884,8.756,12.874,12.874,0,0,1-2.761,6.7l-.125-.119.125.119A10.054,10.054,0,0,1,13.2,115.48M11.866,77.962a2.3,2.3,0,0,0-1.124.306c-2.013,1.11-3.773,5.085-5.379,12.154a32.555,32.555,0,0,1-1.912,5.563c-1.511,3.621-2.7,6.481-.57,11.475,1.366,3.195,4.849,6.811,8.865,7.541,3.017.55,5.859-.545,8.451-3.251,2.36-2.465,4.475-10.036.848-15.011-2.427-3.329-2.594-4.655-2.9-7.062-.058-.463-.119-.942-.2-1.489-.873-5.76-2.646-9.152-5.271-10.08a2.418,2.418,0,0,0-.809-.146" transform="translate(-0.985 -55.07)" fill="#232426"/>
      <path id="Path_1800" data-name="Path 1800" d="M40.128,159.222a.173.173,0,0,1-.173-.17l-.506-37.207a.173.173,0,0,1,.17-.175.177.177,0,0,1,.175.17l.506,37.207a.173.173,0,0,1-.17.175Z" transform="translate(-27.99 -86.324)" fill="#232426"/>
      <path id="Path_1801" data-name="Path 1801" d="M44.717,120.593a.18.18,0,0,1-.046-.006.173.173,0,0,1-.121-.212l1.327-4.812a.172.172,0,1,1,.333.091l-1.327,4.812a.172.172,0,0,1-.166.127" transform="translate(-31.604 -81.902)" fill="#232426"/>
      <path id="Path_1802" data-name="Path 1802" d="M27.152,163.813a.173.173,0,0,1-.137-.067l-3.143-4.07a.173.173,0,0,1,.273-.211l3.142,4.07a.172.172,0,0,1-.137.278" transform="translate(-16.912 -113.093)" fill="#232426"/>
      <path id="Path_1803" data-name="Path 1803" d="M43.79,152.455a.172.172,0,0,1-.131-.285l3.771-4.387a.173.173,0,0,1,.262.225L43.921,152.4a.173.173,0,0,1-.131.06" transform="translate(-30.946 -104.809)" fill="#232426"/>
      <path id="Path_1804" data-name="Path 1804" d="M270.22,196.829a.172.172,0,0,1-.073-.329c.684-.321,2.54-.907,4.505-1.527,2.07-.654,4.211-1.33,4.923-1.683,1.021-.505,2.066-1,3.077-1.481.924-.438,1.879-.89,2.811-1.349a50.857,50.857,0,0,0,10.964-6.871c.592-.512,1.229-1.045,1.9-1.61,4.6-3.849,10.9-9.122,11.2-15.168.294-5.943-5.081-10.078-9.773-11.813-3.434-1.27-6.864-2.688-10.195-4.214a15.767,15.767,0,0,1-4.124-2.46,8.751,8.751,0,0,1-1.494-1.715,4.444,4.444,0,0,1-.628-3.81c1.265-4.224,8.74-7.535,12.332-9.126l.394-.175c.438-.195,1.044-.447,1.745-.738,5-2.077,15.394-6.4,15.56-10.695.057-1.465-1.139-2.831-3.552-4.06-3.648-1.858-4.2-2.155-4.654-2.614a1.4,1.4,0,0,1-.5-1.4c.316-1.04,2.244-1.914,5.894-2.67,3.017-.625,4.672-1.546,4.919-2.736.372-1.8-2.552-3.854-3.653-4.628a.173.173,0,0,1-.015-.27l.378-.336a.172.172,0,0,1,.213-.012l.262.182c1.573,1.089,4.5,3.117,4.353,5.318-.076,1.134-.973,2.147-2.667,3.01a20.7,20.7,0,0,1-2.984,1.083c-1.53.475-3.265,1.013-3.278,1.54,0,.176.215.554,1.737,1.114,6.87,2.529,9.99,5.6,9.272,9.122-.015,7.552-9.512,10.837-17.143,13.476a54.067,54.067,0,0,0-6.277,2.434c-.96.491-1.97,1.131-2.192,2.158a2.518,2.518,0,0,0,.312,2.022c1.01,1.514,3.8,2.029,5.843,2.405.649.119,1.209.223,1.654.343a49.825,49.825,0,0,1,9.876,3.727c5.837,3,11.878,8.648,11.327,15.508a.173.173,0,1,1-.344-.028c.537-6.691-5.4-12.226-11.141-15.174a49.484,49.484,0,0,0-9.808-3.7c-.432-.117-.986-.219-1.627-.337-2.1-.387-4.977-.917-6.068-2.553a2.882,2.882,0,0,1-.363-2.286,4.02,4.02,0,0,1,2.372-2.393,54.26,54.26,0,0,1,6.321-2.452c7.534-2.606,16.911-5.848,16.911-13.168a.178.178,0,0,1,0-.035c.692-3.338-2.353-6.28-9.05-8.746-1.37-.5-1.976-.951-1.963-1.447.02-.774,1.643-1.278,3.521-1.861a20.524,20.524,0,0,0,2.93-1.06c1.578-.8,2.412-1.721,2.479-2.726.135-2.006-2.8-4.036-4.205-5.011l-.151-.1-.114.1c1.259.89,4.013,2.931,3.615,4.855-.277,1.338-2.022,2.348-5.187,3-4.318.894-5.447,1.816-5.634,2.432a1.073,1.073,0,0,0,.412,1.06c.415.422.96.713,4.564,2.549,2.544,1.3,3.8,2.77,3.74,4.381-.174,4.517-10.709,8.9-15.772,11-.7.291-1.3.542-1.738.735l-.395.175c-3.545,1.57-10.922,4.838-12.141,8.909a4.114,4.114,0,0,0,.588,3.525,8.4,8.4,0,0,0,1.436,1.645,15.475,15.475,0,0,0,4.036,2.4c3.323,1.523,6.745,2.937,10.171,4.2,4.8,1.775,10.3,6.023,10,12.154-.306,6.2-6.674,11.525-11.324,15.416-.673.564-1.31,1.1-1.9,1.606a51.174,51.174,0,0,1-11.037,6.919c-.935.46-1.891.913-2.816,1.351-1.01.479-2.054.973-3.072,1.478-.736.364-2.89,1.045-4.973,1.7-1.868.59-3.8,1.2-4.463,1.511a.174.174,0,0,1-.073.016" transform="translate(-191.598 -73.295)" fill="#232426"/>
      <path id="Path_1805" data-name="Path 1805" d="M169.7,355.565s-.421,2.989.547,4.252l.293.535-4.885-.575.271-.521a6.145,6.145,0,0,0,.707-2.945Z" transform="translate(-117.534 -252.272)" fill="#fff"/>
      <path id="Path_1806" data-name="Path 1806" d="M170.19,360.145h-.017l-4.885-.575a.144.144,0,0,1-.111-.21l.271-.521a6.029,6.029,0,0,0,.691-2.876.144.144,0,0,1,.11-.143l3.067-.746a.146.146,0,0,1,.131.033.144.144,0,0,1,.046.127c0,.029-.4,2.944.519,4.144a.129.129,0,0,1,.012.018l.293.535a.144.144,0,0,1-.127.214m-4.661-.838,4.4.518-.153-.28c-.845-1.116-.672-3.429-.594-4.142l-2.753.67a6.333,6.333,0,0,1-.724,2.9Z" transform="translate(-117.181 -251.921)" fill="#232426"/>
      <path id="Path_1807" data-name="Path 1807" d="M166.9,364.215l.487.571a9.164,9.164,0,0,0,3.571,2.56l1.06.424a.328.328,0,0,1,.2.234l.012.054c.132.6-.583,1.947-2.771,2.367a15.549,15.549,0,0,1-8.282-1.159.585.585,0,0,1-.364-.593c.082-.935.363-3.161,1.233-4.248a.259.259,0,0,1,.385-.027l1.062,1.044a1.206,1.206,0,0,0,1.71-.019L166.4,364.2a.343.343,0,0,1,.507.017" transform="translate(-114.097 -258.324)" fill="#fff"/>
      <path id="Path_1808" data-name="Path 1808" d="M172.234,375.72l-.012-.054a.329.329,0,0,0-.2-.234l-.39-.156a4.755,4.755,0,0,1-4.161,0l-.414-.192a.281.281,0,0,0-.385.343l.139.427a.327.327,0,0,1-.313.428,17.525,17.525,0,0,1-5.49-1.389c-.1.574-.162,1.095-.192,1.439a.586.586,0,0,0,.364.594,15.553,15.553,0,0,0,8.281,1.159c2.188-.419,2.9-1.767,2.772-2.367" transform="translate(-114.097 -265.986)" fill="#fff"/>
      <path id="Path_1809" data-name="Path 1809" d="M167.2,378.033a17.1,17.1,0,0,1-6.423-1.324.727.727,0,0,1-.453-.74c.03-.339.087-.867.194-1.452a.144.144,0,0,1,.2-.107,17.247,17.247,0,0,0,5.434,1.377.182.182,0,0,0,.175-.239l-.139-.427a.425.425,0,0,1,.583-.518l.414.192a4.608,4.608,0,0,0,4.03,0,.146.146,0,0,1,.123-.008l.39.156a.473.473,0,0,1,.286.337l.012.054a1.427,1.427,0,0,1-.277,1.036,3.81,3.81,0,0,1-2.608,1.5,10.649,10.649,0,0,1-1.94.157m-6.43-3.287c-.085.5-.133.95-.159,1.249a.44.44,0,0,0,.275.447,15.165,15.165,0,0,0,8.2,1.15,3.528,3.528,0,0,0,2.421-1.378,1.16,1.16,0,0,0,.237-.815h0l-.012-.054a.184.184,0,0,0-.112-.131l-.327-.131a4.92,4.92,0,0,1-4.23-.025l-.414-.192a.137.137,0,0,0-.188.166l.139.427a.471.471,0,0,1-.452.617,17.385,17.385,0,0,1-5.378-1.33" transform="translate(-113.744 -265.634)" fill="#232426"/>
      <path id="Path_1810" data-name="Path 1810" d="M167.2,370.371a17.1,17.1,0,0,1-6.423-1.324.727.727,0,0,1-.453-.74c.081-.927.368-3.205,1.264-4.326a.41.41,0,0,1,.3-.154.4.4,0,0,1,.3.114l1.062,1.044a1.074,1.074,0,0,0,.756.3,1.058,1.058,0,0,0,.749-.321l1.191-1.223a.5.5,0,0,1,.365-.147.488.488,0,0,1,.355.171l.487.57a9.057,9.057,0,0,0,3.514,2.52l1.061.424a.472.472,0,0,1,.286.337l.012.055a1.427,1.427,0,0,1-.277,1.036,3.81,3.81,0,0,1-2.608,1.5,10.654,10.654,0,0,1-1.94.157m-5.293-6.255H161.9a.122.122,0,0,0-.087.046c-.847,1.059-1.123,3.27-1.2,4.171a.44.44,0,0,0,.275.447,15.158,15.158,0,0,0,8.2,1.15,3.529,3.529,0,0,0,2.421-1.378,1.16,1.16,0,0,0,.237-.815l-.012-.054a.184.184,0,0,0-.111-.131l-1.061-.424a9.347,9.347,0,0,1-3.627-2.6l-.487-.571a.2.2,0,0,0-.145-.07.209.209,0,0,0-.149.06l-1.191,1.222a1.35,1.35,0,0,1-1.914.021l-1.062-1.044a.109.109,0,0,0-.078-.032" transform="translate(-113.745 -257.972)" fill="#232426"/>
      <path id="Path_1811" data-name="Path 1811" d="M87.471,332.625s-2.056,2.284-2.065,3.9l-.091.619-2.522-1.469-1.019-2.368.556-.171a6,6,0,0,0,2.405-1.636Z" transform="translate(-58.018 -235.2)" fill="#fff"/>
      <path id="Path_1812" data-name="Path 1812" d="M84.962,336.938a.144.144,0,0,1-.073-.02l-2.522-1.469a.145.145,0,0,1-.06-.068l-1.019-2.367a.144.144,0,0,1,.09-.195l.541-.166c.223-.125.447-.235.663-.342a3.888,3.888,0,0,0,1.679-1.242.144.144,0,0,1,.175-.053l2.736,1.122a.144.144,0,0,1,.052.23c-.02.022-2.02,2.262-2.028,3.808a.159.159,0,0,1,0,.02l-.092.619a.144.144,0,0,1-.08.109.147.147,0,0,1-.062.014m-2.408-1.714,2.3,1.338.059-.4c.015-1.427,1.5-3.289,1.969-3.835l-2.443-1a4.284,4.284,0,0,1-1.724,1.243c-.218.107-.443.218-.663.342a.162.162,0,0,1-.028.012l-.4.124Z" transform="translate(-57.666 -234.847)" fill="#232426"/>
      <path id="Path_1813" data-name="Path 1813" d="M77.974,337.333l-.126.753a9.321,9.321,0,0,0,.341,4.455l.364,1.1a.334.334,0,0,1-.053.308l-.034.045c-.381.5-1.9.819-3.656-.612a15.815,15.815,0,0,1-4.513-7.208.6.6,0,0,1,.225-.671c.781-.547,2.7-1.784,4.115-1.818a.264.264,0,0,1,.273.283l-.119,1.51a1.227,1.227,0,0,0,1.133,1.319l1.731.128a.349.349,0,0,1,.319.406" transform="translate(-49.855 -236.749)" fill="#fff"/>
      <path id="Path_1814" data-name="Path 1814" d="M74.81,345.819c1.758,1.43,3.275,1.107,3.656.611l.034-.044a.334.334,0,0,0,.053-.308l-.12-.364a5.653,5.653,0,0,1-2.736-3.28l-.121-.448a.286.286,0,0,0-.519-.076l-.242.388a.332.332,0,0,1-.538.036,11.679,11.679,0,0,1-2.229-4.253l-.226-.961c-.537.3-1,.613-1.3.821a.6.6,0,0,0-.225.671,15.818,15.818,0,0,0,4.513,7.208" transform="translate(-49.855 -239.184)" fill="#fff"/>
      <path id="Path_1815" data-name="Path 1815" d="M76.947,346.642a4.112,4.112,0,0,1-2.582-1.064,15.722,15.722,0,0,1-4.559-7.276.736.736,0,0,1,.279-.834c.3-.208.765-.52,1.311-.828a.144.144,0,0,1,.211.092l.227.961a11.459,11.459,0,0,0,2.2,4.194.188.188,0,0,0,.305-.02l.241-.388a.43.43,0,0,1,.78.115l.121.448a5.523,5.523,0,0,0,2.672,3.195.143.143,0,0,1,.062.078l.12.365a.478.478,0,0,1-.075.441l-.035.045a1.448,1.448,0,0,1-.987.46,2.5,2.5,0,0,1-.292.017m-2.4-1.288a3.589,3.589,0,0,0,2.659.985,1.181,1.181,0,0,0,.792-.35l.035-.044a.191.191,0,0,0,.03-.175l-.1-.314a5.774,5.774,0,0,1-2.755-3.338l-.121-.448a.14.14,0,0,0-.116-.1.138.138,0,0,0-.141.065l-.242.387a.477.477,0,0,1-.772.051,11.749,11.749,0,0,1-2.257-4.305l-.184-.779c-.464.271-.86.535-1.12.718a.449.449,0,0,0-.17.509,15.426,15.426,0,0,0,4.466,7.141" transform="translate(-49.501 -238.831)" fill="#232426"/>
      <path id="Path_1816" data-name="Path 1816" d="M76.948,344.208a4.11,4.11,0,0,1-2.582-1.064,15.723,15.723,0,0,1-4.559-7.276.736.736,0,0,1,.279-.834c.775-.543,2.737-1.809,4.194-1.844a.436.436,0,0,1,.311.129.405.405,0,0,1,.11.309l-.119,1.51a1.083,1.083,0,0,0,1,1.164l1.731.128a.494.494,0,0,1,.45.573l-.126.753a9.211,9.211,0,0,0,.336,4.385l.363,1.1a.478.478,0,0,1-.075.441l-.034.045a1.45,1.45,0,0,1-.987.46,2.557,2.557,0,0,1-.292.017M74.29,333.478h0c-1.379.033-3.282,1.264-4.036,1.792a.45.45,0,0,0-.17.509,15.42,15.42,0,0,0,4.466,7.141,3.591,3.591,0,0,0,2.658.985,1.183,1.183,0,0,0,.792-.35l.034-.045a.189.189,0,0,0,.03-.175l-.363-1.1a9.505,9.505,0,0,1-.346-4.524l.126-.753a.205.205,0,0,0-.187-.238l-1.731-.128a1.372,1.372,0,0,1-1.266-1.475l.119-1.51a.115.115,0,0,0-.031-.089.126.126,0,0,0-.091-.039" transform="translate(-49.502 -236.397)" fill="#232426"/>
      <path id="Path_1817" data-name="Path 1817" d="M121.475,209.7s-7.137,1.862-11.7-.823c0,0-.04.141-.1.4q-.4-.185-.794-.394a2.967,2.967,0,0,1-1.242-1.26s-2.585,3.942-2.618,10.7c-.037,7.644-10.336,14.818-14.18,24.943a4.438,4.438,0,0,0,2.491,3.245l.036.017s9.72-4.6,14.385-10.621a66.762,66.762,0,0,0,5.537-8.726,12.92,12.92,0,0,1,.019,5.607,43.135,43.135,0,0,0-.658,18.506,6.256,6.256,0,0,0,4.3.153s6.479-13.453,7.06-21.841-2.539-19.9-2.539-19.9" transform="translate(-64.453 -147.304)" fill="#fff"/>
      <path id="Path_1818" data-name="Path 1818" d="M114.657,251.544a6.057,6.057,0,0,1-2.419-.476.146.146,0,0,1-.08-.1,43.514,43.514,0,0,1,.66-18.57,12.572,12.572,0,0,0,.054-5.146,66.128,66.128,0,0,1-5.355,8.389c-4.634,5.982-14.34,10.617-14.438,10.663a.144.144,0,0,1-.123,0l-.036-.017a4.588,4.588,0,0,1-2.572-3.35.143.143,0,0,1,.007-.076c1.74-4.585,4.731-8.48,7.624-12.246,3.356-4.37,6.526-8.5,6.546-12.646a21.355,21.355,0,0,1,2.642-10.779.144.144,0,0,1,.249.013,2.81,2.81,0,0,0,1.182,1.2c.209.111.419.217.627.316.037-.146.059-.226.06-.231a.145.145,0,0,1,.085-.094.143.143,0,0,1,.127.01c4.457,2.625,11.517.826,11.587.808a.145.145,0,0,1,.176.1c.031.115,3.12,11.634,2.544,19.95s-7.01,21.759-7.074,21.894a.144.144,0,0,1-.085.075,6.377,6.377,0,0,1-1.989.317m-2.23-.709a6.21,6.21,0,0,0,4.071.137c.454-.954,6.466-13.74,7.02-21.733.539-7.781-2.154-18.4-2.5-19.719-1.013.237-7.295,1.57-11.5-.778-.015.058-.032.128-.051.211a.145.145,0,0,1-.2.1c-.265-.122-.534-.256-.8-.4a3.088,3.088,0,0,1-1.178-1.1,21.727,21.727,0,0,0-2.47,10.415c-.021,4.246-3.219,8.411-6.606,12.821-2.872,3.74-5.841,7.606-7.569,12.136a4.3,4.3,0,0,0,2.377,3.088c.831-.4,9.873-4.87,14.272-10.549a66.906,66.906,0,0,0,5.524-8.706.146.146,0,0,1,.148-.074.144.144,0,0,1,.12.114,13.178,13.178,0,0,1,.017,5.671,43.239,43.239,0,0,0-.672,18.367" transform="translate(-64.1 -146.952)" fill="#232426"/>
      <path id="Path_1819" data-name="Path 1819" d="M157.687,245.6a.144.144,0,0,1-.144-.13,18.568,18.568,0,0,0-2.439-7.212,13.133,13.133,0,0,1-1.609-5.806.144.144,0,0,1,.288-.017,12.848,12.848,0,0,0,1.571,5.679,18.87,18.87,0,0,1,2.477,7.328.145.145,0,0,1-.13.158h-.014" transform="translate(-108.904 -164.815)" fill="#232426"/>
      <path id="Path_1820" data-name="Path 1820" d="M187.157,232.237c-2.413,0-3.25-2.743-3.259-2.773a.144.144,0,1,1,.277-.082c.037.124.926,3.024,3.6,2.5a.144.144,0,1,1,.055.283,3.539,3.539,0,0,1-.676.068" transform="translate(-130.471 -162.673)" fill="#232426"/>
      <path id="Path_1821" data-name="Path 1821" d="M236.573,136.483c.173.06.723-.659.852-.786.507-.5,1.684-1.085,1.922-2.127.309-1.351-.279-2.8-.623-2.756s-.781,2.608-2.129,2.7c0,0-.3-.036-.27-1.3a.238.238,0,0,0-.343-.219,1.682,1.682,0,0,0-.718.869,3.788,3.788,0,0,0-.188,1.869c.031.3-.079,1.2.151,1.282Z" transform="translate(-166.76 -92.812)" fill="#fff"/>
      <path id="Path_1822" data-name="Path 1822" d="M236.246,136.28a.215.215,0,0,1-.07-.012l-1.346-.468c-.245-.085-.256-.472-.245-1.053,0-.141.005-.274,0-.351a3.887,3.887,0,0,1,.2-1.942,1.822,1.822,0,0,1,.784-.938.372.372,0,0,1,.372.016.379.379,0,0,1,.181.334c-.023.865.116,1.1.16,1.15.785-.092,1.249-1.185,1.558-1.913.208-.489.322-.758.518-.784a.379.379,0,0,1,.325.154,3.594,3.594,0,0,1,.458,2.777,3.4,3.4,0,0,1-1.46,1.787,5.628,5.628,0,0,0-.5.41c-.028.028-.077.085-.138.156-.389.452-.613.675-.793.675m.025-.284h0Zm-.534-4.233a.081.081,0,0,0-.038.01,1.543,1.543,0,0,0-.653.8,3.7,3.7,0,0,0-.176,1.8,3.808,3.808,0,0,1,0,.385,2.22,2.22,0,0,0,.063.781l1.312.453a3.287,3.287,0,0,0,.571-.571c.07-.082.121-.141.155-.174a5.824,5.824,0,0,1,.529-.434,3.189,3.189,0,0,0,1.354-1.622,3.568,3.568,0,0,0-.324-2.433.426.426,0,0,0-.133-.143,3.222,3.222,0,0,0-.3.606c-.342.806-.86,2.024-1.848,2.092h-.027c-.13-.015-.431-.187-.4-1.449a.1.1,0,0,0-.094-.1" transform="translate(-166.409 -92.46)" fill="#232426"/>
      <path id="Path_1823" data-name="Path 1823" d="M156.583,136.169l-2.711-1a15.726,15.726,0,0,1-3.482,4.561,11.044,11.044,0,0,1-2.412,1.473.733.733,0,0,1-.985-.4c-.423-1.076-.234-4.228-1.965-6.582-3.966-5.394-14.364-3.1-16.485-2.307-6.208,2.307-8.559,12.611-7.024,15.735,1.882,3.83,6.184.875,6.184.875a10.174,10.174,0,0,1-.954,4.214,3.443,3.443,0,0,0,1.334,4.466c6.974,3.843,16.668-.9,15.69-3.264a17.756,17.756,0,0,1-1.065-5.739,4.538,4.538,0,0,0,3.423,1.206,7.646,7.646,0,0,0,1.93-.41c6.852-2.274,8.521-12.834,8.521-12.834" transform="translate(-85.895 -92.771)" fill="#9ca777"/>
      <path id="Path_1824" data-name="Path 1824" d="M140.062,165.177h-.011a.144.144,0,0,1-.133-.155,8.044,8.044,0,0,0-.248-3.845,13.761,13.761,0,0,1-.787-7.671.144.144,0,0,1,.281.066,13.457,13.457,0,0,0,.771,7.492c.414.976.419,1.972.271,3.979a.144.144,0,0,1-.144.134" transform="translate(-98.376 -108.833)" fill="#fff"/>
      <path id="Path_1825" data-name="Path 1825" d="M187.707,178.47a.144.144,0,0,1-.1-.041,16.184,16.184,0,0,1-2.988-5.054.144.144,0,1,1,.267-.109,15.913,15.913,0,0,0,2.922,4.957.144.144,0,0,1-.1.247" transform="translate(-130.979 -122.868)" fill="#fff"/>
      <path id="Path_1826" data-name="Path 1826" d="M161.994,113.119l.436,3.92a1.256,1.256,0,0,0,.971,1.026l.676.148a.358.358,0,0,1,.151.626l-.3.249a5.562,5.562,0,0,1-6.726.269l-.827-.578a.358.358,0,0,1,.114-.64l.954-.253a1.255,1.255,0,0,0,.922-1.039l.555-5.231Z" transform="translate(-110.838 -79.191)" fill="#fff"/>
      <path id="Path_1827" data-name="Path 1827" d="M160.033,120.148a5.694,5.694,0,0,1-3.266-1.025l-.827-.578a.5.5,0,0,1,.159-.9l.954-.253a1.109,1.109,0,0,0,.816-.92l.554-5.226a.145.145,0,0,1,.207-.114l3.076,1.5a.144.144,0,0,1,.08.114l.436,3.92a1.1,1.1,0,0,0,.858.9l.676.148a.5.5,0,0,1,.212.878l-.3.249a5.706,5.706,0,0,1-3.634,1.3m-1.345-8.664-.532,5.026a1.4,1.4,0,0,1-1.029,1.164l-.954.252a.214.214,0,0,0-.068.382l.827.578a5.435,5.435,0,0,0,6.552-.262l.3-.249a.214.214,0,0,0-.09-.374l-.676-.148a1.392,1.392,0,0,1-1.082-1.144l-.428-3.848Z" transform="translate(-110.486 -78.839)" fill="#232426"/>
      <path id="Path_1828" data-name="Path 1828" d="M163.922,90.962c-1.069-.055.279,1.037-3.677-.092-1.575-.45-.772,1.384-1.181,1.268-1.51-.427-1.458-.414-2.194-.216-.487.132-.8,1.033-.706,1.7.125.887.857,1.111,1.513,2.982.46,1.314.352,2.115.88,2.3s.925-.528,1.523-.364c.775.213.628,1.555,1.384,2.107.476.348,1.583.5,3.351-.371a.669.669,0,0,0,.347-.778c-.111-.4-.253-.9-.428-1.361-.838-2.219-1.631-2.717-1.346-3.295.435-.886,2.106-.39,2.379-1.117.284-.755-.382-2.7-1.845-2.772" transform="translate(-110.786 -64.422)" fill="#232426"/>
      <path id="Path_1829" data-name="Path 1829" d="M170.149,99.674l.308.569a6.633,6.633,0,0,1,.378.832c.2.536.552,1.455.788,1.955.347.734,2.689-.18,2.689-.18l.139-.456.272-.113a.331.331,0,0,0,.136-.1.317.317,0,0,0,.012-.373,11.408,11.408,0,0,1-1.576-3.16,3.433,3.433,0,0,0-3.147,1.026" transform="translate(-120.72 -69.946)" fill="#fff"/>
      <path id="Path_1830" data-name="Path 1830" d="M171.976,103.1c-.385,0-.706-.1-.836-.37-.24-.508-.6-1.45-.793-1.966a6.471,6.471,0,0,0-.37-.814l-.308-.569a.144.144,0,0,1,.023-.168,3.546,3.546,0,0,1,3.286-1.066.145.145,0,0,1,.1.1,11.4,11.4,0,0,0,1.556,3.115.461.461,0,0,1-.017.542.473.473,0,0,1-.2.146l-.209.087-.119.39a.144.144,0,0,1-.086.092,6.653,6.653,0,0,1-2.036.478m-2-3.762.257.476a6.771,6.771,0,0,1,.386.849c.192.512.548,1.445.784,1.944.195.412,1.522.12,2.441-.229l.119-.388a.145.145,0,0,1,.083-.091l.272-.113a.188.188,0,0,0,.077-.054.174.174,0,0,0,.007-.2,11.644,11.644,0,0,1-1.573-3.118,3.328,3.328,0,0,0-2.853.928" transform="translate(-120.367 -69.587)" fill="#232426"/>
      <path id="Path_1831" data-name="Path 1831" d="M168.1,106.751s-.739-1.37-1.288-.9a.785.785,0,1,0,1.288.9" transform="translate(-118.228 -75.032)" fill="#fff"/>
    </g>
  </g>
</svg>
