<svg xmlns="http://www.w3.org/2000/svg" width="192.611" height="173.436" viewBox="0 0 192.611 173.436">
  <g id="Group_14469" data-name="Group 14469" transform="translate(0 0)">
    <g id="Group_14451" data-name="Group 14451" transform="translate(0 0)">
      <g id="Group_14588" data-name="Group 14588">
        <path id="Path_1186" data-name="Path 1186" d="M184.963,70.768c-1.611-.327-3.091-1.5-4.707-2.313a6.066,6.066,0,0,0-1.9-.591,8.643,8.643,0,0,0,.267-1.052c.076-.192.092-.468.154-.7a.1.1,0,0,0-.136-.114,2.455,2.455,0,0,1-.639.174c-1.24.214-2.535-.131-3.763.191a3.927,3.927,0,0,0-2.281,1.789,6.5,6.5,0,0,0-.707,1.62l-.033-.047-.1-.122c-1.772-2.04-4.127-2.985-5.645-2.329-1.037.448-1.964,1.189-3.138,1.247a.111.111,0,0,0-.029.212q1.28.712,2.572,1.4l.279.147a6.045,6.045,0,0,0-2.363,1.9c-1.079,1.45-.735,2.695-2.029,3.707,2.1-.019,2.173.359,3.975-.654-.039.305.536-.388.37-.129.07-.023.139-.05.207-.077a6.013,6.013,0,0,0-.577,3.521c.249,1.789.881,3.565.67,5.191,1.486-1.483,2.08-3.576,2.654-5.558a2.1,2.1,0,0,1,.383.831A4.316,4.316,0,0,0,168.912,77a.618.618,0,0,1,.42.583,2.9,2.9,0,0,0,1.315-2.147c.021.016.039.035.058.053-2.413,9.722-2.843,21.088-1.3,28.8l4.252-1.08c-2.315-5.9-2.727-18.451-.736-27.265a1.228,1.228,0,0,0,.861-.647,1.213,1.213,0,0,0,.1-.316c.113.141.225.283.338.43s.531.483.556.644a.865.865,0,0,1,.231-.724,2.612,2.612,0,0,0,1.41,1.771.556.556,0,0,1,.31-.566,3.886,3.886,0,0,0,.638,1.744,1.88,1.88,0,0,1,.25-.784,11.14,11.14,0,0,0,2.981,4.668c-.367-1.428,0-3.083.025-4.706a5.356,5.356,0,0,0-2.925-4.873c.051-.035.1-.068.151-.106a.618.618,0,0,1-.417-.584,4.34,4.34,0,0,0,2.058.211,2.1,2.1,0,0,1-.665-.63c2.066.1,4.242.216,6.13-.707" transform="translate(-103.82 -42.611)" fill="#fff"/>
        <path id="Path_1187" data-name="Path 1187" d="M168.986,104.1a.232.232,0,0,1-.227-.186c-1.493-7.449-1.141-17.872.867-27.052a3.023,3.023,0,0,1-.592.5.232.232,0,0,1-.349-.137,4.56,4.56,0,0,1-.454,1.475.232.232,0,0,1-.434-.057,1.9,1.9,0,0,0-.087-.288,11.476,11.476,0,0,1-2.56,5.13.232.232,0,0,1-.394-.194,10.482,10.482,0,0,0-.349-3.4c-.118-.565-.24-1.149-.321-1.732a6.22,6.22,0,0,1,.333-3.044.265.265,0,0,1-.16-.007,3.874,3.874,0,0,1-2.664.622c-.324-.017-.729-.038-1.252-.033h0a.232.232,0,0,1-.143-.414,3.285,3.285,0,0,0,1.091-1.8,6.081,6.081,0,0,1,.894-1.863,6.3,6.3,0,0,1,2.041-1.77c-.825-.44-1.651-.889-2.456-1.338a.358.358,0,0,1-.176-.391.329.329,0,0,1,.307-.255,5.058,5.058,0,0,0,2.121-.762c.3-.161.614-.328.935-.467,1.6-.692,3.958.227,5.779,2.24a6.907,6.907,0,0,1,.6-1.27,4.165,4.165,0,0,1,2.42-1.893,7.321,7.321,0,0,1,2.109-.138,8.219,8.219,0,0,0,1.673-.057,2.238,2.238,0,0,0,.578-.154.326.326,0,0,1,.35.044.333.333,0,0,1,.11.339c-.024.092-.041.19-.057.286a2.266,2.266,0,0,1-.106.445,2.077,2.077,0,0,0-.1.425,3.517,3.517,0,0,1-.069.359,6.281,6.281,0,0,1,1.685.567c.526.265,1.041.57,1.539.864a10.569,10.569,0,0,0,3.109,1.429.232.232,0,0,1,.055.436,11.535,11.535,0,0,1-5.692.756,1.89,1.89,0,0,0,.243.174.232.232,0,0,1-.087.429,4.551,4.551,0,0,1-1.543-.048.232.232,0,0,1,.1.15.229.229,0,0,1,0,.088,5.616,5.616,0,0,1,2.779,4.937c-.008.53-.053,1.065-.1,1.583a9.407,9.407,0,0,0,.063,3.062.232.232,0,0,1-.368.241,10.231,10.231,0,0,1-2.829-4.241,1.642,1.642,0,0,0-.029.194.232.232,0,0,1-.423.109,4.116,4.116,0,0,1-.551-1.2.232.232,0,0,1-.3.1,2.867,2.867,0,0,1-1.314-1.3v.01h0a.232.232,0,0,1-.458.071,2.908,2.908,0,0,0-.3-.315,2.5,2.5,0,0,1-.214-.224l-.077-.1a1.455,1.455,0,0,1-.847.682c-1.9,8.547-1.549,21.119.756,26.991a.232.232,0,0,1-.159.31l-4.253,1.08a.223.223,0,0,1-.057.007m1.238-29.318a.232.232,0,0,1,.144.05c.023.018.044.038.065.058a.255.255,0,0,1,.074.232c-2.345,9.445-2.866,20.58-1.341,28.46l3.762-.955c-2.3-6.166-2.608-18.5-.652-27.156a.232.232,0,0,1,.181-.176.961.961,0,0,0,.784-.781.232.232,0,0,1,.408-.1c.114.142.227.286.341.434.027.035.1.109.169.174l.052.051a1.076,1.076,0,0,1,.215-.324.232.232,0,0,1,.393.112,2.393,2.393,0,0,0,1.007,1.455.78.78,0,0,1,.39-.411.232.232,0,0,1,.327.186,3.649,3.649,0,0,0,.32,1.146,2.13,2.13,0,0,1,.136-.278.24.24,0,0,1,.215-.114.232.232,0,0,1,.2.14l.022.051a12.463,12.463,0,0,0,2.4,4.1,13.041,13.041,0,0,1,.047-2.545c.042-.51.086-1.037.094-1.552a5.139,5.139,0,0,0-2.8-4.662.232.232,0,0,1-.128-.191.241.241,0,0,1,.009-.08.846.846,0,0,1-.275-.632.232.232,0,0,1,.31-.213,4.1,4.1,0,0,0,1.373.24,2.377,2.377,0,0,1-.25-.312.232.232,0,0,1,.2-.361l.063,0a13.749,13.749,0,0,0,5.348-.43,13.968,13.968,0,0,1-2.591-1.3c-.492-.29-1-.59-1.512-.849a5.825,5.825,0,0,0-1.827-.569.232.232,0,0,1-.17-.345,1.555,1.555,0,0,0,.131-.5,2.416,2.416,0,0,1,.122-.524,1.92,1.92,0,0,0,.08-.352l.014-.08a3.831,3.831,0,0,1-.459.1,8.679,8.679,0,0,1-1.767.064,6.861,6.861,0,0,0-1.977.123,3.7,3.7,0,0,0-2.142,1.686,6.234,6.234,0,0,0-.68,1.559.232.232,0,0,1-.411.077l-.019-.027-.107-.127c-1.68-1.935-3.942-2.889-5.378-2.268-.3.131-.607.293-.9.45a6.422,6.422,0,0,1-1.924.772c.74.409,1.494.818,2.246,1.218l.278.147a.232.232,0,0,1-.012.417,5.828,5.828,0,0,0-2.272,1.829,5.617,5.617,0,0,0-.827,1.733,4.273,4.273,0,0,1-.808,1.608c.269.007.5.018.7.029A3.6,3.6,0,0,0,164.2,74.6a.234.234,0,0,1,.19-.017l.075-.067c.069-.063.187-.17.317-.126l.024-.009a.232.232,0,0,1,.293.32,5.762,5.762,0,0,0-.555,3.385c.079.567.2,1.144.316,1.7a13.891,13.891,0,0,1,.4,2.87,13.665,13.665,0,0,0,2.139-4.912l.017-.059a.232.232,0,0,1,.407-.076,2.292,2.292,0,0,1,.215.339,4.072,4.072,0,0,0,.218-1.374.232.232,0,0,1,.3-.225.844.844,0,0,1,.487.416,2.686,2.686,0,0,0,.946-1.78.233.233,0,0,1,.14-.192.235.235,0,0,1,.091-.018m8.1-9h0" transform="translate(-103.397 -42.188)" fill="#232426"/>
        <path id="Path_1188" data-name="Path 1188" d="M251.338,60.146c-1.311-.581-2.351-1.856-3.575-2.853a5.29,5.29,0,0,0-1.507-.86c.2-.222.255-.594.426-.847.1-.149.167-.382.265-.571a.086.086,0,0,0-.095-.123,2.161,2.161,0,0,1-.577.028c-1.1-.05-2.135-.587-3.242-.543a3.432,3.432,0,0,0-2.281,1.1,5.689,5.689,0,0,0-.907,1.248l-.019-.046c-.022-.042-.044-.083-.066-.123-1.125-2.071-2.953-3.318-4.371-3.043a8.108,8.108,0,0,1-2.908.474.1.1,0,0,0-.065.175q.956.847,1.928,1.675l.211.177a5.283,5.283,0,0,0-2.372,1.177c-1.193,1.033-1.134,2.158-2.427,2.778,1.794.378,1.784.713,3.51.188-.09.253.53-.23.34-.04.064-.007.128-.016.191-.027a5.251,5.251,0,0,0-1.155,2.891c-.124,1.571.079,3.2-.407,4.549a10.815,10.815,0,0,0,3.309-4.237,1.826,1.826,0,0,1,.17.78,3.769,3.769,0,0,0,.776-1.626.539.539,0,0,1,.248.575,2.466,2.466,0,0,0,.643-.357c-4.274,11.492-6.821,21.775-7.041,30.729l3.553-4.45c-.917-6.8,1.851-16.64,5.757-26.753a1.079,1.079,0,0,0,1.314-.28,1.091,1.091,0,0,0,.148-.25c.07.141.139.283.206.429s.361.511.352.653a.757.757,0,0,1,.333-.573,2.275,2.275,0,0,0,.868,1.774.484.484,0,0,1,.371-.424,3.382,3.382,0,0,0,.214,1.605,1.648,1.648,0,0,1,.361-.621,9.7,9.7,0,0,0,1.661,4.537,16.5,16.5,0,0,1,.909-4.005,4.668,4.668,0,0,0-1.574-4.7c.05-.021.1-.039.148-.062a.538.538,0,0,1-.245-.576,3.784,3.784,0,0,0,1.714.566,1.826,1.826,0,0,1-.447-.662,10.86,10.86,0,0,0,5.356.548" transform="translate(-148.374 -34.532)" fill="#fff"/>
        <path id="Path_1189" data-name="Path 1189" d="M229.916,93.2a.237.237,0,0,1-.079-.014.232.232,0,0,1-.153-.224c.205-8.381,2.44-18.263,6.83-30.2-.04.017-.081.033-.122.048a.231.231,0,0,1-.234-.045.235.235,0,0,1-.052-.068,4,4,0,0,1-.637,1.093.232.232,0,0,1-.411-.149,1.556,1.556,0,0,0-.008-.167,9.892,9.892,0,0,1-3.114,3.822.232.232,0,0,1-.343-.274,9.132,9.132,0,0,0,.341-2.949c.006-.5.012-1.026.053-1.539a5.461,5.461,0,0,1,.834-2.5.241.241,0,0,1-.086-.03,3.394,3.394,0,0,1-2.391.027c-.273-.075-.612-.168-1.059-.262a.232.232,0,0,1-.052-.436,2.852,2.852,0,0,0,1.256-1.318,5.339,5.339,0,0,1,1.119-1.427,5.528,5.528,0,0,1,2.031-1.116c-.6-.508-1.2-1.034-1.8-1.565a.342.342,0,0,1-.084-.4.317.317,0,0,1,.34-.177,4.406,4.406,0,0,0,1.939-.25c.288-.081.586-.165.887-.223,1.5-.292,3.329.922,4.509,2.964a6.078,6.078,0,0,1,.732-.933,3.666,3.666,0,0,1,2.439-1.167,6.417,6.417,0,0,1,1.832.279,7.167,7.167,0,0,0,1.43.264,1.923,1.923,0,0,0,.514-.023.314.314,0,0,1,.321.114.321.321,0,0,1,.033.341c-.037.073-.069.152-.1.23a2.016,2.016,0,0,1-.177.365,1.778,1.778,0,0,0-.158.338c-.035.09-.07.18-.113.268a5.508,5.508,0,0,1,1.306.791c.4.326.781.682,1.15,1.026a9.168,9.168,0,0,0,2.372,1.8.232.232,0,0,1-.039.437,9.933,9.933,0,0,1-4.919-.4,1.6,1.6,0,0,0,.114.12.232.232,0,0,1-.177.4,4.022,4.022,0,0,1-1.232-.3.232.232,0,0,1,0,.15,4.924,4.924,0,0,1,1.431,4.742c-.107.451-.246.9-.38,1.333a8.2,8.2,0,0,0-.522,2.61.232.232,0,0,1-.411.156,8.764,8.764,0,0,1-1.6-4.061c-.008.022-.016.044-.023.067a.232.232,0,0,1-.213.162.22.22,0,0,1-.224-.147,3.6,3.6,0,0,1-.243-1.072.229.229,0,0,1-.033.018.232.232,0,0,1-.236-.029,2.524,2.524,0,0,1-.856-1.269.235.235,0,0,1-.217.117.232.232,0,0,1-.217-.228,2.071,2.071,0,0,0-.188-.324,2.185,2.185,0,0,1-.142-.235l-.028-.06a1.3,1.3,0,0,1-1.3.361c-4.6,11.946-6.447,20.591-5.66,26.424a.233.233,0,0,1-.049.176l-3.552,4.45a.232.232,0,0,1-.181.087m7.04-31.193a.229.229,0,0,1,.138.046.232.232,0,0,1,.079.267c-4.4,11.825-6.692,21.636-7,29.958l3.056-3.828c-.769-5.945,1.124-14.7,5.783-26.77a.232.232,0,0,1,.319-.124.843.843,0,0,0,1.031-.22.832.832,0,0,0,.115-.2.232.232,0,0,1,.42-.009c.071.143.14.287.209.434a2.067,2.067,0,0,0,.109.177l.011.017a.964.964,0,0,1,.226-.21.233.233,0,0,1,.238-.011.231.231,0,0,1,.122.2,2.054,2.054,0,0,0,.551,1.382.709.709,0,0,1,.407-.26.232.232,0,0,1,.279.253,3.134,3.134,0,0,0,.042.961,1.859,1.859,0,0,1,.133-.16.232.232,0,0,1,.4.115l.008.046a11.1,11.1,0,0,0,1.224,3.859,11.879,11.879,0,0,1,.511-2.081c.132-.426.269-.867.372-1.3a4.45,4.45,0,0,0-1.494-4.467.233.233,0,0,1-.083-.214.236.236,0,0,1,.017-.06.767.767,0,0,1-.11-.6.232.232,0,0,1,.349-.141,3.537,3.537,0,0,0,1.049.442,2.022,2.022,0,0,1-.122-.257.232.232,0,0,1,.277-.309l.051.014a12.236,12.236,0,0,0,4.546.647,12.871,12.871,0,0,1-1.9-1.557c-.363-.339-.739-.69-1.127-1.005a5.052,5.052,0,0,0-1.441-.822.232.232,0,0,1-.092-.373,1.33,1.33,0,0,0,.2-.392,2.119,2.119,0,0,1,.206-.429,1.739,1.739,0,0,0,.132-.28l.009-.022a3.6,3.6,0,0,1-.366,0,7.618,7.618,0,0,1-1.523-.278,5.976,5.976,0,0,0-1.7-.265,3.2,3.2,0,0,0-2.123,1.026,5.455,5.455,0,0,0-.869,1.194.223.223,0,0,1-.214.124.232.232,0,0,1-.2-.14l-.01-.023c-.024-.049-.045-.089-.066-.128-1.061-1.953-2.8-3.183-4.123-2.927-.282.055-.571.136-.849.214a5.863,5.863,0,0,1-1.712.3c.542.477,1.086.948,1.622,1.4l.21.176a.232.232,0,0,1-.1.4,5.068,5.068,0,0,0-2.268,1.126,4.873,4.873,0,0,0-1.024,1.314,3.874,3.874,0,0,1-.949,1.191c.2.05.376.1.53.14a3.112,3.112,0,0,0,2.308-.075.234.234,0,0,1,.174.016l.062-.035a.334.334,0,0,1,.315-.053l.011,0a.232.232,0,0,1,.217.375,5,5,0,0,0-1.1,2.764c-.04.5-.046,1.011-.052,1.508a12.744,12.744,0,0,1-.185,2.444,12.158,12.158,0,0,0,2.677-3.724l.025-.046a.225.225,0,0,1,.211-.121.233.233,0,0,1,.2.134,2.069,2.069,0,0,1,.1.267,3.54,3.54,0,0,0,.406-1.062.232.232,0,0,1,.343-.154.764.764,0,0,1,.339.427,2.4,2.4,0,0,0,.3-.192.232.232,0,0,1,.14-.047m4.058.3h0Z" transform="translate(-147.951 -34.107)" fill="#232426"/>
        <path id="Path_1190" data-name="Path 1190" d="M474.089,81.938c1.425-.156,2.8-1.055,4.272-1.634a5.283,5.283,0,0,1,1.7-.362,7.5,7.5,0,0,1-.149-.936c-.051-.173-.044-.414-.079-.624a.086.086,0,0,1,.127-.089,2.148,2.148,0,0,0,.541.2c1.06.285,2.212.089,3.254.466a3.433,3.433,0,0,1,1.84,1.737,5.673,5.673,0,0,1,.486,1.464l.033-.038.1-.1c1.7-1.632,3.821-2.265,5.088-1.573a8.106,8.106,0,0,0,2.628,1.334.1.1,0,0,1,.008.186q-1.168.517-2.345,1.011l-.255.105a5.285,5.285,0,0,1,1.9,1.842c.823,1.346.426,2.4,1.469,3.383-1.825-.184-1.916.138-3.4-.885.009.268-.435-.38-.312-.142-.059-.026-.117-.054-.174-.083a5.248,5.248,0,0,1,.223,3.106c-.358,1.534-1.047,3.028-.992,4.458a10.81,10.81,0,0,1-1.867-5.042,1.831,1.831,0,0,0-.4.692,3.765,3.765,0,0,1-.246-1.785.539.539,0,0,0-.41.473,2.46,2.46,0,0,1-.5-.535c.585,12.247-.107,22.818-2.614,31.416l-2.035-5.318c2.936-6.2,3.285-16.417,2.632-27.239a1.059,1.059,0,0,1-1.232-.949c-.109.114-.218.228-.327.346s-.5.378-.534.516a.757.757,0,0,0-.143-.647,2.278,2.278,0,0,1-1.365,1.427.485.485,0,0,0-.225-.517,3.377,3.377,0,0,1-.691,1.464,1.638,1.638,0,0,0-.155-.7,9.707,9.707,0,0,1-2.959,3.819,16.5,16.5,0,0,0,.35-4.092,4.668,4.668,0,0,1,2.925-4c-.041-.034-.084-.067-.122-.1a.539.539,0,0,0,.408-.475,3.785,3.785,0,0,1-1.805.019,1.83,1.83,0,0,0,.627-.5,10.861,10.861,0,0,1-5.27-1.1" transform="translate(-306.161 -50.553)" fill="#fff"/>
        <path id="Path_1191" data-name="Path 1191" d="M483.371,119.646l-2.035-5.318a.231.231,0,0,1,.007-.182c2.52-5.319,3.378-14.118,2.624-26.9a1.3,1.3,0,0,1-1.126-.737l-.045.048a2.144,2.144,0,0,1-.207.181,2.1,2.1,0,0,0-.278.251.232.232,0,0,1-.276.152.235.235,0,0,1-.171-.178,2.522,2.522,0,0,1-1.2.949.231.231,0,0,1-.234-.044.24.24,0,0,1-.026-.027,3.6,3.6,0,0,1-.556.948.22.22,0,0,1-.257.072.232.232,0,0,1-.154-.219c0-.024,0-.047,0-.071a8.766,8.766,0,0,1-2.755,3.384.232.232,0,0,1-.344-.273,8.2,8.2,0,0,0,.295-2.646c0-.454.007-.923.042-1.385a4.926,4.926,0,0,1,2.8-4.085.236.236,0,0,1,.046-.143,4.021,4.021,0,0,1-1.264-.091.23.23,0,0,1-.177-.2.232.232,0,0,1,.13-.234,1.525,1.525,0,0,0,.146-.079,9.937,9.937,0,0,1-4.809-1.112.232.232,0,0,1,.1-.429,9.18,9.18,0,0,0,2.8-.99c.456-.216.928-.44,1.407-.629a5.518,5.518,0,0,1,1.485-.357c-.014-.1-.021-.193-.027-.289a1.779,1.779,0,0,0-.049-.37,2.013,2.013,0,0,1-.058-.4c-.007-.084-.013-.17-.026-.25a.319.319,0,0,1,.134-.315.312.312,0,0,1,.34-.011,1.946,1.946,0,0,0,.483.177,7.165,7.165,0,0,0,1.443.182,6.421,6.421,0,0,1,1.83.29,3.669,3.669,0,0,1,1.97,1.853,6.091,6.091,0,0,1,.414,1.11c1.743-1.587,3.856-2.189,5.2-1.456.269.147.527.317.777.481a4.412,4.412,0,0,0,1.772.827.316.316,0,0,1,.271.272.342.342,0,0,1-.2.357c-.733.324-1.468.641-2.189.945a5.536,5.536,0,0,1,1.6,1.679,5.331,5.331,0,0,1,.633,1.7,2.852,2.852,0,0,0,.8,1.636.232.232,0,0,1-.182.4c-.455-.046-.807-.06-1.089-.072A3.393,3.393,0,0,1,490.9,87.3a.251.251,0,0,1-.092,0,5.461,5.461,0,0,1,.036,2.637c-.117.5-.27,1-.417,1.483a9.134,9.134,0,0,0-.57,2.913.232.232,0,0,1-.41.157,9.9,9.9,0,0,1-1.808-4.586,1.472,1.472,0,0,0-.058.157.232.232,0,0,1-.437.017,4.007,4.007,0,0,1-.276-1.235.235.235,0,0,1-.071.049.232.232,0,0,1-.236-.028c-.034-.026-.068-.054-.1-.083.563,12.7-.306,22.8-2.653,30.845a.232.232,0,0,1-.44.018m3.021-31.632a2.364,2.364,0,0,0,.222.273.766.766,0,0,1,.453-.3.232.232,0,0,1,.281.251,3.523,3.523,0,0,0,.064,1.135,2.089,2.089,0,0,1,.179-.224.232.232,0,0,1,.234-.066.224.224,0,0,1,.165.179l.01.051a12.157,12.157,0,0,0,1.421,4.361,12.783,12.783,0,0,1,.566-2.384c.145-.475.3-.967.408-1.453a5.005,5.005,0,0,0-.214-2.969.232.232,0,0,1,.321-.291l.01,0c.128-.024.229.087.283.146l.049.052a.233.233,0,0,1,.171.038,3.11,3.11,0,0,0,2.176.772c.159.007.339.014.547.027a3.87,3.87,0,0,1-.543-1.422,4.875,4.875,0,0,0-.577-1.563,5.065,5.065,0,0,0-1.82-1.761.232.232,0,0,1,.026-.416l.254-.1c.649-.272,1.31-.556,1.972-.846a5.88,5.88,0,0,1-1.54-.807c-.242-.159-.492-.324-.744-.462-1.187-.647-3.213,0-4.817,1.538-.032.03-.064.062-.1.1l-.016.018a.232.232,0,0,1-.237.071.222.222,0,0,1-.166-.183,5.444,5.444,0,0,0-.466-1.4,3.2,3.2,0,0,0-1.712-1.622,5.973,5.973,0,0,0-1.7-.263,7.63,7.63,0,0,1-1.535-.2,3.656,3.656,0,0,1-.35-.108l0,.023a1.706,1.706,0,0,0,.041.307,2.132,2.132,0,0,1,.066.471,1.333,1.333,0,0,0,.072.434.232.232,0,0,1-.2.328,5.046,5.046,0,0,0-1.622.346c-.465.183-.929.4-1.379.616a12.832,12.832,0,0,1-2.28.909,12.24,12.24,0,0,0,4.528.763l.053,0a.232.232,0,0,1,.17.378,2.033,2.033,0,0,1-.194.208,3.534,3.534,0,0,0,1.134-.1.233.233,0,0,1,.29.241.768.768,0,0,1-.287.538.249.249,0,0,1,0,.063.231.231,0,0,1-.145.179,4.451,4.451,0,0,0-2.779,3.8c-.034.447-.037.909-.041,1.355a11.859,11.859,0,0,1-.144,2.138,11.1,11.1,0,0,0,2.337-3.306l.022-.041a.232.232,0,0,1,.414.011,1.787,1.787,0,0,1,.078.193,3.142,3.142,0,0,0,.332-.9.232.232,0,0,1,.343-.156.709.709,0,0,1,.308.371,2.053,2.053,0,0,0,.945-1.15.232.232,0,0,1,.4-.075.97.97,0,0,1,.152.268l.016-.013c.062-.051.133-.108.158-.135.111-.119.22-.235.331-.35a.232.232,0,0,1,.4.136.826.826,0,0,0,.967.744.232.232,0,0,1,.266.215c.779,12.911-.075,21.83-2.611,27.262l1.751,4.575c2.227-8.025,3.017-18.069,2.415-30.671a.232.232,0,0,1,.157-.231.229.229,0,0,1,.145,0,.233.233,0,0,1,.12.087m-4.076-1.037h0" transform="translate(-305.738 -50.128)" fill="#232426"/>
        <path id="Path_1192" data-name="Path 1192" d="M25.675,152.146c12.228-7.112,18.9-8.143,28.2-9.771,7.207.77,13.961-3.932,18.123-1.238a12.075,12.075,0,0,0,14.185-.811,12.974,12.974,0,0,1,5.8-3.1c.654-.353,2.252.663,4.131,2.217a24.485,24.485,0,0,0,23.276,4.375c4.839-1.6,9.359-2.872,10.514-2.427,9.116-2.7,32.061,3.545,51.142,7.288,5.263-3.518,5.9-.568,15.548,4.112h-1.082Z" transform="translate(-16.581 -88.572)" fill="#fff"/>
        <path id="Path_1193" data-name="Path 1193" d="M196.174,152.592h-1.082l-169.841-.641a.232.232,0,0,1-.116-.432c11.945-6.947,18.491-8.09,27.55-9.672l.724-.127a.234.234,0,0,1,.065,0c3.217.343,6.407-.432,9.22-1.116,3.563-.867,6.64-1.616,9-.086a11.808,11.808,0,0,0,13.913-.8c2.283-1.861,4.207-2.891,5.88-3.147.453-.215,1.414-.168,4.351,2.262a24.1,24.1,0,0,0,23.055,4.333c5.994-1.982,9.462-2.785,10.592-2.45,7.215-2.082,23.024,1.322,38.315,4.613,4.246.914,8.636,1.859,12.774,2.672,3.85-2.548,5.38-1.646,9.426.736,1.594.939,3.577,2.106,6.273,3.414a.232.232,0,0,1-.1.441m-170.062-1.1,168.98.638h.088c-2.265-1.137-3.993-2.154-5.412-2.99-4.107-2.418-5.346-3.148-9.013-.7a.232.232,0,0,1-.174.035c-4.17-.818-8.6-1.771-12.876-2.692-15.284-3.29-31.089-6.692-38.156-4.6a.234.234,0,0,1-.149-.006c-.634-.244-2.946-.021-10.358,2.431a24.56,24.56,0,0,1-23.5-4.416c-2.827-2.338-3.651-2.312-3.873-2.191a.227.227,0,0,1-.077.025c-1.6.235-3.459,1.233-5.692,3.054a12.271,12.271,0,0,1-14.458.826c-2.2-1.422-5.184-.695-8.642.147a27.53,27.53,0,0,1-9.347,1.13l-.692.121c-8.822,1.54-15.247,2.662-26.653,9.187" transform="translate(-16.157 -88.144)" fill="#232426"/>
        <path id="Path_1194" data-name="Path 1194" d="M1.622,179.434a91.852,91.852,0,0,0,5.871,50.4c17.9,42.687,64.986,64.846,107,58.168,37.522-5.964,73.6-35.219,77.3-70.6.366-3.5,3.788-21.173-3.866-38.178Z" transform="translate(-0.262 -115.743)" fill="#fff"/>
        <path id="Path_1195" data-name="Path 1195" d="M3.418,179.243a.232.232,0,0,1,0-.464l186.308-.207a.232.232,0,0,1,0,.464Z" transform="translate(-2.057 -115.32)" fill="#050605"/>
        <path id="Path_1196" data-name="Path 1196" d="M.232,232.364a.232.232,0,0,1,0-.464l191.688-.628h0a.232.232,0,0,1,0,.464L.233,232.364Z" transform="translate(0 -149.353)" fill="#232426"/>
        <path id="Path_1197" data-name="Path 1197" d="M11.645,2.49a1.444,1.444,0,0,1-.657-.157,2.788,2.788,0,0,1-.766-.65,1.762,1.762,0,0,0-.774-.594,1.625,1.625,0,0,0-1.105.336,3.163,3.163,0,0,1-.969.412A2.938,2.938,0,0,1,5.35,1.181c-.171-.106-.333-.206-.5-.3A3.569,3.569,0,0,0,2.034.656,2.6,2.6,0,0,0,.446,2.121a.232.232,0,1,1-.429-.177A3.077,3.077,0,0,1,1.879.219a3.99,3.99,0,0,1,3.2.259c.175.1.35.2.519.308a2.566,2.566,0,0,0,1.7.594,2.773,2.773,0,0,0,.823-.36A1.973,1.973,0,0,1,9.557.638a2.113,2.113,0,0,1,1.006.729,2.414,2.414,0,0,0,.632.55c.581.29,1.18-.059,1.874-.463a3.57,3.57,0,0,1,1.84-.676,3.271,3.271,0,0,1,1.47.507,3.876,3.876,0,0,0,1.012.429,1.8,1.8,0,0,0,1.676-.583.232.232,0,0,1,.347.308,2.273,2.273,0,0,1-2.117.729,4.283,4.283,0,0,1-1.138-.475A2.883,2.883,0,0,0,14.9,1.243H14.88a3.421,3.421,0,0,0-1.577.613,3.514,3.514,0,0,1-1.658.634" transform="matrix(0.996, -0.087, 0.087, 0.996, 60.568, 76.636)" fill="#232426"/>
        <path id="Path_1198" data-name="Path 1198" d="M11.213,2.063a1.678,1.678,0,0,1-.4-.047,2.917,2.917,0,0,1-.945-.49,2.764,2.764,0,0,0-.747-.41,2.657,2.657,0,0,0-1.774.38,3.105,3.105,0,0,1-2.066.415,3.184,3.184,0,0,1-1.119-.654c-.154-.12-.3-.234-.451-.334A2.875,2.875,0,0,0,.529.966a.18.18,0,0,0-.045.065.232.232,0,0,1-.119.412.317.317,0,0,1-.34-.2A.628.628,0,0,1,.264.585a3.344,3.344,0,0,1,3.7-.05c.168.11.328.236.483.357a2.8,2.8,0,0,0,.951.57,2.731,2.731,0,0,0,1.756-.389A3.032,3.032,0,0,1,9.252.67a3.151,3.151,0,0,1,.879.473,2.547,2.547,0,0,0,.793.422,2.472,2.472,0,0,0,1.392-.242,2.776,2.776,0,0,1,1.692-.247,2.788,2.788,0,0,1,.35.128,1.911,1.911,0,0,0,.359.123.36.36,0,0,0,.4-.147.232.232,0,1,1,.428.18.807.807,0,0,1-.917.423,2.274,2.274,0,0,1-.451-.151,2.443,2.443,0,0,0-.293-.108,2.418,2.418,0,0,0-1.412.234,3.743,3.743,0,0,1-1.263.3" transform="matrix(0.996, -0.087, 0.087, 0.996, 63.858, 72.692)" fill="#232426"/>
        <path id="Path_1199" data-name="Path 1199" d="M315.775,53.711a.232.232,0,0,1-.074-.452l1.5-.5a.232.232,0,1,1,.148.44l-1.5.5a.233.233,0,0,1-.074.012" transform="translate(-203.774 -34.062)" fill="#232426"/>
        <path id="Path_1200" data-name="Path 1200" d="M300.936,58.685a.232.232,0,0,1-.074-.452l1.5-.5a.232.232,0,1,1,.148.44l-1.5.5a.232.232,0,0,1-.074.012" transform="translate(-194.191 -37.274)" fill="#232426"/>
        <path id="Path_1201" data-name="Path 1201" d="M307.938,48.447a.232.232,0,0,1-.221-.162l-.474-1.487a.232.232,0,1,1,.442-.141l.474,1.487a.232.232,0,0,1-.221.3" transform="translate(-198.407 -30.027)" fill="#232426"/>
        <path id="Path_1202" data-name="Path 1202" d="M312.622,63.138a.232.232,0,0,1-.221-.162l-.474-1.487a.232.232,0,0,1,.442-.141l.474,1.487a.232.232,0,0,1-.221.3" transform="translate(-201.432 -39.514)" fill="#232426"/>
        <path id="Path_1203" data-name="Path 1203" d="M470.325,7.215a.232.232,0,0,1-.074-.452l1.5-.5a.232.232,0,0,1,.147.44l-1.5.5a.232.232,0,0,1-.074.012" transform="translate(-303.581 -4.034)" fill="#232426"/>
        <path id="Path_1204" data-name="Path 1204" d="M455.485,12.189a.232.232,0,0,1-.074-.452l1.5-.5a.232.232,0,1,1,.148.44l-1.5.5a.232.232,0,0,1-.074.012" transform="translate(-293.997 -7.247)" fill="#232426"/>
        <path id="Path_1205" data-name="Path 1205" d="M462.488,1.951a.232.232,0,0,1-.221-.162L461.792.3a.232.232,0,0,1,.442-.141l.474,1.487a.232.232,0,0,1-.221.3" transform="translate(-298.213 0)" fill="#232426"/>
        <path id="Path_1206" data-name="Path 1206" d="M467.172,16.642a.232.232,0,0,1-.221-.162l-.474-1.487a.232.232,0,0,1,.442-.141l.474,1.487a.232.232,0,0,1-.221.3" transform="translate(-301.238 -9.488)" fill="#232426"/>
        <path id="Path_1207" data-name="Path 1207" d="M376.7,31.738a9.741,9.741,0,0,1-9.741,9.741,9.874,9.874,0,0,1-6.888-2.853,9.552,9.552,0,0,1-2.853-6.888,9.741,9.741,0,0,1,19.483,0" transform="translate(-230.688 -14.205)" fill="#ff9d00"/>
        <path id="Path_1208" data-name="Path 1208" d="M366.537,41.288a9.974,9.974,0,1,1,9.973-9.973,9.985,9.985,0,0,1-9.973,9.973m0-19.483a9.509,9.509,0,1,0,9.509,9.51,9.52,9.52,0,0,0-9.509-9.51" transform="translate(-230.265 -13.782)" fill="#ff9d00"/>
        <path id="Path_1209" data-name="Path 1209" d="M160.734,288.321a.232.232,0,0,1-.067-.454c14.667-4.335,27.433-10.44,36.917-17.656,8.756-6.662,14.429-13.969,16.4-21.133,1.764-6.4.409-12.254-3.916-16.94-.062-.068-.177.084-.14,0s-.665-.25-.573-.251l1.175.105,19.188-.154a.23.23,0,0,1,.17.075c3.375,3.691,10.99,13.557,8.812,25.422-1.815,9.884-9.841,18.478-23.857,25.544a.232.232,0,0,1-.209-.414c13.879-7,21.822-15.48,23.609-25.214,2.126-11.582-5.269-21.254-8.63-24.951l-18.852-.087c4.159,4.742,5.429,10.6,3.67,16.986-2,7.262-7.732,14.655-16.57,21.378-9.529,7.249-22.346,13.381-37.066,17.731a.226.226,0,0,1-.064.01" transform="translate(-103.65 -149.661)" fill="#232426"/>
        <path id="Path_1210" data-name="Path 1210" d="M449.135,322.246s0,8.6,5.461,13.424a3.493,3.493,0,0,1,1,2.159c.219,1.5,1.255,4.013,2.953,7.5s1.9,16.752,1.9,16.752l4.111-.745s.478-5.057.715-11.022c.269-6.774-.636-15.073-4.162-17.8-1.887-1.461-1.619-10.983-1.619-10.983Z" transform="translate(-290.047 -207.639)" fill="#fff"/>
        <path id="Path_1211" data-name="Path 1211" d="M460.03,361.89a.229.229,0,0,1-.147-.053.233.233,0,0,1-.085-.175c0-.133-.223-13.257-1.877-16.654-1.846-3.792-2.763-6.126-2.974-7.569a3.227,3.227,0,0,0-.927-2.018c-5.476-4.832-5.54-13.51-5.54-13.6a.232.232,0,0,1,.216-.232l10.361-.718a.239.239,0,0,1,.176.064.233.233,0,0,1,.072.174c-.073,2.616.058,9.654,1.53,10.793,4.472,3.463,4.385,14.65,4.252,18-.234,5.9-.711,10.983-.716,11.034a.232.232,0,0,1-.189.207l-4.111.745a.229.229,0,0,1-.041,0M448.95,322.04c.049,1.357.537,8.762,5.377,13.034a3.665,3.665,0,0,1,1.079,2.3c.2,1.375,1.132,3.737,2.932,7.433,1.583,3.252,1.879,14.61,1.918,16.576l3.669-.665c.085-.942.489-5.559.7-10.834.27-6.78-.658-14.967-4.072-17.611-1.8-1.4-1.745-9.35-1.715-10.918Z" transform="translate(-289.624 -207.217)" fill="#232426"/>
        <path id="Path_1212" data-name="Path 1212" d="M470.058,360.175a.232.232,0,1,1,0-.464c2.409,0,2.475-1.617,2.477-1.686a.235.235,0,0,1,.237-.226.232.232,0,0,1,.226.237c0,.022-.084,2.139-2.941,2.139" transform="translate(-303.409 -231.063)" fill="#232426"/>
        <path id="Path_1213" data-name="Path 1213" d="M477.957,438.114a24.473,24.473,0,0,0,6.707,0,1.584,1.584,0,0,0,1.315-1.946c-.622-2.547-1.7-7.38-3.536-9.619l-.457,1.215-.632-1.143a.559.559,0,0,0-.418-.285l-1.384-.176a.559.559,0,0,0-.618.443l-.22,1.053-.843-1.381-.375,5.159a21.377,21.377,0,0,1-.5,3.282l-.377,1.627a1.58,1.58,0,0,0,1.335,1.776" transform="translate(-307.789 -275.203)" fill="#fff"/>
        <path id="Path_1214" data-name="Path 1214" d="M480.865,438.153a24.133,24.133,0,0,1-3.364-.232,1.817,1.817,0,0,1-1.532-2.036l.381-1.649a21.293,21.293,0,0,0,.491-3.247l.375-5.159a.232.232,0,0,1,.429-.1l.538.882.1-.48a.8.8,0,0,1,.874-.626l1.384.177a.8.8,0,0,1,.592.4l.389.7.281-.744a.232.232,0,0,1,.4-.066c1.749,2.128,2.813,6.531,3.449,9.161l.134.55a1.816,1.816,0,0,1-1.509,2.231,24.7,24.7,0,0,1-3.408.235m-3.3-.691a24.143,24.143,0,0,0,6.643,0,1.352,1.352,0,0,0,1.122-1.662l-.134-.551c-.595-2.461-1.57-6.5-3.108-8.651l-.31.824a.232.232,0,0,1-.2.149.229.229,0,0,1-.22-.119l-.632-1.143a.33.33,0,0,0-.245-.167l-1.384-.176a.329.329,0,0,0-.361.26l-.22,1.053a.232.232,0,0,1-.425.074l-.466-.764-.322,4.438a21.717,21.717,0,0,1-.5,3.318l-.377,1.627a1.349,1.349,0,0,0,1.142,1.494" transform="translate(-307.365 -274.781)" fill="#232426"/>
        <path id="Path_1215" data-name="Path 1215" d="M485.753,451.779c.081.336.157.651.227.936a1.584,1.584,0,0,1-1.316,1.946,24.457,24.457,0,0,1-6.707,0,1.581,1.581,0,0,1-1.335-1.776l.2-.867a14.655,14.655,0,0,0,8.93-.243" transform="translate(-307.789 -291.754)" fill="#fff"/>
        <path id="Path_1216" data-name="Path 1216" d="M480.866,454.7a24.161,24.161,0,0,1-3.365-.232,1.817,1.817,0,0,1-1.532-2.035l.205-.889a.231.231,0,0,1,.284-.172,14.37,14.37,0,0,0,8.785-.234.232.232,0,0,1,.312.161l.227.935a1.816,1.816,0,0,1-1.509,2.231,24.682,24.682,0,0,1-3.406.235m-4.294-2.821-.148.637a1.348,1.348,0,0,0,1.142,1.493,24.14,24.14,0,0,0,6.643,0,1.352,1.352,0,0,0,1.122-1.662l-.165-.679a14.837,14.837,0,0,1-8.594.214" transform="translate(-307.365 -291.331)" fill="#232426"/>
        <path id="Path_1217" data-name="Path 1217" d="M487.206,445.732H487.2l-3.3-.109a.232.232,0,0,1,.016-.464l3.3.11a.232.232,0,0,1-.007.463" transform="translate(-312.349 -287.479)" fill="#232426"/>
        <path id="Path_1218" data-name="Path 1218" d="M486.675,440.285h-.009l-3.068-.11a.232.232,0,1,1,.017-.463l3.068.11a.232.232,0,0,1-.008.464" transform="translate(-312.158 -283.96)" fill="#232426"/>
        <path id="Path_1219" data-name="Path 1219" d="M486.141,435.233h-.009l-2.833-.109a.232.232,0,0,1-.223-.241.235.235,0,0,1,.241-.223l2.833.11a.232.232,0,0,1-.009.463" transform="translate(-311.966 -280.698)" fill="#232426"/>
        <path id="Path_1220" data-name="Path 1220" d="M400.508,303.225s.526,13.027,1,15.45c1,5.1-1.73,3.278,2,14.934s1.821,16.3,1.821,16.3l6.374-1.821s-2.732-11.928-1.821-16.846a21.648,21.648,0,0,0-.644-10.342,10.808,10.808,0,0,1-.3-5.164c.758-4.2,2.265-11.4,3.862-12.51,2.277-1.578-12.293,0-12.293,0" transform="translate(-258.644 -195.366)" fill="#fff"/>
        <path id="Path_1221" data-name="Path 1221" d="M404.91,349.717a.232.232,0,0,1-.215-.321c.019-.045,1.827-4.732-1.827-16.14-2.4-7.5-2.139-9.5-1.907-11.263a9.726,9.726,0,0,0-.1-3.7c-.474-2.412-.984-14.952-1.006-15.485a.232.232,0,0,1,.207-.24c.03,0,3.081-.332,6.136-.537,6.345-.426,6.532.076,6.633.346.077.207-.03.413-.318.613-1.116.773-2.488,5.278-3.766,12.36a10.612,10.612,0,0,0,.3,5.053,21.773,21.773,0,0,1,.651,10.453c-.892,4.814,1.792,16.633,1.819,16.752a.232.232,0,0,1-.163.275l-6.374,1.821a.248.248,0,0,1-.064.009m-4.585-46.707c.071,1.712.555,12.991.989,15.2a10.124,10.124,0,0,1,.108,3.847c-.226,1.713-.483,3.656,1.889,11.06,3.134,9.783,2.33,14.632,1.953,16.028l5.747-1.642c-.375-1.682-2.628-12.122-1.775-16.725a21.3,21.3,0,0,0-.638-10.23,11.084,11.084,0,0,1-.311-5.275c.932-5.169,2.376-11.562,3.958-12.659a.821.821,0,0,0,.108-.087c-.746-.425-6.571-.1-12.028.485" transform="translate(-258.22 -194.944)" fill="#232426"/>
        <path id="Path_1222" data-name="Path 1222" d="M409.094,357.059a2.174,2.174,0,0,1-1.709-.8.232.232,0,0,1,.352-.3,2.084,2.084,0,0,0,2.653.283.232.232,0,0,1,.246.393,3.268,3.268,0,0,1-1.542.431" transform="translate(-263.049 -229.818)" fill="#232426"/>
        <path id="Path_1223" data-name="Path 1223" d="M402.814,421.487a10.971,10.971,0,0,0,1.162,4.5c1.085,1.832,1.664,3.069.262,4.1a17.2,17.2,0,0,1-4.185,1.669,8.3,8.3,0,0,0-3.043,1.686c-1.318,1.134-3.938,2.559-8.151,1.451-5.333-1.4.493-5.1,2.723-6.368a4.3,4.3,0,0,0,1.361-1.214l3.744-5.154s1.978,2.811,3.587,2.529c2.075-.364,2.54-3.2,2.54-3.2" transform="translate(-249.709 -272.192)" fill="#fff"/>
        <path id="Path_1224" data-name="Path 1224" d="M391.332,435.1a11.6,11.6,0,0,1-2.955-.4c-1.453-.382-2.243-.981-2.347-1.78-.229-1.757,3.043-3.9,5.014-5.014a4.054,4.054,0,0,0,1.288-1.149l3.744-5.153a.257.257,0,0,1,.189-.1.232.232,0,0,1,.188.1c.527.748,2.158,2.647,3.358,2.433,1.89-.332,2.346-2.985,2.351-3.012a.232.232,0,0,1,.461.031,10.809,10.809,0,0,0,1.13,4.391c1.1,1.856,1.758,3.259.2,4.406a17.381,17.381,0,0,1-4.257,1.7,8.028,8.028,0,0,0-2.957,1.64,8.15,8.15,0,0,1-5.407,1.9m4.935-12.972-3.559,4.9a4.509,4.509,0,0,1-1.434,1.279c-3.134,1.779-4.922,3.48-4.783,4.551.077.593.752,1.061,2.005,1.391,3.994,1.051,6.522-.182,7.941-1.4a8.484,8.484,0,0,1,3.128-1.733,15.964,15.964,0,0,0,4.114-1.633c1.209-.89.808-1.887-.324-3.8a9.6,9.6,0,0,1-1.081-3.41,3.344,3.344,0,0,1-2.381,2.222c-1.445.255-3.073-1.653-3.625-2.366" transform="translate(-249.287 -271.769)" fill="#232426"/>
        <path id="Path_1225" data-name="Path 1225" d="M404.242,439.476c1.231-.906.935-1.971.11-3.457a14.879,14.879,0,0,1-3.951,2.643,14.18,14.18,0,0,0-2.952,1.9,9.939,9.939,0,0,1-6.252,2.188c-2.7-.122-3.2-.844-3.934-1.548-1.112,1.241-.666,2.487,1.6,3.083,4.213,1.108,6.833-.317,8.151-1.451a8.3,8.3,0,0,1,3.042-1.686,17.2,17.2,0,0,0,4.185-1.669" transform="translate(-249.713 -281.576)" fill="#fff"/>
        <path id="Path_1226" data-name="Path 1226" d="M391.336,444.486a11.6,11.6,0,0,1-2.955-.4c-1.283-.338-2.077-.9-2.3-1.631a1.916,1.916,0,0,1,.583-1.831.232.232,0,0,1,.333-.013l.177.174c.626.618,1.218,1.2,3.606,1.31a9.724,9.724,0,0,0,6.093-2.134,14.41,14.41,0,0,1,3-1.928,14.485,14.485,0,0,0,3.892-2.6.231.231,0,0,1,.362.057c.723,1.3,1.306,2.666-.175,3.756a17.41,17.41,0,0,1-4.257,1.7,8.02,8.02,0,0,0-2.957,1.64,8.149,8.149,0,0,1-5.407,1.9m-4.477-3.369a1.379,1.379,0,0,0-.329,1.2c.167.558.867,1.025,1.97,1.315,3.993,1.051,6.522-.182,7.94-1.4a8.505,8.505,0,0,1,3.128-1.733,15.938,15.938,0,0,0,4.114-1.633c1.014-.746.883-1.579.186-2.9a15.345,15.345,0,0,1-3.789,2.481,13.943,13.943,0,0,0-2.9,1.866,10.215,10.215,0,0,1-6.411,2.241c-2.559-.116-3.246-.787-3.905-1.438" transform="translate(-249.29 -281.152)" fill="#232426"/>
        <path id="Path_1227" data-name="Path 1227" d="M406.774,442.126a.231.231,0,0,1-.12-.033l-1.652-1a.232.232,0,0,1,.239-.4l1.652,1a.232.232,0,0,1-.12.431" transform="translate(-261.473 -284.577)" fill="#232426"/>
        <path id="Path_1228" data-name="Path 1228" d="M410.224,438.186a.234.234,0,0,1-.12-.033l-1.652-1a.232.232,0,0,1,.24-.4l1.652,1a.232.232,0,0,1-.12.431" transform="translate(-263.702 -282.032)" fill="#232426"/>
        <path id="Path_1229" data-name="Path 1229" d="M412.978,433.313a.23.23,0,0,1-.12-.033l-1.652-1a.232.232,0,1,1,.24-.4l1.652,1a.232.232,0,0,1-.12.431" transform="translate(-265.48 -278.885)" fill="#232426"/>
        <path id="Path_1230" data-name="Path 1230" d="M427.158,266.034a36.934,36.934,0,0,0-2.453-12.163c-8.16.673-15.943.5-22.874-1.6,0,0-1.854,4.48-3.357,9.534s-.82,14.706-.82,14.706,13.158,3.525,13.659.156c.012-.082.683-8.578.683-8.578.547,3.278,1.284,10.145,1.284,10.145,11.665,2.633,14.7-1.267,14.7-1.267a71.865,71.865,0,0,1-.82-10.927" transform="translate(-256.701 -162.911)" fill="#9ca777"/>
        <path id="Path_1231" data-name="Path 1231" d="M474.32,288.343a.232.232,0,0,1-.23-.2,75.631,75.631,0,0,1-.7-10.128,26.309,26.309,0,0,0-.7-5.739.232.232,0,1,1,.452-.1,26.757,26.757,0,0,1,.712,5.841,75.172,75.172,0,0,0,.691,10.063.232.232,0,0,1-.2.262l-.033,0" transform="translate(-305.257 -175.651)" fill="#fff"/>
        <path id="Path_1232" data-name="Path 1232" d="M385.063,177.256c.379-.5.872-1.1,1.3-1.57a23.994,23.994,0,0,0,1.778-3.38s3.783-10.929,2.963-13.752a16.592,16.592,0,0,1-.34-4.725c.033-.864.093-1.685.155-2.357.1-1.084-.677-2.174-.8-3.255a9.111,9.111,0,0,1,.986-5.69c1.04-2.22,8.6-6.547,8.622-6.638,0,0-4.707,6.011-2.612,12.83a17.138,17.138,0,0,1,.705,4c.656,10.84-7.688,22.722-7.314,23.377a6.049,6.049,0,0,1,.451,4.937l-1.078-.562c-.468-.244-.529.748-1.012.961-.04.018-.581-.978-.63-.949-.646.382,1.6,1.929,1.561,2.679l.133,2.661s-6.939-5.809-4.866-8.572" transform="translate(-248.42 -87.756)" fill="#fff"/>
        <path id="Path_1233" data-name="Path 1233" d="M389.511,185.637a.23.23,0,0,1-.149-.054c-.29-.243-7.083-5.983-4.9-8.889.374-.5.877-1.106,1.313-1.587a22.185,22.185,0,0,0,1.735-3.312c.139-.4,3.734-10.919,2.956-13.6a16.247,16.247,0,0,1-.349-4.8c.029-.759.082-1.556.157-2.369a4.173,4.173,0,0,0-.392-1.768,6.3,6.3,0,0,1-.409-1.439,9.311,9.311,0,0,1,1.006-5.815c.881-1.881,6.083-5.1,8.04-6.309.3-.187.565-.349.628-.395a.232.232,0,0,1,.39.22.177.177,0,0,1-.049.1c-.206.271-4.562,6.113-2.566,12.61a17.4,17.4,0,0,1,.715,4.059c.495,8.175-4.059,16.881-6.248,21.065a16.072,16.072,0,0,0-1.077,2.247,6.224,6.224,0,0,1,.445,5.1.232.232,0,0,1-.322.118l-1.079-.562a.087.087,0,0,0-.032-.012,1.144,1.144,0,0,0-.205.315,1.481,1.481,0,0,1-.5.627l.043.048c.5.548.968,1.067.953,1.506l.133,2.65a.232.232,0,0,1-.129.219.229.229,0,0,1-.1.024m8.985-49.381c-1.958,1.214-6.817,4.274-7.6,5.948a8.91,8.91,0,0,0-.966,5.565,5.863,5.863,0,0,0,.383,1.331,4.563,4.563,0,0,1,.419,1.972c-.075.8-.127,1.593-.155,2.344a15.869,15.869,0,0,0,.33,4.652c.831,2.861-2.811,13.443-2.967,13.892a.18.18,0,0,1-.009.022,20.585,20.585,0,0,1-1.817,3.438c-.427.471-.919,1.066-1.285,1.553-1.638,2.182,2.988,6.611,4.422,7.9l-.106-2.114a.187.187,0,0,1,0-.025c.014-.248-.476-.788-.833-1.182-.556-.613-.893-1.006-.84-1.36a.447.447,0,0,1,.226-.323c.225-.132.317.022.664.6.041.068.089.148.133.218a2.16,2.16,0,0,0,.209-.341c.148-.276.4-.738.861-.495l.836.436a5.883,5.883,0,0,0-.518-4.49c-.145-.255.031-.635,1.089-2.657,2.169-4.147,6.682-12.775,6.2-20.822a16.933,16.933,0,0,0-.695-3.95c-1.624-5.286.8-10.138,2.023-12.11M388.352,180.8h0m-3.709-3.969h0Z" transform="translate(-248.001 -87.334)" fill="#232426"/>
        <path id="Path_1234" data-name="Path 1234" d="M411.834,123.918A13.081,13.081,0,0,1,413.1,123a10.75,10.75,0,0,1,.173-1.863l.537-6.873,6.982.539-.383,4.893a2.906,2.906,0,0,0,.035.695,33.218,33.218,0,0,0,3.953,2.553,25.358,25.358,0,0,0,5.366,1.877s2.523,18.2.2,30.037A10.26,10.26,0,0,0,430.3,160a25.209,25.209,0,0,1,.7,6.889c.028,3.961-24.31-1.314-24.31-1.314s2.348-8.557,2.331-15.161c-.016-6.376-2.111-10.774-2.331-13.112a16.722,16.722,0,0,1,5.15-13.386" transform="translate(-262.589 -73.79)" fill="#fff"/>
        <path id="Path_1235" data-name="Path 1235" d="M421.325,100.914l7.5.579.509-6.519a4.8,4.8,0,0,0-4.423-5.161l-3.19-.246a1.612,1.612,0,0,0-1.732,1.481l-.594,7.608a2.1,2.1,0,0,0,1.935,2.258" transform="translate(-270.833 -57.838)" fill="#fff"/>
        <path id="Path_1236" data-name="Path 1236" d="M428.4,101.3h-.018a.232.232,0,0,1-.213-.249l.509-6.519a4.571,4.571,0,0,0-4.209-4.911l-3.19-.247a1.383,1.383,0,0,0-1.483,1.268l-.594,7.608a1.87,1.87,0,0,0,1.722,2.009l2.711.209a5.983,5.983,0,0,0,2.495-.335.232.232,0,0,1,.157.437,6.431,6.431,0,0,1-2.687.361l-2.711-.209a2.334,2.334,0,0,1-2.149-2.508l.594-7.608a1.845,1.845,0,0,1,1.982-1.694l3.19.246a5.035,5.035,0,0,1,4.636,5.41l-.509,6.519a.232.232,0,0,1-.231.214" transform="translate(-270.41 -57.416)" fill="#232426"/>
        <path id="Path_1237" data-name="Path 1237" d="M428,91.65l1.325-2.017a5.17,5.17,0,0,0,.816-2.239c0-.013,0-.026,0-.038a8.958,8.958,0,0,0-.27-3.542c-1.071-3.64-3.948-4.49-6.472-3.841l-.02,0a2.95,2.95,0,0,1-2.609-.582l-.784-.645a1.1,1.1,0,0,0-1.685.352,3.5,3.5,0,0,0-.086,3.184l.656,1.027,6.14.376a1.069,1.069,0,0,1,1,.954l.28,2.645a.3.3,0,0,0,.271.266l.621.056,1.047-.389Z" transform="translate(-269.859 -50.693)" fill="#232426"/>
        <path id="Path_1238" data-name="Path 1238" d="M444.162,103.026l.439-.414a.883.883,0,0,1,1.419.987l-.238.558a2.552,2.552,0,0,1-.967,1.143l-.514.33Z" transform="translate(-286.835 -66.11)" fill="#fff"/>
        <path id="Path_1239" data-name="Path 1239" d="M423.67,128.219a.232.232,0,0,1-.13-.424l.192-.128a11.294,11.294,0,0,1,.176-1.777l.311-3.991a.235.235,0,0,1,.249-.213.232.232,0,0,1,.213.25l-.313,4.013a10.812,10.812,0,0,0-.173,1.844.233.233,0,0,1-.105.195c-.1.064-.2.129-.289.192a.228.228,0,0,1-.13.04" transform="translate(-273.452 -78.583)" fill="#232426"/>
        <path id="Path_1240" data-name="Path 1240" d="M421.9,172.681c-5.092,0-10.741-1.129-13.162-2.805a2.509,2.509,0,0,1-1.375-2.249c0-.008,0-.016,0-.024a89.407,89.407,0,0,0,1.893-15.422,30.481,30.481,0,0,0-1.214-8.71,15.7,15.7,0,0,1-.549-2.55.232.232,0,0,1,.209-.253.228.228,0,0,1,.253.209,15.508,15.508,0,0,0,.535,2.473,30.888,30.888,0,0,1,1.23,8.829,89.624,89.624,0,0,1-1.9,15.509c-.059.616.337,1.224,1.18,1.806,3.776,2.614,15.579,3.866,20.395,1.449a2.781,2.781,0,0,0,1.842-2.3,22.492,22.492,0,0,0-.685-6.809,10.522,10.522,0,0,1-.338-5.261c2.172-11.08.054-27.988-.184-29.8a25.387,25.387,0,0,1-5.265-1.861,33.33,33.33,0,0,1-3.983-2.572.232.232,0,0,1-.091-.15,3.139,3.139,0,0,1-.037-.75l.331-4.234a.235.235,0,0,1,.249-.213.232.232,0,0,1,.213.249l-.331,4.233a2.575,2.575,0,0,0,.019.547,32.489,32.489,0,0,0,3.845,2.477,25.328,25.328,0,0,0,5.309,1.857.231.231,0,0,1,.18.194c.025.182,2.5,18.375.2,30.113a10.054,10.054,0,0,0,.324,5.029,22.954,22.954,0,0,1,.707,6.968,3.2,3.2,0,0,1-2.1,2.695,18.362,18.362,0,0,1-7.7,1.323" transform="translate(-263.062 -75.554)" fill="#232426"/>
        <path id="Path_1241" data-name="Path 1241" d="M432.962,171.426a.232.232,0,0,1-.16-.064c-1.8-1.725-1.6-4.117-1.273-6.223a.232.232,0,0,1,.458.072c-.312,1.99-.508,4.244,1.135,5.816a.232.232,0,0,1-.16.4" transform="translate(-278.535 -106.519)" fill="#050605"/>
        <path id="Path_1242" data-name="Path 1242" d="M399.748,178.681l1.908-15.094-1.913-11.327-3.866-.309c.174-4.581,1.412-10.887,3.015-13.066a20.31,20.31,0,0,1,6.881-3.653c1.972,1.508,6.7,2.615,9.819-.677l2.325,1.316a5.839,5.839,0,0,0,1.285.532,32.535,32.535,0,0,1,3.973,1.6,2.11,2.11,0,0,1,1.244,2.374l-2.487,11.964c1.1,6.505,1.963,12.7,1.714,17.418a9.481,9.481,0,0,0,.334,2.98,30.412,30.412,0,0,1,1.2,9.137c-12.216,2.474-19.638,2.319-25.431-3.191" transform="translate(-255.652 -86.894)" fill="#fff"/>
        <path id="Path_1243" data-name="Path 1243" d="M412.453,183.224c-5.338,0-9.632-1.321-13.288-4.8a.231.231,0,0,1-.07-.2l1.9-15.06-1.878-11.115-3.686-.295a.232.232,0,0,1-.213-.24c.174-4.582,1.394-10.93,3.06-13.2a.249.249,0,0,1,.038-.04,20.609,20.609,0,0,1,6.964-3.7.231.231,0,0,1,.206.038c1.8,1.374,6.433,2.595,9.51-.652a.231.231,0,0,1,.282-.042l2.325,1.315a5.6,5.6,0,0,0,1.234.511,21.157,21.157,0,0,1,2.979,1.156c.343.154.681.306,1.021.449A2.347,2.347,0,0,1,424.223,140l-2.478,11.921c1.041,6.178,1.967,12.561,1.709,17.426a9.242,9.242,0,0,0,.326,2.907,30.975,30.975,0,0,1,1.208,9.2.232.232,0,0,1-.186.22,63.915,63.915,0,0,1-12.35,1.548m-12.883-5.053c5.931,5.57,13.661,5.362,24.96,3.088a30.684,30.684,0,0,0-1.2-8.885,9.7,9.7,0,0,1-.342-3.053c.256-4.831-.671-11.2-1.711-17.368a.231.231,0,0,1,0-.085l2.487-11.964a1.881,1.881,0,0,0-1.107-2.114c-.343-.145-.685-.3-1.031-.454a20.767,20.767,0,0,0-2.915-1.133,6.063,6.063,0,0,1-1.336-.554l-2.169-1.227c-3.225,3.242-7.954,2.055-9.906.642a20.125,20.125,0,0,0-6.665,3.557c-1.531,2.111-2.743,8.2-2.945,12.693l3.643.292a.232.232,0,0,1,.21.192l1.913,11.327a.229.229,0,0,1,0,.068Z" transform="translate(-255.23 -86.471)" fill="#232426"/>
        <path id="Path_1244" data-name="Path 1244" d="M406.061,156.944c.854-.4-.224.115-.661-.2-.543-.389-.5-1.366,1.4-1.918a3.855,3.855,0,0,1,4.279,1.7,5.881,5.881,0,0,0,1.467,1.437,5.2,5.2,0,0,0,.52.326c1.53.84,9.457,5.071,14.111,5.19a5.243,5.243,0,0,1-1.249-1.967c-.01-.024-.018-.05-.028-.075-.026-.071-.052-.143-.077-.217-1.686-5.037,1.9-10.278,1.775-15.518a1.122,1.122,0,0,1,1.5-1.088l.018.007a7.077,7.077,0,0,1,2.929,2.516c2.636,3.8,2.577,8.966,3.031,13.386.355,3.45,1.582,9.851-1.888,12.244-3.959,2.73-21.521-11.139-21.535-11.151a1.815,1.815,0,0,1-.18-.078c-.871-.437-1.844-.928-2.01-1.02-1.278-.714-4.847,1.806-5.3-.246a3.085,3.085,0,0,1,1.907-3.331" transform="translate(-260.957 -93.348)" fill="#fff"/>
        <path id="Path_1245" data-name="Path 1245" d="M431.412,191.369c-5.647,0-19.572-10.946-20.3-11.524-.057-.022-.113-.046-.168-.074-.825-.414-1.845-.928-2.019-1.025-.443-.247-1.333,0-2.193.239-1,.278-2.033.565-2.68.177a1.2,1.2,0,0,1-.543-.815,3.192,3.192,0,0,1,1.52-3.3.7.7,0,0,1-.182-.093.908.908,0,0,1-.384-.9c.06-.349.379-1,1.85-1.426,1.705-.5,3.213.083,4.481,1.721l.045.058a5.654,5.654,0,0,0,1.419,1.391,4.939,4.939,0,0,0,.5.311c1.471.808,8.794,4.716,13.444,5.129a6.207,6.207,0,0,1-.91-1.619l-.029-.078c-.027-.073-.054-.147-.08-.224a9.163,9.163,0,0,1-.407-3.684.232.232,0,1,1,.463.036,8.7,8.7,0,0,0,.384,3.5c.024.072.05.141.075.209l.026.072a5.038,5.038,0,0,0,1.185,1.876.232.232,0,0,1,.064.259.249.249,0,0,1-.222.148c-4.7-.12-12.668-4.368-14.216-5.219a5.394,5.394,0,0,1-.543-.34,6.1,6.1,0,0,1-1.515-1.483l-.047-.06a3.6,3.6,0,0,0-3.985-1.56c-.884.258-1.453.653-1.522,1.059a.448.448,0,0,0,.2.448c.166.119.577.038.711.012.086-.017.289-.057.355.143s-.059.261-.394.419l-.047.022a2.872,2.872,0,0,0-1.78,3.071.752.752,0,0,0,.329.518c.477.286,1.413.025,2.317-.226a3.757,3.757,0,0,1,2.544-.2c.13.073.841.434,2,1.016a1.652,1.652,0,0,0,.157.068.24.24,0,0,1,.063.035c4.845,3.835,18.108,13.312,21.259,11.141,2.974-2.051,2.346-7.311,1.93-10.791-.053-.442-.1-.858-.142-1.238q-.04-.4-.077-.8a.232.232,0,1,1,.462-.041q.036.4.076.792c.039.378.088.791.14,1.23.429,3.591,1.076,9.019-2.128,11.228a2.568,2.568,0,0,1-1.48.386" transform="translate(-260.536 -111.37)" fill="#232426"/>
        <path id="Path_1246" data-name="Path 1246" d="M466.538,144.068c-1.109,7.14-3.5,12.035-2.874,16.463a.481.481,0,0,0,.569.406c3.682-.72,7.31-1.39,9.531-.758a.245.245,0,0,0,.309-.237c.056-12.477-3.05-13.865-7.534-15.875" transform="translate(-299.364 -93.038)" fill="#fff"/>
        <path id="Path_1247" data-name="Path 1247" d="M463.718,160.756a.7.7,0,0,1-.411-.132.719.719,0,0,1-.293-.483c-.385-2.743.372-5.69,1.248-9.1a75.743,75.743,0,0,0,1.626-7.429.232.232,0,0,1,.324-.176l-.095.211.1-.209c4.483,2.01,7.723,3.462,7.666,16.085a.476.476,0,0,1-.192.382.466.466,0,0,1-.412.077c-2.086-.594-5.36-.033-9.423.762a.711.711,0,0,1-.139.014m2.582-16.775c-.433,2.68-1.045,5.062-1.588,7.173-.864,3.365-1.611,6.271-1.238,8.922a.25.25,0,0,0,.294.211c4.125-.807,7.454-1.375,9.639-.753.067-12.086-2.776-13.606-7.108-15.553" transform="translate(-298.943 -92.615)" fill="#050605"/>
        <path id="Path_1248" data-name="Path 1248" d="M46.265,90.2c.5.7.575,4.424-8.856,6.81-5.775,1.461-9.631,1.738-12.69,3.01a65.993,65.993,0,0,0-7.931,3.966c-6.146,3.5-14.728.59-15.216-.586-.241-.581,6.233-3.7,9.957-4.292,1.165-.186,5.45-1.982,11.927-3.876,4.154-1.214,7.925-2.19,11.487-3.019,4.286-1,11.173-2.223,11.323-2.013" transform="translate(-1.01 -58.235)" fill="#fff"/>
        <path id="Path_1249" data-name="Path 1249" d="M9.415,105.479a19.206,19.206,0,0,1-6.057-.981c-.643-.22-2.167-.8-2.424-1.42a.356.356,0,0,1,.032-.321c.5-.9,6.558-3.722,10.1-4.289a28.871,28.871,0,0,0,3.157-1.016c2.138-.751,5.066-1.779,8.742-2.854,3.914-1.144,7.676-2.133,11.5-3.022,1.99-.463,4.758-1.023,7.224-1.462,4.14-.736,4.234-.608,4.339-.46a2.047,2.047,0,0,1,.041,1.789c-.467,1.275-2.261,3.669-9.028,5.381-2.391.6-4.449,1.006-6.264,1.361a33.835,33.835,0,0,0-6.394,1.639l-.1.042a66.61,66.61,0,0,0-7.8,3.911,14.272,14.272,0,0,1-7.064,1.7M1.39,102.95a5.045,5.045,0,0,0,2.117,1.109c3.326,1.138,8.659,1.642,12.741-.685A67.157,67.157,0,0,1,24.1,99.438l.1-.042a34.2,34.2,0,0,1,6.483-1.666c1.81-.353,3.861-.753,6.239-1.355,6.561-1.659,8.271-3.9,8.707-5.091A1.782,1.782,0,0,0,45.694,90h-.021a111.034,111.034,0,0,0-11.1,2.033C30.756,92.916,27,93.9,23.1,95.044c-3.664,1.071-6.585,2.1-8.718,2.846a27.853,27.853,0,0,1-3.237,1.036C7.526,99.5,1.85,102.31,1.39,102.95M45.653,89.925h0" transform="translate(-0.587 -57.825)" fill="#232426"/>
        <path id="Path_1250" data-name="Path 1250" d="M28.693,134.33c.163.463,3.172,9.352-1.434,13.681-4.306,4.048-11.935.975-13.342.408-3.893-1.568-8.438-5.09-7.966-7.921.2-1.178,1.158-1.613,1.006-2.749-.239-1.781-2.8-2.151-4.413-3.53-3.494-2.991-3.31-11.394.074-16.72,3.574-5.627,9.139-5.33,9.91-10.158.443-2.777-1.439-3.934-.488-6.893.5-1.549,3.014-2.7,5.89-5.364,3.943-3.653,4.514-4.388,5.086-4.562a7.435,7.435,0,0,1,5.016-.032c.625.249.224.343.782,1.835.586,1.565,1.669,3.643,1.2,4.491-1.042,1.9-2.369,2.409-3.116,3.3-3.347,3.992,2.961,9.641,1.461,18.657-.745,4.474-2.844,6.363-1.876,10.592.531,2.319,1.325,2.464,2.207,4.965" transform="translate(0 -58.159)" fill="#232426"/>
        <path id="Path_1251" data-name="Path 1251" d="M121.445,411.785l-1.364,2.984a1.933,1.933,0,0,0,.474.816c1.449,1.655,5.372.335,6.309.021,3.448-1.16,3.884-2.591,6.986-3.687a14.326,14.326,0,0,1,5.289-.784,3.8,3.8,0,0,0-.874-1.206,5.285,5.285,0,0,0-3.667-1.214c-3.725-.01-13.152,3.071-13.152,3.071" transform="translate(-77.547 -263.943)" fill="#232426"/>
        <path id="Path_1252" data-name="Path 1252" d="M145.682,422.674s6.328,2.437,6.322-1.718c0-.135-5.2-16.944-5.2-16.944l-7.45,4.036Z" transform="translate(-89.993 -260.907)" fill="#fff"/>
        <path id="Path_1253" data-name="Path 1253" d="M148.791,423.194a11.583,11.583,0,0,1-3.615-.726.231.231,0,0,1-.129-.124l-6.328-14.626a.232.232,0,0,1,.1-.3l7.45-4.036a.232.232,0,0,1,.332.135c5.21,16.842,5.21,16.966,5.21,17.012a2.422,2.422,0,0,1-.978,2.143,3.606,3.606,0,0,1-2.044.517m-3.359-1.126c.568.2,3.67,1.238,5.14.226a1.951,1.951,0,0,0,.777-1.736c-.149-.577-3.345-10.935-5.106-16.63l-7.015,3.8Z" transform="translate(-89.571 -260.484)" fill="#232426"/>
        <path id="Path_1254" data-name="Path 1254" d="M154.053,454.2h15.68a.7.7,0,0,0,.695-.792l-.117-.894a3.478,3.478,0,0,0-1.613-1.85l-8.5-4.571a3.218,3.218,0,0,0-2.507,3.463s-1.848-1.776-3.55-.532a16.986,16.986,0,0,0-.609,4.663.525.525,0,0,0,.525.512" transform="translate(-99.145 -288.079)" fill="#fff"/>
        <path id="Path_1255" data-name="Path 1255" d="M169.31,454H153.63a.76.76,0,0,1-.757-.738,17.059,17.059,0,0,1,.619-4.735.233.233,0,0,1,.085-.12,2.9,2.9,0,0,1,3.443.231,3.5,3.5,0,0,1,2.7-3.2.229.229,0,0,1,.158.023l8.5,4.571a3.709,3.709,0,0,1,1.72,1.974.224.224,0,0,1,.012.051l.117.894A.932.932,0,0,1,169.31,454m-15.4-5.265a16.942,16.942,0,0,0-.578,4.516.294.294,0,0,0,.293.285h15.68a.469.469,0,0,0,.465-.53l-.114-.867a3.244,3.244,0,0,0-1.5-1.7l-8.425-4.528a2.943,2.943,0,0,0-2.245,3.2.232.232,0,0,1-.392.187c-.069-.066-1.684-1.582-3.189-.558" transform="translate(-98.722 -287.657)" fill="#232426"/>
        <path id="Path_1256" data-name="Path 1256" d="M174.554,454.5l-.036,0a13.748,13.748,0,0,1-6.661-2.9.232.232,0,1,1,.31-.345,13.546,13.546,0,0,0,6.423,2.788.232.232,0,0,1-.036.461" transform="translate(-108.35 -291.377)" fill="#232426"/>
        <path id="Path_1257" data-name="Path 1257" d="M170.446,465.913H154.674a.232.232,0,1,1,0-.464h15.772a.232.232,0,1,1,0,.464" transform="translate(-99.737 -300.582)" fill="#232426"/>
        <path id="Path_1258" data-name="Path 1258" d="M54.148,412.544c-1.385-.307-4.042-.9-4.629-2.714a3.934,3.934,0,0,1,.724-3.136c2.679-4.03,11.553-5.17,16.577-1.224,2.651,2.082,4.445,5.749,3.508,6.92-.57.712-1.771.031-4.709-.228-5.484-.483-6.886,1.4-11.471.382" transform="translate(-31.903 -260.27)" fill="#232426"/>
        <path id="Path_1259" data-name="Path 1259" d="M64.949,408.714c-.221.14,2.645,17.634,2.645,17.634l5.723.7-.252-16.854Z" transform="translate(-41.935 -263.943)" fill="#fff"/>
        <path id="Path_1260" data-name="Path 1260" d="M72.928,426.855l-.028,0-5.723-.7a.232.232,0,0,1-.2-.193c-.007-.044-.724-4.424-1.405-8.766-1.4-8.932-1.318-8.985-1.135-9.1a.227.227,0,0,1,.166-.032l8.115,1.479a.231.231,0,0,1,.19.225l.252,16.854a.231.231,0,0,1-.232.235m-5.522-1.14,5.286.645-.245-16.4-7.659-1.4c.127,1.62,1.586,10.844,2.618,17.148" transform="translate(-41.547 -263.519)" fill="#232426"/>
        <path id="Path_1261" data-name="Path 1261" d="M85.725,456.067H69.974s-.58-3.915.328-5.657l.491.551a.688.688,0,0,0,.975.053,12.331,12.331,0,0,1,2.676-1.916c1.844-.842,8.017,3.335,10.381,4.752a1.856,1.856,0,0,1,.9,1.594Z" transform="translate(-45.071 -289.951)" fill="#fff"/>
        <path id="Path_1262" data-name="Path 1262" d="M85.3,455.876H69.549a.232.232,0,0,1-.229-.2c-.024-.163-.581-4.01.351-5.8a.232.232,0,0,1,.379-.047l.491.551a.452.452,0,0,0,.314.152.457.457,0,0,0,.332-.118,12.647,12.647,0,0,1,2.735-1.955c1.563-.713,5.489,1.591,9.376,4.012.469.292.883.55,1.22.752a2.1,2.1,0,0,1,1.015,1.793v.623a.232.232,0,0,1-.232.232m-15.548-.464H85.068v-.391a1.634,1.634,0,0,0-.789-1.395c-.339-.2-.756-.463-1.227-.756-2.611-1.626-7.469-4.653-8.938-3.983a12.235,12.235,0,0,0-2.617,1.877.92.92,0,0,1-1.3-.071l-.251-.281a13.17,13.17,0,0,0-.191,5" transform="translate(-44.645 -289.529)" fill="#232426"/>
        <path id="Path_1263" data-name="Path 1263" d="M85.507,465.311H70.824a.232.232,0,0,1,0-.464H85.507a.232.232,0,1,1,0,.464" transform="translate(-45.588 -300.193)" fill="#232426"/>
        <path id="Path_1264" data-name="Path 1264" d="M85.333,455.8a.231.231,0,0,1-.1-.025l-4.541-2.3a.232.232,0,0,1,.209-.414l4.542,2.3a.232.232,0,0,1-.1.439" transform="translate(-52.025 -292.57)" fill="#232426"/>
        <path id="Path_1265" data-name="Path 1265" d="M94.078,290.231q-4.542-14.431-9.169-28.84-6.238-19.421-12.627-38.785c-6.615.777-21.387-4.251-19.845,2.331.765,3.263.694,3.984.612,5.2-.639,9.488-1.631,16.271-1.6,18.644.028,2.1.11,8.424-.032,17.065-.023,1.411-.062,2.916-.126,4.73-.323,9.131-.934,11.358-.983,18.8q-.01,1.568.011,3.042a27.168,27.168,0,0,1,11.29.078c3.225.73,3.59,1.471,6.493,1.864a17.06,17.06,0,0,0,2.695.154c-2.382-31.78-2.206-39.068-2.206-39.068.905,7.059,2.03,14.426,3.422,22.065q1.533,8.415,3.3,16.264c3.436-1.017,6.449-2.8,10.552-3.557a22.921,22.921,0,0,1,8.216.021" transform="translate(-32.486 -143.04)" fill="#9ca777"/>
        <path id="Path_1266" data-name="Path 1266" d="M69.983,294.313a17.3,17.3,0,0,1-2.336-.16,13.143,13.143,0,0,1-3.405-.906,20.312,20.312,0,0,0-3.108-.961,26.959,26.959,0,0,0-11.194-.077.232.232,0,0,1-.277-.225c-.013-1.057-.017-2.054-.011-3.047.027-4.031.218-6.532.439-9.428.185-2.431.4-5.186.544-9.374.062-1.748.1-3.249.126-4.726.143-8.733.059-15,.032-17.058-.016-1.146.2-3.286.505-6.249.339-3.322.761-7.455,1.095-12.413l.005-.08c.077-1.14.129-1.893-.611-5.05a2.681,2.681,0,0,1,.449-2.528c1.61-1.791,6.279-1.212,11.222-.6a40.366,40.366,0,0,0,8.372.513.23.23,0,0,1,.247.158c4.244,12.865,8.493,25.914,12.627,38.787,3.07,9.558,6.155,19.262,9.17,28.841a.232.232,0,0,1-.261.3,22.9,22.9,0,0,0-8.133-.021,33.464,33.464,0,0,0-6.589,2.11c-1.331.535-2.589,1.041-3.94,1.441a.232.232,0,0,1-.292-.172c-1.21-5.423-2.319-10.9-3.3-16.273-1.087-5.962-2.055-12.015-2.888-18.046.162,4.978.655,15.3,2.13,34.99a.231.231,0,0,1-.226.249q-.2,0-.4,0M55.46,291.2a26.128,26.128,0,0,1,5.776.637,20.774,20.774,0,0,1,3.171.981,12.746,12.746,0,0,0,3.3.88,16.631,16.631,0,0,0,2.414.156c-2.336-31.221-2.19-38.773-2.188-38.846a.232.232,0,0,1,.462-.024c.942,7.35,2.093,14.769,3.421,22.053.963,5.289,2.053,10.674,3.24,16.011,1.242-.382,2.419-.855,3.661-1.354a33.823,33.823,0,0,1,6.678-2.136,23.254,23.254,0,0,1,7.923-.043c-2.979-9.461-6.024-19.04-9.055-28.477-4.115-12.812-8.343-25.8-12.567-38.606a42.5,42.5,0,0,1-8.295-.533c-4.608-.571-9.373-1.163-10.82.448a2.224,2.224,0,0,0-.342,2.112c.756,3.224.7,4.005.623,5.187l-.005.08c-.334,4.965-.757,9.1-1.1,12.429-.3,2.948-.518,5.077-.5,6.2.028,2.061.111,8.332-.032,17.072-.024,1.48-.064,2.984-.127,4.735-.148,4.2-.359,6.957-.545,9.393-.221,2.887-.411,5.381-.438,9.4-.006.9,0,1.808.007,2.76a29.024,29.024,0,0,1,5.337-.505" transform="translate(-32.063 -142.61)" fill="#fff"/>
        <path id="Path_1267" data-name="Path 1267" d="M100.735,284.66a.232.232,0,0,1-.232-.226l-.423-15.587a.232.232,0,0,1,.1-.2l2.027-1.4a.232.232,0,0,1,.264.382l-1.924,1.327.419,15.461a.232.232,0,0,1-.225.238Z" transform="translate(-64.631 -172.562)" fill="#fff"/>
        <path id="Path_1268" data-name="Path 1268" d="M54.133,256.42a.232.232,0,0,1-.087-.447c5.516-2.24,4.709-14.625,4.7-14.75a.232.232,0,0,1,.463-.033c.037.524.838,12.846-4.988,15.213a.227.227,0,0,1-.087.017" transform="translate(-34.809 -155.618)" fill="#fff"/>
        <path id="Path_1269" data-name="Path 1269" d="M27.551,155.462a3.96,3.96,0,0,0-.051,2.964l1.891,2.453,2.555-1.891c-.7-1.74-2.32-2.8-4.395-3.526" transform="translate(-17.594 -100.396)" fill="#fff"/>
        <path id="Path_1270" data-name="Path 1270" d="M28.971,160.688a.231.231,0,0,1-.184-.09L26.9,158.145a.234.234,0,0,1-.039-.077,4.184,4.184,0,0,1,.069-3.137.232.232,0,0,1,.282-.11c2.4.84,3.882,2.037,4.533,3.658a.232.232,0,0,1-.077.273l-2.555,1.891a.23.23,0,0,1-.138.046m-1.68-2.791,1.725,2.238,2.225-1.647c-.618-1.382-1.894-2.392-3.99-3.159a3.954,3.954,0,0,0,.04,2.568" transform="translate(-17.174 -99.973)" fill="#050605"/>
        <path id="Path_1271" data-name="Path 1271" d="M46.306,92.627a8.67,8.67,0,0,1-.339-4.087c.689-3.04,7.527-4.595,10.631-3.324,1.317.539,2.09,2.626,2.717,4.032-1.947,1.274-7.143,2.336-13.009,3.379" transform="translate(-29.61 -54.744)" fill="#fff"/>
        <path id="Path_1272" data-name="Path 1272" d="M45.882,92.435a.232.232,0,0,1-.22-.16,8.9,8.9,0,0,1-.345-4.21,4.312,4.312,0,0,1,2.462-2.634c2.566-1.335,6.372-1.718,8.483-.854,1.26.516,2.02,2.265,2.63,3.671.072.166.142.328.211.481a.232.232,0,0,1-.085.288c-1.889,1.236-6.6,2.258-13.1,3.414a.227.227,0,0,1-.041,0m7.582-7.851a12.538,12.538,0,0,0-5.471,1.259,4.018,4.018,0,0,0-2.223,2.325,8.445,8.445,0,0,0,.273,3.772c5.348-.954,10.519-2,12.555-3.206l-.131-.3c-.577-1.329-1.295-2.982-2.38-3.426a7.136,7.136,0,0,0-2.623-.423" transform="translate(-29.186 -54.321)" fill="#232426"/>
        <path id="Path_1273" data-name="Path 1273" d="M46.227,97.217a9.1,9.1,0,0,0,.322,1.331c5.866-1.043,11.061-2.1,13.009-3.379-.167-.375-.345-.8-.541-1.228a83.633,83.633,0,0,1-12.79,3.276" transform="translate(-29.853 -60.666)" fill="#232426"/>
        <path id="Path_1274" data-name="Path 1274" d="M1.971,102.952c1.565-1.941,14.88-6.7,15.179-6.8l.01,0c5.915-1.29,12.259-2.6,13.756-3.64a.081.081,0,0,1,.033-.013l15.2-2.5a.085.085,0,0,1,.065.152c-1.876,1.418-4.06,2.776-15.468,4-4.567.25-8.328,1.86-12.246,3.2l-.006,0q-1.372.359-2.706.845c-5.239,1.719-11.9,3.638-13.7,4.874a.085.085,0,0,1-.114-.123" transform="translate(-1.26 -58.118)" fill="#fff"/>
        <path id="Path_1275" data-name="Path 1275" d="M1.615,102.9a.318.318,0,0,1-.247-.516c1.564-1.94,13.882-6.376,15.281-6.875a.287.287,0,0,1,.045-.012l1.442-.314c5.353-1.163,10.888-2.364,12.225-3.289a.3.3,0,0,1,.13-.052l15.2-2.5a.317.317,0,0,1,.243.565c-2.073,1.567-4.537,2.86-15.583,4.047A35.861,35.861,0,0,0,20.06,96.478c-.635.226-1.269.453-1.908.672l-.031.008c-.9.235-1.8.517-2.677.836-1.194.392-2.473.8-3.711,1.191-4.214,1.338-8.571,2.72-9.94,3.658a.316.316,0,0,1-.179.056m.114-.225h0Zm-.181-.146h0ZM30.6,92.294c-1.459.974-6.756,2.124-12.361,3.341l-1.449.315A116.275,116.275,0,0,0,3.244,101.6c2-.838,5.108-1.825,8.349-2.854,1.237-.392,2.515-.8,3.7-1.187.883-.322,1.8-.608,2.719-.849.627-.215,1.259-.441,1.892-.667a36.206,36.206,0,0,1,10.406-2.547c10.673-1.147,13.229-2.427,14.855-3.594Zm-.03,0h0m.06-.025h0" transform="translate(-0.838 -57.695)" fill="#232426"/>
        <path id="Path_1276" data-name="Path 1276" d="M36.313,164.6c-2.5-2.813-4.762-5.6-7.258-8.412-.843.92-4.8,12.689-3.3,23.406,1.148,8.2,10.824,15.133,13.215,17.8.589-.662,1.214-3.7,1.624-4.523-.7-1.258-2.7-2.625-3.983-4.915-2.448-4.385-2.933-5.22-3.14-5.614-1.416-2.7-1.814-7.687,2.844-17.74" transform="translate(-16.415 -100.862)" fill="#fff"/>
        <path id="Path_1277" data-name="Path 1277" d="M38.543,197.2a.232.232,0,0,1-.172-.077c-.487-.543-1.312-1.294-2.267-2.162-3.772-3.432-10.084-9.176-11-15.758-1.518-10.842,2.485-22.642,3.359-23.595a.231.231,0,0,1,.171-.075h0a.233.233,0,0,1,.172.078c1.25,1.409,2.462,2.834,3.634,4.212s2.379,2.8,3.624,4.2a.232.232,0,0,1,.037.251c-3.749,8.092-4.708,13.992-2.849,17.535.1.187.268.49.68,1.222.449.8,1.19,2.117,2.457,4.387a15.206,15.206,0,0,0,2.5,3.134,9.625,9.625,0,0,1,1.486,1.781.233.233,0,0,1,0,.216,13.737,13.737,0,0,0-.557,1.694,9.989,9.989,0,0,1-1.1,2.88.235.235,0,0,1-.173.078Zm-9.889-41.057c-1.015,1.848-4.5,12.95-3.1,23,.9,6.416,7.132,12.089,10.857,15.479.88.8,1.6,1.453,2.1,1.979a15.709,15.709,0,0,0,.857-2.484,16.918,16.918,0,0,1,.533-1.656,10.436,10.436,0,0,0-1.356-1.585,15.58,15.58,0,0,1-2.569-3.229c-1.266-2.269-2.007-3.587-2.456-4.385-.426-.757-.585-1.04-.686-1.233-1.919-3.657-.985-9.648,2.775-17.807-1.214-1.371-2.391-2.755-3.53-4.094-1.108-1.3-2.252-2.648-3.429-3.98" transform="translate(-15.989 -100.439)" fill="#232426"/>
        <path id="Path_1278" data-name="Path 1278" d="M120.743,123.65l-1.722-1.383.186-1.775a.648.648,0,0,0-1.265-.254l-1.3,4.327-.332.111a1.2,1.2,0,0,0-.735,1.581l.408,1.022a2.183,2.183,0,0,0,1,1.116,15.251,15.251,0,0,1-1.83,4.059c-.966,1.5-2.89,6.2-5.385,6.274-2.573.078-5.082-6.762-8.355-9.658a12.45,12.45,0,0,0-1.662,8.613c.809,5.311,7.014,8.476,11.3,7.763,5.27-.877,10.042-8.032,8.477-17.015a2.185,2.185,0,0,0,1.17-1.294l.574-1.705a1.622,1.622,0,0,0-.522-1.782" transform="translate(-64.319 -77.351)" fill="#fff"/>
        <path id="Path_1279" data-name="Path 1279" d="M109.356,145.357a11.374,11.374,0,0,1-6.471-2.2,9,9,0,0,1-3.79-5.856c-.713-4.686,1.258-8.38,1.734-8.818a.233.233,0,0,1,.311,0,24.862,24.862,0,0,1,3.839,5.006c1.528,2.362,2.972,4.594,4.318,4.594h.036c1.862-.056,3.448-2.989,4.5-4.93.27-.5.5-.93.7-1.238a14.988,14.988,0,0,0,1.752-3.825,2.421,2.421,0,0,1-.938-1.138l-.408-1.021a1.43,1.43,0,0,1,.877-1.888l.218-.072,1.265-4.212a.88.88,0,0,1,1.718.345l-.173,1.648,1.624,1.3a1.861,1.861,0,0,1,.6,2.036l-.574,1.705a2.425,2.425,0,0,1-1.133,1.351,17.457,17.457,0,0,1-2.584,12.9,9.677,9.677,0,0,1-6.112,4.217,7.924,7.924,0,0,1-1.3.1m-8.347-16.374a12.817,12.817,0,0,0-1.456,8.244,8.546,8.546,0,0,0,3.6,5.55,10.374,10.374,0,0,0,7.425,2.019,9.226,9.226,0,0,0,5.81-4.027,17.034,17.034,0,0,0,2.476-12.719A.232.232,0,0,1,119,127.8a1.959,1.959,0,0,0,1.046-1.157l.574-1.705a1.4,1.4,0,0,0-.447-1.527l-1.722-1.383a.231.231,0,0,1-.085-.205l.186-1.775a.416.416,0,0,0-.812-.163l-1.3,4.327a.232.232,0,0,1-.149.153l-.332.111a.967.967,0,0,0-.593,1.276l.408,1.021a1.959,1.959,0,0,0,.89,1,.232.232,0,0,1,.113.268,15.476,15.476,0,0,1-1.858,4.121c-.188.293-.418.717-.683,1.208-1.1,2.035-2.761,5.109-4.891,5.174-1.612.041-3.073-2.2-4.758-4.805a26.138,26.138,0,0,0-3.581-4.75" transform="translate(-63.895 -76.929)" fill="#232426"/>
        <path id="Path_1280" data-name="Path 1280" d="M147.72,133.3l1.5.191s.221,1.218-.721,1.2Z" transform="translate(-95.396 -86.081)" fill="#fff"/>
        <path id="Path_1281" data-name="Path 1281" d="M148.1,134.492h-.032a.232.232,0,0,1,.006-.464h.027a.421.421,0,0,0,.34-.131.958.958,0,0,0,.144-.626l-1.315-.168a.232.232,0,1,1,.059-.46l1.5.191a.233.233,0,0,1,.2.189,1.567,1.567,0,0,1-.23,1.175.871.871,0,0,1-.693.294" transform="translate(-94.973 -85.659)" fill="#232426"/>
        <path id="Path_1282" data-name="Path 1282" d="M155.067,127.861l-.366,2.146Z" transform="translate(-99.904 -82.571)" fill="#fff"/>
        <path id="Path_1283" data-name="Path 1283" d="M154.279,129.816a.214.214,0,0,1-.039,0,.232.232,0,0,1-.19-.267l.366-2.146a.232.232,0,1,1,.457.078l-.366,2.146a.232.232,0,0,1-.228.193" transform="translate(-99.482 -82.148)" fill="#232426"/>
        <path id="Path_1284" data-name="Path 1284" d="M158.033,130.562l-.308,1.7Z" transform="translate(-101.857 -84.316)" fill="#fff"/>
        <path id="Path_1285" data-name="Path 1285" d="M157.3,132.075a.237.237,0,0,1-.041,0,.232.232,0,0,1-.187-.27l.308-1.7a.232.232,0,1,1,.457.083l-.308,1.7a.232.232,0,0,1-.228.191" transform="translate(-101.434 -83.892)" fill="#232426"/>
        <path id="Path_1286" data-name="Path 1286" d="M42.658,174.794c1.734,1.2,3-.02,10.348-1.267,6.018-1.021,8.437,1.16,10.221-1.067.983-1.227,1.4-4.577,1.5-5.586q-.969-4.6-1.9-9.292c-.806-4.061-1.669-8.376-2.407-12.386a.955.955,0,0,0-.876-.779,53.817,53.817,0,0,0-9.818.476,52.063,52.063,0,0,0-14.278,3.526.194.194,0,0,0-.087.29l4.939,7.173a3.987,3.987,0,0,1,.588,3.207,25.87,25.87,0,0,0-.691,7.786c.222,3.463.417,6.505,2.463,7.918" transform="translate(-22.813 -93.215)" fill="#fff"/>
        <path id="Path_1287" data-name="Path 1287" d="M43.778,175.094a2.762,2.762,0,0,1-1.675-.53c-2.138-1.476-2.335-4.543-2.562-8.094a26.089,26.089,0,0,1,.7-7.855,3.761,3.761,0,0,0-.553-3.021l-4.939-7.173a.425.425,0,0,1,.192-.637,53.864,53.864,0,0,1,6.876-2.238,54.558,54.558,0,0,1,7.463-1.3l1.016-.111a48.674,48.674,0,0,1,8.841-.367,1.185,1.185,0,0,1,1.09.969c.66,3.586,1.417,7.4,2.15,11.091l.256,1.291c.611,3.077,1.25,6.2,1.9,9.29a.235.235,0,0,1,0,.07c-.071.719-.479,4.371-1.55,5.708s-2.319,1.206-4.225,1.025a21.465,21.465,0,0,0-6.137.125c-2.65.449-4.517.9-5.88,1.225a14.164,14.164,0,0,1-2.964.534m-8.623-26.9,4.912,7.134a4.223,4.223,0,0,1,.622,3.394A25.627,25.627,0,0,0,40,166.44c.22,3.431.41,6.393,2.363,7.742,1.022.706,1.839.509,4.266-.073,1.37-.329,3.246-.779,5.911-1.232a22.188,22.188,0,0,1,6.259-.13c1.818.172,2.915.276,3.819-.853.762-.951,1.254-3.51,1.446-5.428-.648-3.077-1.285-6.192-1.894-9.259l-.256-1.291c-.733-3.692-1.491-7.509-2.151-11.1a.721.721,0,0,0-.663-.589,48.148,48.148,0,0,0-8.76.365c-.35.039-.69.076-1.018.111a54.105,54.105,0,0,0-7.4,1.292,53.437,53.437,0,0,0-6.773,2.2" transform="translate(-22.389 -92.793)" fill="#232426"/>
        <path id="Path_1288" data-name="Path 1288" d="M106.292,153.474c1.49-.389.114-3.045.182-4.045.064-.942,1.525-.456,1.909-1.227a2.741,2.741,0,0,0-.364-2.272c-.629-1.019-1.514-1.129-1.591-1.863-.063-.6.617-.933.5-1.136-.188-.326-2.25-.408-2.549.962-.852,3.907,1.509,9.687,1.913,9.582" transform="translate(-67.288 -92.172)" fill="#fff"/>
        <path id="Path_1289" data-name="Path 1289" d="M105.861,153.286a.354.354,0,0,1-.247-.114c-.671-.644-2.687-6.054-1.881-9.751a1.761,1.761,0,0,1,1.592-1.312c.544-.084,1.213-.014,1.385.283.13.225-.042.43-.18.6a.883.883,0,0,0-.29.632c.03.281.214.439.563.716a3.921,3.921,0,0,1,.995,1.05,2.942,2.942,0,0,1,.374,2.5,1.459,1.459,0,0,1-1.139.652c-.514.111-.725.185-.746.487a5,5,0,0,0,.217,1.215c.287,1.144.679,2.712-.572,3.039a.292.292,0,0,1-.07.009m-.086-10.748a2.344,2.344,0,0,0-.72.11,1.206,1.206,0,0,0-.869.871c-.779,3.57,1.166,8.668,1.712,9.282.648-.247.464-1.217.155-2.45a5.047,5.047,0,0,1-.231-1.36c.046-.68.637-.807,1.112-.909.357-.076.694-.149.822-.406.4-.807-.323-2-.354-2.047a3.477,3.477,0,0,0-.888-.93,1.53,1.53,0,0,1-.736-1.031,1.3,1.3,0,0,1,.4-.978c.024-.029.053-.063.077-.094a1.626,1.626,0,0,0-.475-.058" transform="translate(-66.869 -91.751)" fill="#232426"/>
        <path id="Path_1290" data-name="Path 1290" d="M36.394,167.663c-.538.063-1.211-.683-1.389-1.431-.256-1.079.635-1.683.335-2.351-.44-.982-2.667-.346-3.065-1.329-.238-.587.452-1.066.192-1.737-.3-.77-1.312-.413-1.964-1.226-.755-.943.093-2.061-.671-3.27-.637-1.01-1.772-1.092-1.724-1.329.06-.3,1.938-.441,3.736.153,2.922.967,5.044,4.229,5.3,7.867.16,2.228.175,4.543-.754,4.653" transform="translate(-18.151 -99.924)" fill="#fff"/>
        <path id="Path_1291" data-name="Path 1291" d="M35.9,167.477c-.673,0-1.36-.823-1.547-1.613a2.323,2.323,0,0,1,.218-1.527c.148-.355.227-.567.131-.782-.167-.372-.748-.448-1.363-.528-.715-.094-1.455-.19-1.706-.808a1.253,1.253,0,0,1,.095-.987.98.98,0,0,0,.1-.754c-.106-.274-.333-.351-.723-.466a2.169,2.169,0,0,1-1.205-.7,2.3,2.3,0,0,1-.383-1.679,2.547,2.547,0,0,0-.3-1.612,2.683,2.683,0,0,0-1.269-.984c-.278-.126-.541-.245-.487-.514a.375.375,0,0,1,.2-.248,6.4,6.4,0,0,1,3.84.227c2.946.975,5.192,4.293,5.463,8.07.177,2.465.183,4.765-.958,4.9a.847.847,0,0,1-.095.005M28.109,154.6l.026.011a3.129,3.129,0,0,1,1.47,1.159,3,3,0,0,1,.374,1.878,1.884,1.884,0,0,0,.282,1.371,1.739,1.739,0,0,0,.973.544,1.313,1.313,0,0,1,1.026.743,1.41,1.41,0,0,1-.1,1.094c-.109.274-.172.452-.1.64.149.367.725.443,1.336.522.715.094,1.454.19,1.726.8a1.384,1.384,0,0,1-.126,1.15,1.884,1.884,0,0,0-.2,1.242c.156.656.741,1.3,1.136,1.254s.805-.848.55-4.406c-.258-3.594-2.374-6.745-5.146-7.663a7.224,7.224,0,0,0-3.237-.339" transform="translate(-17.726 -99.503)" fill="#232426"/>
        <path id="Path_1292" data-name="Path 1292" d="M67.332,117.606a3.065,3.065,0,0,1-2.566-3.185L64.892,112c1.463-.114,2.681-.811,2.677-1.274a25.921,25.921,0,0,0-.874-3.338.752.752,0,0,0,.017-1.255,14.178,14.178,0,0,1-1.983-2.867c-1.692-1.967-2.182.805-3.446,1.036-.875.16-1.35.693-1.019,1.837s-.3.57-.942.244-1.082-.073-.729.968a3.534,3.534,0,0,0,1.641,1.665l.61,1.2L59.559,116.1a3.3,3.3,0,0,1-2.117,2.407l-1.772.632,9.315,4.878,4.5-6.061Z" transform="translate(-35.95 -66.233)" fill="#fff"/>
        <path id="Path_1293" data-name="Path 1293" d="M64.562,123.83a.229.229,0,0,1-.107-.027l-9.316-4.878a.232.232,0,0,1,.03-.424l1.772-.632a3.054,3.054,0,0,0,1.969-2.238l1.269-5.811-.539-1.058A3.636,3.636,0,0,1,57.951,107c-.208-.614-.181-1.04.08-1.267.129-.112.427-.259.974.017.12.061.239.13.353.2s.242.14.339.183a2.189,2.189,0,0,0-.078-.352,1.791,1.791,0,0,1,.079-1.467,1.571,1.571,0,0,1,1.122-.662,2.155,2.155,0,0,0,1.02-.819c.391-.454.795-.923,1.36-.923a1.8,1.8,0,0,1,1.283.782.226.226,0,0,1,.027.039,12.814,12.814,0,0,0,1.9,2.783.876.876,0,0,1,.445.7,1.157,1.157,0,0,1-.318.814,25.147,25.147,0,0,1,.837,3.273c.005.628-1.275,1.324-2.688,1.488l-.116,2.224a2.829,2.829,0,0,0,2.371,2.944l2.152.352a.232.232,0,0,1,.149.367l-4.5,6.062a.232.232,0,0,1-.186.094m-8.738-5.07,8.67,4.54,4.154-5.6-1.776-.29a3.294,3.294,0,0,1-2.76-3.426l.126-2.424a.232.232,0,0,1,.214-.219c1.427-.111,2.466-.788,2.464-1.041a26.763,26.763,0,0,0-.86-3.26.232.232,0,0,1,.071-.26.739.739,0,0,0,.271-.543.429.429,0,0,0-.232-.337,13.113,13.113,0,0,1-2.049-2.929c-.348-.4-.656-.6-.916-.6-.352,0-.671.37-1.008.761a2.449,2.449,0,0,1-1.288.973,1.14,1.14,0,0,0-.811.45,1.369,1.369,0,0,0-.028,1.095c.123.424.162.74-.046.9-.23.179-.523.01-.893-.2-.106-.062-.218-.126-.33-.183-.241-.122-.4-.129-.46-.08s-.113.27.056.767a3.307,3.307,0,0,0,1.522,1.531.228.228,0,0,1,.105.1l.61,1.2a.232.232,0,0,1,.02.155l-1.286,5.892a3.515,3.515,0,0,1-2.266,2.576Z" transform="translate(-35.528 -65.81)" fill="#232426"/>
        <path id="Path_1294" data-name="Path 1294" d="M76.53,127.1a2.336,2.336,0,0,1-1.994-1.281.232.232,0,0,1,.42-.2,1.8,1.8,0,0,0,2.052.955.232.232,0,0,1,.107.451,2.531,2.531,0,0,1-.586.071" transform="translate(-48.121 -81.041)" fill="#050605"/>
      </g>
    </g>
  </g>
</svg>
