<svg xmlns="http://www.w3.org/2000/svg" width="169.178" height="175.746" viewBox="0 0 169.178 175.746">
  <g id="Group_14468" data-name="Group 14468" transform="translate(0 0.5)">
    <path id="Path_1724" data-name="Path 1724" d="M240.654,104.287a14.43,14.43,0,0,1,1.994,2.191c.688,1.323,1.813,2.562.132,4.142a3.968,3.968,0,0,0-.7,3.183c.454,3.332-1.426,6.106-2.748,9.269,2.267-.265,3.736,2.506,6.276.781.174-.118,1.344.676,1.885,1.18a33.936,33.936,0,0,1,2.288,2.6c-.5.451-1.278,1.166-2.07,1.867-.185.164-.552.245-.628.427a47.97,47.97,0,0,0-2.759,6.886,13.555,13.555,0,0,1-4.664,8.118c-.911.705-1.508,1.151-.4,2.2a24.915,24.915,0,0,1,2.944,3.667c1.4,1.942.7,3.54-2.778,6.11,1.109,1.674,2.228,3.426,3.42,5.142,1.557,2.249,1.37,2.708-.737,3.385-.926,1.6-1.529,2.645-2.152,3.694-.5.827-1.016,1.646-1.524,2.472l.623.329c-.878.329-1.758.661-2.632.992-.169.193-.339.381-.513.574-3.545-3.572-7.193-7.078-10.608-10.745-2.72-2.923-5.041-6.121-7.761-9.039a34.987,34.987,0,0,0-4.8-3.61c1.732-.978,3.249-1.834,5.315-2.995-2.117.215-3.665.371-5.49.554a75.247,75.247,0,0,1-12.508-37.568l1.513.94c-2.829-2.971-6.4-5.664-3.856-9.716-.879-.793-1.95-1.373-2.365-2.194-3.2-6.3-6.441-12.584-9.3-18.994-1.491-3.338-2.086-6.957-3.37-10.373-1.808-4.819-3.747-9.613-5.921-14.313-.618-1.331-2.261-2.3-3.419-3.45-.529-.521-1.349-1.034-1.455-1.626-.962-5.5-5.5-9.035-9.4-12.912a49.107,49.107,0,0,0-5.785-5.291c-4.212-3.023-5.533-7.268-7.478-11.376-2.676-5.635-5.953-11.045-8.93-16.564a26.073,26.073,0,0,1-1.065-2.645c1.925-.324,3.645-.621,4.814-.818,1.354,1.739,2.425,3.111,3.516,4.512,1.873-.9,3.175-.457,3.928.723a19.508,19.508,0,0,0,3.745,3.276c.295-.371.846-1.058,1.513-1.885L158.9,8.455c-.716.529-1.78.959-1.786,1.4,0,.593.683,1.323,1.295,1.758a12.429,12.429,0,0,0,2.442,1.058l-.8.3c.972-.23,1.945-.457,2.91-.686.265.23.529.46.8.686-3.692,1.058-3.458,2.205-.913,3.746.677.409.628,1.7.705,1.931,1.655,1.34,3.255,2.139,3.987,3.328,1.95,3.192,5.664,4.348,8.832,6.11.7.39,1.945.057,3.119.057,1.075,2.266,1.693,5.159,5.291,5.34a74.172,74.172,0,0,0,8.62-.55c.071.941.174,2.237.29,3.761,2.059-.762,3.968-1.162,4.271,1.447,3.439-.414,4.266,5.077,8.466,2.566.284,1.612.529,2.993.874,4.926-2.206.447-4.681.883-7.1,1.48a1.859,1.859,0,0,0-1.169,1.274,11,11,0,0,0,.218,2.468c4.3,1.776,8.183,3.341,12.011,4.987,1.54.661,1.323,2.318-.366,3.337a4.337,4.337,0,0,0-2.447,3.074l11.732-1.02c-.321,1.241-2.266,3,1.082,3.385.164.018.132,1.268.2,1.946.054.62.1,1.246.159,1.861-3.409-.926-3.307,2.012-4.8,3.93a12.407,12.407,0,0,0,3.484,1.48c3.081.225,4.894,2.124,7.024,3.586.4.278.349,1.255.219,1.867-.29,1.377-.754,2.732-1.229,4.381-.41.07-1.278.225-1.524.265-.164,2.45-.438,4.672-.431,6.9,0,1.931-.2,4.08.682,5.734a8.153,8.153,0,0,0,4.529,2.971c2.005.626,3.414-.529,4.938-1.955a7.976,7.976,0,0,1,7-2.562,27.193,27.193,0,0,1,2.95,5.312c.623,2.148-1.272,3.371-3.824,3.958Z" transform="translate(-81.103 -0.76)" fill="#fff"/>
    <path id="Path_1725" data-name="Path 1725" d="M240.654,104.287a14.43,14.43,0,0,1,1.994,2.191c.688,1.323,1.813,2.562.132,4.142a3.968,3.968,0,0,0-.7,3.183c.454,3.332-1.426,6.106-2.748,9.269,2.267-.265,3.736,2.506,6.276.781.174-.118,1.344.676,1.885,1.18a33.936,33.936,0,0,1,2.288,2.6c-.5.451-1.278,1.166-2.07,1.867-.185.164-.552.245-.628.427a47.97,47.97,0,0,0-2.759,6.886,13.555,13.555,0,0,1-4.664,8.118c-.911.705-1.508,1.151-.4,2.2a24.915,24.915,0,0,1,2.944,3.667c1.4,1.942.7,3.54-2.778,6.11,1.109,1.674,2.228,3.426,3.42,5.142,1.557,2.249,1.37,2.708-.737,3.385-.926,1.6-1.529,2.645-2.152,3.694-.5.827-1.016,1.646-1.524,2.472l.623.329c-.878.329-1.758.661-2.632.992-.169.193-.339.381-.513.574-3.545-3.572-7.193-7.078-10.608-10.745-2.72-2.923-5.041-6.121-7.761-9.039a34.987,34.987,0,0,0-4.8-3.61c1.732-.978,3.249-1.834,5.315-2.995-2.117.215-3.665.371-5.49.554a75.247,75.247,0,0,1-12.508-37.568l1.513.94c-2.829-2.971-6.4-5.664-3.856-9.716-.879-.793-1.95-1.373-2.365-2.194-3.2-6.3-6.441-12.584-9.3-18.994-1.491-3.338-2.086-6.957-3.37-10.373-1.808-4.819-3.747-9.613-5.921-14.313-.618-1.331-2.261-2.3-3.419-3.45-.529-.521-1.349-1.034-1.455-1.626-.962-5.5-5.5-9.035-9.4-12.912a49.107,49.107,0,0,0-5.785-5.291c-4.212-3.023-5.533-7.268-7.478-11.376-2.676-5.635-5.953-11.045-8.93-16.564a26.073,26.073,0,0,1-1.065-2.645c1.925-.324,3.645-.621,4.814-.818,1.354,1.739,2.425,3.111,3.516,4.512,1.873-.9,3.175-.457,3.928.723a19.508,19.508,0,0,0,3.745,3.276c.295-.371.846-1.058,1.513-1.885L158.9,8.455c-.716.529-1.78.959-1.786,1.4,0,.593.683,1.323,1.295,1.758a12.429,12.429,0,0,0,2.442,1.058l-.8.3c.972-.23,1.945-.457,2.91-.686.265.23.529.46.8.686-3.692,1.058-3.458,2.205-.913,3.746.677.409.628,1.7.705,1.931,1.655,1.34,3.255,2.139,3.987,3.328,1.95,3.192,5.664,4.348,8.832,6.11.7.39,1.945.057,3.119.057,1.075,2.266,1.693,5.159,5.291,5.34a74.172,74.172,0,0,0,8.62-.55c.071.941.174,2.237.29,3.761,2.059-.762,3.968-1.162,4.271,1.447,3.439-.414,4.266,5.077,8.466,2.566.284,1.612.529,2.993.874,4.926-2.206.447-4.681.883-7.1,1.48a1.859,1.859,0,0,0-1.169,1.274,11,11,0,0,0,.218,2.468c4.3,1.776,8.183,3.341,12.011,4.987,1.54.661,1.323,2.318-.366,3.337a4.337,4.337,0,0,0-2.447,3.074l11.732-1.02c-.321,1.241-2.266,3,1.082,3.385.164.018.132,1.268.2,1.946.054.62.1,1.246.159,1.861-3.409-.926-3.307,2.012-4.8,3.93a12.407,12.407,0,0,0,3.484,1.48c3.081.225,4.894,2.124,7.024,3.586.4.278.349,1.255.219,1.867-.29,1.377-.754,2.732-1.229,4.381-.41.07-1.278.225-1.524.265-.164,2.45-.438,4.672-.431,6.9,0,1.931-.2,4.08.682,5.734a8.153,8.153,0,0,0,4.529,2.971c2.005.626,3.414-.529,4.938-1.955a7.976,7.976,0,0,1,7-2.562,27.193,27.193,0,0,1,2.95,5.312c.623,2.148-1.272,3.371-3.824,3.958Z" transform="translate(-81.103 -0.76)" fill="none" stroke="#ff9d00" stroke-linejoin="round" stroke-miterlimit="10" stroke-width="1"/>
    <path id="Path_1726" data-name="Path 1726" d="M36.864,312.082v20.836h2.461V312.811a2.838,2.838,0,0,1,2.838-2.838H54.388a2.838,2.838,0,0,1,2.838,2.838v20.108h2.461V312.082a4.407,4.407,0,0,0-4.407-4.406H41.27a4.406,4.406,0,0,0-4.406,4.406" transform="translate(-23.461 -211.136)" fill="#fff"/>
    <path id="Path_1727" data-name="Path 1727" d="M59.285,332.745H56.824a.23.23,0,0,1-.23-.23V312.408a2.611,2.611,0,0,0-2.608-2.608H41.761a2.611,2.611,0,0,0-2.608,2.608v20.108a.23.23,0,0,1-.23.23H36.462a.23.23,0,0,1-.23-.23V311.679a4.641,4.641,0,0,1,4.636-4.636h14.01a4.641,4.641,0,0,1,4.636,4.636v20.836a.23.23,0,0,1-.23.23m-2.231-.46h2V311.679a4.181,4.181,0,0,0-4.176-4.176H40.868a4.181,4.181,0,0,0-4.176,4.176v20.606h2V312.408a3.071,3.071,0,0,1,3.068-3.068H53.986a3.071,3.071,0,0,1,3.067,3.068Z" transform="translate(-23.059 -210.733)" fill="#232426"/>
    <path id="Path_1728" data-name="Path 1728" d="M62.142,309.42h-8.4a1.747,1.747,0,0,1-1.747-1.747h0a1.747,1.747,0,0,1,1.747-1.747h8.4a1.747,1.747,0,0,1,1.747,1.747h0a1.747,1.747,0,0,1-1.747,1.747" transform="translate(-33.09 -210.022)" fill="#fff"/>
    <path id="Path_1729" data-name="Path 1729" d="M62.894,309.247H52.182a.824.824,0,0,1-.822-.822v-2.31a.823.823,0,0,1,.822-.822H62.894a.823.823,0,0,1,.822.822v2.31a.824.824,0,0,1-.822.822m-10.712-3.494a.362.362,0,0,0-.362.362v2.31a.362.362,0,0,0,.362.362H62.894a.363.363,0,0,0,.362-.362v-2.31a.363.363,0,0,0-.362-.362Z" transform="translate(-32.687 -209.619)" fill="#232426"/>
    <path id="Path_1730" data-name="Path 1730" d="M87.164,511.683a2.771,2.771,0,1,1-2.771-2.771,2.771,2.771,0,0,1,2.771,2.771" transform="translate(-51.947 -339.208)" fill="#232426"/>
    <path id="Path_1731" data-name="Path 1731" d="M40.033,511.683a2.771,2.771,0,1,1-2.77-2.771,2.77,2.77,0,0,1,2.77,2.771" transform="translate(-21.952 -339.208)" fill="#232426"/>
    <path id="Path_1732" data-name="Path 1732" d="M41.143,423.948H37.657A15.352,15.352,0,0,1,22.3,408.6V387.338a15.351,15.351,0,0,1,15.352-15.352h3.486a15.352,15.352,0,0,1,15.352,15.352V408.6a15.352,15.352,0,0,1-15.352,15.352" transform="translate(-14.195 -252.064)" fill="#fff"/>
    <path id="Path_1733" data-name="Path 1733" d="M51.684,423.775H26.31a4.643,4.643,0,0,1-4.638-4.638V375.991a4.643,4.643,0,0,1,4.638-4.638H51.684a4.643,4.643,0,0,1,4.638,4.638v43.147a4.643,4.643,0,0,1-4.638,4.638M26.31,371.813a4.183,4.183,0,0,0-4.178,4.178v43.147a4.183,4.183,0,0,0,4.178,4.178H51.684a4.183,4.183,0,0,0,4.178-4.178V375.991a4.183,4.183,0,0,0-4.178-4.178Z" transform="translate(-13.793 -251.661)" fill="#232426"/>
    <path id="Path_1734" data-name="Path 1734" d="M19.471,424.147H15.985A15.352,15.352,0,0,1,.633,408.8V387.536a15.351,15.351,0,0,1,15.352-15.352h3.486a15.352,15.352,0,0,1,15.352,15.352V408.8a15.352,15.352,0,0,1-15.352,15.352" transform="translate(-0.403 -252.191)" fill="#fff"/>
    <path id="Path_1735" data-name="Path 1735" d="M30.012,423.974H4.638A4.643,4.643,0,0,1,0,419.337V376.19a4.643,4.643,0,0,1,4.638-4.638H30.012a4.643,4.643,0,0,1,4.638,4.638v43.147a4.643,4.643,0,0,1-4.638,4.638M4.638,372.012A4.183,4.183,0,0,0,.46,376.19v43.147a4.182,4.182,0,0,0,4.178,4.177H30.012a4.182,4.182,0,0,0,4.178-4.177V376.19a4.183,4.183,0,0,0-4.178-4.178Z" transform="translate(0 -251.788)" fill="#232426"/>
    <path id="Path_1736" data-name="Path 1736" d="M17.174,428.074h-.693a1.265,1.265,0,0,1-1.264-1.264V387.844a1.265,1.265,0,0,1,1.264-1.264h.693a1.265,1.265,0,0,1,1.264,1.264v38.967a1.266,1.266,0,0,1-1.264,1.264m-.693-41.034a.8.8,0,0,0-.8.8v38.967a.8.8,0,0,0,.8.8h.693a.8.8,0,0,0,.8-.8V387.844a.8.8,0,0,0-.8-.8Z" transform="translate(-9.684 -261.352)" fill="#232426"/>
    <path id="Path_1737" data-name="Path 1737" d="M35.844,428.074h-.693a1.265,1.265,0,0,1-1.264-1.264V387.844a1.265,1.265,0,0,1,1.264-1.264h.693a1.265,1.265,0,0,1,1.264,1.264v38.967a1.265,1.265,0,0,1-1.264,1.264m-.693-41.034a.8.8,0,0,0-.8.8v38.967a.8.8,0,0,0,.8.8h.693a.8.8,0,0,0,.8-.8V387.844a.8.8,0,0,0-.8-.8Z" transform="translate(-21.567 -261.352)" fill="#232426"/>
    <path id="Path_1738" data-name="Path 1738" d="M54.514,428.074h-.693a1.265,1.265,0,0,1-1.264-1.264V387.844a1.265,1.265,0,0,1,1.264-1.264h.693a1.265,1.265,0,0,1,1.264,1.264v38.967a1.266,1.266,0,0,1-1.264,1.264m-.693-41.034a.8.8,0,0,0-.8.8v38.967a.8.8,0,0,0,.8.8h.693a.8.8,0,0,0,.8-.8V387.844a.8.8,0,0,0-.8-.8Z" transform="translate(-33.449 -261.352)" fill="#232426"/>
    <path id="Path_1739" data-name="Path 1739" d="M73.184,428.074h-.693a1.265,1.265,0,0,1-1.264-1.264V387.844a1.265,1.265,0,0,1,1.264-1.264h.693a1.265,1.265,0,0,1,1.264,1.264v38.967a1.266,1.266,0,0,1-1.264,1.264m-.693-41.034a.8.8,0,0,0-.8.8v38.967a.8.8,0,0,0,.8.8h.693a.8.8,0,0,0,.8-.8V387.844a.8.8,0,0,0-.8-.8Z" transform="translate(-45.331 -261.352)" fill="#232426"/>
    <path id="Path_1740" data-name="Path 1740" d="M216.008,465.786l2.048,7.767a12.563,12.563,0,0,1,.318,4.762l-.41,3.281,10.345-1.688-1.337-.985a12.181,12.181,0,0,1-4.627-6.993l-1.78-7.493Z" transform="translate(-137.473 -310.903)" fill="#fff"/>
    <path id="Path_1741" data-name="Path 1741" d="M217.561,481.424a.23.23,0,0,1-.228-.258l.41-3.281a12.277,12.277,0,0,0-.313-4.675l-2.048-7.767a.23.23,0,0,1,.157-.279l4.558-1.349a.23.23,0,0,1,.289.167l1.78,7.493a11.967,11.967,0,0,0,4.54,6.861l1.337.985a.23.23,0,0,1-.1.412L217.6,481.421a.217.217,0,0,1-.037,0m-1.677-15.883,1.991,7.551a12.74,12.74,0,0,1,.324,4.849l-.372,2.976,9.5-1.551-.9-.661a12.43,12.43,0,0,1-4.714-7.125L220,464.324Z" transform="translate(-137.07 -310.5)" fill="#232426"/>
    <path id="Path_1742" data-name="Path 1742" d="M218.56,504.843c-.078-1.371-.1-4.1.8-5.814a.672.672,0,0,1,.846-.308l2.367.947a.559.559,0,0,0,.767-.519v-.162a.431.431,0,0,1,.409-.43l2.039-.107a4.8,4.8,0,0,1,2.215.415c2.109.946,6.587,3.178,7.658,5.512a.833.833,0,0,1-.735,1.163c-1.849.083-6.526.229-15.469.153a.9.9,0,0,1-.893-.851" transform="translate(-139.076 -332.545)" fill="#fff"/>
    <path id="Path_1743" data-name="Path 1743" d="M223.851,505.543c-1.443,0-3.04-.007-4.8-.021a1.135,1.135,0,0,1-1.121-1.068c-.084-1.468-.087-4.19.823-5.933a.9.9,0,0,1,1.135-.415l2.367.947a.33.33,0,0,0,.452-.306v-.161a.661.661,0,0,1,.626-.66l2.039-.106a5.037,5.037,0,0,1,2.321.435c2.441,1.094,6.7,3.281,7.773,5.626a1.021,1.021,0,0,1-.061.972,1.079,1.079,0,0,1-.873.517c-1.6.072-4.908.175-10.678.175m-5.465-1.116a.675.675,0,0,0,.666.634c8.8.075,13.463-.064,15.457-.153a.62.62,0,0,0,.5-.3.567.567,0,0,0,.035-.54c-1.05-2.291-5.625-4.538-7.542-5.4a4.588,4.588,0,0,0-2.109-.4l-2.039.107a.2.2,0,0,0-.19.2v.161a.789.789,0,0,1-1.083.733l-2.367-.947a.439.439,0,0,0-.556.2c-.859,1.645-.852,4.273-.771,5.694" transform="translate(-138.672 -332.142)" fill="#232426"/>
    <path id="Path_1744" data-name="Path 1744" d="M229.118,513.534c-1.857,0-4.135-.044-6.85-.168a.23.23,0,0,1-.219-.24.234.234,0,0,1,.24-.219,93.522,93.522,0,0,0,13.141-.064.23.23,0,1,1,.053.457,63.088,63.088,0,0,1-6.366.235" transform="translate(-141.317 -341.708)" fill="#232426"/>
    <path id="Path_1745" data-name="Path 1745" d="M241.325,503.854a.229.229,0,0,1-.126-.037l-3.521-2.309a.23.23,0,0,1,.252-.385l3.52,2.308a.23.23,0,0,1-.126.422" transform="translate(-151.199 -334.226)" fill="#232426"/>
    <path id="Path_1746" data-name="Path 1746" d="M150.608,471.757l-1.251,8.782h-3.166l.308-8.638Z" transform="translate(-93.039 -315.561)" fill="#fff"/>
    <path id="Path_1747" data-name="Path 1747" d="M148.954,480.366h-3.166a.23.23,0,0,1-.23-.238l.308-8.638a.23.23,0,0,1,.222-.222l4.109-.145a.226.226,0,0,1,.179.076.23.23,0,0,1,.057.186l-1.251,8.783a.23.23,0,0,1-.228.2m-2.928-.46h2.729l1.184-8.313-3.621.128Z" transform="translate(-92.637 -315.157)" fill="#232426"/>
    <path id="Path_1748" data-name="Path 1748" d="M142.244,500.572a19.042,19.042,0,0,1-5.887.027,1.379,1.379,0,0,1-1.1-1.737c.586-2.085,1.814-5.935,3.369-7.953a.232.232,0,0,1,.4.068l.055.363a.223.223,0,0,0,.422.061l.342-.725a.493.493,0,0,1,.376-.236l1.2-.046a.492.492,0,0,1,.53.4l.041.572a.223.223,0,0,0,.418.09l.518-.532a.181.181,0,0,1,.326.112l-.062,2.282a24.874,24.874,0,0,0,.357,4.923l.142.817a1.575,1.575,0,0,1-1.453,1.51" transform="translate(-86.048 -327.42)" fill="#fff"/>
    <path id="Path_1749" data-name="Path 1749" d="M138.685,500.647a17.407,17.407,0,0,1-2.766-.226,1.6,1.6,0,0,1-1.091-.717,1.618,1.618,0,0,1-.195-1.31c.6-2.122,1.833-5.987,3.407-8.031a.462.462,0,0,1,.8.134.22.22,0,0,1,.009.04l.056.363.329-.727a.732.732,0,0,1,.563-.367l1.214-.047a.72.72,0,0,1,.765.594.18.18,0,0,1,0,.024l.042.572c.009-.019.009-.038.024-.053l.509-.523a.411.411,0,0,1,.73.27l-.062,2.282a24.668,24.668,0,0,0,.354,4.878l.142.817a1.806,1.806,0,0,1-1.655,1.778c-.163.017-.336.038-.517.06a21.124,21.124,0,0,1-2.665.191m-.279-10c-1.529,1.981-2.742,5.78-3.33,7.868a1.162,1.162,0,0,0,.139.938,1.122,1.122,0,0,0,.776.51,17.566,17.566,0,0,0,5.3.032c.183-.022.357-.043.522-.06.628-.067,1.31-.632,1.249-1.259l-.14-.8a25.2,25.2,0,0,1-.36-4.969l.058-2.154-.428.439a.453.453,0,0,1-.831-.215l-.04-.558a.263.263,0,0,0-.28-.205l-1.215.047a.258.258,0,0,0-.187.125l-.332.7a.453.453,0,0,1-.857-.125Z" transform="translate(-85.646 -327.016)" fill="#232426"/>
    <path id="Path_1750" data-name="Path 1750" d="M141.957,513.78a10.992,10.992,0,0,1-2.793-.371.23.23,0,0,1,.117-.445,9.025,9.025,0,0,0,5.077.008.23.23,0,0,1,.164.43,7.734,7.734,0,0,1-2.565.378" transform="translate(-88.458 -341.781)" fill="#232426"/>
    <path id="Path_1751" data-name="Path 1751" d="M145.6,505.583h-2.9a.23.23,0,1,1,0-.46h2.9a.23.23,0,1,1,0,.46" transform="translate(-90.67 -336.796)" fill="#232426"/>
    <path id="Path_1752" data-name="Path 1752" d="M190.134,311.437s4.152,26.817,4.317,33.221,2.829,25.782,2.829,25.782a14.194,14.194,0,0,1-7.331.382s-12.714-34.316-13.63-44.837,2.605-15.337,2.605-15.337Z" transform="translate(-112.117 -213.028)" fill="#9ca777"/>
    <path id="Path_1753" data-name="Path 1753" d="M164.3,306.555S150.229,349.528,150,367a21.24,21.24,0,0,1-7.559,0s-2.859-47.96,5.381-61.4Z" transform="translate(-90.347 -209.815)" fill="#9ca777"/>
    <path id="Path_1754" data-name="Path 1754" d="M170.7,376.268a13.354,13.354,0,0,1-2.957-.324.229.229,0,0,1-.165-.144c-.076-.2-7.489-20.254-11.356-34.258-4.144,15.519-6.289,26.81-6.378,33.568a.23.23,0,0,1-.177.221,21.3,21.3,0,0,1-7.649,0,.23.23,0,0,1-.193-.213c-.023-.391-2.265-39.27,3.277-56.617a.23.23,0,1,1,.438.14c-5.32,16.652-3.428,53.33-3.266,56.265a21.849,21.849,0,0,0,7.113.01c.128-6.953,2.362-18.534,6.641-34.429a.23.23,0,0,1,.447.106l-.015.073c3.649,13.457,10.877,33.147,11.506,34.853a14.157,14.157,0,0,0,6.9-.342c-.275-2.022-2.651-19.613-2.806-25.619-.108-4.208-1.984-17.507-3.093-25.059a.23.23,0,1,1,.455-.067c1.356,9.238,2.994,21.094,3.1,25.114.163,6.319,2.8,25.563,2.827,25.757a.23.23,0,0,1-.148.247,14.051,14.051,0,0,1-4.505.715" transform="translate(-89.966 -217.925)" fill="#232426"/>
    <path id="Path_1755" data-name="Path 1755" d="M181.849,365.86a.236.236,0,0,1-.057-.007.23.23,0,0,1-.167-.279l1.977-7.846a.23.23,0,0,1,.446.112l-1.977,7.846a.23.23,0,0,1-.223.174" transform="translate(-115.587 -242.879)" fill="#fff"/>
    <path id="Path_1756" data-name="Path 1756" d="M140.537,174.287c-.886,5.09-6.055,10.555-11.254,9.833a8.986,8.986,0,0,1-5.544-3.387,7.212,7.212,0,0,1-9.822-1.009c-2.785-3.365-2.405-9.594,1.652-12.79-3.214-.027-4.078-1.263-4.333-1.75-1.5-2.87,2.469-9.585,6.178-9.6,1.369,0,3.185,1.688,6.762,5.072,3.694,3.495,3.851,4.172,4.97,4.293,3.287.356,4.269-5.245,8.63-5.865,2.985-.424,6.319,1.662,6.571,3.631.216,1.69-1.966,2.287-3.194,5.663-.915,2.514-.207,3.564-.614,5.9" transform="translate(-70.585 -114.344)" fill="#232426"/>
    <path id="Path_1757" data-name="Path 1757" d="M173,158.467c.254.779,0,2.985-1.17,3.367s-2.816-1.2-3.07-1.984.489-1.72,1.66-2.1,2.326-.06,2.58.718" transform="translate(-107.371 -115.615)" fill="#232426"/>
    <path id="Path_1758" data-name="Path 1758" d="M209.313,313.727s1.3,8.706-.29,10.375c0,0-5.212-5.709-5.459-9.833Z" transform="translate(-129.553 -214.987)" fill="#fff"/>
    <path id="Path_1759" data-name="Path 1759" d="M208.62,323.928h0a.23.23,0,0,1-.168-.075c-.215-.236-5.269-5.817-5.518-9.974a.23.23,0,0,1,.208-.243l5.75-.542a.23.23,0,0,1,.249.195c.054.36,1.3,8.837-.352,10.568a.231.231,0,0,1-.166.071m-5.212-9.855c.363,3.539,4.3,8.232,5.2,9.264,1-1.615.453-7.337.107-9.764Z" transform="translate(-129.15 -214.583)" fill="#232426"/>
    <path id="Path_1760" data-name="Path 1760" d="M164.107,311.752s-1.623,7.024-3.549,8.775-7.239-5.669-10.114-6.248c-3.508-.707-6.551,6.247-6.551,6.247s1.217-8.173,3.628-10.042Z" transform="translate(-91.577 -212.923)" fill="#fff"/>
    <path id="Path_1761" data-name="Path 1761" d="M159.446,320.626c-1.281,0-3.071-1.61-4.944-3.294-1.636-1.471-3.327-2.992-4.506-3.229-3.288-.663-6.265,6.046-6.3,6.113a.23.23,0,0,1-.438-.126c.051-.337,1.259-8.286,3.714-10.189a.231.231,0,0,1,.158-.048l16.587,1.267a.23.23,0,0,1,.207.281c-.067.29-1.662,7.114-3.619,8.894a1.237,1.237,0,0,1-.863.331m-9.913-7.03a2.806,2.806,0,0,1,.554.055c1.3.263,2.964,1.757,4.723,3.339,2.089,1.879,4.249,3.82,5.191,2.965,1.646-1.5,3.1-7.115,3.417-8.4l-16.227-1.24c-1.641,1.371-2.721,5.875-3.2,8.286,1.046-1.9,3.125-5.008,5.538-5.008" transform="translate(-91.174 -212.521)" fill="#232426"/>
    <path id="Path_1762" data-name="Path 1762" d="M263.879,193.032l2.679-2.793a.577.577,0,0,1,.935.651l-.825,1.7a3.524,3.524,0,0,0,.842.279,2.088,2.088,0,0,0,1.626-.665c.489-.512,1.281-1.326,1.549-1.526a3.181,3.181,0,0,1,1.479-.8h.017a.721.721,0,0,1,.658,1.111l-1.12,1.732a7.019,7.019,0,0,1-3.405,2.752l-2.3.872a2.108,2.108,0,0,0-1.36,1.917l-.232,8.912-4.7-3.595,2.112-6.83a10.489,10.489,0,0,1,2.046-3.714" transform="translate(-165.293 -136.162)" fill="#fff"/>
    <path id="Path_1763" data-name="Path 1763" d="M264.023,207a.23.23,0,0,1-.14-.047l-4.7-3.6a.23.23,0,0,1-.08-.251l2.112-6.83a10.663,10.663,0,0,1,2.091-3.8l.009-.01,2.679-2.793a.807.807,0,0,1,1.308.91l-.72,1.486a2.293,2.293,0,0,0,.545.165,1.849,1.849,0,0,0,1.445-.595c.569-.6,1.306-1.348,1.576-1.551l.171-.131a2.863,2.863,0,0,1,1.428-.718.956.956,0,0,1,.907.462.946.946,0,0,1-.02,1l-1.12,1.732a7.2,7.2,0,0,1-3.517,2.842l-2.3.872a1.872,1.872,0,0,0-1.212,1.708l-.232,8.912a.23.23,0,0,1-.13.2.234.234,0,0,1-.1.023m-4.437-3.91,4.218,3.224.22-8.462a2.331,2.331,0,0,1,1.508-2.126l2.3-.872a6.744,6.744,0,0,0,3.294-2.661l1.12-1.732a.491.491,0,0,0-.448-.757,2.524,2.524,0,0,0-1.2.625l-.176.135a21.33,21.33,0,0,0-1.52,1.5,2.3,2.3,0,0,1-1.807.736,3.577,3.577,0,0,1-.924-.3.231.231,0,0,1-.12-.132.228.228,0,0,1,.01-.177l.824-1.7a.347.347,0,0,0-.562-.391l-2.674,2.789a10.2,10.2,0,0,0-2,3.627Z" transform="translate(-164.891 -135.762)" fill="#232426"/>
    <path id="Path_1764" data-name="Path 1764" d="M251.053,221.563l11.733,9.3-5.23,5.422-9.953-8.291Z" transform="translate(-157.581 -156.331)" fill="#fff"/>
    <path id="Path_1765" data-name="Path 1765" d="M257.154,236.111a.23.23,0,0,1-.147-.053l-9.952-8.291a.23.23,0,0,1-.056-.285l3.45-6.429a.23.23,0,0,1,.345-.071l11.732,9.3a.23.23,0,0,1,.023.34l-5.23,5.422a.23.23,0,0,1-.165.071m-9.661-8.577,9.644,8.034,4.9-5.086-11.318-8.969Z" transform="translate(-157.179 -155.929)" fill="#232426"/>
    <path id="Path_1766" data-name="Path 1766" d="M175.708,229.312l-13.474-10.4a5.937,5.937,0,0,1-3.891,2.485c-2.054.206-5.557-4.044-8.323-5.885a18.66,18.66,0,0,0-11.886-2.846l-.057.005a21,21,0,0,0-2.331.34c-5.671.949-19.673,4.088-22.326,12.23-1.79,5.493.3,12.858.651,14.008a.139.139,0,0,0,.194.084l12.446-6.01-.961-2.89a2.927,2.927,0,0,1,1.323-3.7L129,225.7a20.467,20.467,0,0,1,.4,7.156c-1.53,8.018-3.285,10.641-4.16,17.216a22.072,22.072,0,0,1,5.234-.57l20.75.794a2.652,2.652,0,0,0,2.741-2.343c.217-1.927.222-5.339-.575-11.326-.1-.777-.169-2.012-.244-3.521,4.24,2.552,11.982,4.533,22.563-3.8" transform="translate(-71.728 -150.624)" fill="#fff"/>
    <path id="Path_1767" data-name="Path 1767" d="M150.915,250.127l-.111,0-20.75-.794a21.862,21.862,0,0,0-5.173.564.231.231,0,0,1-.281-.255,49.865,49.865,0,0,1,1.97-8.53,80.482,80.482,0,0,0,2.192-8.7,19.579,19.579,0,0,0-.34-6.761l-1.651.884a2.688,2.688,0,0,0-1.219,3.41l.966,2.905a.23.23,0,0,1-.118.28l-12.446,6.01a.371.371,0,0,1-.31.006.365.365,0,0,1-.2-.23c-.424-1.4-2.444-8.641-.65-14.146,2.681-8.227,16.633-11.4,22.507-12.386a21.269,21.269,0,0,1,2.349-.342l.053-.006h.029a18.755,18.755,0,0,1,12.008,2.885,31.316,31.316,0,0,1,3.165,2.6c1.862,1.659,3.786,3.376,5.009,3.253a5.73,5.73,0,0,0,3.722-2.383.23.23,0,0,1,.332-.056l13.474,10.4a.231.231,0,0,1,.089.181.229.229,0,0,1-.088.182c-4.746,3.736-9.385,5.765-13.788,6.029a15.4,15.4,0,0,1-8.666-2c.069,1.364.13,2.4.221,3.078a51.1,51.1,0,0,1,.575,11.382,2.891,2.891,0,0,1-2.867,2.549m-21.476-1.275c.218,0,.432.006.639.02l20.744.793a2.432,2.432,0,0,0,2.5-2.139c.193-1.718.251-5.068-.574-11.27-.1-.769-.167-1.952-.246-3.54a.23.23,0,0,1,.348-.208c4.49,2.7,11.951,4.255,22.07-3.6l-13.051-10.07a5.983,5.983,0,0,1-3.916,2.387c-1.422.144-3.335-1.562-5.361-3.367a31.021,31.021,0,0,0-3.113-2.555,18.3,18.3,0,0,0-11.739-2.809h-.017l-.034,0a20.928,20.928,0,0,0-2.312.337c-5.8.971-19.55,4.088-22.153,12.076-1.711,5.25.148,12.172.622,13.767l12.169-5.876-.9-2.7a3.142,3.142,0,0,1,1.432-3.976l1.93-1.033a.23.23,0,0,1,.335.162,20.723,20.723,0,0,1,.4,7.24,81,81,0,0,1-2.2,8.744,50.1,50.1,0,0,0-1.911,8.133,23.1,23.1,0,0,1,4.337-.523" transform="translate(-71.318 -150.219)" fill="#232426"/>
    <path id="Path_1768" data-name="Path 1768" d="M142.194,279.7l3.737,5.817,1.674-1.135a4.739,4.739,0,0,1,3.5-.742,6.713,6.713,0,0,1,2.568.859c1.854,1.5.21,2.427-.144,2.614a3.685,3.685,0,0,1-2.21.463,5.813,5.813,0,0,0-2.969.736c-.889.483-1.927,1.468-3.338,1.086a3.325,3.325,0,0,1-1.736-1.038l-4.828-6.02Z" transform="translate(-88.11 -193.328)" fill="#fff"/>
    <path id="Path_1769" data-name="Path 1769" d="M145.241,289.308a2.644,2.644,0,0,1-.7-.094,3.539,3.539,0,0,1-1.86-1.122l-4.823-6.014a.231.231,0,0,1,.047-.332l3.749-2.64a.232.232,0,0,1,.177-.037.228.228,0,0,1,.149.1l3.61,5.619,1.479-1a4.943,4.943,0,0,1,3.667-.778,6.808,6.808,0,0,1,2.672.906,1.981,1.981,0,0,1,.946,1.64,1.865,1.865,0,0,1-1.128,1.356,3.943,3.943,0,0,1-2.35.487,5.639,5.639,0,0,0-2.827.71c-.173.094-.355.209-.546.332a4.269,4.269,0,0,1-2.267.868m-6.866-7.328,4.675,5.83a2.923,2.923,0,0,0,4.211.241c.2-.127.387-.246.574-.348a5.962,5.962,0,0,1,3.111-.761,3.489,3.489,0,0,0,2.07-.438c.31-.164.839-.512.885-.994.036-.376-.225-.793-.778-1.238a6.515,6.515,0,0,0-2.454-.81,4.492,4.492,0,0,0-3.337.7l-1.674,1.135a.23.23,0,0,1-.322-.066l-3.607-5.615Z" transform="translate(-87.707 -192.926)" fill="#232426"/>
    <path id="Path_1770" data-name="Path 1770" d="M131.575,271.005l1.539,2.841-9.1,7.257a29.233,29.233,0,0,1-2.166-5.424Z" transform="translate(-77.548 -187.797)" fill="#fff"/>
    <path id="Path_1771" data-name="Path 1771" d="M123.614,280.931a.236.236,0,0,1-.048-.005.229.229,0,0,1-.156-.119,29,29,0,0,1-2.186-5.479.23.23,0,0,1,.124-.258l9.725-4.674a.23.23,0,0,1,.3.1l1.539,2.842a.23.23,0,0,1-.059.289l-9.1,7.257a.23.23,0,0,1-.143.05m-1.9-5.527a28.617,28.617,0,0,0,1.977,4.941l8.727-6.96-1.343-2.48Z" transform="translate(-77.146 -187.395)" fill="#232426"/>
    <path id="Path_1772" data-name="Path 1772" d="M222.71,256.434a.23.23,0,0,1-.229-.215c-.04-.589-.085-1.232-.132-1.9-.13-1.857-.277-3.962-.362-5.537a.23.23,0,0,1,.217-.242.228.228,0,0,1,.242.217c.085,1.571.232,3.674.362,5.529.047.668.092,1.311.132,1.9a.23.23,0,0,1-.214.245h-.016" transform="translate(-141.278 -173.5)" fill="#232426"/>
    <path id="Path_1773" data-name="Path 1773" d="M181.947,194.9l-.806,6.7,3.726,1.657s-5.514,3.748-12.775-.407l3.919-1.674,2.021-7.771Z" transform="translate(-109.524 -138.409)" fill="#fff"/>
    <path id="Path_1774" data-name="Path 1774" d="M178.6,204.62a14.009,14.009,0,0,1-7.022-1.975.23.23,0,0,1,.024-.411l3.816-1.63,1.992-7.662a.231.231,0,0,1,.305-.157l3.914,1.5a.23.23,0,0,1,.146.242l-.785,6.528,3.571,1.588a.23.23,0,0,1,.036.4,11.585,11.585,0,0,1-6,1.578m-6.385-2.148a12.308,12.308,0,0,0,11.749.408l-3.317-1.475a.23.23,0,0,1-.135-.238l.784-6.519-3.506-1.342-1.956,7.523a.229.229,0,0,1-.132.153Z" transform="translate(-109.121 -138.006)" fill="#232426"/>
    <path id="Path_1775" data-name="Path 1775" d="M184.744,187.8s-1.5.564-1.89-.735a.847.847,0,0,1,.9-1.218s-1.373-2.849.762-3.126a12.594,12.594,0,0,0,3.694-1.067,21.713,21.713,0,0,1,2.05,5c.3,1.374.218,2.588-.819,2.949-2.839.99-4.691-1.8-4.691-1.8" transform="translate(-116.325 -130.934)" fill="#fff"/>
    <path id="Path_1776" data-name="Path 1776" d="M187.827,189.64a4.837,4.837,0,0,1-3.575-1.971,1.979,1.979,0,0,1-1.326-.067,1.356,1.356,0,0,1-.7-.869,1.182,1.182,0,0,1,.11-1.121,1.089,1.089,0,0,1,.669-.367,3.189,3.189,0,0,1-.132-2.412,1.485,1.485,0,0,1,1.2-.738,12.5,12.5,0,0,0,3.619-1.044.23.23,0,0,1,.3.091,21.661,21.661,0,0,1,2.075,5.06c.388,1.774.062,2.856-.968,3.215a3.871,3.871,0,0,1-1.28.224m-3.487-2.469a.231.231,0,0,1,.192.1c.072.108,1.791,2.626,4.424,1.708.775-.27,1-1.173.67-2.683a20.849,20.849,0,0,0-1.922-4.744,13.1,13.1,0,0,1-3.567.995,1.041,1.041,0,0,0-.855.5,3.133,3.133,0,0,0,.271,2.3.23.23,0,0,1-.222.329.836.836,0,0,0-.631.221.768.768,0,0,0-.029.7.9.9,0,0,0,.457.589,1.659,1.659,0,0,0,1.132,0,.23.23,0,0,1,.08-.015" transform="translate(-115.921 -130.532)" fill="#232426"/>
    <path id="Path_1777" data-name="Path 1777" d="M276.446,133.527a10.139,10.139,0,0,0-10.172,10.106,15.246,15.246,0,0,0,1.589,5.489,103.959,103.959,0,0,0,8.179,13.987.489.489,0,0,0,.806,0c1.889-2.759,9.769-14.565,9.769-19.477a10.139,10.139,0,0,0-10.172-10.106" transform="translate(-172.105 -110.802)" fill="#ef7676"/>
    <path id="Path_1778" data-name="Path 1778" d="M285.366,148.02a4.451,4.451,0,1,1-4.451-4.435,4.442,4.442,0,0,1,4.451,4.435" transform="translate(-176.576 -115.214)" fill="#fff"/>
  </g>
</svg>
