<svg id="Group_14455" data-name="Group 14455" xmlns="http://www.w3.org/2000/svg" width="126.431" height="127.197" viewBox="0 0 126.431 127.197">
  <g id="Group_14589" data-name="Group 14589" transform="translate(0 0)">
    <path id="Path_1410" data-name="Path 1410" d="M41.14,221.6H.173a.173.173,0,0,1,0-.346H41.14a.173.173,0,0,1,0,.346" transform="translate(0 -130.869)" fill="#232426"/>
    <path id="Path_1411" data-name="Path 1411" d="M185.578,221.6H100.459a.173.173,0,0,1,0-.346h85.119a.173.173,0,0,1,0,.346" transform="translate(-59.319 -130.869)" fill="#232426"/>
    <path id="Path_1412" data-name="Path 1412" d="M148.55,47.472a1.355,1.355,0,1,1,.312-.037,1.356,1.356,0,0,1-.312.037m0-2.433a1.1,1.1,0,0,0-.251.029,1.074,1.074,0,1,0,.251-.029" transform="translate(-87.067 -26.478)" fill="#232426"/>
    <path id="Path_1413" data-name="Path 1413" d="M140.252,49.439a1.36,1.36,0,1,1,.315-.037,1.345,1.345,0,0,1-.315.037M139.2,48.333a1.079,1.079,0,1,0,.8-1.3,1.072,1.072,0,0,0-.8,1.3" transform="translate(-82.16 -27.641)" fill="#232426"/>
    <path id="Path_1414" data-name="Path 1414" d="M230.57,28.036a1.354,1.354,0,1,1,1.152-.643,1.356,1.356,0,0,1-1.152.643m0-2.433a1.1,1.1,0,0,0-.251.029,1.074,1.074,0,1,0,.251-.029" transform="translate(-135.581 -14.981)" fill="#050605"/>
    <path id="Path_1415" data-name="Path 1415" d="M46.807,14.367l54.132-13s5.4-1.581,9.688,1.374c0,0,3.617,1.23,3.728,2.621s-.645,3.591-8.164,5.7c-5.5,1.542-30.462,7.233-43.479,10.179a77.322,77.322,0,0,1-16.056,1.9l-19.486.255-.554-2.228,5.237-2.25L20.985,1.4,24.87.428a3.074,3.074,0,0,1,2.494.457Z" transform="translate(-12.413 -0.199)" fill="#fff"/>
    <path id="Path_1416" data-name="Path 1416" d="M195.7,14.114a1.287,1.287,0,1,1-1.549-.956,1.287,1.287,0,0,1,1.549.956" transform="translate(-114.254 -7.763)" fill="#232426"/>
    <path id="Path_1417" data-name="Path 1417" d="M179.627,17.923a1.287,1.287,0,1,1-1.549-.956,1.287,1.287,0,0,1,1.549.956" transform="translate(-104.747 -10.016)" fill="#232426"/>
    <path id="Path_1418" data-name="Path 1418" d="M163.552,21.732A1.287,1.287,0,1,1,162,20.776a1.287,1.287,0,0,1,1.549.956" transform="translate(-95.238 -12.269)" fill="#232426"/>
    <path id="Path_1419" data-name="Path 1419" d="M147.478,25.542a1.287,1.287,0,1,1-1.549-.956,1.287,1.287,0,0,1,1.549.956" transform="translate(-85.73 -14.522)" fill="#232426"/>
    <path id="Path_1420" data-name="Path 1420" d="M131.4,29.351a1.287,1.287,0,1,1-1.549-.956,1.287,1.287,0,0,1,1.549.956" transform="translate(-76.223 -16.775)" fill="#232426"/>
    <path id="Path_1421" data-name="Path 1421" d="M115.33,33.16a1.287,1.287,0,1,1-1.549-.956,1.287,1.287,0,0,1,1.549.956" transform="translate(-66.715 -19.028)" fill="#232426"/>
    <path id="Path_1422" data-name="Path 1422" d="M99.256,36.969a1.287,1.287,0,1,1-1.549-.956,1.287,1.287,0,0,1,1.549.956" transform="translate(-57.207 -21.281)" fill="#232426"/>
    <path id="Path_1423" data-name="Path 1423" d="M34.956,30.633a.138.138,0,0,1-.134-.1l-.365-1.459a.137.137,0,0,1,.126-.171c8.653-.464,40.553-3.047,87.721-16.822a.137.137,0,0,1,.174.108c0,.005,0,.011,0,.016a.312.312,0,0,1,.015.067,3.186,3.186,0,0,1-1.266,2.705c-1.3,1.156-3.661,2.221-7.012,3.166-5.427,1.53-29.53,7.068-43.415,10.234a79.546,79.546,0,0,1-16.483,1.977l-19.363.282Zm-.192-1.468.3,1.191,19.254-.281a79.253,79.253,0,0,0,16.427-1.97c13.882-3.164,37.98-8.7,43.4-10.23,8.034-2.265,8.146-4.607,8.086-5.49-46.819,13.66-78.579,16.293-87.466,16.78" transform="translate(-20.379 -7.141)" fill="#232426"/>
    <path id="Path_1424" data-name="Path 1424" d="M20.985,1.48,31.671,18.421s13.384-3.2,15.537-3.682L27.642,1.163A3.824,3.824,0,0,0,24.541.6Z" transform="translate(-12.413 -0.285)" fill="#fff"/>
    <path id="Path_1425" data-name="Path 1425" d="M24.363,3.068a3.822,3.822,0,0,0-2.58-.659l-.8.2L31.669,19.544c2.559-.61,6.115-1.456,8.79-2.088l3.459-.819Z" transform="translate(-12.413 -1.413)" fill="#fff"/>
    <path id="Path_1426" data-name="Path 1426" d="M31.47,19.483a.137.137,0,0,1-.116-.064L20.67,2.482a.138.138,0,0,1,.083-.207l.8-.2.019,0a3.958,3.958,0,0,1,2.672.683L43.8,16.325a.137.137,0,0,1-.047.247l-3.459.819c-2.675.632-6.231,1.478-8.79,2.088a.141.141,0,0,1-.032,0M21,2.5,31.534,19.189c2.551-.608,6.053-1.441,8.695-2.065l3.159-.749L24.086,2.982a3.687,3.687,0,0,0-2.477-.636Z" transform="translate(-12.214 -1.214)" fill="#232426"/>
    <path id="Path_1427" data-name="Path 1427" d="M26.971,23.332a.137.137,0,0,1-.133-.1L26.283,21a.138.138,0,0,1,.079-.16l5.09-2.187L20.669,1.268a.138.138,0,0,1,.084-.206L24.638.1a3.211,3.211,0,0,1,2.606.477L46.636,14.019,100.709,1.032c.043-.013,5.016-1.426,9.192,1.01a10.3,10.3,0,0,0,1.273.636c1.378.568,3.038,1.458,3.119,2.471a3.178,3.178,0,0,1-1.267,2.695c-1.3,1.151-3.654,2.21-7,3.147-5.429,1.523-29.576,7.032-43.486,10.181a77.616,77.616,0,0,1-16.085,1.9l-19.486.255Zm-.393-2.285.5,2.008L46.455,22.8a77.317,77.317,0,0,0,16.028-1.9c13.907-3.148,38.049-8.656,43.472-10.178,8.318-2.331,8.127-4.758,8.064-5.555-.054-.672-1.129-1.488-2.95-2.239a10.526,10.526,0,0,1-1.307-.653c-4.075-2.377-8.934-1-8.983-.982l-54.139,13a.14.14,0,0,1-.111-.021L27.087.8A2.937,2.937,0,0,0,24.7.362L21,1.283,31.771,18.644a.138.138,0,0,1-.063.2Z" transform="translate(-12.214 0)" fill="#232426"/>
    <path id="Path_1428" data-name="Path 1428" d="M221.9,6.726l7.618-1.9a12.5,12.5,0,0,0-3.63-1.695l-4.6,1.144A.84.84,0,0,0,220.68,5.3l.2.817a.84.84,0,0,0,1.018.612" transform="translate(-130.517 -1.854)" fill="#232426"/>
    <path id="Path_1429" data-name="Path 1429" d="M103.119,29.349c-.534-.119-.526-.273.017-.339l33.748-4.134a1.476,1.476,0,0,1,1.41.775l.3.623a.8.8,0,0,1-.531,1.156L119.34,32.52a4.752,4.752,0,0,1-1.925.042Z" transform="translate(-60.761 -14.71)" fill="#fff"/>
    <path id="Path_1430" data-name="Path 1430" d="M118.058,32.579a4.127,4.127,0,0,1-.873-.082l-14.3-3.213c-.254-.057-.512-.141-.5-.33s.275-.248.533-.279l33.748-4.134a1.621,1.621,0,0,1,1.551.853l.3.624a.938.938,0,0,1-.619,1.347l-18.72,5.09a4.565,4.565,0,0,1-1.118.125m-15.269-3.605c.041.013.094.027.16.042l14.3,3.213a4.649,4.649,0,0,0,1.859-.04l18.72-5.09a.664.664,0,0,0,.443-.964l-.3-.624a1.345,1.345,0,0,0-1.27-.7l-33.748,4.134c-.067.008-.121.017-.163.026" transform="translate(-60.562 -14.51)" fill="#232426"/>
    <path id="Path_1431" data-name="Path 1431" d="M159.593,30.424l4.615-1.149a.772.772,0,0,1,.936.563l1.163,4.674a.772.772,0,0,1-.563.935L161.129,36.6c-2.182.543-7.638.426-8.061-1.27s4.342-4.359,6.525-4.9" transform="translate(-90.525 -17.303)" fill="#fff"/>
    <path id="Path_1432" data-name="Path 1432" d="M157.963,42.826a17.206,17.206,0,0,1-1.737-.085c-1.187-.122-3.218-.489-3.489-1.579a1.427,1.427,0,0,1,.239-1.085.137.137,0,0,1,.163-.058,13.3,13.3,0,0,0,6.514.578l6.144-1.529a.138.138,0,0,1,.167.1l.151.607a1.776,1.776,0,0,1-.034,1.033.9.9,0,0,1-.61.6l-4.507,1.122a13.423,13.423,0,0,1-3,.292m-4.807-2.51a1.094,1.094,0,0,0-.153.78c.168.677,1.353,1.176,3.251,1.371a15.454,15.454,0,0,0,4.643-.2l4.507-1.122a.637.637,0,0,0,.419-.433,1.5,1.5,0,0,0,.025-.871l-.118-.473-6.01,1.5a13.584,13.584,0,0,1-6.564-.547" transform="translate(-90.326 -23.106)" fill="#232426"/>
    <path id="Path_1433" data-name="Path 1433" d="M45.932,41.125l-9.19,2.288.13.523S39.4,45.585,49.926,42.59l-1.113-.86a3.379,3.379,0,0,0-2.881-.6" transform="translate(-21.733 -24.266)" fill="#fff"/>
    <path id="Path_1434" data-name="Path 1434" d="M37.935,43.292c1.513.258,4.874.315,11.59-1.557l-.006,0a3.379,3.379,0,0,0-2.881-.6Z" transform="translate(-22.439 -24.267)" fill="#fff"/>
    <path id="Path_1436" data-name="Path 1436" d="M39.536,44.33a5.867,5.867,0,0,1-2.938-.48.136.136,0,0,1-.058-.082l-.13-.523a.137.137,0,0,1,.1-.167L45.7,40.79a3.5,3.5,0,0,1,3,.63l1.113.86a.137.137,0,0,1-.047.241A38.849,38.849,0,0,1,39.536,44.33m-2.744-.688c.374.183,3.256,1.32,12.635-1.312l-.9-.693a3.221,3.221,0,0,0-2.764-.58l-9.056,2.254Zm8.941-2.718h0Z" transform="translate(-21.534 -24.065)" fill="#232426"/>
    <path id="Path_1437" data-name="Path 1437" d="M157.963,36.824a17.182,17.182,0,0,1-1.736-.085c-1.187-.122-3.219-.489-3.49-1.579s1.351-2.368,2.342-3.032a15.769,15.769,0,0,1,4.282-2.037l4.616-1.149a.91.91,0,0,1,1.1.663l1.163,4.674a.909.909,0,0,1-.663,1.1l-4.615,1.149a13.422,13.422,0,0,1-3,.293m1.465-6.465a15.441,15.441,0,0,0-4.2,2c-1.585,1.061-2.4,2.059-2.228,2.737s1.353,1.177,3.251,1.372a15.467,15.467,0,0,0,4.643-.2l4.616-1.149a.634.634,0,0,0,.462-.768l-1.163-4.675a.635.635,0,0,0-.769-.462Z" transform="translate(-90.326 -17.103)" fill="#232426"/>
    <path id="Path_1438" data-name="Path 1438" d="M95.925,6.776a.173.173,0,0,1-.125-.292l.592-.618a.173.173,0,0,1,.25.239l-.592.618a.173.173,0,0,1-.125.054" transform="translate(-56.637 -3.437)" fill="#232426"/>
    <path id="Path_1439" data-name="Path 1439" d="M101,1.477a.173.173,0,0,1-.125-.292l.592-.618a.173.173,0,0,1,.25.239l-.592.618a.173.173,0,0,1-.125.054" transform="translate(-59.636 -0.303)" fill="#232426"/>
    <path id="Path_1440" data-name="Path 1440" d="M101.624,6.668a.171.171,0,0,1-.121-.049l-.6-.592a.173.173,0,0,1,.243-.246l.6.592a.172.172,0,0,1-.121.3" transform="translate(-59.653 -3.39)" fill="#232426"/>
    <path id="Path_1441" data-name="Path 1441" d="M96.477,1.6a.171.171,0,0,1-.121-.05l-.6-.592A.173.173,0,0,1,96,.708l.6.592a.173.173,0,0,1-.121.3" transform="translate(-56.608 -0.389)" fill="#232426"/>
    <path id="Path_1442" data-name="Path 1442" d="M5.7,72.448a.173.173,0,0,1-.173-.169l-.019-.856a.173.173,0,0,1,.169-.177.175.175,0,0,1,.176.169l.019.856a.173.173,0,0,1-.169.177Z" transform="translate(-3.258 -42.142)" fill="#232426"/>
    <path id="Path_1443" data-name="Path 1443" d="M5.862,79.78a.174.174,0,0,1-.173-.169l-.019-.855a.173.173,0,1,1,.346-.008l.019.855a.173.173,0,0,1-.169.177Z" transform="translate(-3.354 -46.479)" fill="#232426"/>
    <path id="Path_1444" data-name="Path 1444" d="M1.14,76.331a.173.173,0,0,1,0-.346l.843-.006h0a.173.173,0,0,1,0,.346l-.844.006Z" transform="translate(-0.572 -44.942)" fill="#232426"/>
    <path id="Path_1445" data-name="Path 1445" d="M8.366,76.279a.173.173,0,0,1,0-.346l.843-.006h0a.173.173,0,0,1,0,.346l-.844.006Z" transform="translate(-4.846 -44.911)" fill="#232426"/>
    <path id="Path_1446" data-name="Path 1446" d="M10.242,87.056a1,1,0,1,1-1-1,1,1,0,0,1,1,1" transform="translate(-4.877 -50.903)" fill="#fff"/>
    <path id="Path_1447" data-name="Path 1447" d="M8.993,87.977a1.172,1.172,0,1,1,1.172-1.172,1.173,1.173,0,0,1-1.172,1.172m0-2a.826.826,0,1,0,.826.826.827.827,0,0,0-.826-.826" transform="translate(-4.626 -50.652)" fill="#232426"/>
    <path id="Path_1448" data-name="Path 1448" d="M259.47,46.6a1.376,1.376,0,1,1-1.376-1.376A1.376,1.376,0,0,1,259.47,46.6" transform="translate(-151.849 -26.748)" fill="#fff"/>
    <path id="Path_1449" data-name="Path 1449" d="M257.844,47.9a1.549,1.549,0,1,1,1.549-1.549,1.55,1.55,0,0,1-1.549,1.549m0-2.751a1.2,1.2,0,1,0,1.2,1.2,1.2,1.2,0,0,0-1.2-1.2" transform="translate(-151.598 -26.498)" fill="#232426"/>
    <path id="Path_1450" data-name="Path 1450" d="M230.159,274.061l-.534,5.672a.274.274,0,0,0,.23.315l2.816.174a.242.242,0,0,0,.243-.227l.523-5.155Z" transform="translate(-135.822 -162.107)" fill="#fff"/>
    <path id="Path_1451" data-name="Path 1451" d="M232.436,280.144h-.024l-2.817-.174a.4.4,0,0,1-.285-.148.476.476,0,0,1-.106-.359l.534-5.669a.171.171,0,0,1,.071-.124.169.169,0,0,1,.141-.028l3.279.779a.172.172,0,0,1,.132.185l-.523,5.155a.415.415,0,0,1-.4.383m-2.373-6.12-.516,5.474a.134.134,0,0,0,.027.1.065.065,0,0,0,.042.025l2.817.174c.029,0,.055-.032.061-.076l.507-5Z" transform="translate(-135.572 -161.856)" fill="#232426"/>
    <path id="Path_1452" data-name="Path 1452" d="M227.439,283.937c-.187.67-.581,2.558-.746,3.694a1.422,1.422,0,0,0,1.036,1.574c1.949.527,6.607.5,10.486.676a1,1,0,0,0,.973-.761c.738-2.183-3.338-2.859-7.368-5.078a.233.233,0,0,0-.249.013c-.046.033-.105.074-.175.118a2.7,2.7,0,0,1-2.578.018l-.8-.483a.389.389,0,0,0-.575.23" transform="translate(-134.08 -167.779)" fill="#fff"/>
    <path id="Path_1453" data-name="Path 1453" d="M238,289.8h-.041c-.992-.044-2.05-.076-3.074-.106a42.387,42.387,0,0,1-7.45-.576,1.593,1.593,0,0,1-1.162-1.765c.165-1.131.557-3.02.751-3.715a.562.562,0,0,1,.831-.332l.8.483a2.53,2.53,0,0,0,2.4-.016c.067-.042.123-.081.167-.112a.4.4,0,0,1,.433-.024c1.215.669,2.444,1.2,3.529,1.671,2.6,1.128,4.485,1.942,3.92,3.614a1.182,1.182,0,0,1-1.1.88m-10.643-6.07c-.19.68-.583,2.583-.742,3.672a1.249,1.249,0,0,0,.91,1.382,42.43,42.43,0,0,0,7.37.563c1.025.031,2.084.063,3.079.106a.823.823,0,0,0,.8-.644c.463-1.37-1.3-2.132-3.729-3.185-1.092-.473-2.329-1.008-3.558-1.686a.061.061,0,0,0-.065,0c-.049.034-.11.077-.183.123a2.874,2.874,0,0,1-2.759.021l-.8-.484a.216.216,0,0,0-.319.129" transform="translate(-133.829 -167.529)" fill="#232426"/>
    <path id="Path_1454" data-name="Path 1454" d="M226.4,293.695c0,.02-.007.034-.007.04-.1.713.573,1.151,1.22,1.454,1.92.9,9.674.385,9.974.365h.016c.1,0,1.081,0,1.365-.61a1.066,1.066,0,0,0,.07-.283,1.408,1.408,0,0,0-.026-.491.236.236,0,0,0-.288-.181,28.23,28.23,0,0,1-8.158.121,8.664,8.664,0,0,1-3.72-1.042.237.237,0,0,0-.354.16c-.027.136-.059.3-.092.469" transform="translate(-133.906 -173.328)" fill="#fff"/>
    <path id="Path_1455" data-name="Path 1455" d="M232.451,295.645a15.932,15.932,0,0,1-5.161-.55c-.625-.294-1.442-.782-1.318-1.636,0-.008,0-.025.009-.048l.092-.469a.414.414,0,0,1,.237-.3.409.409,0,0,1,.375.023,8.582,8.582,0,0,0,3.65,1.019,28.033,28.033,0,0,0,8.1-.116.4.4,0,0,1,.313.047.409.409,0,0,1,.187.263,1.575,1.575,0,0,1,.028.552,1.184,1.184,0,0,1-.085.333c-.329.709-1.4.71-1.524.711-.433.029-2.626.17-4.9.17m-5.975-2.69a.065.065,0,0,0-.025.005.066.066,0,0,0-.038.049l-.092.469h0l-.006.032c-.07.482.276.875,1.123,1.272,1.874.879,9.562.371,9.888.348h.028c.042,0,.967.009,1.208-.511a.836.836,0,0,0,.056-.233,1.24,1.24,0,0,0-.023-.431.07.07,0,0,0-.03-.044.059.059,0,0,0-.047-.007,28.365,28.365,0,0,1-8.219.125,8.9,8.9,0,0,1-3.79-1.066.06.06,0,0,0-.032-.009m-.326.489h0Z" transform="translate(-133.655 -173.078)" fill="#232426"/>
    <path id="Path_1456" data-name="Path 1456" d="M239.691,287.549a.173.173,0,0,1-.1-.31l1.176-.9a.173.173,0,1,1,.21.275l-1.176.9a.173.173,0,0,1-.1.035" transform="translate(-141.675 -169.351)" fill="#232426"/>
    <path id="Path_1457" data-name="Path 1457" d="M243.518,289.3a.173.173,0,0,1-.1-.311l1.029-.772a.173.173,0,0,1,.208.277l-1.029.772a.173.173,0,0,1-.1.035" transform="translate(-143.938 -170.457)" fill="#232426"/>
    <path id="Path_1458" data-name="Path 1458" d="M191.926,145.637a36.468,36.468,0,0,0-2.987,9.185c-.7,4.387-3.274,22.449-9.546,36.937a2.615,2.615,0,0,0,1.859,3.732c.7.152.993-.1,1.6-.391a5.474,5.474,0,0,0,.83-.6s11.1-9.28,15.631-33.629c2.912-15.661,2.428-14.419,2.428-14.419Z" transform="translate(-105.96 -86.144)" fill="#232426"/>
    <path id="Path_1459" data-name="Path 1459" d="M217.575,150.648s-1.3,8.5,1.162,14.788c2.371,6.047,3.884,29.751,3,36.6a.79.79,0,0,0,.674.885,15.594,15.594,0,0,0,4.353.109.635.635,0,0,0,.5-.467c.878-3.475,8.16-34.883,3.026-50.978Z" transform="translate(-128.492 -89.108)" fill="#232426"/>
    <path id="Path_1460" data-name="Path 1460" d="M220.179,189.529a.173.173,0,0,1-.172-.163,21.587,21.587,0,0,0-1.632-6.4,14.215,14.215,0,0,1-.954-3.681.173.173,0,0,1,.343-.046,13.874,13.874,0,0,0,.929,3.591,21.926,21.926,0,0,1,1.659,6.518.173.173,0,0,1-.162.183h-.011" transform="translate(-128.603 -105.93)" fill="#fff"/>
    <path id="Path_1461" data-name="Path 1461" d="M226.793,170.466a2.288,2.288,0,0,1-1.34-.432l-1.51-1.092a2.064,2.064,0,0,1-.854-1.567l-.259-4.806a.724.724,0,0,1,.828-.755,27.943,27.943,0,0,0,6.676.168.724.724,0,0,1,.8.7l.147,4.589a2.065,2.065,0,0,1-1.224,1.957l-2.333,1.044a2.276,2.276,0,0,1-.931.2m-3.24-8.315a.378.378,0,0,0-.377.4l.258,4.806a1.718,1.718,0,0,0,.712,1.306l1.51,1.092a1.941,1.941,0,0,0,1.927.2l2.333-1.044a1.719,1.719,0,0,0,1.019-1.63l-.146-4.59a.373.373,0,0,0-.129-.272.378.378,0,0,0-.29-.091,28.307,28.307,0,0,1-6.762-.17.355.355,0,0,0-.055,0" transform="translate(-131.804 -95.707)" fill="#fff"/>
    <path id="Path_1462" data-name="Path 1462" d="M202.576,167.889a.734.734,0,0,1-.426-.136l-.288-.2a.173.173,0,1,1,.2-.282l.288.2a.392.392,0,0,0,.4.029l2.568-1.305a.39.39,0,0,0,.212-.308l.579-5.347a.392.392,0,0,0-.33-.43l-3.128-.484a.173.173,0,0,1,.053-.342l3.127.484a.738.738,0,0,1,.621.809l-.579,5.347a.735.735,0,0,1-.4.579l-2.568,1.305a.739.739,0,0,1-.335.08" transform="translate(-119.358 -94.215)" fill="#fff"/>
    <path id="Path_1463" data-name="Path 1463" d="M178.567,265.685a7.559,7.559,0,0,1,1.313-3.384c.611-.981-.873-2.46-1.629-2.573-1.26-.259-1.059.14-2.5,1.988l-1.129,1.388s3.647,4.076,3.946,2.581" transform="translate(-103.288 -153.587)" fill="#fff"/>
    <path id="Path_1464" data-name="Path 1464" d="M177.976,267.153c-1.026,0-3.275-2.453-3.734-2.966a.172.172,0,0,1,0-.225l1.072-1.308a11.805,11.805,0,0,0,.866-1.279.173.173,0,0,1,.3.178,12.136,12.136,0,0,1-.892,1.317l-.98,1.2c1.142,1.258,2.9,2.882,3.425,2.736.025-.007.091-.025.123-.184a7.474,7.474,0,0,1,1.053-3.049.173.173,0,1,1,.3.178,7.135,7.135,0,0,0-1.011,2.94.522.522,0,0,1-.372.449.541.541,0,0,1-.139.017" transform="translate(-103.038 -154.554)" fill="#232426"/>
    <path id="Path_1465" data-name="Path 1465" d="M175.534,268.38l-1.46-2.2a1.963,1.963,0,0,0-3.01-.318l-1.671,1.4a4.281,4.281,0,0,0-.218,1.586,13.12,13.12,0,0,0,.9,3.108c.776,1.76,2.922,5.3,3.686,6.539.16.26.561.518.839.393a3.9,3.9,0,0,0,1.006-.726c.513-.481.341-2.732.157-4.3a44.25,44.25,0,0,1,.013-4.624,1.447,1.447,0,0,0-.24-.859" transform="translate(-100.056 -156.925)" fill="#fff"/>
    <path id="Path_1466" data-name="Path 1466" d="M174.186,278.844a1.091,1.091,0,0,1-.826-.509c-.855-1.391-2.928-4.814-3.7-6.56a13.322,13.322,0,0,1-.909-3.15,4.394,4.394,0,0,1,.225-1.668.173.173,0,0,1,.053-.078l1.671-1.4a2.136,2.136,0,0,1,3.265.355l1.46,2.2a1.612,1.612,0,0,1,.269.962,44.174,44.174,0,0,0-.014,4.6c.449,3.826-.048,4.291-.211,4.444a4.005,4.005,0,0,1-1.054.758.567.567,0,0,1-.231.048m-4.894-11.733a3.953,3.953,0,0,0-.2,1.458,12.981,12.981,0,0,0,.884,3.067c.782,1.774,3.011,5.438,3.675,6.518.128.209.446.4.622.326a3.671,3.671,0,0,0,.958-.695c.16-.15.491-.855.1-4.152a44.412,44.412,0,0,1,.012-4.651,1.267,1.267,0,0,0-.212-.757l-1.46-2.2a1.791,1.791,0,0,0-2.745-.29Z" transform="translate(-99.805 -156.674)" fill="#232426"/>
    <path id="Path_1467" data-name="Path 1467" d="M182.671,278.285a.176.176,0,0,1-.046-.006l-1.571-.432a.173.173,0,0,1,.092-.333l1.571.432a.173.173,0,0,1-.046.339" transform="translate(-107.018 -164.145)" fill="#232426"/>
    <path id="Path_1468" data-name="Path 1468" d="M182.385,281.718a.179.179,0,0,1-.046-.006l-1.571-.432a.173.173,0,0,1,.091-.333l1.572.432a.173.173,0,0,1-.046.339" transform="translate(-106.849 -166.176)" fill="#232426"/>
    <path id="Path_1469" data-name="Path 1469" d="M173.43,280.669a1.392,1.392,0,0,0,.451-.073,1.914,1.914,0,0,0,1.512-2.194c-.136-1.744-1.462-2.632-2.43-3.776-.739-.873-.665-4.525-.9-5.24a1.827,1.827,0,0,0-2.377-1.153,3,3,0,0,0-.853.694,4.65,4.65,0,0,0-.607,3.058,17.2,17.2,0,0,0,2.661,7.578,3.137,3.137,0,0,0,2.542,1.106" transform="translate(-99.497 -158.59)" fill="#fff"/>
    <path id="Path_1470" data-name="Path 1470" d="M173.18,280.591a3.337,3.337,0,0,1-2.678-1.174,17.441,17.441,0,0,1-2.7-7.674c-.049-.873-.03-2.449.653-3.185a3.054,3.054,0,0,1,.917-.737,1.949,1.949,0,0,1,1.552.064,2.027,2.027,0,0,1,1.052,1.2,9.337,9.337,0,0,1,.183,1.565c.1,1.3.23,3.083.682,3.616.22.259.464.512.7.757a4.969,4.969,0,0,1,1.769,3.118,2.059,2.059,0,0,1-1.587,2.356l-.041.014a1.555,1.555,0,0,1-.507.083m-3.1-12.555a1.6,1.6,0,0,0-.575.108,2.7,2.7,0,0,0-.788.65,4.328,4.328,0,0,0-.561,2.931,17.007,17.007,0,0,0,2.625,7.482,3,3,0,0,0,2.4,1.039,1.2,1.2,0,0,0,.394-.064l.042-.015a1.734,1.734,0,0,0,1.353-2,4.635,4.635,0,0,0-1.673-2.9c-.241-.248-.489-.505-.717-.774-.524-.619-.656-2.391-.763-3.814a9.737,9.737,0,0,0-.167-1.484,1.676,1.676,0,0,0-.871-.991,1.635,1.635,0,0,0-.7-.161" transform="translate(-99.247 -158.338)" fill="#232426"/>
    <path id="Path_1471" data-name="Path 1471" d="M173.415,282.008a4.4,4.4,0,0,1-.562-.036.173.173,0,0,1,.044-.343,4.012,4.012,0,0,0,.518.033,1.05,1.05,0,0,0,.8-.33.805.805,0,0,0,.185-.659,5.7,5.7,0,0,0-2.175-3.552c-.9-.865-1.114-3.586-1.228-5.048-.029-.37-.054-.69-.077-.775a1.493,1.493,0,0,0-1.241-.857,1.106,1.106,0,0,0-1.169.627.173.173,0,0,1-.306-.162,1.463,1.463,0,0,1,1.512-.808,1.843,1.843,0,0,1,1.537,1.109,6.529,6.529,0,0,1,.089.84c.1,1.315.315,4.051,1.122,4.825a6.052,6.052,0,0,1,2.278,3.754,1.158,1.158,0,0,1-.267.934,1.4,1.4,0,0,1-1.062.449" transform="translate(-99.482 -159.756)" fill="#232426"/>
    <path id="Path_1472" data-name="Path 1472" d="M224.282,78.84l1.056-5.8,4.722,1.215-.652,4.035Z" transform="translate(-132.663 -43.205)" fill="#fff"/>
    <path id="Path_1473" data-name="Path 1473" d="M224.032,78.762a.172.172,0,0,1-.127-.055.174.174,0,0,1-.044-.149l1.056-5.8a.173.173,0,0,1,.213-.136l4.722,1.214a.173.173,0,0,1,.127.2l-.652,4.035a.173.173,0,0,1-.152.144l-5.126.546h-.018m1.193-5.755-.981,5.386,4.765-.507.605-3.749Z" transform="translate(-132.412 -42.955)" fill="#232426"/>
    <path id="Path_1474" data-name="Path 1474" d="M225.445,53.905c-1.688.229-1.917,2.134-3.934,2.358-.924.1-1.389-.241-2.208.153a2.423,2.423,0,0,0-1.412,1.718c-.1,1.057,1.056,1.285,2.24,3.32.831,1.429.882,2.386,1.543,2.489s.968-.819,1.707-.76c.956.077,1.081,1.674,2.09,2.15.636.3,1.969.237,3.849-1.171a.79.79,0,0,0,.234-.983c-.217-.437-.5-.987-.8-1.491-1.475-2.4-2.515-2.805-2.31-3.541.315-1.128,2.384-.919,2.543-1.826.165-.942-1.806-2.651-3.539-2.415" transform="translate(-128.879 -31.872)" fill="#232426"/>
    <path id="Path_1475" data-name="Path 1475" d="M229.684,63.2l.449-.234s1.456,3.039,2.025,3.817,3.114-.8,3.114-.8l.063-.561.3-.2a.372.372,0,0,0,.059-.577,13.548,13.548,0,0,1-2.55-3.334,4.109,4.109,0,0,0-3.464,1.889" transform="translate(-135.858 -36.264)" fill="#fff"/>
    <path id="Path_1476" data-name="Path 1476" d="M232.449,66.92a.793.793,0,0,1-.681-.286A39.019,39.019,0,0,1,229.8,62.95l-.291.152a.173.173,0,0,1-.224-.248,4.243,4.243,0,0,1,3.619-1.967.173.173,0,0,1,.146.1,13.511,13.511,0,0,0,2.516,3.285.546.546,0,0,1-.086.844l-.236.154-.054.48a.172.172,0,0,1-.08.127,6.627,6.627,0,0,1-2.665,1.044m-2.5-4.364a.172.172,0,0,1,.088.085c.015.03,1.455,3.033,2.009,3.79.32.438,1.811-.2,2.812-.8l.053-.478a.173.173,0,0,1,.078-.126l.3-.2a.2.2,0,0,0,.031-.309,13.832,13.832,0,0,1-2.538-3.284,3.99,3.99,0,0,0-2.838,1.324" transform="translate(-135.608 -36.013)" fill="#232426"/>
    <path id="Path_1477" data-name="Path 1477" d="M229.372,70.016s-1.171-1.433-1.71-.762a.937.937,0,1,0,1.71.762" transform="translate(-134.589 -40.858)" fill="#fff"/>
    <path id="Path_1478" data-name="Path 1478" d="M139.87,197.148l7.649-18a2.075,2.075,0,0,1,1.91-1.263h4.029a2.075,2.075,0,0,1,1.91,2.886l-6.96,16.38h2.05l6.924-16.307a3.643,3.643,0,0,0-3.488-5.078h-4.2a4.021,4.021,0,0,0-3.856,2.359l-8.078,19.026Z" transform="translate(-81.484 -103.964)" fill="#fff"/>
    <path id="Path_1479" data-name="Path 1479" d="M150.207,197.07h-2.05a.173.173,0,0,1-.159-.241l6.96-16.38a1.9,1.9,0,0,0-1.75-2.646h-4.029a1.9,1.9,0,0,0-1.75,1.158l-7.649,18a.173.173,0,0,1-.159.105h-2.111a.173.173,0,0,1-.159-.241l8.079-19.026a4.164,4.164,0,0,1,4.015-2.464h4.2a3.983,3.983,0,0,1,3.351,1.747,3.728,3.728,0,0,1,.3,3.572l-6.924,16.307a.174.174,0,0,1-.159.105m-1.788-.346h1.674l6.879-16.2a3.388,3.388,0,0,0-.267-3.246,3.638,3.638,0,0,0-3.062-1.592h-4.2a3.829,3.829,0,0,0-3.7,2.254l-7.976,18.785h1.736l7.6-17.9a2.245,2.245,0,0,1,2.069-1.369h4.029a2.248,2.248,0,0,1,2.069,3.127Z" transform="translate(-81.234 -103.713)" fill="#232426"/>
    <path id="Path_1480" data-name="Path 1480" d="M126.2,245.706l-12.186-.206a8.007,8.007,0,0,1-6.083-3.133l18.724-25.747c.452-1.071,5.272-3.945,6.435-3.945,0,0,5.115,2.46,5.618,2.913a2.887,2.887,0,0,1,.736,3.283l-10.579,25.068a2.892,2.892,0,0,1-2.665,1.768" transform="translate(-63.841 -125.797)" fill="#fff"/>
    <path id="Path_1481" data-name="Path 1481" d="M119.945,242.654H108.833a2.414,2.414,0,0,1-2.224-3.353l10.983-26.026a2.414,2.414,0,0,1,2.224-1.475h11.111a2.414,2.414,0,0,1,2.224,3.353l-10.983,26.026a2.414,2.414,0,0,1-2.224,1.476" transform="translate(-62.945 -125.28)" fill="#fff"/>
    <path id="Path_1482" data-name="Path 1482" d="M119.7,242.577H108.586a2.587,2.587,0,0,1-2.384-3.593l10.983-26.026a2.582,2.582,0,0,1,2.384-1.581h11.112a2.587,2.587,0,0,1,2.383,3.593L122.081,241a2.582,2.582,0,0,1-2.384,1.581m-.128-30.854a2.237,2.237,0,0,0-2.065,1.37l-10.983,26.026a2.241,2.241,0,0,0,2.065,3.113H119.7a2.237,2.237,0,0,0,2.065-1.37l10.983-26.026a2.241,2.241,0,0,0-2.065-3.113Z" transform="translate(-62.698 -125.029)" fill="#232426"/>
    <path id="Path_1483" data-name="Path 1483" d="M136.049,244.3a.974.974,0,0,1-.9-1.353l9.108-21.584a.974.974,0,0,1,1.795.757L136.946,243.7a.974.974,0,0,1-.9.6" transform="translate(-79.897 -130.582)" fill="#232426"/>
    <path id="Path_1484" data-name="Path 1484" d="M126.329,244.3a.974.974,0,0,1-.9-1.353l9.108-21.584a.974.974,0,0,1,1.795.757L127.226,243.7a.974.974,0,0,1-.9.6" transform="translate(-74.147 -130.582)" fill="#232426"/>
    <path id="Path_1485" data-name="Path 1485" d="M116.608,244.3a.974.974,0,0,1-.9-1.353l9.108-21.584a.974.974,0,0,1,1.795.757L117.506,243.7a.974.974,0,0,1-.9.6" transform="translate(-68.397 -130.582)" fill="#232426"/>
    <path id="Path_1486" data-name="Path 1486" d="M140.91,293.225a1.757,1.757,0,1,1-1.757-1.757,1.756,1.756,0,0,1,1.757,1.757" transform="translate(-81.27 -172.403)" fill="#232426"/>
    <path id="Path_1487" data-name="Path 1487" d="M124.989,292.941a1.757,1.757,0,1,1-1.757-1.757,1.756,1.756,0,0,1,1.757,1.757" transform="translate(-71.852 -172.235)" fill="#232426"/>
    <path id="Path_1488" data-name="Path 1488" d="M126.511,245.63l-12.189-.206A8.168,8.168,0,0,1,108.5,242.7a.173.173,0,0,1,.257-.232,7.814,7.814,0,0,0,5.567,2.614l12.189.205a2.713,2.713,0,0,0,2.5-1.663L139.6,218.554a2.73,2.73,0,0,0-.692-3.087c-.4-.357-4.161-2.2-5.578-2.885a.173.173,0,1,1,.15-.312c.526.253,5.152,2.484,5.659,2.94a3.075,3.075,0,0,1,.78,3.478l-10.579,25.068a3.06,3.06,0,0,1-2.825,1.874" transform="translate(-64.152 -125.547)" fill="#232426"/>
    <path id="Path_1489" data-name="Path 1489" d="M172.8,163.394l-2.134-.388s-.277,2.394-.788,2.92a24.14,24.14,0,0,0-1.865,1.712c-1.755,2.822,3.622,5.572,3.052,3.434-.465-1.745.222-2.341.222-2.341a2.068,2.068,0,0,1,1.925-.206c.427-.776-.059-1.951-.386-2.581a1.79,1.79,0,0,1-.188-1.012Z" transform="translate(-99.169 -96.418)" fill="#fff"/>
    <path id="Path_1490" data-name="Path 1490" d="M170.329,171.756a3.5,3.5,0,0,1-2.178-1.167,2.578,2.578,0,0,1-.539-3.293,3.59,3.59,0,0,1,.834-.81,10.739,10.739,0,0,0,1.054-.931,7.856,7.856,0,0,0,.74-2.819.172.172,0,0,1,.2-.15l2.133.388a.173.173,0,0,1,.141.188l-.162,1.538a1.611,1.611,0,0,0,.169.914c.344.662.85,1.9.384,2.744a.194.194,0,0,1-.253.068,1.683,1.683,0,0,0-1.71.185s-.594.567-.168,2.166c.151.567-.089.8-.246.887a.82.82,0,0,1-.4.092m.232-8.8a7.2,7.2,0,0,1-.813,2.837,11.108,11.108,0,0,1-1.086.96,3.383,3.383,0,0,0-.756.723,2.313,2.313,0,0,0,.495,2.871c.768.8,1.81,1.21,2.162,1.013.123-.069.15-.237.081-.5-.488-1.828.244-2.489.276-2.516a1.966,1.966,0,0,1,1.944-.283,3.209,3.209,0,0,0-.447-2.294,1.96,1.96,0,0,1-.206-1.11l.145-1.378Z" transform="translate(-98.918 -96.168)" fill="#232426"/>
    <path id="Path_1491" data-name="Path 1491" d="M171.706,122.61l4.15-.149s4.46-13.8,12.2-18.848l-1.028-11.828s-14.108,5.692-15.32,30.824" transform="translate(-101.564 -54.291)" fill="#9ca777"/>
    <path id="Path_1492" data-name="Path 1492" d="M204.093,125.829l-3.1,14.74s12.633,2.167,17.036,1.376,4.917-1.952,4.917-1.952l-1.861-16.212Z" transform="translate(-118.886 -73.217)" fill="#fff"/>
    <path id="Path_1493" data-name="Path 1493" d="M215.2,142.044a110.774,110.774,0,0,1-14.492-1.554.173.173,0,0,1-.14-.206l3.1-14.74a.173.173,0,0,1,.148-.136l16.99-2.047a.173.173,0,0,1,.193.152l1.861,16.212a.174.174,0,0,1-.014.09c-.022.051-.6,1.254-5.045,2.052a15.425,15.425,0,0,1-2.6.178m-14.256-1.865c1.547.257,12.757,2.072,16.8,1.346,3.775-.678,4.632-1.63,4.769-1.821l-1.835-15.98-16.694,2.011Z" transform="translate(-118.636 -72.967)" fill="#232426"/>
    <path id="Path_1494" data-name="Path 1494" d="M233.152,86.059s2.239,20.212,12.856,20.392c2.948.049,3.2-6.2,1.812-11.759-.216-.863-1.192-2.313-2.074-2.193-1.285.174-2.837,1.2-2.885.747-.47-4.413-3.86-7.055-8.412-7.136Z" transform="translate(-137.909 -50.904)" fill="#9ca777"/>
    <path id="Path_1495" data-name="Path 1495" d="M222.409,91.42c-1.169-3.231-5.582-6.261-9.015-6.11a16.531,16.531,0,0,0-4.183.681l-6.372,2-2.757,21.1a2.175,2.175,0,0,0,1.4,2.325A41.031,41.031,0,0,0,221.707,113a2.176,2.176,0,0,0,1.84-2.1c.088-3.538,1.439-10.561.438-15.122Z" transform="translate(-118.338 -50.458)" fill="#9ca777"/>
    <path id="Path_1496" data-name="Path 1496" d="M258.273,112.008h-.018a.173.173,0,0,1-.154-.19,22.617,22.617,0,0,0-.964-7.953.173.173,0,1,1,.332-.1,22.626,22.626,0,0,1,.976,8.084.173.173,0,0,1-.172.155" transform="translate(-152.092 -61.305)" fill="#fff"/>
    <path id="Path_1497" data-name="Path 1497" d="M213.985,85.841a40.848,40.848,0,0,0-9.912.342c-2.6.515-7.539,2.434-3.771,6.308s6.362,3.5,7.6,1.338,3.458-7.18,6.079-7.988" transform="translate(-117.669 -50.681)" fill="#fff"/>
    <path id="Path_1498" data-name="Path 1498" d="M205.11,95.366c-1.484,0-3.266-1.029-5.184-3-1.2-1.23-1.638-2.382-1.314-3.423.68-2.183,4.431-3.028,5.176-3.175a41.328,41.328,0,0,1,9.962-.345.173.173,0,0,1,.034.337c-2.108.65-4.007,4.226-5.264,6.592-.259.487-.5.947-.715,1.317a3.109,3.109,0,0,1-2.313,1.674,3.019,3.019,0,0,1-.382.024m4.748-9.755a32.187,32.187,0,0,0-6,.5c-1.965.388-4.43,1.391-4.913,2.939-.283.911.131,1.947,1.232,3.079,2.007,2.063,3.831,3.058,5.275,2.875a2.776,2.776,0,0,0,2.056-1.5c.209-.365.453-.823.71-1.307,1.158-2.179,2.849-5.363,4.816-6.475-.684-.045-1.826-.1-3.173-.1" transform="translate(-117.418 -50.435)" fill="#232426"/>
    <path id="Path_1499" data-name="Path 1499" d="M204.559,91.442a3.1,3.1,0,0,1-1.985-.745.173.173,0,0,1,.215-.271c1.737,1.381,3.508.551,6.588-1.7.442-.323.837-.59,1.175-.793a.173.173,0,1,1,.179.3c-.329.2-.716.459-1.149.776-2.092,1.529-3.653,2.439-5.022,2.439" transform="translate(-119.784 -51.996)" fill="#232426"/>
    <path id="Path_1500" data-name="Path 1500" d="M255.769,95.7a1.013,1.013,0,0,0,.277-.994,3.292,3.292,0,0,1-.107-.971,4.542,4.542,0,0,0-1.051-3.139,4.718,4.718,0,0,0-3.443-.626.446.446,0,0,0-.376.379c-.016.154.047.337.328.5.511.288.781.071,1.135.294.44.276,1.289,1.683.7,2.015-.534.3-.716-1.007-1.137-1.282a.644.644,0,0,0-.941.2c-.293.492,1.245,2.574,1.9,3.086.241.187.547.426.837.654a1.422,1.422,0,0,0,1.854-.087Z" transform="translate(-148.506 -53.171)" fill="#fff"/>
    <path id="Path_1501" data-name="Path 1501" d="M254.519,96.029a1.588,1.588,0,0,1-.982-.336l-.837-.653c-.618-.48-2.333-2.662-1.947-3.31a.806.806,0,0,1,.512-.383.864.864,0,0,1,.672.132,1.733,1.733,0,0,1,.486.718c.114.239.257.538.382.577.011,0,.036.012.09-.019s.109-.079.112-.234a2.4,2.4,0,0,0-.82-1.483.734.734,0,0,0-.394-.095,1.5,1.5,0,0,1-.734-.195.669.669,0,0,1-.415-.663.619.619,0,0,1,.518-.532,4.886,4.886,0,0,1,3.588.667,4.683,4.683,0,0,1,1.108,3.277,3.1,3.1,0,0,0,.1.92,1.187,1.187,0,0,1-.325,1.163l-.019.018a1.6,1.6,0,0,1-1.1.433m-3.072-4.358a.429.429,0,0,0-.1.012.46.46,0,0,0-.293.223c-.2.333,1.153,2.31,1.862,2.86l.838.654a1.256,1.256,0,0,0,1.629-.076l.019-.018a.841.841,0,0,0,.228-.825,3.448,3.448,0,0,1-.112-1.022,4.378,4.378,0,0,0-.993-3,4.556,4.556,0,0,0-3.3-.585.274.274,0,0,0-.234.227c0,.045-.018.181.241.327a1.159,1.159,0,0,0,.583.151,1.053,1.053,0,0,1,.559.147,2.72,2.72,0,0,1,.982,1.784.578.578,0,0,1-.288.528.447.447,0,0,1-.364.047c-.268-.085-.424-.412-.59-.758a1.663,1.663,0,0,0-.362-.577.556.556,0,0,0-.3-.1" transform="translate(-148.255 -52.922)" fill="#232426"/>
    <path id="Path_1502" data-name="Path 1502" d="M233.612,92.213s.2-9.283,4.284-5.611c0,0-1.632-2.958-4.284-1.53s-2.754,6.937-2.754,6.937Z" transform="translate(-136.552 -50.09)" fill="#fff"/>
    <path id="Path_1503" data-name="Path 1503" d="M233.361,92.136h-.013l-2.754-.2a.173.173,0,0,1-.16-.176c0-.229.135-5.626,2.845-7.086,2.771-1.492,4.5,1.568,4.518,1.6a.173.173,0,0,1-.267.212c-.8-.721-1.49-.964-2.047-.725-1.808.781-1.948,6.156-1.949,6.21a.173.173,0,0,1-.173.169m-2.575-.537,2.408.179c.04-.989.323-5.547,2.152-6.338a1.689,1.689,0,0,1,1.473.117,2.667,2.667,0,0,0-3.376-.581c-2.283,1.229-2.613,5.71-2.657,6.624" transform="translate(-136.302 -49.84)" fill="#232426"/>
    <path id="Path_1504" data-name="Path 1504" d="M217.427,98.61a4.827,4.827,0,0,1,5.691,1.529,14.564,14.564,0,0,1,2.1,4.085c1.989,5.717,2.859,13.3,2.486,15.288s-2.074,2.953-4.3,3.746c-1.142.406-6.124.172-9.472-.041a3.488,3.488,0,0,1-3.264-3.35c-.153-4.054-.342-10.9.008-13.4.632-4.5,4.186-6.779,6.748-7.851" transform="translate(-124.499 -58.108)" fill="#fff"/>
    <path id="Path_1505" data-name="Path 1505" d="M220.276,123.4c-1.93,0-4.429-.125-6.6-.264a3.651,3.651,0,0,1-3.426-3.516c-.149-3.931-.345-10.9.01-13.436.631-4.5,4.075-6.824,6.853-7.987a4.994,4.994,0,0,1,5.9,1.584,14.834,14.834,0,0,1,2.129,4.133c1.928,5.543,2.888,13.27,2.493,15.377-.407,2.172-2.361,3.147-4.412,3.877a11.556,11.556,0,0,1-2.939.232m-3.1-25.043.067.16c-2.7,1.127-6.036,3.382-6.643,7.715-.351,2.5-.155,9.455-.007,13.375a3.306,3.306,0,0,0,3.1,3.184c5.22.333,8.56.351,9.4.051,2.258-.8,3.834-1.726,4.188-3.614.346-1.842-.444-9.35-2.479-15.2a14.509,14.509,0,0,0-2.077-4.037,4.649,4.649,0,0,0-5.487-1.474Z" transform="translate(-124.249 -57.856)" fill="#232426"/>
    <path id="Path_1506" data-name="Path 1506" d="M218.046,134.833s1.743,8.5,1.743,9.479-1.089.981-2.506,1.089-9.043.545-11.113-1.416-2.179-8.716-1.416-9.7a9.735,9.735,0,0,1,2.179-1.852,30.162,30.162,0,0,0,9.588.654s.976-.25,1.525,1.743" transform="translate(-120.855 -78.336)" fill="#fff"/>
    <path id="Path_1507" data-name="Path 1507" d="M213.718,145.444c-2.8,0-6.524-.268-7.913-1.583-2.188-2.073-2.214-8.925-1.434-9.929a9.782,9.782,0,0,1,2.225-1.893.176.176,0,0,1,.132-.02,30.246,30.246,0,0,0,9.517.651c.136-.028,1.162-.163,1.721,1.868l0,.011c.071.348,1.747,8.527,1.747,9.514,0,1.068-1.092,1.147-2.355,1.239l-.31.023c-.341.026-1.676.12-3.333.12m-7-13.072a9.383,9.383,0,0,0-2.074,1.773c-.725.932-.627,7.545,1.4,9.465,1.706,1.617,7.705,1.622,10.981,1.37l.311-.023c1.337-.1,2.035-.181,2.035-.894,0-.942-1.685-9.178-1.739-9.439-.491-1.775-1.309-1.617-1.317-1.615l-.018,0a30.439,30.439,0,0,1-9.579-.64" transform="translate(-120.61 -78.086)" fill="#232426"/>
    <path id="Path_1508" data-name="Path 1508" d="M227.868,124.661a.173.173,0,0,1-.172-.152,51.994,51.994,0,0,0-2.288-10.254,14.489,14.489,0,0,0-2.077-4.037,4.648,4.648,0,0,0-5.487-1.474,13.983,13.983,0,0,0-2.679,1.467.173.173,0,0,1-.2-.282,14.333,14.333,0,0,1,2.745-1.5,4.994,4.994,0,0,1,5.9,1.583,14.878,14.878,0,0,1,2.129,4.133,52.415,52.415,0,0,1,2.3,10.326.173.173,0,0,1-.151.193h-.021" transform="translate(-127.108 -63.905)" fill="#232426"/>
    <path id="Path_1509" data-name="Path 1509" d="M214.593,141.04c-2.8,0-6.524-.268-7.913-1.583a.173.173,0,1,1,.238-.251c1.706,1.616,7.706,1.621,10.981,1.369a.173.173,0,0,1,.027.345c-.341.027-1.676.12-3.333.12" transform="translate(-122.22 -82.312)" fill="#232426"/>
    <path id="Path_1510" data-name="Path 1510" d="M38.941,277.806l-.97,5.512,2.865.336,1.169-5.175Z" transform="translate(-22.46 -164.322)" fill="#fff"/>
    <path id="Path_1511" data-name="Path 1511" d="M40.587,283.577h-.02L37.7,283.24a.174.174,0,0,1-.118-.069.171.171,0,0,1-.031-.133l.969-5.512a.175.175,0,0,1,.074-.114.172.172,0,0,1,.133-.025l3.065.673a.174.174,0,0,1,.132.207l-1.169,5.175a.173.173,0,0,1-.168.135m-2.663-.66,2.529.3,1.1-4.854-2.718-.6Z" transform="translate(-22.21 -164.072)" fill="#232426"/>
    <path id="Path_1512" data-name="Path 1512" d="M37.412,287.622a2.427,2.427,0,0,1-2.692-.607l-.36-.391a.286.286,0,0,0-.446.033l-2.02,2.977a1.291,1.291,0,0,0,.127,1.652,12.67,12.67,0,0,0,2.491,1.9c1.984,1.128,3.7,3.533,5.727,2.951s1.924-.679,2.154-1.319-.742-1.958-2.358-3.432a11.963,11.963,0,0,1-2.252-3.605.284.284,0,0,0-.371-.157" transform="translate(-18.724 -169.484)" fill="#fff"/>
    <path id="Path_1513" data-name="Path 1513" d="M39.366,296.146c-1.209,0-2.317-.894-3.394-1.763a14.169,14.169,0,0,0-1.793-1.3,12.9,12.9,0,0,1-2.525-1.925,1.471,1.471,0,0,1-.146-1.879l2.015-2.971a.456.456,0,0,1,.346-.2.448.448,0,0,1,.371.146l.36.391a2.264,2.264,0,0,0,2.5.564.458.458,0,0,1,.6.254,11.855,11.855,0,0,0,2.208,3.542c1.042.95,2.739,2.683,2.4,3.618-.016.045-.03.086-.044.125-.208.608-.318.756-2.225,1.3a2.431,2.431,0,0,1-.673.1M33.9,286.454h-.009a.111.111,0,0,0-.085.049l-2.02,2.977a1.117,1.117,0,0,0,.1,1.431,12.57,12.57,0,0,0,2.455,1.873,14.373,14.373,0,0,1,1.839,1.331c1.261,1.017,2.452,1.977,3.755,1.6,1.8-.516,1.834-.613,1.993-1.081.014-.041.029-.085.045-.13.148-.415-.381-1.485-2.312-3.246a12.213,12.213,0,0,1-2.3-3.669.109.109,0,0,0-.059-.061.112.112,0,0,0-.087,0,2.614,2.614,0,0,1-2.884-.651l-.359-.391a.11.11,0,0,0-.083-.036m3.261.917h0Z" transform="translate(-18.476 -169.232)" fill="#232426"/>
    <path id="Path_1514" data-name="Path 1514" d="M41.716,299.176a3.67,3.67,0,0,1-3.9-.039c-1.5-.833-7.007-5.478-7.007-5.478l-.479.652a1.014,1.014,0,0,0,.032,1.23c1.4,1.225,5.5,4.454,7.666,5.095,3.325.984,3.683-1.46,3.683-1.46" transform="translate(-17.83 -173.7)" fill="#232426"/>
    <path id="Path_1515" data-name="Path 1515" d="M76.295,280.56l-1.4,7.612,3.155,1.574,1.789-8.282Z" transform="translate(-44.298 -165.951)" fill="#fff"/>
    <path id="Path_1516" data-name="Path 1516" d="M77.794,289.669a.174.174,0,0,1-.077-.018l-3.155-1.574a.173.173,0,0,1-.093-.186l1.4-7.612a.172.172,0,0,1,.077-.114.174.174,0,0,1,.136-.022l3.54.9a.174.174,0,0,1,.127.2l-1.79,8.282a.173.173,0,0,1-.169.136m-2.961-1.843,2.839,1.416,1.707-7.9-3.2-.817Z" transform="translate(-44.047 -165.701)" fill="#232426"/>
    <path id="Path_1517" data-name="Path 1517" d="M72.3,297.062c-.112.728-.962,2.142-.99,3.356a1.5,1.5,0,0,0,1.294,1.518,67.289,67.289,0,0,0,11.716.27,1.061,1.061,0,0,0,.928-.926c.493-2.364-3.6-2.995-8.072-4.768a.483.483,0,0,0-.512.1l-.49.466a1.671,1.671,0,0,1-1.829.318l-1.467-.65a.414.414,0,0,0-.577.319" transform="translate(-42.177 -175.366)" fill="#fff"/>
    <path id="Path_1518" data-name="Path 1518" d="M79.978,302.271a64.054,64.054,0,0,1-7.653-.414,1.674,1.674,0,0,1-1.442-1.693,7.17,7.17,0,0,1,.634-2.319,5.842,5.842,0,0,0,.359-1.059.587.587,0,0,1,.818-.451l1.467.65a1.493,1.493,0,0,0,1.64-.285l.49-.466a.659.659,0,0,1,.695-.134c1.044.414,2.048.759,3.02,1.092,3.11,1.068,5.567,1.912,5.159,3.872a1.242,1.242,0,0,1-1.084,1.064c-1.276.1-2.691.142-4.1.142m-7.523-5.64a.235.235,0,0,0-.115.03.241.241,0,0,0-.124.178,5.978,5.978,0,0,1-.38,1.135,6.813,6.813,0,0,0-.609,2.2,1.329,1.329,0,0,0,1.145,1.343,66.76,66.76,0,0,0,11.678.269.884.884,0,0,0,.772-.789c.347-1.661-1.868-2.421-4.932-3.474-.975-.335-1.983-.681-3.035-1.1a.31.31,0,0,0-.329.063l-.491.466a1.839,1.839,0,0,1-2.018.35l-1.466-.65a.241.241,0,0,0-.1-.021m-.41.181h0Z" transform="translate(-41.927 -175.116)" fill="#232426"/>
    <path id="Path_1519" data-name="Path 1519" d="M71.075,305.346s0,.123-.005.183a1.5,1.5,0,0,0,1.294,1.518,62.272,62.272,0,0,0,11.8.679,1.5,1.5,0,0,0,.938-1.2,3.094,3.094,0,0,0,.024-.606l-.291.011a84.536,84.536,0,0,1-12.436-.45Z" transform="translate(-42.037 -180.612)" fill="#232426"/>
    <path id="Path_1520" data-name="Path 1520" d="M50.146,173.213c.091.42-1.334,3.32-1.1,6.168.364,4.464.652,6.782-1.744,11.219-2.31,4.279-6.481,8.366-9.461,26.174a1.477,1.477,0,0,0,1.44,1.719l2.288.028a1.477,1.477,0,0,0,1.335-.808c1.5-2.957,6.152-11.7,7.969-14.984,2.135-3.853,8.219-13.493,8.573-18.113a107.16,107.16,0,0,0-.008-11.281.072.072,0,0,0-.069-.068Z" transform="translate(-22.37 -102.455)" fill="#9ca777"/>
    <path id="Path_1521" data-name="Path 1521" d="M84.805,170.675a40.664,40.664,0,0,1,2.172,24.85c-2.347,9.82-5.678,20.764-6.748,23.884a1.505,1.505,0,0,1-1.431,1.016l-2.5-.011a1.505,1.505,0,0,1-1.488-1.69c.643-5.185,2.624-21.967,2.48-26.026-.238-6.688-2.2-9.029-2.546-13.735a17.875,17.875,0,0,1,1.052-8.192Z" transform="translate(-44.174 -100.954)" fill="#9ca777"/>
    <path id="Path_1522" data-name="Path 1522" d="M76.306,205.985h-.013a.172.172,0,0,1-.159-.185,24.008,24.008,0,0,0-1.481-10.573,15.9,15.9,0,0,1-1.145-5.963.171.171,0,0,1,.18-.166.173.173,0,0,1,.166.18,15.406,15.406,0,0,0,1.127,5.84,24.3,24.3,0,0,1,1.5,10.708.173.173,0,0,1-.172.16" transform="translate(-43.474 -111.851)" fill="#fff"/>
    <path id="Path_1523" data-name="Path 1523" d="M56.459,82.89l.807-2.028A5.882,5.882,0,0,0,53.3,79.549c-2.17.248-4.635,2.331-4.328,6.112.159,1.964-1.495,2.946-3.062,4.411-.336.314-.69.609-1.047.9-2.576,2.1-2.13,4.36-2.13,4.36a2.539,2.539,0,0,1,.8-1.181,7.179,7.179,0,0,0,5.312,7.711c3.113.695,6.956-1.323,7.8-3.694.823-2.3.262-5.635-.848-8.171S54,84.056,56.459,82.89" transform="translate(-25.258 -47.038)" fill="#232426"/>
    <path id="Path_1524" data-name="Path 1524" d="M130.348,106.973l-7.742.173,2.784-9.43,7.742-.173Z" transform="translate(-72.521 -57.696)" fill="#ff9d00"/>
    <path id="Path_1525" data-name="Path 1525" d="M122.356,107.069a.173.173,0,0,1-.166-.222l2.784-9.431a.173.173,0,0,1,.162-.124l7.742-.173a.164.164,0,0,1,.141.068.173.173,0,0,1,.028.154l-2.784,9.431a.173.173,0,0,1-.162.124l-7.742.173Zm7.742-.346h0Zm-4.828-9.088-2.681,9.082,7.38-.165,2.681-9.082Z" transform="translate(-72.271 -57.446)" fill="#232426"/>
    <path id="Path_1526" data-name="Path 1526" d="M130.335,113.346h-2.4l.663-2.19H131Z" transform="translate(-75.675 -65.749)" fill="#232426"/>
    <path id="Path_1527" data-name="Path 1527" d="M136.358,101.91h-4.342a.173.173,0,1,1,0-.346h4.342a.173.173,0,0,1,0,.346" transform="translate(-77.985 -60.075)" fill="#232426"/>
    <path id="Path_1528" data-name="Path 1528" d="M134.957,105.422h-3.425a.173.173,0,0,1,0-.346h3.425a.173.173,0,0,1,0,.346" transform="translate(-77.699 -62.152)" fill="#232426"/>
    <path id="Path_1529" data-name="Path 1529" d="M98.193,113.143a16.67,16.67,0,0,0,4,3.423c1.846.884,3.39,1.071,5.205-.746s3.561-3.457,3.834-4.291.38-2.545.948-3.116a6.212,6.212,0,0,0,1.159-1.382c.22-.422.427-.813.813-.711.435.114.527.929-.123,1.787-.632.835-.177,1.241.24,1.152.752-.161.856-.607.868-1.156.013-.621-.553-1.273-.2-1.542,1.185-.907,1.78,2.475,1.759,2.856-.05.9-1.123,1.461-1.875,1.873a6.174,6.174,0,0,0-1.98,1.589c-.5.66-4.061,7.788-6.984,9.248-3.372,1.684-10.327-3.349-12-4.39-1.488-.925,3.411-5.6,4.338-4.595" transform="translate(-55.35 -62.878)" fill="#fff"/>
    <path id="Path_1530" data-name="Path 1530" d="M103.987,122.389c-3.21,0-7.664-2.921-9.761-4.3-.291-.191-.533-.349-.712-.461a.782.782,0,0,1-.352-.824c.166-1.356,2.583-3.7,3.976-4.152.525-.17.8-.029.933.117a15.619,15.619,0,0,0,3.949,3.384c1.794.859,3.257,1.04,5.008-.712.255-.255.508-.506.757-.752,1.447-1.436,2.814-2.793,3.035-3.469a9.487,9.487,0,0,0,.232-1.018,4.688,4.688,0,0,1,.758-2.167,6.13,6.13,0,0,0,1.128-1.34c.229-.439.489-.935,1.01-.8a.615.615,0,0,1,.42.418.98.98,0,0,1,.038.145.439.439,0,0,1,.177-.292.718.718,0,0,1,.819-.107c.883.467,1.232,2.854,1.217,3.11-.055.969-1.126,1.556-1.909,1.985l-.056.031a5.9,5.9,0,0,0-1.926,1.542c-.09.119-.314.512-.6,1.009-1.313,2.3-4.045,7.09-6.447,8.29a3.764,3.764,0,0,1-1.7.359m-6.412-9.466a1.134,1.134,0,0,0-.331.062c-1.261.407-3.592,2.67-3.738,3.865a.439.439,0,0,0,.191.488c.182.113.426.273.72.466,2.241,1.47,8.194,5.373,11.112,3.916,2.308-1.153,5.107-6.057,6.3-8.152.312-.547.518-.909.622-1.046a6.234,6.234,0,0,1,2.036-1.637l.056-.031c.711-.39,1.686-.923,1.73-1.7.019-.337-.386-2.442-1.034-2.785a.378.378,0,0,0-.447.076c-.1.073-.034.266.078.574a2.342,2.342,0,0,1,.191.834,1.16,1.16,0,0,1-1,1.321.621.621,0,0,1-.667-.255c-.108-.17-.219-.547.253-1.171a1.551,1.551,0,0,0,.4-1.319.286.286,0,0,0-.181-.2c-.231-.06-.371.155-.616.625a6.346,6.346,0,0,1-1.19,1.424,4.587,4.587,0,0,0-.663,1.989,9.573,9.573,0,0,1-.243,1.058c-.247.757-1.578,2.078-3.12,3.608-.248.246-.5.5-.755.752-1.889,1.89-3.525,1.679-5.4.779a15.879,15.879,0,0,1-4.053-3.461.318.318,0,0,0-.241-.085m16.845-6.181a2.309,2.309,0,0,1-.5,1.217c-.249.329-.337.619-.237.777a.283.283,0,0,0,.3.1c.6-.128.719-.434.731-.99a2.051,2.051,0,0,0-.17-.708,3.046,3.046,0,0,1-.125-.4" transform="translate(-55.1 -62.626)" fill="#232426"/>
    <path id="Path_1531" data-name="Path 1531" d="M37.9,145.572c-.105.215.045.679,0,.859-.181.657-1.292,1.481-2.1,2.007a2.588,2.588,0,0,0-1.161,1.862c-.021.18-.034.376-.048.588a.878.878,0,0,1-.442.829.68.68,0,0,1-.944-.641,13.174,13.174,0,0,1,.455-4.019,5.917,5.917,0,0,1,1.619-1.554,2.828,2.828,0,0,0,1.141-1.982c.3-2.737,2.665-14.266,8.265-21.789l1.3,7.282S41.8,137.608,37.9,145.572" transform="translate(-19.637 -72.005)" fill="#fff"/>
    <path id="Path_1532" data-name="Path 1532" d="M33.627,151.7a.827.827,0,0,1-.446-.132.872.872,0,0,1-.405-.742,12.95,12.95,0,0,1,.475-4.1,5.737,5.737,0,0,1,1.67-1.613,2.662,2.662,0,0,0,1.071-1.861c.275-2.5,2.618-14.242,8.3-21.873a.173.173,0,0,1,.309.073l1.3,7.282a.172.172,0,0,1-.015.106c-.042.086-4.218,8.685-8.077,16.558a1.077,1.077,0,0,0,0,.422,1.161,1.161,0,0,1,0,.407c-.154.559-.885,1.268-2.173,2.106a2.407,2.407,0,0,0-1.084,1.738c-.021.177-.034.375-.047.578a1.048,1.048,0,0,1-.541.975.8.8,0,0,1-.339.076m10.7-29.789c-5.461,7.574-7.724,18.935-7.994,21.38a3.007,3.007,0,0,1-1.211,2.1,5.561,5.561,0,0,0-1.567,1.494,11.749,11.749,0,0,0-.435,3.94.527.527,0,0,0,.246.449.461.461,0,0,0,.452.035c.2-.1.32-.326.342-.683.013-.209.027-.412.049-.6a2.749,2.749,0,0,1,1.239-1.987c1.181-.768,1.9-1.446,2.027-1.908a1.2,1.2,0,0,0-.015-.275,1.172,1.172,0,0,1,.031-.614c3.7-7.558,7.7-15.785,8.052-16.507Zm-6.679,23.411h0Z" transform="translate(-19.386 -71.755)" fill="#232426"/>
    <path id="Path_1533" data-name="Path 1533" d="M81.763,118.936a23.893,23.893,0,0,1-5.105-3.831,7.993,7.993,0,0,0-4.535-2.183c-3.688-.473-8.34-.007-10.671,1.532a5.146,5.146,0,0,0-1.886,6.468c.317.724,1.521,3.749,1.835,4.629,1.953,5.469,1.071,9.753.594,13.392a1.03,1.03,0,0,0,.744,1.1c2.549.811,5.576,1.358,13.785-.638a.892.892,0,0,0,.629-1.159c-2.127-6.172-.551-9.344.16-12.693l1.136.49a1.39,1.39,0,0,0,1.251-.4,8.733,8.733,0,0,0,1.975-2.673c.884-1.764,1.016-3.54.089-4.035" transform="translate(-34.967 -66.689)" fill="#fff"/>
    <path id="Path_1534" data-name="Path 1534" d="M67.138,140.715a14.4,14.4,0,0,1-4.712-.747,1.2,1.2,0,0,1-.863-1.291c.045-.345.094-.7.144-1.054.48-3.444,1.024-7.347-.73-12.257-.316-.886-1.518-3.905-1.83-4.618a5.3,5.3,0,0,1,1.949-6.682c2.451-1.618,7.283-2.009,10.789-1.559a8.218,8.218,0,0,1,4.633,2.23,23.731,23.731,0,0,0,5.067,3.8c.969.518.963,2.312-.016,4.264a8.938,8.938,0,0,1-2.013,2.724,1.546,1.546,0,0,1-1.406.444l-.029-.01-.943-.407c-.111.5-.237.985-.369,1.5a16.319,16.319,0,0,0,.248,10.9,1.073,1.073,0,0,1-.073.862,1.062,1.062,0,0,1-.678.521,39.75,39.75,0,0,1-9.168,1.383m1.876-28.037c-2.877,0-5.954.507-7.728,1.677a4.957,4.957,0,0,0-1.823,6.254c.314.716,1.522,3.75,1.839,4.641,1.782,4.99,1.232,8.938.747,12.42-.049.357-.1.707-.144,1.051a.854.854,0,0,0,.625.916c2.524.8,5.47,1.358,13.693-.642a.7.7,0,0,0,.456-.351.725.725,0,0,0,.049-.583,16.812,16.812,0,0,1-.256-11.095c.15-.58.291-1.128.411-1.69a.173.173,0,0,1,.089-.118.176.176,0,0,1,.148-.005l1.121.484a1.245,1.245,0,0,0,1.081-.366,8.609,8.609,0,0,0,1.936-2.622c.877-1.75.947-3.386.162-3.8a24.076,24.076,0,0,1-5.144-3.859,7.865,7.865,0,0,0-4.437-2.135,22.469,22.469,0,0,0-2.827-.173" transform="translate(-34.707 -66.445)" fill="#232426"/>
    <path id="Path_1535" data-name="Path 1535" d="M82.58,82.557a1.18,1.18,0,0,0-.127-1,4.65,4.65,0,0,0-4.2-2.377c-3.216.241-4.331,1.735-4.835,4.3-.355,1.8.371,4.467,1.657,5.14a3.32,3.32,0,0,0,3.434-.25l3.9-5.27Z" transform="translate(-43.372 -46.83)" fill="#232426"/>
    <path id="Path_1536" data-name="Path 1536" d="M83.741,86.828a4.17,4.17,0,0,1,.09,1.927,2.182,2.182,0,0,0,.59,1.747.193.193,0,0,1-.053.3L83.974,91a.473.473,0,0,0-.252.386,6.591,6.591,0,0,1-.417,2.208c-.415.531-2.155-.057-2.529-.171-.038-.012,0,4.046,0,4.046a1.987,1.987,0,0,1-.634,1.608c-.976.844-4.347.916-4.581-.488a2.384,2.384,0,0,1,.353-.995A5.412,5.412,0,0,0,76.746,96a12.674,12.674,0,0,0,.02-2.791,2.449,2.449,0,0,0,1.618-.781c.71-.693,1.137-1.636.962-1.942-.4-.7-.659-1.377-.083-1.9a.883.883,0,0,1,1.341.206c.348.417,1.879.163,2.538-.987s.6-.974.6-.974" transform="translate(-44.695 -51.353)" fill="#fff"/>
    <path id="Path_1537" data-name="Path 1537" d="M77.6,99.582a4.36,4.36,0,0,1-1.44-.219,1.382,1.382,0,0,1-1.017-1.018,2.441,2.441,0,0,1,.373-1.109c.083-.144.179-.292.273-.437a3.118,3.118,0,0,0,.536-1.095,12.586,12.586,0,0,0,.019-2.747.173.173,0,0,1,.044-.136.183.183,0,0,1,.132-.056,2.27,2.27,0,0,0,1.492-.732c.713-.7,1.036-1.552.933-1.733-.421-.739-.718-1.506-.049-2.115a.958.958,0,0,1,.725-.28,1.341,1.341,0,0,1,.865.5.7.7,0,0,0,.567.12,2.261,2.261,0,0,0,1.688-1.082c.65-1.133.652-1.131.821-1.055a.179.179,0,0,1,.1.134,4.26,4.26,0,0,1,.086,2.009,2.006,2.006,0,0,0,.551,1.582.366.366,0,0,1-.1.572l-.4.2a.294.294,0,0,0-.156.243,6.449,6.449,0,0,1-.454,2.3c-.393.5-1.524.252-2.505-.047-.011.621,0,2.512.015,3.813a2.155,2.155,0,0,1-.693,1.741,4.035,4.035,0,0,1-2.406.646m-.9-6.486a12.468,12.468,0,0,1-.038,2.658,3.338,3.338,0,0,1-.589,1.234c-.1.147-.185.285-.263.42a2.442,2.442,0,0,0-.331.887c.067.4.468.626.793.743a4.4,4.4,0,0,0,3.5-.363,1.812,1.812,0,0,0,.574-1.481c-.041-4.1-.029-4.109.067-4.181a.173.173,0,0,1,.154-.027l.091.028c1.685.526,2.134.352,2.252.2A6.042,6.042,0,0,0,83.3,91.1a.642.642,0,0,1,.344-.527l.4-.2a.017.017,0,0,0,.007-.013,2.359,2.359,0,0,1-.633-1.928,3.4,3.4,0,0,0,0-1.453c-.084.14-.2.342-.369.633a2.587,2.587,0,0,1-1.958,1.254,1,1,0,0,1-.862-.243,1,1,0,0,0-.623-.38.617.617,0,0,0-.468.191c-.463.422-.3.959.117,1.688.255.448-.318,1.493-.992,2.152a2.8,2.8,0,0,1-1.549.816" transform="translate(-44.446 -51.084)" fill="#232426"/>
    <path id="Path_1538" data-name="Path 1538" d="M84.815,95c-.524,0-.967-.389-1.24-1.1a.173.173,0,1,1,.323-.123c.147.384.485,1.006,1.1.86a.173.173,0,1,1,.08.336,1.14,1.14,0,0,1-.266.032" transform="translate(-49.428 -55.398)" fill="#232426"/>
    <path id="Path_1539" data-name="Path 1539" d="M77.6,118.583s.277-5.023,4.587-6.391a2.888,2.888,0,0,1,2.345.2l1.825,1.2a6.009,6.009,0,0,0-7.249,5.637Z" transform="translate(-45.899 -66.271)" fill="#fff"/>
    <path id="Path_1540" data-name="Path 1540" d="M78.854,119.153a.174.174,0,0,1-.068-.014l-1.508-.646a.174.174,0,0,1-.1-.168c0-.052.334-5.159,4.707-6.547a3.069,3.069,0,0,1,2.493.222l1.824,1.2a.173.173,0,0,1-.128.314,6.7,6.7,0,0,0-4.7.972A6.243,6.243,0,0,0,79.026,119a.173.173,0,0,1-.085.128.174.174,0,0,1-.086.023m-1.325-.929,1.184.508a6.462,6.462,0,0,1,2.452-4.529A6.656,6.656,0,0,1,85.4,113.09l-1.219-.8a2.708,2.708,0,0,0-2.2-.181c-3.784,1.2-4.378,5.357-4.456,6.116" transform="translate(-45.648 -66.022)" fill="#232426"/>
    <path id="Path_1541" data-name="Path 1541" d="M73.048,110.793s-2.031,2.054-1.522,6.617l-1.835.026s-.074-3.843.749-5.406a2.519,2.519,0,0,1,2.607-1.237" transform="translate(-41.221 -65.517)" fill="#fff"/>
    <path id="Path_1542" data-name="Path 1542" d="M69.441,117.363a.173.173,0,0,1-.173-.17c0-.158-.065-3.905.769-5.491a2.713,2.713,0,0,1,2.79-1.326.173.173,0,0,1,.092.292c-.02.02-1.966,2.06-1.473,6.476a.173.173,0,0,1-.169.192l-1.834.026Zm2.947-6.674a2.214,2.214,0,0,0-2.045,1.175c-.7,1.322-.733,4.391-.731,5.151l1.471-.021c-.354-3.608.851-5.622,1.368-6.3h-.064" transform="translate(-40.971 -65.271)" fill="#232426"/>
    <path id="Path_1543" data-name="Path 1543" d="M67.661,121.133a4.544,4.544,0,0,1-.549-2.268,2.06,2.06,0,0,1,3-1.167c2.17,1.155.3,3.847.3,3.847H69.233a4.346,4.346,0,0,0,.5-2.222.651.651,0,0,0-1.266.3,6.11,6.11,0,0,0,.523,1.924Z" transform="translate(-39.681 -69.456)" fill="#fff"/>
    <path id="Path_1544" data-name="Path 1544" d="M68.744,121.467a.182.182,0,0,1-.051-.008l-1.332-.411a.172.172,0,0,1-.1-.085,4.643,4.643,0,0,1-.565-2.382,2.071,2.071,0,0,1,1.164-1.364,2.277,2.277,0,0,1,2.091.077,2,2,0,0,1,1.081,1.315,4.059,4.059,0,0,1-.719,2.783.173.173,0,0,1-.142.074H68.984a.173.173,0,0,0-.24,0m.092-2.687a.482.482,0,0,0-.06,0c-.247.031-.387.244-.383.585a5.629,5.629,0,0,0,.472,1.773,3.943,3.943,0,0,0,.452-2.028.49.49,0,0,0-.482-.333m.419,2.341h.82a3.631,3.631,0,0,0,.618-2.431,1.674,1.674,0,0,0-.907-1.09,1.941,1.941,0,0,0-1.781-.07,1.741,1.741,0,0,0-.973,1.118,4.178,4.178,0,0,0,.5,2.092l.91.281a5.306,5.306,0,0,1-.4-1.647.82.82,0,0,1,.685-.932.842.842,0,0,1,.921.591,3.888,3.888,0,0,1-.4,2.089" transform="translate(-39.431 -69.205)" fill="#232426"/>
    <path id="Path_1545" data-name="Path 1545" d="M65.506,145.293l-5.87-3.55a1.975,1.975,0,0,1-1.574-1.934l-2.892-8.056c.337-2.679-.234-4.684,3.8-6.2,1.348-.506,4.726-.172,6.123.117l.405.084a5.845,5.845,0,0,1,4.659,5.723V141.5a1.965,1.965,0,0,1-.728,1.532,14.739,14.739,0,0,1-3.924,2.262" transform="translate(-32.634 -74.11)" fill="#fff"/>
    <path id="Path_1546" data-name="Path 1546" d="M65.256,145.219a.173.173,0,0,1-.089-.025l-5.845-3.535a2.157,2.157,0,0,1-1.682-2.066l-2.882-8.028a.178.178,0,0,1-.009-.08c.052-.413.082-.81.112-1.194.162-2.139.29-3.827,3.8-5.145,1.348-.506,4.714-.2,6.219.11l.406.084a6.042,6.042,0,0,1,4.8,5.893v10.02a2.139,2.139,0,0,1-.792,1.666,15.015,15.015,0,0,1-3.992,2.3.16.16,0,0,1-.042.005M55.1,131.486l2.878,8.017a.178.178,0,0,1,.01.058,1.809,1.809,0,0,0,1.436,1.764.178.178,0,0,1,.054.022l5.807,3.512a15.059,15.059,0,0,0,3.788-2.21,1.8,1.8,0,0,0,.665-1.4v-10.02a5.7,5.7,0,0,0-4.52-5.554l-.406-.084c-1.47-.305-4.741-.607-6.027-.125-3.3,1.24-3.419,2.753-3.578,4.847-.029.376-.058.764-.108,1.17" transform="translate(-32.383 -73.863)" fill="#232426"/>
    <path id="Path_1547" data-name="Path 1547" d="M64.317,147.255l-8.146-1.69a1.975,1.975,0,0,1-1.574-1.934v-8.414c0-7.466,2.423-6.923,6.165-6.38l1.087.169c2.713.563,4.844.156,4.844,6.3v10.02a1.975,1.975,0,0,1-2.376,1.934" transform="translate(-32.294 -76.04)" fill="#fff"/>
    <path id="Path_1548" data-name="Path 1548" d="M64.47,147.223a2.169,2.169,0,0,1-.439-.045l-8.147-1.69a2.157,2.157,0,0,1-1.712-2.1V134.97c0-3.348.47-5.248,1.525-6.159,1.088-.94,2.7-.7,4.565-.432l.274.04,1.088.17c.309.064.6.114.888.163,2.292.393,4.1.7,4.1,6.3v10.02a2.149,2.149,0,0,1-2.145,2.149m-6.6-18.743a2.844,2.844,0,0,0-1.951.593c-.958.828-1.4,2.7-1.4,5.9v8.414a1.81,1.81,0,0,0,1.436,1.765l8.147,1.69a1.8,1.8,0,0,0,2.168-1.765v-10.02c0-5.307-1.6-5.582-3.815-5.962-.288-.05-.585-.1-.891-.164l-1.35-.208a17.057,17.057,0,0,0-2.338-.241" transform="translate(-32.043 -75.793)" fill="#232426"/>
    <path id="Path_1549" data-name="Path 1549" d="M52.3,150.646l-1.584,1.118,1.819,5.585a1.625,1.625,0,0,0,1.295,1.591l5.11,2.49a2.253,2.253,0,0,0,1.172-.3,8.907,8.907,0,0,0,1.152-.812A2.977,2.977,0,0,0,62.49,158.2l.034-4.59a1.3,1.3,0,0,0-1.065-1.279Z" transform="translate(-30 -89.107)" fill="#fff"/>
    <path id="Path_1550" data-name="Path 1550" d="M58.774,161.357a.617.617,0,0,1-.118-.009.175.175,0,0,1-.04-.014l-5.091-2.48a1.806,1.806,0,0,1-1.411-1.728l-1.81-5.559a.172.172,0,0,1,.065-.195l1.585-1.118a.175.175,0,0,1,.131-.029l9.156,1.687a1.474,1.474,0,0,1,1.207,1.45l-.034,4.592a3.159,3.159,0,0,1-1.291,2.247l-.072.057a8.35,8.35,0,0,1-1.1.77,2.612,2.612,0,0,1-1.172.329m-.033-.346a2.221,2.221,0,0,0,1.039-.287,8.089,8.089,0,0,0,1.053-.737l.077-.06a2.851,2.851,0,0,0,1.156-1.975l.034-4.592a1.128,1.128,0,0,0-.924-1.108l-9.084-1.674-1.421,1,1.779,5.463a.185.185,0,0,1,.008.054,1.458,1.458,0,0,0,1.157,1.422.178.178,0,0,1,.041.014Z" transform="translate(-29.749 -88.857)" fill="#232426"/>
    <path id="Path_1551" data-name="Path 1551" d="M49.744,153.912v5.826a1.689,1.689,0,0,0,1.347,1.654l6.971,1.446a1.689,1.689,0,0,0,2.033-1.654v-5.34a.976.976,0,0,0-.779-.956l-8.583-1.781a.822.822,0,0,0-.989.8" transform="translate(-29.424 -90.553)" fill="#fff"/>
    <path id="Path_1552" data-name="Path 1552" d="M58.157,162.8a1.887,1.887,0,0,1-.381-.039l-6.971-1.446a1.87,1.87,0,0,1-1.484-1.824v-5.826a.994.994,0,0,1,1.2-.974l8.584,1.781a1.155,1.155,0,0,1,.917,1.126v5.339a1.864,1.864,0,0,1-1.86,1.863m-7.843-9.784a.649.649,0,0,0-.648.649v5.826a1.523,1.523,0,0,0,1.209,1.486l6.971,1.446a1.517,1.517,0,0,0,1.825-1.485v-5.339a.808.808,0,0,0-.641-.787l-8.584-1.781a.658.658,0,0,0-.132-.013" transform="translate(-29.173 -90.302)" fill="#232426"/>
  </g>
</svg>
